<?xml version="1.0" encoding="UTF-8" standalone="no"?>
<svg xmlns:rdf="http://www.w3.org/1999/02/22-rdf-syntax-ns#" xmlns="http://www.w3.org/2000/svg" xmlns:osb="http://www.openswatchbook.org/uri/2009/osb" height="192" width="192" version="1.1" xmlns:cc="http://creativecommons.org/ns#" viewBox="0 0 192 192" xmlns:dc="http://purl.org/dc/elements/1.1/">
<g transform="translate(0 -860.4)">
<path d="m150 874.2-22.77 0.9281-4.504-4.504c-6.458-6.458-17.34-5.974-24.4 1.085l-86.82 86.9c-7.059 7.059-7.543 17.94-1.085 24.4l4.123 4.123-0.9602 23.56 28.43 28.43 23.56-0.9603 4.123 4.123c6.458 6.458 17.34 5.974 24.4-1.085l86.83-86.83c7.059-7.059 7.543-17.94 1.085-24.4l-4.504-4.504 0.9281-22.77-28.43-28.43zm1.887 8.741 17.8 17.8c1.452 1.452 1.453 3.788 0.001 5.24l-1.613 1.613c-1.452 1.452-3.79 1.452-5.242 0l-17.8-17.8c-1.452-1.452-1.452-3.79 0-5.242l1.613-1.613c1.452-1.452 3.788-1.45 5.24 0.001zm-30.46-3.788 52.05 52.05c6.458 6.458 5.974 17.34-1.085 24.4l-77 77c-7.059 7.059-17.94 7.542-24.4 1.085l-51.97-52.3c-6.458-6.458-5.974-17.34 1.085-24.4l77-77c7.059-7.059 17.94-7.543 24.4-1.085zm-1.95 1.983c-5.667-5.667-15.22-5.242-21.41 0.9518l-76.19 76.19c-6.194 6.194-6.618 15.74-0.9519 21.41l52.02 52.02c5.667 5.666 15.22 5.242 21.41-0.9519l76.22-76.4c6.194-6.194 6.618-15.74 0.9519-21.41l-52.02-52.02zm-90.3 124.5 17.8 17.8c1.452 1.452 1.452 3.79-0.000031 5.242l-1.613 1.613c-1.452 1.452-3.788 1.45-5.24 0l-17.75-18c-1.452-1.452-1.453-3.788-0.0014-5.24l1.613-1.613c1.452-1.452 3.79-1.452 5.242 0z"/>
</g>
</svg>
