<?xml version="1.0" encoding="UTF-8" standalone="no"?>
<svg xmlns:rdf="http://www.w3.org/1999/02/22-rdf-syntax-ns#" xmlns="http://www.w3.org/2000/svg" height="192" width="192" version="1.1" xmlns:cc="http://creativecommons.org/ns#" xmlns:dc="http://purl.org/dc/elements/1.1/" viewBox="0 0 192 192">
<g transform="translate(0 -860.4)">
<path d="m161.1 79.99l-130.1 0.13c5.69 21.28 23.88 43.18 50.81 50.38h28.39c25.2-6.8 44.5-27.3 50.9-50.51zm-88.78 23.51a5.092 5.092 0 0 1 1.86 0.2 5.092 5.092 0 0 1 3.14 6.5 5.092 5.092 0 0 1 -6.47 3.2 5.092 5.092 0 0 1 -3.15 -6.5 5.092 5.092 0 0 1 4.62 -3.4zm23.74 0a5.092 5.092 0 0 1 1.86 0.2 5.092 5.092 0 0 1 3.18 6.5 5.092 5.092 0 0 1 -6.52 3.2 5.092 5.092 0 0 1 -3.14 -6.5 5.092 5.092 0 0 1 4.62 -3.4zm23.74 0a5.092 5.092 0 0 1 1.9 0.2 5.092 5.092 0 0 1 3.1 6.5 5.092 5.092 0 0 1 -6.5 3.2 5.092 5.092 0 0 1 -3.1 -6.5 5.092 5.092 0 0 1 4.6 -3.4zm-35.61 12.6a5.092 5.092 0 0 1 1.86 0.3 5.092 5.092 0 0 1 3.14 6.4 5.092 5.092 0 0 1 -6.48 3.2 5.092 5.092 0 0 1 -3.14 -6.5 5.092 5.092 0 0 1 4.62 -3.4zm23.71 0a5.092 5.092 0 0 1 1.9 0.3 5.092 5.092 0 0 1 3.1 6.4 5.092 5.092 0 0 1 -6.4 3.2 5.092 5.092 0 0 1 -3.2 -6.5 5.092 5.092 0 0 1 4.6 -3.4z" transform="translate(0 860.4)"/>
<path d="m30.97 80.12c0.6091 2.273 1.369 4.552 2.258 6.818h0.03906v-6.818h-2.297z" transform="translate(0 860.4)"/>
<g transform="matrix(.9449 .3273 -.3273 .9449 311.9 42.42)">
<path d="m21.31 942.4a5.092 5.092 0 0 1 -5.092 5.092 5.092 5.092 0 0 1 -5.092 -5.092 5.092 5.092 0 0 1 5.092 -5.092 5.092 5.092 0 0 1 5.092 5.092z"/>
<path d="m21.97 940.3a5.092 5.092 0 0 1 0.5355 2.268 5.092 5.092 0 0 1 -0.5435 2.28l-0.000567 0.004 9.979-0.00054-3.075-4.332-6.895-0.2202z"/>
</g>
<g transform="matrix(-.9449 .3273 .3273 .9449 -119.7 42.42)">
<path d="m14.37 937.7a5.092 5.092 0 0 1 1.844 -0.3452 5.092 5.092 0 0 1 5.094 5.092 5.092 5.092 0 0 1 -5.093 5.092 5.092 5.092 0 0 1 -5.092 -5.092 5.092 5.092 0 0 1 3.247 -4.746zm7.599 2.593 6.895 0.2202 3.075 4.332-9.979 0.00055 0.000564-0.004a5.092 5.092 0 0 0 0.5435 -2.28 5.092 5.092 0 0 0 -0.5355 -2.268z"/>
</g>
</g>
</svg>
