<svg xmlns="http://www.w3.org/2000/svg" xmlns:xlink="http://www.w3.org/1999/xlink" width="192" height="192" viewBox="0 0 192 192"><defs><pattern xlink:href="#a" id="b" patternTransform="rotate(-45) scale(5.56272)"/><pattern id="a" patternTransform="scale(10)" height="1" width="2" patternUnits="userSpaceOnUse"><path d="M0-.5h1v2H0z"/></pattern></defs><path d="M117.089 74.8674c-25.5608-25.562-67.004-25.5628-92.566-.0018-25.5627 25.5616-25.5627 67.0063 0 92.568 25.562 25.5608 67.0052 25.56 92.566-.002 25.5603-25.561 25.5603-67.003 0-92.5642zm-13.274 13.2703c18.2142 18.2142 18.216 47.8076.002 66.0218-18.2143 18.214-47.8077 18.2122-66.0218-.002-18.2142-18.214-18.2142-47.8056 0-66.0198 18.214-18.214 47.8056-18.214 66.0198 0z" fill-opacity=".9961"/><path d="M123.3963 68.5584l-10.142 10.142" fill="none" stroke="#000" stroke-width="6.7496" stroke-linecap="round"/><path d="M183.0385 9.423s-3.1627-3.119-5.2236-3.5354c-3.6763-.7427-3.9438-1.064-11.0368 2.1952-7.093 3.259-34.971 36.3292-46.2746 51.4786-5.0684 6.7928 2.1647 10.2318 2.1647 10.2318l45.9635-45.9636c-2.1445-2.4405-2.0275-6.1264.2676-8.426 2.2993-2.297 5.9867-2.415 8.4282-.2698z" fill-opacity=".9961" fill-rule="evenodd"/><path d="M182.6224 9.0068s3.119 3.1627 3.5353 5.2236c.7427 3.6763 1.064 3.9437-2.195 11.0367-3.2593 7.0932-36.3294 34.971-51.4788 46.2748-6.7928 5.0683-10.2318-2.1647-10.2318-2.1647l45.9635-45.9635c2.4406 2.1445 6.1264 2.0275 8.426-.2676 2.297-2.2993 2.415-5.9868.2698-8.4283z" fill-opacity=".9961" fill-rule="evenodd"/><path d="M66.183 167.4625c-16.0382-1.5444-30.4818-11.7268-37.4034-26.3685-9.1223-19.2968-4.0658-42.1104 12.365-55.7872 14.0404-11.6872 33.9583-13.991 50.3427-5.8228 9.4098 4.691 16.6148 11.9823 21.172 21.4254 6.242 12.9344 6.2412 27.513-.002 40.4682-8.4932 17.624-26.9223 27.9677-46.4743 26.085z" fill="url(#b)"/></svg>