<?xml version="1.0" encoding="UTF-8" standalone="no"?>
<svg xmlns:rdf="http://www.w3.org/1999/02/22-rdf-syntax-ns#" xmlns="http://www.w3.org/2000/svg" height="192" width="192" version="1.1" xmlns:cc="http://creativecommons.org/ns#" xmlns:dc="http://purl.org/dc/elements/1.1/" viewBox="0 0 192 192">
<g transform="translate(0 -860.4)">
<g transform="translate(6.843 1.588)">
<path d="m81.85 5.324v5.426s0 0.0625-7.098 0.03125c-2.812-0.01238-1.505 5.892 0 8.156 0.9966 1.5 4.98 2.094 4.98 2.094s-0.1602 4.003-0.2988 9.24c-23.83-11.65-29.77 8.83-20.36 46.65-2.42 2.74-4.07 5.7-4.07 9.39v14.19c0 14.19 17.12 83 17.12 83h17.12 17.12s17.12-68.81 17.12-83v-14.19c0-12.15-24.24-17.51-24.24-38.19 0-20.67-1.011-17.25 1.895-25.09 0.9654-2.607 5.779-6.187 9.668-6.721 1.842-0.2528 7.127-5.561 1.764-5.561h-16.69v-5.426zm-13.34 29.57c2.7 0.06831 6.402 1.995 10.78 4.92-0.02254 2.571-0.05078 4.928-0.05078 8.316 0 9.731-5.49 15.62-11.24 20.67-6.492-25.46-5.332-34.05 0.5156-33.9z" transform="translate(0 860.4)"/>
</g>
</g>
</svg>
