<?xml version="1.0" encoding="UTF-8" standalone="no"?>
<svg xmlns:rdf="http://www.w3.org/1999/02/22-rdf-syntax-ns#" xmlns="http://www.w3.org/2000/svg" height="192" width="192" version="1.1" xmlns:cc="http://creativecommons.org/ns#" xmlns:dc="http://purl.org/dc/elements/1.1/" viewBox="0 0 192.00001 192">
<g transform="translate(0 -860)">
<path d="m21.5 8.86c-6.6 0-12 5.34-12 12l0.02 150c0 7 5.38 12 12 12h150c6 0 11-5 11-12v-150c0-6.8-5-12.1-12-12.1l-150-0.04zm36 8.44a10.3 10.3 0 0 1 10.4 10.3 10.3 10.3 0 0 1 -10.4 10.3 10.3 10.3 0 0 1 -10.3 -10.3 10.3 10.3 0 0 1 10.3 -10.3zm38.5 0a10.3 10.3 0 0 1 10 10.3 10.3 10.3 0 0 1 -10 10.3 10.3 10.3 0 0 1 -10.3 -10.3 10.3 10.3 0 0 1 10.3 -10.3zm38 0a10.3 10.3 0 0 1 11 10.3 10.3 10.3 0 0 1 -11 10.3 10.3 10.3 0 0 1 -10 -10.3 10.3 10.3 0 0 1 10 -10.3zm-96.7 29h118c6 0 12 2.2 12 5 0 2.7-6 4.9-12 4.9h-118c-6.4 0-11.7-2.2-11.7-4.9 0-2.8 5.3-5 12-5zm-3.2 20.5h124c7 0 12 4.5 12 9.9v87.3c0 6-5 10-12 10h-124c-6.6 0-11.9-4-11.9-10v-87.3c0-5.4 5.3-9.9 12-9.9zm23.9 18.4s-12.3 18.8-13.3 24.8c-1.4 9 9.2 15 11.6 24 1.9 7 1.7 22 1.7 22s12.1-16 13.2-22c1.8-9-8.5-13-11.3-24-2.7-11.5-1.9-24.8-1.9-24.8zm38 0s-12.3 18.8-13.3 24.8c-1.4 9 9.2 15 11.6 24 1.9 7 1.7 22 1.7 22s12-16 13-22c2-9-8-13-11.1-24-2.7-11.5-1.9-24.8-1.9-24.8zm38 0s-12 18.8-13 24.8c-2 9 9 15 11 24 2 7 2 22 2 22s12-16 13-22c2-9-8-13-11-24-3-11.5-2-24.8-2-24.8z" transform="translate(0 860)"/>
</g>
</svg>
