<?xml version="1.0" encoding="UTF-8" standalone="no"?>
<!-- Created with Inkscape (http://www.inkscape.org/) -->

<svg
   xmlns:dc="http://purl.org/dc/elements/1.1/"
   xmlns:cc="http://creativecommons.org/ns#"
   xmlns:rdf="http://www.w3.org/1999/02/22-rdf-syntax-ns#"
   xmlns:svg="http://www.w3.org/2000/svg"
   xmlns="http://www.w3.org/2000/svg"
   xmlns:sodipodi="http://sodipodi.sourceforge.net/DTD/sodipodi-0.dtd"
   xmlns:inkscape="http://www.inkscape.org/namespaces/inkscape"
   width="12.006917mm"
   height="12.006811mm"
   viewBox="0 0 42.544194 42.543819"
   id="svg5987"
   version="1.1"
   inkscape:version="0.91 r13725"
   sodipodi:docname="pan.svg">
  <defs
     id="defs5989" />
  <sodipodi:namedview
     id="base"
     pagecolor="#ffffff"
     bordercolor="#666666"
     borderopacity="1.0"
     inkscape:pageopacity="0.0"
     inkscape:pageshadow="2"
     inkscape:zoom="2.8"
     inkscape:cx="108.74641"
     inkscape:cy="-79.530817"
     inkscape:document-units="px"
     inkscape:current-layer="layer1"
     showgrid="false"
     fit-margin-top="0"
     fit-margin-left="0"
     fit-margin-right="0"
     fit-margin-bottom="0"
     inkscape:window-width="1916"
     inkscape:window-height="1032"
     inkscape:window-x="0"
     inkscape:window-y="22"
     inkscape:window-maximized="0" />
  <metadata
     id="metadata5992">
    <rdf:RDF>
      <cc:Work
         rdf:about="">
        <dc:format>image/svg+xml</dc:format>
        <dc:type
           rdf:resource="http://purl.org/dc/dcmitype/StillImage" />
        <dc:title></dc:title>
      </cc:Work>
    </rdf:RDF>
  </metadata>
  <g
     inkscape:label="Layer 1"
     inkscape:groupmode="layer"
     id="layer1"
     transform="translate(-0.40346007,-0.13829323)">
    <g
       style="enable-background:new"
       id="g6172"
       transform="matrix(0.84668424,0,0,0.84668424,-231.01294,-2009.1898)">
      <path
         sodipodi:nodetypes="sssss"
         inkscape:connector-curvature="0"
         id="path5893"
         d="m 307.11978,2389.6215 c 7.73201,7.7319 7.732,20.268 1e-5,28 -7.73198,7.7319 -20.26801,7.732 -28.00001,0 -7.732,-7.732 -7.73199,-20.2681 0,-28.0001 7.73198,-7.7319 20.26801,-7.732 28,1e-4 z"
         style="opacity:1;fill:#000000;fill-opacity:1;fill-rule:nonzero;stroke:none;stroke-width:1;stroke-linecap:round;stroke-linejoin:round;stroke-miterlimit:4;stroke-dasharray:none;stroke-dashoffset:0;stroke-opacity:1" />
      <path
         inkscape:connector-curvature="0"
         id="rect5896"
         d="m 305.44282,2388.1101 3.251,3.251 14.87497,-16.2505 -1.93769,-1.9377 -16.18828,14.9372 z m 15.44885,-13.51 a 0.92807764,0.69397019 45 0 1 1.14658,0.1655 0.92807764,0.69397019 45 0 1 0.16546,1.1465 0.92807764,0.69397019 45 0 1 -1.14652,-0.1654 0.92807764,0.69397019 45 0 1 -0.16552,-1.1466 z"
         style="opacity:1;fill:#000000;fill-opacity:1;fill-rule:nonzero;stroke:none;stroke-width:1;stroke-linecap:round;stroke-linejoin:round;stroke-miterlimit:4;stroke-dasharray:none;stroke-dashoffset:0;stroke-opacity:1" />
      <path
         inkscape:connector-curvature="0"
         id="path5905"
         d="m 305.62557,2418.605 c -3.77728,3.0662 -8.14488,4.5843 -12.94872,4.5009 -3.83622,-0.067 -7.53116,-1.2737 -10.77484,-3.5201 -1.07887,-0.7472 -3.16479,-2.7082 -4.00112,-3.7615 -4.18643,-5.2727 -5.38905,-12.1987 -3.21662,-18.524 1.82191,-5.3045 5.71226,-9.4777 10.86109,-11.6505 5.47941,-2.3124 11.82144,-1.9801 17.00044,0.8908 1.81341,1.0052 2.20764,1.3173 4.2709,3.3805 2.06688,2.0669 2.36577,2.4449 3.39448,4.2931 3.67679,6.6057 3.10166,14.9116 -1.45963,21.0793 -0.69549,0.9404 -2.30328,2.6437 -3.12598,3.3115 z"
         style="opacity:1;fill:#000000;fill-opacity:1;fill-rule:nonzero;stroke:none;stroke-width:1;stroke-linecap:round;stroke-linejoin:round;stroke-miterlimit:4;stroke-dasharray:none;stroke-dashoffset:0;stroke-opacity:1" />
    </g>
  </g>
</svg>
