<?xml version="1.0" encoding="UTF-8" standalone="no"?>
<svg xmlns:rdf="http://www.w3.org/1999/02/22-rdf-syntax-ns#" xmlns="http://www.w3.org/2000/svg" height="192" width="192" version="1.1" xmlns:cc="http://creativecommons.org/ns#" xmlns:dc="http://purl.org/dc/elements/1.1/" viewBox="0 0 192 192">
<g transform="translate(0 -860.4)">
<g transform="translate(8.345)">
<path d="m159.1 935.2a65.45 65.45 0 0 0 -92.57 -0.002 65.45 65.45 0 0 0 -0.000017 92.57 65.45 65.45 0 0 0 92.57 0 65.45 65.45 0 0 0 0.00001 -92.56zm-13.27 13.27c18.21 18.21 18.22 47.81 0.002 66.02-18.21 18.21-47.81 18.21-66.02 0s-18.21-47.81-0.000025-66.02 47.81-18.21 66.02-0.00001zm-2.864 2.864c-16.67-16.67-43.63-16.67-60.29 0.00001-16.67 16.67-16.67 43.63 0.000025 60.29 16.67 16.67 43.63 16.67 60.29 0 16.67-16.67 16.66-43.63-0.002-60.29z" fill-opacity=".9961" stroke-width="3"/>
<g transform="matrix(0 -1 1 0 -868.7 1052)">
<path d="m123.4 928.9-10.14 10.14" stroke="#000" stroke-linecap="round" stroke-width="6.75" fill="none"/>
<path d="m183 869.8s-3.163-3.119-5.224-3.535c-3.676-0.7427-3.944-1.064-11.04 2.195-7.093 3.259-34.97 36.33-46.27 51.48-5.068 6.793 2.165 10.23 2.165 10.23l45.96-45.96c-2.145-2.441-2.027-6.126 0.2676-8.426 2.299-2.297 5.987-2.415 8.428-0.2698z" fill-opacity=".9961" fill-rule="evenodd"/>
<path d="m182.6 869.4s3.119 3.163 3.535 5.224c0.7427 3.676 1.064 3.944-2.195 11.04-3.259 7.093-36.33 34.97-51.48 46.27-6.793 5.068-10.23-2.165-10.23-2.165l45.96-45.96c2.441 2.145 6.126 2.027 8.426-0.2676 2.297-2.299 2.415-5.987 0.2698-8.428z" fill-rule="evenodd" fill-opacity=".9961"/>
</g>
</g>
</g>
</svg>
