<svg xmlns="http://www.w3.org/2000/svg" width="192" height="192" viewBox="0 0 192 192"><text style="line-height:125%;-inkscape-font-specification:'Open Sans, Normal';text-align:start" x="22.2234" y="1018.017" font-weight="400" font-size="45" font-family="Open Sans" letter-spacing="0" word-spacing="0" writing-mode="lr" transform="translate(0 -860.3622)"/><path d="M67.606 56.2247c-2.164 0-3.788 1.509-3.9066 3.379l-7.9797 125.8257c-.1185 1.8686 1.6335 3.379 3.662 3.379h73.2365c2.0286 0 3.7806-1.5104 3.662-3.379l-7.9796-125.8258c-.1186-1.87-1.7425-3.379-3.9065-3.379zm2.5375 48.7016h51.713l4.3828 71.9288c.1138 1.869-1.6335 3.379-3.6622 3.379H69.423c-2.0286 0-3.8177-1.5126-3.662-3.379z"/><text transform="matrix(1.0461 0 0 .95592 3.231 -860.3622)" y="1056.9718" x="74.5718" style="line-height:125%;-inkscape-font-specification:'Open Sans, Normal';text-align:start" font-weight="400" font-size="53.4835" font-family="Open Sans" letter-spacing="0" word-spacing="0"><tspan y="1056.9718" x="74.5718">p</tspan></text><g transform="translate(2.538 -860.3622)"><circle r="10.1168" cy="900.8174" cx="93.573"/><circle cx="78.7516" cy="879.0164" r="10.1168"/><circle r="10.1168" cy="879.0164" cx="108.1723"/></g></svg>