<?xml version="1.0" encoding="UTF-8" standalone="no"?>
<!-- Created with Inkscape (http://www.inkscape.org/) -->

<svg
   xmlns:dc="http://purl.org/dc/elements/1.1/"
   xmlns:cc="http://creativecommons.org/ns#"
   xmlns:rdf="http://www.w3.org/1999/02/22-rdf-syntax-ns#"
   xmlns:svg="http://www.w3.org/2000/svg"
   xmlns="http://www.w3.org/2000/svg"
   xmlns:sodipodi="http://sodipodi.sourceforge.net/DTD/sodipodi-0.dtd"
   xmlns:inkscape="http://www.inkscape.org/namespaces/inkscape"
   width="12.006917mm"
   height="12.006811mm"
   viewBox="0 0 42.544194 42.543819"
   id="svg5987"
   version="1.1"
   inkscape:version="0.91 r13725"
   sodipodi:docname="plates.svg">
  <defs
     id="defs5989" />
  <sodipodi:namedview
     id="base"
     pagecolor="#ffffff"
     bordercolor="#666666"
     borderopacity="1.0"
     inkscape:pageopacity="0.0"
     inkscape:pageshadow="2"
     inkscape:zoom="2.8"
     inkscape:cx="108.74641"
     inkscape:cy="-79.530817"
     inkscape:document-units="px"
     inkscape:current-layer="layer1"
     showgrid="false"
     fit-margin-top="0"
     fit-margin-left="0"
     fit-margin-right="0"
     fit-margin-bottom="0"
     inkscape:window-width="1916"
     inkscape:window-height="1032"
     inkscape:window-x="0"
     inkscape:window-y="22"
     inkscape:window-maximized="0" />
  <metadata
     id="metadata5992">
    <rdf:RDF>
      <cc:Work
         rdf:about="">
        <dc:format>image/svg+xml</dc:format>
        <dc:type
           rdf:resource="http://purl.org/dc/dcmitype/StillImage" />
        <dc:title></dc:title>
      </cc:Work>
    </rdf:RDF>
  </metadata>
  <g
     inkscape:label="Layer 1"
     inkscape:groupmode="layer"
     id="layer1"
     transform="translate(-0.40346007,-0.13829323)">
    <g
       style="enable-background:new"
       id="g6194"
       transform="matrix(0.84668424,0,0,0.84668424,-231.01294,-2151.6898)">
      <g
         transform="translate(0.10095334,-4.5625)"
         style="fill:#000000"
         id="g5973-9-48">
        <path
           d="m 291.27405,2585.8125 14.25,0 c 0,0 0,0 0,0 l 0,5.8125 c 0,0 0,0 0,0 l -14.25,0 c 0,0 0,0 0,0 l 0,-5.8125 c 0,0 0,0 0,0 z M 323.58973,2571 a 25.19068,20.5 0 0 1 -12.59534,17.7535 25.19068,20.5 0 0 1 -25.19068,0 A 25.19068,20.5 0 0 1 273.20837,2571 l 25.19068,0 z m -32.31568,8.8125 14.25,0 c 0,0 0,0 0,0 l 0,5.8125 c 0,0 0,0 0,0 l -14.25,0 c 0,0 0,0 0,0 l 0,-5.8125 c 0,0 0,0 0,0 z M 323.58973,2565 a 25.19068,20.5 0 0 1 -12.59534,17.7535 25.19068,20.5 0 0 1 -25.19068,0 A 25.19068,20.5 0 0 1 273.20837,2565 l 25.19068,0 z m -32.31568,8.8125 14.25,0 c 0,0 0,0 0,0 l 0,5.8125 c 0,0 0,0 0,0 l -14.25,0 c 0,0 0,0 0,0 l 0,-5.8125 c 0,0 0,0 0,0 z M 323.58973,2559 a 25.19068,20.5 0 0 1 -12.59534,17.7535 25.19068,20.5 0 0 1 -25.19068,0 A 25.19068,20.5 0 0 1 273.20837,2559 l 25.19068,0 z"
           style="opacity:1;fill:#000000;fill-opacity:1;fill-rule:nonzero;stroke:none;stroke-width:1;stroke-linecap:round;stroke-linejoin:round;stroke-miterlimit:4;stroke-dasharray:none;stroke-dashoffset:0;stroke-opacity:1"
           id="rect5971-4-9"
           inkscape:connector-curvature="0" />
      </g>
    </g>
  </g>
</svg>
