<?xml version="1.0" encoding="UTF-8" standalone="no"?>
<svg xmlns:rdf="http://www.w3.org/1999/02/22-rdf-syntax-ns#" xmlns="http://www.w3.org/2000/svg" height="192" width="192" version="1.1" xmlns:cc="http://creativecommons.org/ns#" xmlns:dc="http://purl.org/dc/elements/1.1/" viewBox="0 0 192 192">
<g transform="translate(0 -860.4)">
<g>
<path d="m161.1 941.6 0.1479 79.47c0.007 3.899-4.055 7.038-9.091 7.038h-112.4c-5.037 0-9.289-3.142-9.091-7.038l0.2525-79.33z"/>
<path d="m30.87 936.9s-0.09668-1.036-0.1479-4.774c-0.05126-3.738 4.335-8.225 9.091-9.881 40.79-14.2 71.29-13.9 112.4 0 4.771 1.614 9.029 6.795 9.091 9.881 0.0442 2.193-0.0293 4.743-0.0293 4.743z"/>
<rect height="9.286" width="30.71" y="903.3" x="80.64"/>
<rect height="20.54" width="11.07" y="941.6" x="21.86"/>
<rect height="20.54" width="11.07" y="941.6" x="159.9"/>
</g>
<path d="m133.2 887-8.93-8.989 4.539-4.599 8.989 8.93 9.109-8.93 4.569 4.48-9.109 9.109 8.989 9.049-4.45 4.539-9.109-8.989-8.989 8.93-4.48-4.539 8.87-8.989z"/>
<path d="m188.3 908.6h-30.52v-6.421l10.96-11.08q4.868-4.987 6.361-6.899 1.493-1.941 2.15-3.584t0.657-3.405q0-2.628-1.463-3.912-1.434-1.284-3.853-1.284-2.538 0-4.928 1.165-2.389 1.165-4.987 3.315l-5.017-5.943q3.225-2.748 5.346-3.882 2.12-1.135 4.629-1.732 2.509-0.6272 5.615-0.6272 4.091 0 7.227 1.493t4.868 4.181 1.732 6.152q0 3.016-1.075 5.674-1.045 2.628-3.285 5.406-2.21 2.777-7.825 7.914l-5.615 5.286v0.4181h19.02v7.765z"/>
</g>
</svg>
