<svg xmlns="http://www.w3.org/2000/svg" width="192" height="192" viewBox="0 0 192 192"><path d="M23.2936 24.1523c-2.0286 0-3.5137 1.639-3.662 3.6622l-10 136.371c-.1484 2.0232 1.6334 3.6622 3.662 3.6622H86.53c2.0286 0 3.8104-1.639 3.662-3.6622l-10-136.371c-.1483-2.0233-1.6334-3.6622-3.662-3.6622zm2.379 52.7832H74.151l6 77.957c.1557 2.0228-1.6334 3.6622-3.662 3.6622H23.3345c-2.0286 0-3.8177-1.6394-3.662-3.662z"/><path d="M64.5438 129.283q0 5.7623-4.2935 8.8883-4.2936 3.126-12.0522 3.126-8.2104 0-12.8053-2.5987v-5.8q2.9754 1.5064 6.365 2.3727 3.4274.8662 6.591.8662 4.8963 0 7.5326-1.5442 2.6365-1.5818 2.6365-4.783 0-2.4106-2.1092-4.1054-2.0714-1.7326-8.135-4.0677-5.7626-2.1467-8.2106-3.7286-2.4105-1.6195-3.6157-3.6533-1.1675-2.0338-1.1675-4.8585 0-5.047 4.1052-7.947 4.1053-2.9377 11.2612-2.9377 6.6663 0 13.0314 2.7118l-2.222 5.0845q-6.2145-2.561-11.2613-2.561-4.4443 0-6.704 1.3935-2.2598 1.3935-2.2598 3.8416 0 1.6572.8286 2.8247.8663 1.1676 2.7495 2.222 1.883 1.0547 7.2313 3.0508 7.3442 2.6742 9.9053 5.386 2.5988 2.7116 2.5988 6.817z" style="line-height:125%;-inkscape-font-specification:'Open Sans, Normal';text-align:start" font-weight="400" font-size="22.5" font-family="Open Sans" letter-spacing="0" word-spacing="0"/><g><path d="M115.47 24.1523c-2.0286 0-3.5137 1.639-3.662 3.6622l-10 136.371c-.1484 2.0232 1.6334 3.6622 3.662 3.6622h73.2364c2.0286 0 3.8104-1.639 3.662-3.6622l-10-136.371c-.1483-2.0233-1.6334-3.6622-3.662-3.6622zm2.379 52.7832h48.4785l6 77.957c.1556 2.0228-1.6335 3.6622-3.662 3.6622H115.511c-2.0286 0-3.714-1.634-3.662-3.662z"/><path d="M143.0653 139.271q-3.802 0-6.9643-1.3586-3.1268-1.3937-5.2588-4.251h-.4263q.4262 3.3448.4262 6.3414v15.7152h-5.8983v-55.3328h4.7968l.8172 5.2267h.2843q2.274-3.136 5.2943-4.53 3.0202-1.3936 6.9288-1.3936 7.746 0 11.9388 5.1917 4.2283 5.192 4.2283 14.565 0 9.408-4.2994 14.6345-4.2638 5.1916-11.8676 5.1916zm-.8527-34.6696q-5.9694 0-8.6344 3.2405-2.665 3.2404-2.736 10.3137v1.2893q0 8.0492 2.736 11.5336 2.736 3.4494 8.7765 3.4494 5.0456 0 7.888-4.0074 2.8782-4.0068 2.8782-11.0452 0-7.143-2.8782-10.941-2.8425-3.833-8.0302-3.833z" style="line-height:125%;-inkscape-font-specification:'Open Sans, Normal';text-align:start" font-weight="400" font-size="22.5" font-family="Open Sans" letter-spacing="0" word-spacing="0"/></g></svg>