<?xml version="1.0" encoding="UTF-8" standalone="no"?>
<svg xmlns:rdf="http://www.w3.org/1999/02/22-rdf-syntax-ns#" xmlns="http://www.w3.org/2000/svg" height="192" width="192" version="1.1" xmlns:cc="http://creativecommons.org/ns#" xmlns:dc="http://purl.org/dc/elements/1.1/" viewBox="0 0 192 192">
<g transform="translate(0 -860.4)">
<g transform="translate(67.93)"></g>
<g transform="matrix(1 0 0 .9227 46.09 81.13)">
<g transform="translate(-.9744 -15.31)">
<g transform="translate(-24.24)">
<path d="m46.74 920.8c-2.164 0-3.788 1.635-3.906 3.662l-7.98 136.4c-0.1185 2.025 1.633 3.662 3.662 3.662h73.24c2.029 0 3.781-1.637 3.662-3.662l-7.98-136.4c-0.1186-2.027-1.742-3.662-3.906-3.662zm2.538 52.78h51.71l4.383 77.96c0.1139 2.026-1.633 3.662-3.662 3.662h-53.15c-2.029 0-3.818-1.639-3.662-3.662z"/>
<g transform="matrix(3.428 0 0 3.428 -392.8 -2336)">
<path d="m140.8 980.1q0 1.681-1.252 2.593-1.252 0.9119-3.516 0.9119-2.395 0-3.735-0.7581v-1.692q0.8679 0.4394 1.857 0.6921 0.9998 0.2527 1.923 0.2527 1.428 0 2.197-0.4504 0.769-0.4614 0.769-1.395 0-0.7031-0.6152-1.198-0.6042-0.5054-2.373-1.187-1.681-0.6262-2.395-1.088-0.7031-0.4724-1.055-1.066-0.3406-0.5933-0.3406-1.417 0-1.472 1.198-2.318 1.198-0.8569 3.285-0.8569 1.945 0 3.801 0.791l-0.6482 1.483q-1.813-0.7471-3.285-0.7471-1.296 0-1.956 0.4065-0.6592 0.4065-0.6592 1.121 0 0.4834 0.2417 0.824 0.2527 0.3406 0.802 0.6482t2.109 0.8899q2.142 0.78 2.889 1.571 0.7581 0.791 0.7581 1.989z"/>
</g>
</g>
</g>
</g>
<g transform="translate(-46.47 -4.78)">
<g transform="translate(.8839)">
<path d="m126.8 873.8a10.1 10.1 0 0 0 -10.1 10.1 10.1 10.1 0 0 0 10.1 10.1 10.1 10.1 0 0 0 10.1 -10.1 10.1 10.1 0 0 0 -10.1 -10.1zm0 3.281a6.819 6.819 0 0 1 6.818 6.82 6.819 6.819 0 0 1 -6.818 6.818 6.819 6.819 0 0 1 -6.818 -6.818 6.819 6.819 0 0 1 6.818 -6.82z"/>
<path d="m156.4 873.8a10.1 10.1 0 0 0 -10.1 10.1 10.1 10.1 0 0 0 10.1 10.1 10.1 10.1 0 0 0 10.1 -10.1 10.1 10.1 0 0 0 -10.1 -10.1zm0 3.281a6.819 6.819 0 0 1 6.818 6.82 6.819 6.819 0 0 1 -6.818 6.818 6.819 6.819 0 0 1 -6.818 -6.818 6.819 6.819 0 0 1 6.818 -6.82z"/>
</g>
<path d="m142.5 895.5a10.1 10.1 0 0 0 -10.1 10.1 10.1 10.1 0 0 0 10.1 10.1 10.1 10.1 0 0 0 10.1 -10.1 10.1 10.1 0 0 0 -10.1 -10.1zm0 3.281a6.819 6.819 0 0 1 6.818 6.82 6.819 6.819 0 0 1 -6.818 6.818 6.819 6.819 0 0 1 -6.818 -6.818 6.819 6.819 0 0 1 6.818 -6.82z"/>
</g>
</g>
</svg>
