<svg xmlns="http://www.w3.org/2000/svg" width="192" height="192" viewBox="0 0 192.00001 192"><path d="M51.8023 119.4086l20.4356 20.4356-44.1323 44.1323c-9.3548-5.401-15.575-12.0168-20.4357-20.4356zM97.4903 81.262l12.894 12.894-38.9628 38.963-12.894-12.894z"/><path d="M133.0336 8.0235l-48.969 48.969s-6.4057 6.4524 19.2198 32.0778c25.5483 25.5484 32.0765 19.2187 32.0765 19.2187L184.33 59.32 133.0336 8.0234zm3.7153 19.547l2.1826 2.1826c1.717 1.717 1.9283 4.2704.474 5.7247l-32.653 32.653c-1.4544 1.4544-4.008 1.243-5.7247-.4738L98.845 65.474c-1.717-1.717-1.927-4.269-.4728-5.7234l32.653-32.653c1.4544-1.4543 4.0066-1.2442 5.7234.4728zm12.9256 12.9256l2.1827 2.1828c1.717 1.717 1.9283 4.2703.474 5.7246l-32.653 32.653c-1.4544 1.4544-4.008 1.243-5.7247-.4738L111.771 78.4c-1.717-1.717-1.927-4.269-.473-5.7235l32.653-32.653c1.4545-1.4544 4.0067-1.2442 5.7235.4727zm12.9257 12.9258l2.1827 2.1827c1.717 1.717 1.9283 4.2703.474 5.7246l-32.653 32.6532c-1.4544 1.4543-4.008 1.243-5.7247-.474l-2.1827-2.1826c-1.717-1.717-1.927-4.269-.4728-5.7234l32.653-32.653c1.4544-1.4544 4.0066-1.2442 5.7234.4728z"/></svg>