<?xml version="1.0" encoding="UTF-8" standalone="no"?>
<svg xmlns:rdf="http://www.w3.org/1999/02/22-rdf-syntax-ns#" xmlns="http://www.w3.org/2000/svg" height="192" width="192" version="1.1" xmlns:cc="http://creativecommons.org/ns#" xmlns:dc="http://purl.org/dc/elements/1.1/" viewBox="0 0 192 192">
<g transform="translate(0 -860.4)">
<path d="m96 7.352c-7.687 0.0004617-13.92 6.233-13.92 13.92 0.0032 2.117 0.4895 4.206 1.422 6.107l3.627 5.135h-8.871s5.764 23.13 5.764 38.19c0 10.2-0.7658 18.36-2.061 25.04-0.01-0.0064-0.01928-0.01312-0.0293-0.01953-6.965-4.461-26.7-7.023-33.92 1.697-9.058 10.95-4.501 29.9 5.584 42.28-5.663 10.4-3.967 20.54 0.4395 31.7 3.398 8.607 5.291 13.88 5.291 13.88h36.67 36.67s1.891-5.274 5.289-13.88c4.523-11.46 6.213-21.83 0-32.52-9.703-16.69-29.98-15.46-29.98-68.18 0-15.07 5.764-38.19 5.764-38.19h-8.869l3.625-5.15c0.93-1.896 1.416-3.98 1.422-6.092-0.1-7.68-6.3-13.91-14-13.91zm-31.17 95.35c4.563 0.0486 9.744 1.729 14.16 3.869-4.401 11.8-10.98 17.11-16.87 22.68-8.136-8.743-11.28-16.46-6.48-22.74 2.13-2.791 5.448-3.845 9.188-3.805z" transform="translate(0 860.4)"/>
</g>
</svg>
