<?xml version="1.0" encoding="UTF-8" standalone="no"?>
<svg xmlns:rdf="http://www.w3.org/1999/02/22-rdf-syntax-ns#" xmlns="http://www.w3.org/2000/svg" height="192" width="192" version="1.1" xmlns:cc="http://creativecommons.org/ns#" xmlns:dc="http://purl.org/dc/elements/1.1/" viewBox="0 0 192 192">
<g transform="translate(0 -860)">
<g>
<path d="m81.8 991c-26.9-7.22-45.1-29.1-50.8-50.4l130-0.138c-6.45 23.3-25.7 43.7-50.9 50.5"/>
<path d="m30.9 937c13.1-22.6 47.2-22.7 60.9-22.7h8.38c14.1 0 48.1 0.108 61.1 22.6z"/>
<path d="m80.6 905h30.7v9.29h-30.7z"/>
<path d="m31 80.1c0.609 2.27 1.37 4.55 2.26 6.82h0.0391v-6.82h-2.3z" transform="translate(0 860)"/>
</g>
<g transform="matrix(.945 .327 -.327 .945 312 42.4)">
<path d="m21.3 942a5.09 5.09 0 0 1 -5.09 5.09 5.09 5.09 0 0 1 -5.09 -5.09 5.09 5.09 0 0 1 5.09 -5.09 5.09 5.09 0 0 1 5.09 5.09z"/>
<path d="m22 940a5.09 5.09 0 0 1 0.535 2.27 5.09 5.09 0 0 1 -0.543 2.28l-0.000567 0.004 9.98-0.00054-3.08-4.33-6.9-0.22z"/>
</g>
<g transform="matrix(-.945 .327 .327 .945 -120 42.4)">
<path d="m14.4 938a5.09 5.09 0 0 1 1.84 -0.345 5.09 5.09 0 0 1 5.09 5.09 5.09 5.09 0 0 1 -5.09 5.09 5.09 5.09 0 0 1 -5.09 -5.09 5.09 5.09 0 0 1 3.25 -4.75zm7.6 2.59 6.9 0.22 3.08 4.33-9.98 0.00055 0.000564-0.004a5.09 5.09 0 0 0 0.543 -2.28 5.09 5.09 0 0 0 -0.535 -2.27z"/>
</g>
</g>
</svg>
