<svg xmlns="http://www.w3.org/2000/svg" width="46.49" height="29.361" viewBox="0 0 43.584411 27.52569"><path d="M35.478 16.707l.605.085c.413-.41.15.196.51-1.23.482-.466.272-.075.79-.72l-.953-.32c-.575.644-.604.462-.913 1.013.568-.2.32-.32.89-.224-.5 1.094-.545.59-.93 1.397zm-2.085-.125l-.02-1.28-.72.202c.018.005.028.054.035.083l-.22 1.26c.13.136-.016.033.278.256l.204.138c.32.19-.05.046.477.19l-.034-.848zm-2.14-2.063c-.36.957-.102.285.02.553l.072-.155-.01-.28c.042-.02-.06-.075-.082-.12zm-3.884 2.11c.234-.32.16.362.296-.662-.217.28-.17-.336-.297.66zm2.875 4.608c-.284-.51-.018.237 0 0 .017.03.036.063.06.11l.538-.33c.342-2.022-1.32-1.78-1.388-1.795l-.323-.18c-.502.882-.314.873-.2 1.44l1.242.226c.06.3.076.454.07.528zm-2.226-1.82c-.11-.926.23-.62-.503-.7.27.765.057.402.502.7zm6.855-.777c.007-.007.396.057.257-.67-.18-.902-.423-.294-.43-.292-.03.107-.12.298-.08.52.078.49-.05.184.253.443zm-3.717-1.47c.447-.174.04.082.296-.307-.54-.384-.553-.332-.787.37.177-.01.324.006.49-.063zm-4.333-1.14c.61-.252.59-.276.955-.902l-1.005-.137.05 1.04zm2.545 1.067l.762.125.01-1.05c-.453.026-.322-.13-.57.19-.275.35-.2.735-.2.735zm-2.29 4.588l1.545-.666-.127-.066-.38-.057c-1.394.026-1.32.155-1.515.65.123.078-.116.2.476.138zm-1.627-2.1c.446.152-.25.27.682.52l.076-1.084c-2.28.128-1.96-.67-1.918.79.19-.013 1.156-.226 1.16-.226zm-.37 3.16c.22-.547.214.114-.005-1.34.265-.628.222-.18.456-.99l-1.002.115c-.28.827-.377.675-.453 1.312.447-.428.176-.43.735-.585-.043 1.207-.28.767-.32 1.67l.588-.183zm-4.405-5.653C-1.202 24.5-2.928 11.885 2.802 8.832c6.354-2.512 10.038 2.2 18.33 1.07a31.506 31.506 0 0 0-.193-2.52c-.088-.74-.377-2.694-.254-4.538.23-3.292 1.156-3.767 4.93-1.213 6.075 4.11 10.815 6.326 15.03 9.212 4.92 3.366 3.288 3.676-2.13 7.24-1.79 1.176-4.052 2.56-6.85 4.18-11.4 6.61-13.015 6.503-12.42 2.4.264-1.817.96-4.42 1.434-7.57z" fill="#f02618"/></svg>