<svg xmlns="http://www.w3.org/2000/svg" width="46.49" height="29.3607" viewBox="0 0 43.584411 27.52569"><path d="M35.4783 16.7067l.6042.0857c.4134-.412.152.1958.509-1.2313.4838-.465.274-.074.7926-.719l-.9538-.319c-.5753.6426-.6047.4608-.9132 1.0115.5678-.2006.3215-.32.8905-.2235-.5012 1.0934-.5457.5886-.9292 1.3956zm-2.085-.125l-.0218-1.281-.719.203c.0183.005.029.0544.036.083l-.2197 1.2598c.1288.1366-.017.0335.2768.2566l.2047.1375c.3196.1902-.0502.046.4763.1905l-.0334-.8493zM31.253 14.519c-.359.9576-.1018.286.0186.554l.0738-.1556-.009-.28c.041-.0185-.061-.0746-.0836-.1184zm-3.8837 2.1097c.2348-.319.161.363.2964-.6613-.2163.2814-.1683-.336-.2964.661zm2.8757 4.6094c-.2843-.5108-.0176.2366 0 0 .017.0286.0364.063.0597.1083l.5386-.329c.3413-2.0218-1.321-1.779-1.388-1.7945l-.3238-.1806c-.501.882-.3136.8735-.1998 1.4416l1.2426.2243c.0596.301.0762.4558.0707.53zm-2.2256-1.819c-.1088-.9274.2316-.6205-.502-.7003.27.7643.0566.4007.502.7004zm6.8555-.7784c.007-.008.396.0562.257-.6724-.1786-.9005-.423-.2925-.4293-.2904-.0308.1068-.1193.2975-.0817.5187.079.4916-.048.1852.2538.444zm-3.7168-1.4713c.447-.1736.0398.0827.2955-.3067-.5394-.3842-.5524-.3322-.787.369.1774-.009.324.007.4915-.0624zm-4.3328-1.141c.611-.2503.5906-.2743.9542-.9005l-1.005-.1376.0508 1.038zm2.545 1.0687l.7614.125.01-1.0496c-.453.0248-.3222-.1293-.5713.1888-.274.3502-.1997.7358-.1997.7358zm-2.291 4.588l1.546-.667-.1273-.064-.38-.0573c-1.3937.0256-1.3188.1546-1.5152.6496.1233.078-.1163.1994.4766.1388zm-1.6268-2.1015c.446.153-.2488.271.682.5207l.0768-1.0842c-2.281.127-1.962-.6705-1.9195.7882.1886-.012 1.156-.225 1.1606-.2248zm-.3692 3.1598c.2205-.5458.2138.1152-.005-1.339.2645-.628.2212-.1802.4557-.9912l-1.0022.1167c-.2792.8267-.3764.6748-.453 1.3122.4486-.4286.1774-.4315.7358-.5855-.0423 1.2074-.2792.767-.319 1.6697l.5878-.1828zm-4.4052-5.652C-1.203 24.4987-2.928 11.885 2.8022 8.831c6.3534-2.5113 10.038 2.2017 18.329 1.0704a31.5055 31.5055 0 0 0-.192-2.5194c-.0874-.7413-.3764-2.6936-.2535-4.538.2294-3.2915 1.1565-3.7666 4.9317-1.2128 6.074 4.1102 10.8133 6.3243 15.0296 9.211 4.9195 3.3654 3.2867 3.6756-2.131 7.24-1.79 1.1755-4.052 2.5584-6.8513 4.1795-11.3982 6.6103-13.014 6.503-12.4187 2.4003.2642-1.817.9603-4.4192 1.4343-7.5703z" fill="#f02618"/></svg>