<svg xmlns="http://www.w3.org/2000/svg" width="77.0053" height="77.2358" viewBox="0 0 72.192456 72.408586"><g fill="#f02618"><path d="M36.168.0117C23.842-.337 12.167 6.9495 5.5098 17.0664c1.085-.383 2.6356-.7722 1.0957.709 2.1376 1.2166 1.4708 7.356-1.4336 4.1953-.3772-1.03-.7278-4.9234-2.088-2.6797-.0178 3.3126-1.8526 6.1585-2.338 9.4063C-.65 36.512-.3813 45.286 4.1114 52.1055c2.5528 1.6408 1.6602 2.7873.422 5.0996 1.8337 1.2655 4.2962 1.292 5.4706 3.9044 1.907 1.945 4.3094 5.242 6.2304 2.0664 3.9344-.7096 1.71 4.0912-1.1875 2.8203 5.0325 2.7763 10.348 5.584 16.2108 6.1407 16.647 2.1185 34.583-8.3546 39.3613-24.75 1.593-4.261 1.9457-8.8927 1.1994-13.377.3766-1.0676.339-2.2907.123-3.5566-.3106.693-1.688.5608-1.2578-.9647l.2832-.25.4394-.2188c.141.146.2447.2824.332.414-.3783-1.6155-.9577-3.257-1.3046-4.705-2.454 1.9875.808-1.9727-1.0938-2.9687C64.3852 10.939 54.0703 2.2323 42.168.3926c-1.9892-.256-3.9998-.2626-6-.381zm35.5703 29.422c.0802.3426.1454.681.203 1.0194.1097-.2443.0793-.594-.203-1.0194zM33.119 4.5272c1.7323.0935-1.0474 1.2062 0 0zm10.5958.4883c3.0187.9106-.3322 3.3323 0 0zm-13.6816.3086c1.3744.182-.74.662 0 0zm6.0625 2.4688c2.5515.0104 5.09.3645 7.547 1.0527.144-.2433.5744-.451 1.5136-.5117.2008.4703.2592.809.2363 1.0566a28.4105 28.4105 0 0 1 3.584 1.5235c.0243-.0176.0622-.0337.1328-.045.0394.0626.044.1.037.127 9.4262 4.875 15.3496 14.597 15.3595 25.209a28.411 28.411 0 0 1-3.2716 13.1954c.0478.108.0026.156-.0762.1562a28.4105 28.4105 0 0 1-2.871 4.3457c1.5054.9735-.305 1.5348-.8634 1.0372a28.4105 28.4105 0 0 1-21.328 9.6757c-10.0484-.0136-19.342-5.334-24.4415-13.9922-.1678-.0932-.2678-.25-.2676-.4687a28.4096 28.4096 0 0 1-.6816-1.2266c-.3815.4652-.8793.4686-1.6132-.4824.0317-.6626.223-1.3273.5312-1.9316a28.41 28.41 0 0 1-.9863-3.086c-.863.9844-1.6536 2.4846-2.121.3594 1.985-.5273 1.1995-2.2806 1.4687-3.7108a28.4105 28.4105 0 0 1-.299-3.871c.0102-1.6225.1592-3.241.4455-4.838-.0006.0003-.0016-.0003-.002 0-2.187 1.9017.782 6.1318-1.5958 7.42-1.8518-3.3652-3.5694-8.7664.6055-11.0802.6636-2.3238.8265-5.2803 3.369-5.877.079-1.3134-1.425-2.1466-1.2382-3.4843 1.0828 1.0216 1.7994 2.353 2.172 3.7852a28.4106 28.4106 0 0 1 6.9335-8.129c-.1736-.0395-.3028-.3533.1895-.67.0615.2504.0484.4072.0117.5157A28.4105 28.4105 0 0 1 36.0957 7.793zm-17.5195 6.0547c-.0673.051-.1344.1025-.2012.1543.079.018.158-.0267.2012-.1543zm-7.1348 8.2832A28.4105 28.4105 0 0 0 8.131 31.367c-.758-2.7805 1.668-7.1043 3.3104-9.2363zM7.9844 40.076c.15 1.1292.368 2.2484.6523 3.3515.4748-.5415.9696-.9358 1.4492-.4648 3.338 1.6437-.5028-2.9317-1.877-3.5528-.116.2082-.181.434-.2246.666zm1.6386 6.4375c.323.821.684 1.6266 1.082 2.414.7835-.955-1.7742-.157-1.013-.943-1.3015.1918.515-2.6163-.069-1.471zm1.7637 3.6406c.0877.157.177.3133.2676.4687.831.462 3.1678-.5295 1.5234-2.117l-.621.1444-.5508.3203c-.45.5164-.619.902-.6193 1.1836zm46.037 4.7852c.296-.339.584-.6847.8634-1.0372a4.582 4.582 0 0 0-.494-.2753c-.6236.6808-.6133 1.0948-.3692 1.3125zm3.7345-5.383c.0256-.052.051-.104.0762-.156-.0147-.0332-.0258-.0647-.0625-.1114-.447.0868-.182.268-.0138.2676zM49.1465 10.9962a28.1956 28.1956 0 0 0-.17-.082c-.1057.077.1446.1823.17.082zm-3.754-1.6054a28.4107 28.4107 0 0 0-1.75-.545c-.4135.6985 1.6428 1.7038 1.75.545zM26.9416 8.039c1.104.628-.4478.751 0 0zm22.705.006c.366.053-.31.2908 0 0zm1.4082.912c1.105.388-.9084.2667 0 0zm-17.422.2774c-1.5526.6643 1.2486 1.192 0 0zm12.844.92c-.2905.466.5478-.0525 0 0zm-3.7775.2128c1.047 1.904 1.523.5454 0 0zm-15.3535.041c-2.1292.1053.979 1.7977 0 0zm3.7285 1.291c-3.2006 1.2822 3.8187 2.4516 0 0zm2.457.2852c-1.5876.7725 1.1987 1.3 0 0zm5.8672.1914c-5.204-.2014 3.1434 6.5502 0 0zm-12.7402.4844c-.4945.0502.3874.3384 0 0zm36.5195.0644c.382-.0613.74.2293.7364 1.2715-2.5328.7032-1.577-1.1365-.7363-1.2714zm-13.4648.539c-2.5788 3.1097 1.618.3766 0 0zm-3.2052.4376c-.902-.0854.4104.827 0 0zm-17.4394.2734c-1.9205-.2233.708 1.769 0 0zm-3.8086.1992c-3.4055.354 1.804 3.259 0 0zm9.3906.4903c-.5415.15.495.297 0 0zm-16.965.1368c-.357.6342 1.2294.0632 0 0zm41.4923.2754c3.5594 1.768-1.9204 2.7325 0 0zm-42.119.67c-.2786.0434.2414.183 0 0zm7.539.7616c-1.2233.5554.9802 1.3375 0 0zm-2.047.4414c-1.7515.4457.822 1.4502 0 0zm-4.041.045c-2.066.7526 2.1323 1.3463 0 0zm35.9493.7656c-1.0023.4698 1.268.59 0 0zm-16.4414.582l.203.6152.3087.5684c2.2654 1.576.5474-.4364-.5117-1.1836zm17.1328.0976c-.523.1082.3622.3288 0 0zM20.832 19.9707c-.8486.4454.8932.3436 0 0zm4.4825.205c-.385.3557.499.016 0 0zm31.5.2012c-.9338.0596.6384.6687 0 0zm-32.082.8183l-.3712.4414c-2.1617 2.2382 1.6237 1.755.371-.4414zm1.4765.2324c-1.2313.115.7076.8946 0 0zm29.5644.1973c-.524.1103.445.321 0 0zm-51.662.1992c1.0857 1.6283-2.2.2048 0 0zm63.1054.0215c1.793.248-1.6915.4588 0 0zm-14.2148.5098c-.1693.35-.339.7013-.5098 1.0507-.8857 3.1263 2.7995.4502.5098-1.0507zm16.2988.1132c.5802.708-.896.293 0 0zm-52.955.1895c-.9298.0368.5833.767 0 0zm52.0663.504c.8515.6258-2.0028.0984 0 0zm-45.7206.7284c-.5223.2875.541.277 0 0zm-8.3105.3438c-1.4963.9393 1.2312 1.0757 0 0zm17.4178.664l-.5722.0118c-1.923.9463 3.3724 2.2916.5722-.0118zm-8.1758.2754c-1.075 1.2756 1.735.5626 0 0zm38.3282.0625l-.541.549c-2.6447 2.8635 2.7022 1.6675.541-.549zm-15.6992.3692c-.6692 1.7917 2.5835.1818 0 0zm-29.4727.1523c-.3992.1128.5594.936.2617.002-.12-.02-.2047-.018-.2617-.002zm51.582.0938c1.9297.155-.075 1.2617 0 0zM13.619 26.9902c-1.32 1.5515.4268 1.44 0 0zm9.379.1133c-2.4288.0783 1.3622 1.8565 0 0zm13.8184.879c-2.996 2.462.9024 3.1616 0 0zm-19.994.617c-.822 2.1083-.5077 2.505 0 0zm4.584.4278c-.217.1807.2453.025-.0002 0zm5.3475.4512c-3.075.3595.1937 3.0157 0 0zM1.158 30.7207c1.1615 1.9538-1.7167 1.13 0 0zm9.8125.8516c-1.263.015-2.8475.5037-1.709 2.0527-.9986 4.577 4.9738.0086 2.2227-2.0332a4.7667 4.7667 0 0 0-.5137-.0195zm47.2734.7695c-.0173.321.2876-.0334 0 0zm3.254.0625c-1.8377.5815-2.0944 2.7587-2.1074 4.3926 1.643 3.2886.8587-3.457 2.1074-4.3927zm-49.6542.037c.585.741-.9564.544 0 0zm-8.6817.0274c1.1696-.054.326 1.3522 0 0zm67.795.1133c1.477.228-.4046.9127 0 0zM47.662 33.75c-2.298 1.2302 1.544 1.9 0 0zm-22.6913.1992c-1.4.58 1.5802.6666 0 0zm43.547.037c.4302 2.658-2.412.245 0 0zm-14.6915.2208c-3.1148 1.7902 4.2538 2.2497 0 0zm-14.6133.047l-.3087.7128c-1.2877 2.6197 1.2924.718.3086-.713zm29.951.0487c-.006.8575-1.316-.0225 0 0zm-41.621.1817c-1.6388 2.0922 2.9538.4777 0 0zm-3.422.037c-.7423.4675 1.105.426 0 0zm.713 1.0138c-1.8614.1283.8935 1.6386 0 0zm1.6562.2226c-2.131.2213 1.4448 1.7072 0 0zm-12.4668.162c-1.5103.5666.9092 1.269 0 0zm-11.7832.002c1.486.7896-.568 1.8165 0 0zm67.6387.2247c.774 1.8208-2.0543.108 0 0zm-41.6114.25c-.576.0652.4512.3926 0 0zm-3.9414.4473c-1.9862.511 1.0104 1.5318 0 0zm-6.0274.0137c-2.7647.7686.8572 2.8235 0 0zm29.8008.17c-.2836.228.3903.0452 0 0zm-18.8887.2968c-2.2058-.096.6917 1.4516 0 0zm32.3398 0c-.496.0512.3842.338 0 0zm8.623.08c.7824 1.4383-1.668.5143 0 0zm-46.9023.084c-.3753.0674.3283.2437 0 0zm10.1328.381c-.638 3.538 3.4635 1.1418 0 0zm-6.3965.002c-.2072.154-.4232.298-.619.4667-3.436 2.4358 3.2503 1.894.619-.4668zm26.0723.3436c-2.74 1.94 1.9324 3.0463 0 0zm-5.039.246c-.7973.5774.8366.4735 0 0zm19.7403.129c.086.0003.2046.0192.3613.0683-.0094.9113-.963-.071-.3614-.0684zm-65.752.4178c2.6464 2.119-2.9484 1.3072 0 0zm55.3047.002c-2.8216 1.4553 2 2.996 0 0zm-42.3594.328c-2.5558 1.2613 1.1455 2.024 0 0zm55.0684.0314c.7725 2.1863-2.43.1122 0 0zm-57.9512.545c-.677 1.7637 1.5262.775 0 0zm6.7754.5136c-1.508-.0163.83 1.401 0 0zm-.453 1.0644c-2.0034.691 1.2087 1.8998 0 0zm29.164.086c-1.124.447.8685.7403 0 0zm12.7968.291c-1.9795.72 1.9078 1.355 0 0zm-55.1152.2753c1.4896.8124-.998 1.458 0 0zm15.5.08c-.46.0605.3502.3287 0 0zm19.4804.252c-1.3416-.0856-1.8725 1.5445-1.4648 2.5352 1.756 7.7066 7.5005-1.5972 1.4648-2.535zm-16.5078.008c-.4246.2986.4636.123 0 0zm-2.1797.164c-.6573.1583 1.255 1.3292.455.0038-.214-.029-.361-.0265-.455-.004zm25.3282.576c-.7114.1925.595.6035 0 0zm12.875.8985c-.7467.447.7656.4167 0 0zm-41.5548.6485c-1.6197.897 1.993.9242 0 0zm-1.381.8222c-.284.5207.725.3215 0 0zm12.8087.3008c-3.6147.343 2.2193 2.6518 0 0zm30.619 1.121c-2.3217 1.07 1.5002 2.0366 0 0zm-2.58.1818c-.3737.1032.3437.2267 0 0zm-38.6992.045c-.5114 2.4712 2.2674 1.15 0 0zm-12.6504.082c2.7268 1.3364-1.6774 1.2135-1.0625.0917l.408-.0684zm45.8398 1.0507c-3.3456 1.3265 1.1008 2.8435 0 0zm10.4688.541c.441.419-.5788.075 0 0zm-42.1836 1.6797c-3.456.996.8115 3.7383 0 0zm-4 .0645c-.868.3125.7075.5956 0 0zm-6.621.8632c1.909 2.4753-3.125.9125 0 0zm51.8592.334c.0512-.01.1282-.0074.2383.0137.3124.7473-.5966.0574-.2384-.0136zm-50.623.3262c1.53.013-.2073.8693 0 0zm37.9844.205c-.9746.955 1.8086.9027 0 0zm10.1015.5176c1.702 1.313-1.5096 1.903 0 0zm-17.8398 1.9356c-1.1103.2768.639.8464 0 0zm-22.3145.172c-.113 1.0813 1.4098.3362 0 0zm30.4532.0038c-2.1427.9894 1.5154 1.7198 0 0zM35.416 56.5078c-1.3876.7952 1.001 1.2998 0 0zm14.5918.6523c-1.3458.888 1.4683.8635 0 0zm8.0703.0587c4.248 2.1717-2.4598 2.212 0 0zm-18.5468.0293c-3.257.884 1.5724 2.878 0 0zm-12.084.2754c-.7557-.0626.5034.546 0 0zm5.963.9766c-3.3593 2.0846 3.6104 3.0647 0 0zm-17.7207.1758c1.7795 2.6387-5.2673 2.6877-1.3887.9394.4327-.3514.843-.766 1.3887-.9394zm14.1035.8066c-.484.1273.3587.3028 0 0zm-5.8145.4043c-.886.5437 1.4814.795 0 0zm20.746 1.3008c-1.5606.4387 1.359.9838 0 0zm-14.6132.3613c.003.3466.301-.051 0 0zm23.3067.7598c.7528 1.169-1.059.0834 0 0zm-9.6426.0156c-.4514.008.3765.2905 0 0zm6.7793 1.08c.8487.11-.5175.441 0 0zm-10.957 1.463c1.759 2.9578-3.204 1.1946 0 0zm-4.5606.6777c.2857.2676-.3553.03 0 0z" fill-rule="evenodd"/><path d="M49.7823 39.148l.6042.0858c.4134-.4118.152.1958.509-1.2313.4838-.465.274-.0742.7927-.719l-.954-.319c-.5753.6426-.6047.4608-.9132 1.0115.5678-.2007.3215-.32.8905-.2235-.5012 1.0934-.5457.5886-.9292 1.3956zm-2.085-.125l-.0217-1.281-.719.2032c.0182.005.029.0543.0358.0828l-.2196 1.26c.1288.1366-.017.0334.2768.2565l.2047.1375c.3196.1902-.0502.046.4763.1904l-.0334-.8492zm-2.1403-2.0624c-.359.9576-.1017.286.0186.5542l.0738-.1558-.009-.28c.041-.0185-.061-.0746-.0836-.1183zm-3.8837 2.1097c.2348-.319.161.3633.2964-.6612-.2162.2816-.1683-.3358-.2964.6613zM44.549 43.68c-.2843-.511-.0176.2365 0 0 .017.0285.0364.0628.0597.1082l.5386-.3292c.3413-2.0217-1.321-1.779-1.388-1.7943l-.3238-.1806c-.501.8822-.3136.8735-.1998 1.4417l1.2426.2243c.0596.301.0762.4558.0707.5298zm-2.2256-1.8192c-.1088-.9274.2316-.6204-.502-.7002.2702.7642.0566.4006.502.7002zm6.8556-.7783c.007-.008.396.0562.257-.6724-.1786-.9005-.423-.2925-.4293-.2903-.0308.1068-.1193.2975-.0817.5186.079.4918-.048.1854.254.444zm-3.7168-1.4714c.447-.1734.0398.0828.2955-.3065-.5394-.3842-.5524-.3323-.787.369.1774-.009.324.007.4915-.0624zm-4.3328-1.141c.611-.2502.5906-.274.9542-.9004l-1.005-.1375.0508 1.038zm2.545 1.0688l.7614.125.01-1.0496c-.453.0248-.3222-.1293-.5713.189-.274.35-.1997.7357-.1997.7357zm-2.291 4.588l1.546-.6668-.1273-.0643-.38-.0572c-1.3937.0255-1.3188.1546-1.5152.6496.1234.078-.1162.1994.4766.1388zm-1.6268-2.1014c.446.153-.2488.2712.682.5207l.0768-1.084c-2.281.127-1.962-.6706-1.9195.788.1886-.012 1.156-.2247 1.1606-.2246zm-.3692 3.16c.2205-.546.2138.115-.005-1.3392.2645-.628.2212-.18.4557-.991l-1.0022.1165c-.2792.8268-.3764.675-.453 1.3122.4486-.4286.1774-.4316.7358-.5855-.0423 1.2074-.2792.7668-.319 1.6697l.5878-.183zm-4.4052-5.6522c-21.8813 7.407-23.6062-5.2065-17.876-8.2607 6.3534-2.5113 10.038 2.2017 18.329 1.0703a31.5055 31.5055 0 0 0-.192-2.5194c-.0874-.7413-.3764-2.6936-.2535-4.538.2294-3.2915 1.1565-3.7666 4.9318-1.2127 6.074 4.11 10.8132 6.3243 15.0295 9.211 4.9195 3.3653 3.2867 3.6756-2.131 7.24-1.79 1.1754-4.052 2.5584-6.8513 4.1794-11.3982 6.6104-13.014 6.5032-12.4187 2.4005.2642-1.817.9603-4.4193 1.4343-7.5703z"/></g></svg>