<svg xmlns="http://www.w3.org/2000/svg" width="77.005" height="77.236" viewBox="0 0 72.192456 72.408586"><g fill="#f02618"><path d="M36.168.012c-12.326-.35-24 6.938-30.658 17.054 1.085-.383 2.635-.772 1.095.71 2.138 1.216 1.47 7.355-1.433 4.195-.377-1.03-.728-4.923-2.088-2.68-.018 3.314-1.853 6.16-2.338 9.407C-.65 36.512-.38 45.287 4.11 52.105c2.554 1.64 1.66 2.788.423 5.1 1.834 1.265 4.296 1.292 5.47 3.904 1.908 1.944 4.31 5.24 6.23 2.066 3.936-.71 1.71 4.09-1.186 2.82 5.032 2.776 10.348 5.584 16.21 6.14 16.648 2.12 34.584-8.354 39.362-24.75 1.592-4.26 1.945-8.892 1.198-13.376.377-1.068.34-2.29.123-3.557-.31.693-1.687.56-1.256-.965l.283-.25.44-.218c.14.145.244.282.33.414-.377-1.616-.957-3.258-1.303-4.705-2.454 1.986.808-1.974-1.094-2.97C64.385 10.94 54.07 2.232 42.168.393c-1.99-.257-4-.263-6-.38zm35.57 29.422c.08.342.146.68.203 1.02.11-.245.08-.595-.202-1.02zM33.118 4.527c1.733.094-1.046 1.207 0 0zm10.597.49c3.018.91-.332 3.33 0 0zm-13.682.307c1.375.182-.74.662 0 0zm6.063 2.47c2.55.01 5.09.363 7.547 1.052.144-.244.574-.45 1.513-.512.2.47.26.81.237 1.057a28.41 28.41 0 0 1 3.584 1.524.3.3 0 0 1 .132-.045c.04.062.043.1.036.126a28.41 28.41 0 0 1 15.36 25.21A28.41 28.41 0 0 1 61.234 49.4c.048.108.003.156-.076.157a28.41 28.41 0 0 1-2.87 4.345c1.505.974-.306 1.535-.864 1.037a28.41 28.41 0 0 1-21.328 9.675 28.41 28.41 0 0 1-24.442-13.992.505.505 0 0 1-.267-.47 28.41 28.41 0 0 1-.682-1.225c-.38.465-.88.468-1.613-.483a4.798 4.798 0 0 1 .53-1.93 28.41 28.41 0 0 1-.985-3.087c-.863.984-1.654 2.484-2.12.36 1.984-.528 1.198-2.282 1.467-3.712a28.41 28.41 0 0 1-.298-3.87c.01-1.623.16-3.242.445-4.84-2.188 1.903.78 6.133-1.597 7.42-1.852-3.364-3.57-8.765.606-11.08.662-2.323.825-5.28 3.368-5.876.08-1.313-1.425-2.147-1.238-3.484 1.082 1.02 1.8 2.353 2.17 3.785a28.41 28.41 0 0 1 6.935-8.128c-.174-.04-.303-.353.19-.67.06.25.048.407.01.516a28.41 28.41 0 0 1 17.52-6.055zm-17.52 6.054c-.067.05-.134.102-.2.154.078.018.157-.027.2-.154zM11.44 22.13a28.41 28.41 0 0 0-3.31 9.237c-.757-2.78 1.67-7.104 3.31-9.236zM7.985 40.077c.15 1.13.368 2.25.653 3.352.475-.542.97-.936 1.45-.465 3.337 1.644-.504-2.932-1.878-3.553-.117.208-.182.434-.226.666zm1.64 6.438c.322.82.683 1.626 1.08 2.414.785-.955-1.773-.157-1.012-.943-1.3.192.515-2.617-.07-1.47zm1.763 3.64c.087.157.177.314.267.47.83.46 3.168-.53 1.524-2.118l-.62.144-.552.32c-.45.517-.62.903-.62 1.184zm46.037 4.785c.296-.34.584-.685.863-1.038a4.582 4.582 0 0 0-.494-.275c-.624.68-.613 1.095-.37 1.312zm3.734-5.383l.076-.157c-.014-.033-.025-.064-.062-.11-.447.086-.182.267-.014.267zm-12.012-38.56a28.196 28.196 0 0 0-.17-.083c-.105.077.145.182.17.082zM45.393 9.39a28.41 28.41 0 0 0-1.75-.544c-.414.698 1.642 1.703 1.75.545zM26.94 8.04c1.106.627-.446.75 0 0zm22.706.005c.367.053-.31.29 0 0zm1.41.912c1.104.388-.91.267 0 0zm-17.423.277c-1.553.665 1.248 1.193 0 0zm12.844.92c-.29.466.547-.052 0 0zm-3.778.213c1.046 1.904 1.522.546 0 0zm-15.354.04c-2.13.107.98 1.8 0 0zm3.728 1.292c-3.2 1.28 3.82 2.45 0 0zm2.457.284c-1.586.773 1.2 1.3 0 0zm5.868.192c-5.204-.202 3.144 6.55 0 0zm-12.74.484c-.494.05.388.34 0 0zm36.52.065c.382-.062.74.23.736 1.27-2.533.704-1.577-1.135-.736-1.27zm-13.465.54c-2.58 3.108 1.618.375 0 0zm-3.205.436c-.902-.084.41.828 0 0zm-17.44.275c-1.92-.224.708 1.77 0 0zm-3.808.2c-3.406.353 1.804 3.258 0 0zm9.39.49c-.54.15.495.296 0 0zm-16.964.136c-.358.635 1.23.064 0 0zm41.492.276c3.56 1.768-1.92 2.733 0 0zm-42.12.67c-.278.044.242.183 0 0zm7.54.762c-1.224.555.98 1.337 0 0zm-2.047.44c-1.75.447.823 1.45 0 0zm-4.04.046c-2.066.753 2.132 1.346 0 0zm35.95.766c-1.003.47 1.267.59 0 0zm-16.442.582l.203.615.31.568c2.265 1.577.547-.436-.512-1.183zm17.132.097c-.523.108.363.328 0 0zm-34.318 1.53c-.85.446.893.344 0 0zm4.482.206c-.384.355.5.016 0 0zm31.5.2c-.933.06.64.67 0 0zm-32.082.82l-.37.44c-2.162 2.24 1.623 1.756.37-.44zm1.477.232c-1.232.115.707.894 0 0zm29.563.197c-.524.11.445.32 0 0zm-51.662.2c1.087 1.627-2.2.204 0 0zm63.107.02c1.793.25-1.692.46 0 0zm-14.215.51l-.51 1.05c-.885 3.127 2.8.45.51-1.05zm16.3.114c.58.707-.897.292 0 0zm-52.956.188c-.93.037.583.767 0 0zm52.066.504c.852.626-2.003.1 0 0zm-45.72.73c-.523.286.54.276 0 0zm-8.31.342c-1.497.94 1.23 1.076 0 0zm17.417.664l-.573.012c-1.923.946 3.372 2.292.572-.012zm-8.177.276c-1.075 1.275 1.735.562 0 0zm38.328.062l-.54.55c-2.645 2.863 2.702 1.667.54-.55zm-15.698.37c-.67 1.79 2.583.18 0 0zm-29.473.152c-.4.113.56.936.26.002a.626.626 0 0 0-.26-.002zm51.58.094c1.93.155-.074 1.26 0 0zM13.62 26.99c-1.32 1.552.426 1.44 0 0zm9.378.114c-2.43.078 1.362 1.856 0 0zm13.818.878c-2.996 2.463.903 3.162 0 0zm-19.994.618c-.822 2.108-.507 2.505 0 0zm4.584.427c-.216.18.246.025 0 0zm5.348.452c-3.075.358.194 3.014 0 0zM1.158 30.72c1.162 1.954-1.716 1.13 0 0zm9.813.852c-1.262.015-2.847.504-1.708 2.053-1 4.577 4.973.01 2.222-2.033a4.767 4.767 0 0 0-.513-.02zm47.274.77c-.017.32.288-.034 0 0zm3.254.062c-1.838.582-2.094 2.76-2.107 4.393 1.643 3.29.86-3.457 2.108-4.393zm-49.654.037c.585.742-.957.545 0 0zm-8.682.03c1.17-.055.326 1.35 0 0zm67.795.112c1.477.228-.405.913 0 0zM47.662 33.75c-2.298 1.23 1.544 1.9 0 0zm-22.69.2c-1.4.58 1.58.666 0 0zm43.546.036c.43 2.658-2.412.245 0 0zm-14.692.22c-3.115 1.79 4.254 2.25 0 0zm-14.613.048l-.31.713c-1.286 2.62 1.294.718.31-.713zm29.95.05c-.005.856-1.315-.024 0 0zm-41.62.18c-1.64 2.093 2.954.478 0 0zm-3.422.037c-.74.47 1.106.427 0 0zm.714 1.015c-1.86.13.894 1.64 0 0zm1.656.223c-2.13.22 1.445 1.707 0 0zm-12.467.162c-1.51.566.91 1.27 0 0zm-11.783.002c1.486.79-.568 1.816 0 0zm67.64.225c.773 1.82-2.055.107 0 0zm-41.612.25c-.577.065.45.392 0 0zm-3.942.447c-1.986.51 1.01 1.532 0 0zm-6.027.013c-2.766.77.856 2.824 0 0zm29.8.17c-.284.23.39.046 0 0zm-18.89.297c-2.205-.096.693 1.452 0 0zm32.34 0c-.495.05.385.338 0 0zm8.624.08c.782 1.44-1.668.515 0 0zm-46.903.084c-.374.068.33.244 0 0zm10.134.38c-.638 3.54 3.464 1.143 0 0zm-6.396.003c-.207.155-.423.3-.62.468-3.435 2.436 3.25 1.894.62-.467zm26.072.345c-2.74 1.94 1.932 3.046 0 0zm-5.04.246c-.796.578.838.475 0 0zm19.74.13c.087 0 .206.02.363.068-.01.912-.964-.07-.362-.068zm-65.75.418c2.646 2.12-2.95 1.307 0 0zm55.304.002c-2.822 1.455 2 2.996 0 0zm-42.36.328c-2.555 1.26 1.146 2.024 0 0zm55.07.03c.772 2.187-2.43.113 0 0zm-57.952.546c-.677 1.764 1.526.775 0 0zm6.775.514c-1.508-.017.83 1.4 0 0zm-.453 1.064c-2.003.69 1.21 1.9 0 0zm29.164.086c-1.124.447.87.74 0 0zm12.797.29c-1.98.72 1.908 1.356 0 0zm-55.115.277c1.49.812-.998 1.457 0 0zm15.5.08c-.46.06.35.328 0 0zm19.48.252c-1.34-.086-1.872 1.544-1.465 2.535 1.756 7.706 7.5-1.597 1.465-2.535zm-16.508.007c-.424.3.464.124 0 0zm-2.18.164c-.657.16 1.256 1.33.456.004-.214-.03-.36-.026-.455-.004zm25.33.577c-.712.192.594.603 0 0zm12.874.898c-.747.447.766.417 0 0zM18.2 44.77c-1.62.9 1.994.926 0 0zm-1.38.824c-.284.52.725.32 0 0zm12.81.3c-3.616.343 2.218 2.652 0 0zm30.618 1.122c-2.322 1.07 1.5 2.036 0 0zm-2.58.18c-.374.104.344.228 0 0zm-38.7.046c-.51 2.472 2.268 1.15 0 0zm-12.65.082c2.727 1.337-1.677 1.214-1.062.092l.408-.068zm45.84 1.05c-3.345 1.327 1.1 2.845 0 0zm10.47.542c.44.42-.58.075 0 0zm-42.185 1.68c-3.456.996.812 3.738 0 0zm-4 .064c-.868.313.708.596 0 0zm-6.62.863c1.908 2.476-3.126.913 0 0zm51.86.334a.664.664 0 0 1 .237.014c.312.748-.597.058-.238-.013zm-50.624.327c1.53.013-.21.87 0 0zm37.983.205c-.975.954 1.81.9 0 0zm10.102.516c1.7 1.313-1.51 1.903 0 0zm-17.84 1.936c-1.11.277.64.846 0 0zm-22.315.172c-.113 1.08 1.41.336 0 0zm30.453.004c-2.142.99 1.516 1.72 0 0zm-14.027 1.49c-1.388.795 1 1.3 0 0zm14.592.652c-1.346.888 1.468.863 0 0zm8.07.06c4.248 2.17-2.46 2.21 0 0zm-18.547.028c-3.256.884 1.574 2.878 0 0zm-12.083.275c-.755-.062.504.546 0 0zm5.963.977c-3.36 2.085 3.61 3.065 0 0zm-17.72.176c1.78 2.638-5.268 2.688-1.39.94.434-.352.844-.767 1.39-.94zm14.103.806c-.484.128.36.303 0 0zm-5.814.405c-.888.543 1.48.795 0 0zm20.745 1.3c-1.56.44 1.36.984 0 0zm-14.614.362c.004.345.302-.052 0 0zm23.308.76c.753 1.168-1.06.082 0 0zm-9.643.014c-.45.008.377.29 0 0zm6.78 1.08c.848.11-.518.44 0 0zm-10.957 1.463c1.76 2.958-3.204 1.195 0 0zm-4.56.678c.285.268-.356.03 0 0z" fill-rule="evenodd"/><path d="M49.782 39.148l.605.086c.413-.412.15.196.51-1.23.482-.466.272-.076.79-.72l-.953-.32c-.575.643-.604.46-.913 1.012.57-.2.322-.32.89-.224-.5 1.094-.544.59-.928 1.396zm-2.085-.125l-.02-1.28-.72.202c.018.005.028.055.035.083l-.22 1.26c.13.137-.016.033.278.257l.204.137c.32.19-.05.046.477.19l-.033-.85zm-2.14-2.062c-.36.958-.102.287.02.555l.072-.156-.01-.28c.04-.02-.06-.076-.083-.12zm-3.884 2.11c.235-.32.16.364.297-.66-.217.28-.17-.337-.297.66zm2.876 4.61c-.285-.51-.02.236 0 0l.06.108.537-.33c.342-2.02-1.32-1.778-1.388-1.793l-.324-.18c-.502.88-.314.873-.2 1.44l1.242.225c.06.3.076.456.07.53zm-2.227-1.82c-.108-.927.232-.62-.502-.7.272.765.058.4.503.7zm6.856-.778c.006-.008.395.057.256-.672-.18-.9-.423-.292-.43-.29-.03.106-.12.297-.08.518.078.492-.05.186.253.444zm-3.718-1.47c.447-.174.04.082.296-.307-.54-.385-.553-.333-.787.368.178-.01.325.007.492-.062zM41.13 38.47c.61-.25.59-.274.954-.9l-1.005-.138.05 1.038zm2.544 1.07l.762.124.01-1.05c-.453.025-.322-.13-.57.19-.275.35-.2.735-.2.735zm-2.29 4.587l1.545-.667-.128-.064-.38-.057c-1.394.024-1.32.153-1.515.648.123.078-.116.2.476.14zm-1.627-2.102c.446.154-.25.272.682.52l.075-1.083c-2.28.127-1.962-.67-1.92.788.19-.012 1.157-.225 1.162-.225zm-.37 3.16c.22-.546.214.115-.005-1.34.265-.627.222-.18.456-.99l-1.002.117c-.28.826-.377.675-.453 1.312.448-.43.177-.432.736-.586-.044 1.208-.28.767-.32 1.67l.587-.183zm-4.405-5.652c-21.88 7.407-23.606-5.206-17.876-8.26 6.354-2.512 10.038 2.2 18.33 1.07a31.506 31.506 0 0 0-.193-2.52c-.087-.74-.376-2.693-.253-4.538.23-3.29 1.156-3.766 4.93-1.212 6.075 4.11 10.815 6.324 15.03 9.21 4.92 3.366 3.288 3.676-2.13 7.24-1.79 1.176-4.052 2.56-6.85 4.18-11.4 6.61-13.015 6.503-12.42 2.4.264-1.816.96-4.42 1.434-7.57z"/></g></svg>