<svg xmlns="http://www.w3.org/2000/svg" width="77.0053" height="77.2358" viewBox="0 0 72.192456 72.408586"><path d="M36.1672.012C23.8412-.3368 12.1662 6.9498 5.509 17.0667c1.0848-.383 2.637-.7734 1.097.7078 2.1376 1.2166 1.4703 7.3562-1.434 4.1956-.3772-1.0298-.7277-4.9224-2.088-2.6786-.0177 3.3125-1.8523 6.1578-2.3376 9.4055C-.6498 36.5114-.381 45.2856 4.1117 52.105c2.5528 1.641 1.6604 2.7874.4222 5.0997 1.8336 1.2654 4.296 1.292 5.4704 3.9045 1.907 1.945 4.3088 5.2427 6.2298 2.067 3.9344-.7095 1.7106 4.0908-1.187 2.82 5.0327 2.776 10.3472 5.5844 16.21 6.141 13.9364-1.0636 33.6008-9.508 39.3613-24.7503 1.5928-4.261 1.9455-8.8927 1.1992-13.377.952-2.6984-.6892-6.3772-1.385-9.2812-2.454 1.9875.8085-1.9737-1.0933-2.9698C63.7904 11.8297 53.662 2.8457 42.1682.3932c-1.989-.256-4.0008-.263-6.001-.3812zm-3.049 4.5156c1.7323.0935-1.0474 1.2062 0 0zm6.1133-1.4057c21.5802.0266-.3323 3.3322 0 0zm-9.199 2.2025c1.3743.182-.7402.662 0 0zm-3.092 2.715c1.1043.6278-.4476.7508 0 0zm18.215.295c1.4685 3.4392-4.21.272 0 0zm-11.5235.9003c1.2484 1.192-1.5527.6643 0 0zm12.8437.92c.548-.0525-.2903.466 0 0zm-3.7773.2128c1.523.5455 1.047 1.904 0 0zm-15.3535.041c.979 1.7978-2.1293.1053 0 0zm3.7284 1.291c3.8187 2.4516-3.2006 1.2822 0 0zm2.457.2852c1.1987 1.3-1.5876.7725 0 0zm6.688.6333c5.353 9.265-5.2042-.2012 0 0zm-13.561.0425c.3874.3385-.4945.0502 0 0zm23.0547.6036c1.6183.3766-2.5786 3.1097 0 0zm-31.1484.0685c.2934 1.193-.9064.5832 0 0zm27.9434.369c.4104.827-.902-.0853 0 0zm-17.4395.2735c.708 1.7692-1.9204-.2232 0 0zm-3.8086.1993c1.804 3.2588-3.4055.354 0 0zm9.3906.4902c.495.297-.5415.15 0 0zm-16.965.1367c1.2294.0632-.357.6342 0 0zm44.8406 2.162c-3.684 1.0226.012-3.335 0 0zm-3.3483-1.8866c3.5593 1.768-1.9206 2.7326 0 0zm-42.1192.6698c.2415.183-.2785.0435 0 0zm7.539.7617c.9803 1.3376-1.2232.5555 0 0zm-2.0468.4415c.822 1.45-1.7516.4457 0 0zm-4.041.045c2.1322 1.3463-2.066.7526 0 0zm35.9492.7655c1.268.5902-1.0023.4698 0 0zm-16.4414.582c1.059.7472 2.778 2.7593.5127 1.1832l-1.8244.631zm-28.748.004c3.6494 3.4434 3.2605 10.3704-1.139 13.0216-2.187 1.9018.782 6.1314-1.5957 7.4195-1.8516-3.365-3.5694-8.766.6055-11.0797.6637-2.324.826-5.2802 3.3685-5.877.079-1.3133-1.4262-2.1465-1.2393-3.4842zm45.8808.0938c.3622.3287-.523.108 0 0zM20.8312 19.971c.8932.3436-.8486.4454 0 0zm4.4824.205c.499.016-.3848.3557 0 0zm-.582 1.0196c1.2525 2.1966-2.5323 2.6788-.3706.4406zm1.4766.2324c.7076.8946-1.2313.115 0 0zm-22.0977.3965c1.0858 1.6283-2.2.2048 0 0zm63.1055.0215c1.793.248-1.6915.4588 0 0zm-14.215.5098c2.29 1.501-1.394 4.1763-.5083 1.05.1708-.3493.3392-.7.5084-1.05zm16.299.1133c.58.708-.896.293 0 0zm-.8887.6934c.8514.626-2.003.0985 0 0zm-45.7207.7285c.541.277-.5223.2874 0 0zm-8.3105.3437c1.2314 1.0757-1.496.9393 0 0zm17.418.664c2.8002 2.3035-2.4938.9585-.571.012zm-8.1758.2754c1.735.5627-1.075 1.2758 0 0zm38.3282.0626c2.1612 2.2165-3.1855 3.4113-.5408.5477zm-15.6993.3692c2.5837.1818-.669 1.7917 0 0zm22.1095.246c1.9297.155-.075 1.262 0 0zm-54.7422 1.1387c.4267 1.44-1.32 1.5516 0 0zm9.379.1133c1.362 1.8565-2.429.0783 0 0zm13.8183.879c.9024 3.1616-2.996 2.462 0 0zm-19.994.617c-.5077 2.505-.822 2.1083 0 0zm54.5838.42c1.8848 1.953-1.3505 2.6982-.7215.4678l.2823-.2485zm-50 .008c.2455.025-.2167.1807 0 0zm5.3477.4512c.194 3.0157-3.0748.3595 0 0zm25.3254-3.982c8.738-.7538 9.259 9.318.406 6.394-8.1345 1.1067-8.065-6.4015-.406-6.394zM1.1574 30.721c1.1614 1.9538-1.7167 1.13 0 0zm10.3262.871c2.751 2.042-3.2208 6.6093-2.2222 2.0324-1.3012-1.7703.9548-2.1563 2.2222-2.0323zm46.7597.75c.2875-.0333-.0174.321 0 0zm3.254.0626c-1.2488.9358-2.548 8.2487-4.191 4.96.013-1.634 2.3532-4.3785 4.191-4.96zm-49.6544.037c-.9564.5438.585.741 0 0zm-8.6817.0275c1.1695-.054.3258 1.3522 0 0zm67.795.1133c1.477.228-.4047.9127 0 0zm-23.295 1.168c1.5438 1.9-2.298 1.2302 0 0zm-22.6914.1992c1.58.6666-1.4.58 0 0zm43.5468.037c.4303 2.658-2.412.2448 0 0zm-14.6914.2208c4.2538 2.2496-3.1148 1.7902 0 0zm-14.6133.047c.984 1.4307-1.596 3.331-.3084.7112zm29.9513.0487c-.006.8574-1.316-.0225 0 0zm-41.621.1816c2.9537.4776-1.639 2.0922 0 0zm-3.422.037c1.105.426-.7424.4674 0 0zm.713 1.0137c.8934 1.6387-1.8615.1283 0 0zm1.656.2226c1.445 1.7072-2.131.2214 0 0zm-12.4667.162c.9092 1.269-1.5103.5667 0 0zm-11.7832.002c1.486.7897-.568 1.8165 0 0zm67.6387.2248c.774 1.8208-2.054.108 0 0zm-41.6112.25c.4512.3927-.576.0653 0 0zm-3.9414.4473c1.0104 1.5318-1.9862.511 0 0zm-6.0274.0137c.8572 2.8236-2.7647.7687 0 0zm29.8008.17c.3903.0452-.2836.228 0 0zm-18.8887.2968c.692 1.4517-2.2056-.096 0 0zm32.34 0c.3842.338-.496.0512 0 0zm8.623.08c.7824 1.4384-1.668.5144 0 0zm-46.9023.084c.3282.2438-.3753.0675 0 0zm10.1328.381c9.2087.6368-1.3955 9.094 0 0zm-6.3965.002c2.6313 2.3608-4.0546 2.902-.6186.466.196-.1686.4114-.312.6186-.466zm26.0723.3437c1.9323 3.0464-2.7402 1.9402 0 0zm-5.039.246c.8365.4736-.7974.5775 0 0zm20.1015.1974c-.0107 1.0413-1.2536-.3927 0 0zm-66.1133.3495c2.6464 2.1188-2.9484 1.3072 0 0zm55.3047.002c2 2.996-2.8216 1.4553 0 0zm-42.3594.328c1.1455 2.024-2.5558 1.2613 0 0zm55.0684.0313c.7725 2.1863-2.43.1122 0 0zm-61.834.041c1.374.621 5.2164 5.1967 1.8784 3.553-1.3516-1.3273-2.8457 4.1176-3.5704.8234 2.3072-.613.861-2.8842 1.692-4.3764zm3.8828.504c1.5262.775-.677 1.7637 0 0zm6.7754.5136c.83 1.401-1.508-.0163 0 0zm-.4532 1.0645c1.209 1.8996-2.0033.691 0 0zm29.164.0858c.8687.7403-1.1237.447 0 0zm12.797.291c1.9078 1.355-1.9795.72 0 0zm-55.1153.2754c1.4895.8123-.998 1.4578 0 0zm15.5.08c.3502.3287-.46.0605 0 0zm1.248.4278c.914 1.5147-1.7132-.2316 0 0zm24.873.5723c.5953.6034-.7112.1924 0 0zm-4.5557-2.39c6.0356.9378-1.793 11.882-3.5492 4.1754-.4076-.9907 2.2076-4.2612 3.5493-4.1755zm17.4307 3.2884c.7658.4167-.7465.447 0 0zm-47.2226.1367c-1.132 1.1686-1.2007 7.089-3.4414 4.1856.092-1.9183 1.453-3.8926 3.4414-4.1856zm5.668.5117c1.993.9244-1.6197.8973 0 0zm-1.381.8224c.725.3214-.284.5207 0 0zm12.8087.3008c2.2195 2.6517-3.6145.343 0 0zm30.6192 1.121c1.5002 2.0365-2.3217 1.07 0 0zm-2.58.1817c.3437.2267-.3737.103 0 0zm-38.6993.0448c2.2674 1.1502-.5114 2.4714 0 0zm-12.6504.082c2.7268 1.3365-1.6768 1.213-1.062.091l.4083-.0684.6536-.0227zm45.8398 1.0508c1.1008 2.8435-3.3456 1.3265 0 0zm-38.9805.131c2.4035 2.3206-3.7018 3.368-1.172.4635l.551-.3195zm49.449.41c.4413.419-.5786.075 0 0zm-1.455.373c.4132.5246-.7203.14 0 0zm-40.7284 1.3067c.8115 3.7383-3.456.996 0 0zm-4 .0645c.7075.5956-.868.3125 0 0zm-6.621.8633c1.909 2.4754-3.125.9126 0 0zm52.0975.3477c.3572.854-.8812-.1687 0 0zm-50.8612.3125c1.53.013-.2073.8693 0 0zm37.9844.205c1.8086.9028-.9746.955 0 0zm10.1015.5177c1.702 1.3128-1.5096 1.9027 0 0zm-1.3515.7206c3.287 1.5923-2.1795 2.3794 0 0zM41.304 54.8424c.639.8464-1.1104.2768 0 0zm-22.3146.172c1.4098.3363-.113 1.0814 0 0zm30.4532.004c1.5154 1.7197-2.1427.9894 0 0zm-14.0274 1.4902c1.001 1.2998-1.3876.795 0 0zm14.5918.6523c1.4683.8633-1.346.8876 0 0zm8.0703.0585c9.488-.1012-6.5636 6.442 0 0zm-18.547.0293c1.5725 2.878-3.257.884 0 0zm-6.121 1.252c3.6105 3.0647-3.3592 2.0846 0 0zm-17.7207.1757c1.7796 2.6387-5.2672 2.6878-1.3886.9395.4327-.3514.843-.766 1.3886-.9395zm8.289 1.211c1.4815.795-.886.5436 0 0zm20.7462 1.3008c1.359.9837-1.5607.4387 0 0zm8.6934 1.121c.7528 1.169-1.059.0835 0 0zM39.5968 64.868c1.7592 2.9578-3.2038 1.1946 0 0z" fill="#f02618" fill-rule="evenodd"/></svg>