<svg xmlns="http://www.w3.org/2000/svg" width="77.005" height="77.236" viewBox="0 0 72.192456 72.408586"><path d="M36.167.012c-12.326-.35-24 6.938-30.658 17.055 1.084-.383 2.636-.774 1.096.707 2.138 1.217 1.47 7.357-1.434 4.196-.377-1.03-.728-4.922-2.088-2.68-.018 3.314-1.852 6.16-2.338 9.407C-.65 36.512-.38 45.287 4.112 52.105c2.552 1.64 1.66 2.787.422 5.1 1.834 1.265 4.296 1.292 5.47 3.904 1.907 1.944 4.31 5.242 6.23 2.066 3.935-.71 1.71 4.09-1.187 2.82 5.033 2.776 10.347 5.585 16.21 6.14 13.937-1.062 33.6-9.507 39.362-24.75 1.59-4.26 1.944-8.892 1.198-13.376.952-2.698-.69-6.377-1.385-9.28-2.454 1.986.808-1.975-1.094-2.97C63.79 11.83 53.66 2.845 42.167.392c-1.99-.256-4-.263-6-.38zm-3.05 4.516c1.733.093-1.046 1.206 0 0zm6.114-1.406c21.582.027-.33 3.332 0 0zm-9.198 2.203c1.375.18-.74.66 0 0zm-3.09 2.714c1.103.627-.45.75 0 0zm18.213.294c1.47 3.44-4.21.272 0 0zm-11.523.9c1.248 1.193-1.553.665 0 0zm12.844.92c.548-.052-.29.467 0 0zm-3.778.214c1.523.545 1.047 1.904 0 0zm-15.353.04c.98 1.798-2.13.106 0 0zm3.728 1.292c3.82 2.45-3.2 1.282 0 0zm2.457.285c1.2 1.3-1.587.772 0 0zm6.688.633c5.353 9.265-5.204-.2 0 0zm-13.56.043c.387.34-.495.05 0 0zm23.054.604c1.618.377-2.58 3.11 0 0zm-31.148.068c.293 1.193-.907.584 0 0zm27.943.37c.41.827-.902-.086 0 0zm-17.44.273c.71 1.77-1.92-.223 0 0zm-3.808.2c1.803 3.258-3.407.353 0 0zm9.39.49c.495.296-.542.15 0 0zm-16.965.136c1.23.064-.357.635 0 0zm44.84 2.163c-3.684 1.023.012-3.335 0 0zm-3.348-1.886c3.56 1.768-1.92 2.732 0 0zm-42.12.67c.242.183-.278.043 0 0zm7.54.76c.98 1.34-1.223.557 0 0zm-2.047.443c.822 1.45-1.752.445 0 0zm-4.04.044c2.13 1.347-2.067.753 0 0zm35.948.766c1.268.59-1.002.47 0 0zm-16.44.582c1.058.747 2.777 2.76.51 1.183l-1.823.63zm-28.75.004c3.65 3.443 3.26 10.37-1.138 13.022-2.187 1.9.782 6.13-1.596 7.42-1.852-3.366-3.57-8.767.605-11.08.663-2.325.825-5.28 3.368-5.878.08-1.313-1.426-2.146-1.24-3.484zm45.882.094c.362.328-.523.108 0 0zm-34.32 1.53c.894.345-.847.446 0 0zm4.484.206c.5.016-.385.356 0 0zm-.582 1.02c1.252 2.196-2.533 2.678-.37.44zm1.476.232c.708.895-1.23.115 0 0zm-22.097.397c1.086 1.628-2.2.204 0 0zm63.106.02c1.793.25-1.692.46 0 0zM53 22.356c2.29 1.502-1.393 4.177-.507 1.05.17-.35.34-.7.508-1.05zm16.3.114c.58.707-.896.292 0 0zm-.89.692c.853.626-2.002.1 0 0zm-45.72.73c.542.276-.522.286 0 0zm-8.31.343c1.23 1.075-1.496.94 0 0zm17.418.664c2.8 2.302-2.494.957-.57.01zm-8.176.274c1.735.563-1.075 1.276 0 0zm38.328.063c2.162 2.216-3.185 3.41-.54.547zm-15.7.37c2.585.18-.668 1.79 0 0zm22.11.245c1.93.155-.075 1.262 0 0zm-54.742 1.14c.427 1.44-1.32 1.55 0 0zm9.38.112c1.36 1.856-2.43.078 0 0zm13.818.88c.902 3.16-2.996 2.46 0 0zM16.82 28.6c-.506 2.505-.82 2.108 0 0zm54.585.42c1.885 1.953-1.35 2.698-.72.468l.28-.25zm-50 .008c.246.025-.216.18 0 0zm5.348.45c.194 3.017-3.075.36 0 0zm25.325-3.98c8.74-.755 9.26 9.317.406 6.393-8.134 1.108-8.065-6.4-.406-6.393zM1.158 30.72c1.16 1.955-1.717 1.13 0 0zm10.326.872c2.75 2.042-3.22 6.61-2.223 2.033-1.3-1.77.956-2.157 2.224-2.033zm46.76.75c.287-.033-.018.32 0 0zm3.253.063c-1.25.936-2.548 8.248-4.19 4.96.012-1.634 2.352-4.38 4.19-4.96zm-49.654.037c-.956.544.585.74 0 0zm-8.682.027c1.17-.055.327 1.35 0 0zm67.796.113c1.477.228-.404.912 0 0zM47.66 33.75c1.545 1.9-2.297 1.23 0 0zm-22.69.2c1.58.666-1.4.58 0 0zm43.547.037c.43 2.658-2.412.245 0 0zm-14.692.22c4.254 2.25-3.114 1.79 0 0zm-14.613.047c.984 1.43-1.596 3.332-.308.712zm29.95.05c-.005.857-1.315-.023 0 0zm-41.62.18c2.954.48-1.64 2.093 0 0zm-3.422.038c1.105.426-.742.467 0 0zm.713 1.014c.894 1.638-1.86.128 0 0zm1.656.222c1.444 1.708-2.132.222 0 0zm-12.467.162c.91 1.27-1.51.567 0 0zm-11.784.002c1.485.79-.57 1.817 0 0zm67.638.225c.774 1.82-2.054.108 0 0zm-41.61.25c.45.393-.577.065 0 0zm-3.943.447c1.01 1.532-1.986.51 0 0zm-6.027.014c.857 2.824-2.765.77 0 0zm29.8.17c.39.045-.283.228 0 0zm-18.888.297c.692 1.45-2.206-.096 0 0zm32.34 0c.384.338-.496.05 0 0zm8.623.08c.782 1.438-1.668.514 0 0zm-46.902.084c.33.243-.375.066 0 0zm10.133.38c9.21.637-1.395 9.094 0 0zm-6.396.002c2.63 2.36-4.055 2.902-.62.466.197-.17.413-.312.62-.466zm26.072.344c1.932 3.046-2.74 1.94 0 0zm-5.04.246c.837.473-.797.577 0 0zm20.102.197c-.01 1.04-1.254-.394 0 0zm-66.114.348c2.647 2.12-2.948 1.308 0 0zm55.305.002c2 2.996-2.82 1.456 0 0zm-42.36.33c1.146 2.022-2.555 1.26 0 0zm55.07.03c.772 2.186-2.43.112 0 0zm-61.835.04c1.374.622 5.217 5.198 1.88 3.554-1.353-1.327-2.847 4.117-3.572.823 2.307-.613.86-2.884 1.692-4.376zm3.883.505c1.527.775-.676 1.764 0 0zm6.776.513c.83 1.4-1.508-.016 0 0zm-.453 1.065c1.21 1.9-2.003.69 0 0zm29.164.086c.87.74-1.124.446 0 0zm12.797.29c1.908 1.355-1.98.72 0 0zm-55.115.275c1.49.813-1 1.458 0 0zm15.5.08c.35.33-.46.06 0 0zm1.247.428c.914 1.515-1.713-.232 0 0zm24.873.572c.595.604-.71.193 0 0zm-4.556-2.39c6.036.938-1.793 11.882-3.55 4.176-.407-.99 2.21-4.26 3.55-4.175zm17.43 3.29c.767.415-.746.446 0 0zm-47.222.135c-1.132 1.17-1.2 7.09-3.44 4.186.09-1.918 1.452-3.893 3.44-4.186zm5.668.512c1.993.924-1.62.897 0 0zm-1.38.822c.724.322-.285.52 0 0zm12.808.3c2.22 2.653-3.614.344 0 0zm30.62 1.122c1.5 2.037-2.323 1.07 0 0zm-2.58.182c.343.227-.375.103 0 0zm-38.7.045c2.267 1.15-.51 2.47 0 0zm-12.65.082c2.726 1.336-1.677 1.213-1.062.09l.408-.068.654-.022zm45.84 1.05c1.1 2.844-3.346 1.327 0 0zm-38.98.13c2.403 2.322-3.703 3.37-1.173.465l.55-.32zm49.448.412c.44.42-.58.075 0 0zm-1.455.373c.414.524-.72.14 0 0zm-40.727 1.306c.81 3.74-3.456.996 0 0zm-4 .065c.707.596-.868.313 0 0zm-6.622.864c1.91 2.475-3.123.913 0 0zm52.1.348c.356.854-.882-.17 0 0zm-50.862.312c1.53.013-.208.87 0 0zm37.984.205c1.81.902-.974.954 0 0zm10.102.517c1.702 1.313-1.51 1.903 0 0zm-1.352.72c3.287 1.593-2.18 2.38 0 0zm-16.488 1.215c.64.847-1.11.277 0 0zm-22.315.172c1.41.337-.114 1.082 0 0zm30.453.004c1.515 1.72-2.143.99 0 0zm-14.028 1.49c1 1.3-1.387.796 0 0zm14.592.653c1.468.864-1.346.89 0 0zm8.07.06c9.488-.102-6.563 6.442 0 0zm-18.547.03c1.573 2.877-3.257.883 0 0zm-6.12 1.25c3.61 3.065-3.36 2.085 0 0zm-17.72.177c1.778 2.638-5.27 2.687-1.39.94.433-.352.843-.767 1.39-.94zm8.288 1.21c1.48.796-.886.544 0 0zm20.746 1.3c1.36.985-1.56.44 0 0zm8.693 1.122c.753 1.168-1.06.083 0 0zm-13.82 2.558c1.76 2.958-3.204 1.195 0 0z" fill="#f02618" fill-rule="evenodd"/></svg>