<svg xmlns="http://www.w3.org/2000/svg" width="209.426" height="199.794" viewBox="0 0 196.33674 187.30705"><g fill="#f02618"><path d="M40.397 55.558c-1.194 11.013-15.127-5.625-5.164-5.643 1.79 1.796 2.712 4.378 5.164 5.643zm118.205 48.304c3-6.245-7.34-2.342-2.14-.392.712.13 1.426.26 2.14.392zM2.62 161.31c-7.186-2.15 2.5-7.12 4.265-3.65l-4.265 3.65zm7.343 4.643c-5.776-3.825 5.106-5.77 1.638-1.432l-1.637 1.433zm31.214 18.216c1.485 6.765-7.682.59-2.174-.113l2.174.112zm109.588-49.905c1.08 3.51 8.29 11.7.3 11.292.307-2.283-5.975-15.044-.3-11.292zm-12.055 11.803c-.98-6.858 7.706-.022 2.16.27l-2.16-.27zM29.286 39.88c6.754 1.54-2.734 7.205-1.027 1.92l1.026-1.92zm-7.334 15.933c-3.047.583-3.617-2.104-1.12-4.34.98-5.988 6.724-.095 3.02 2.5l-1.9 1.84zm3.77 4.59c6.753 1.538-2.735 7.205-1.027 1.92l1.026-1.92z" fill-rule="evenodd"/><path d="M54.513 35.195c.195-.222.368-.44.52-.66a9.94 9.94 0 0 0 .454-.716c.173-.242.174-.388.004-.44a2.106 2.106 0 0 1-.515-.247l-.032-.03c.213-.243.415-.486.608-.727.195-.242.397-.484.61-.728a6.26 6.26 0 0 1 .515-.517c.18-.16.354-.336.523-.526l-.104.093c-.11.096-.326.154-.495.226h-.002c.254-.27.513-.543.783-.815.073.015.056.164.23.018.174-.147.64-.734 1.05-1.218.492-.584.948-1.182 1.367-1.793a36.36 36.36 0 0 1 2.648-3.313c.962-1.072 1.91-2.14 2.84-3.2a28.083 28.083 0 0 1 1.935-2 29.293 29.293 0 0 0 1.905-1.967l.846-.96a46.377 46.377 0 0 0 1.827-2.213c.288-.374.537-.723.745-1.05.19-.303.295-.602.316-.895.024-.293-.1-.6-.37-.914l-.41-.43-.43.29c-.12.074-.355.134-.442.112-.08-.02-.095-.157-.024-.245.17-.218.375-.436.5-.57l-.234-.247.033.03a41.484 41.484 0 0 0-1.96-2.033c-.204.237-.39.474-.58.71.014-.217.14-.507.022-.64-.15-.174-.094-.332.103-.5l-.258-.242c-.93-.857-1.87-1.702-2.82-2.537-.356-.31-.715-.635-1.08-.977a9.496 9.496 0 0 0-1.14-.91 79.237 79.237 0 0 1-1.178-.83 14.435 14.435 0 0 1-1.09-.87 4.233 4.233 0 0 0-.914-.628c-.302-.147-.654-.104-1.055.132-.16.093-.358.252-.593.475a18.55 18.55 0 0 0-.72.72l-.732.765c-.243.255-.445.45-.604.586a81.348 81.348 0 0 0-2.82 2.807c-.107.108-.213.22-.177.23.035.013.07.047.115.06-.034.047-.07.09-.106.136l-.19-.045a9.167 9.167 0 0 0-.52.66c-.285.385-.588.764-.918 1.14l-.45.513a5.562 5.562 0 0 1-.486.485l.03-.033c-.237.223-.47.468-.704.734l-.67.76a81.076 81.076 0 0 1-2.557 2.777c-.87.9-1.712 1.813-2.527 2.742-.796.905-1.58 1.82-2.355 2.746-.325.388-.645.787-.648.904-.002.118.07.11.14.106-.168.148-.33.298-.505.44-.013.012-.077 0-.134-.01-.366.483-.723.98-1.072 1.486l-.546-.48-.18-.15c-.084.072-.177.132-.272.17-.214.084-.557.408-.752.327-.157.194-.32.406-.483.636-.26.36-.48.713-.667 1.06-.186.344-.266.568-.238.67.014.208.145.392.395.554.24.155.418.28.53.38.07-.07.14-.142.2-.216.054-.065.475-.165.675-.174.225-.012.374.055-.03.325l-.52.348a42.876 42.876 0 0 0 1.83 1.493c.284.17.53.336.737.5.21.163.444.32.703.47.11.096.254.234.433.41.18.175.343.29.492.343.128.032.3-.03.52-.19.218-.16.44-.357.665-.59.224-.234.428-.476.61-.728.18-.25.31-.42.39-.51.168-.282.12-.54-.145-.772a7.256 7.256 0 0 0-.887-.662 79.398 79.398 0 0 1 1.648-2.076l.012-.014c-.062-.007-.132-.016-.215-.02.274-.276.455-.55.714-.7l.182-.097c.33-.39.66-.776.993-1.152a32.867 32.867 0 0 0 1.693-2.095 32.11 32.11 0 0 1 1.694-2.095l.83-.944c.283-.32.58-.637.892-.95l-.03.035a17.64 17.64 0 0 0 1.232-1.27l1.165-1.325c.175-.2.343-.413.506-.642.162-.23.32-.433.476-.61.74-.798 1.486-1.58 2.24-2.35.752-.765 1.488-1.56 2.206-2.378a1.21 1.21 0 0 0 .144-.196.31.31 0 0 1 .193-.148c.097-.027.13-.01.174.03l.184.16c-.013-.17.054-.365.245-.6.133-.032.268-.054.4-.07.205-.02.396-.024.59-.034l-.548.368c-.21.13-.41.265-.612.402l.584.5.01-.055c.112-.022.226-.05.223-.044a1.712 1.712 0 0 1-.075.232l.274.23c.43.357.854.72 1.274 1.09.508.447.988.926 1.437 1.44l.176.195a1.49 1.49 0 0 1 .2-.07c.572-.152.84.012.815.45-.007.145.072.258.13.377.073.15.097.27.06.385l.118.097c.17.073.323.177.458.314.135.138.258.276.37.414a1.54 1.54 0 0 1-.257.362c-.446.508-.91 1-1.39 1.48-.48.48-.952.984-1.418 1.514a115.27 115.27 0 0 0-4.09 4.923 24.44 24.44 0 0 0-1.51 2.05c-.465.71-.98 1.382-1.542 2.024a9.324 9.324 0 0 1-.794.802c-.276.246-.54.513-.793.8-.6.686-1.19 1.39-1.77 2.115-.578.726-1.17 1.43-1.77 2.116l-.262.3a4.586 4.586 0 0 1-.566-.292c-.207-.123-.363-.19-.468-.205-.29.018-.604.22-.945.61-.34.385-.575.696-.706.934-.073.13-.185.278-.33.444a9.22 9.22 0 0 0-.406.496c-.124.165-.202.33-.233.5-.03.168.043.33.22.486.393.266.744.556 1.057.87a7.15 7.15 0 0 0 1.056.87c.437.304.855.652 1.256 1.044.4.39.817.718 1.25.982.13.075.286.064.467-.03.182-.096.36-.233.537-.41a6.19 6.19 0 0 0 .48-.548c.145-.186.266-.334.363-.444zm5.337-14.662l.11-.01c-.02.03-.04.07-.066.087-.03.017-.07.01-.108.012.02-.03.043-.06.064-.088zM66.616 8.86c-.037.02-.075.043-.112.065l.05-.085c.015.017.03.03.046.045l.184-.064c-.058.015-.113.026-.168.04zm-.474 6.027c.016-.025.035-.05.053-.075.03 0 .075-.012.08 0 .007.012-.03.046-.046.07l-.088.005zm1.424-2.935l.013-.062.062.02-.075.042zM52.392 13.89c.034-.002.07-.006.104-.01-.058.055-.11.11-.175.163-.013.01-.066 0-.1.004.056-.05.11-.102.172-.157zm-6.537 1.727c.064-.015.127-.03.19-.047-.028.01-.06.028-.084.03-.032 0-.06-.006-.087-.01l-.01.015.01-.015c-.23.16-.456.317-.682.476l-.098-.122c.254-.11.51-.218.763-.327zm1.896 2.91l-.104.147-.208-.023c.055-.047.11-.116.165-.137.05-.02.098.01.148.015zM63.9 3.793c-.063.046-.127.11-.19.132-.07.028-.142.025-.215.034.078-.062.153-.138.233-.177.05-.025.115.007.172.012zm-11.59 9.614c.142-.136.226-.25.298-.276.087-.032.17.004.234.03.012.004-.094.133-.148.157-.1.042-.202.05-.384.09zm-1.38.567c.035-.082.048-.158.11-.234.02-.03.16-.058.246-.087-.047.082-.082.164-.147.244-.02.023-.123.046-.21.076zm7.652-9.927c.163.01.307-.016.306.02-.005.076-.085.182-.135.276-.093.014-.26.062-.265.034-.013-.072.047-.178.094-.33zm.7-2.41c.15-.025.344-.072.34-.05-.012.078-.092.182-.145.276-.096.005-.236.04-.28.006-.032-.03.046-.134.085-.234zM43.896 23.607c-.123-.07-.23-.122-.32-.188-.01-.01.086-.09.133-.14.12.042.245.08.354.13.01.005-.074.088-.168.198zm1.554-3.536c.185-.17.284-.293.34-.306.168-.042.317-.04.475-.057-.103.08-.203.18-.312.23-.127.06-.262.07-.503.132zm9.785-11.805c.273-.002.413-.02.505.006.032.01-.064.13-.104.2-.156.026-.33.073-.46.065-.044-.002.025-.135.06-.272zm11.018-2.73c.222.055.375.072.473.128.037.023-.05.14-.083.214-.186.034-.38.076-.558.097-.02 0 .045-.124.168-.44zM46.293 16.75l-.335.105c.037-.08.037-.18.11-.238.314-.24.652-.464.984-.69.01-.006.124.052.116.06-.28.25-.565.496-.876.764zm2.415-3.387c-.244.063-.427.11-.607.16.126-.158.218-.356.388-.462.166-.102.41-.116.62-.17l-.4.473zm17-5.995c-.204-.187-.326-.275-.408-.387-.044-.06-.054-.155-.01-.25.014-.034.257-.162.326-.162.11 0 .22.048.22.12.006.158-.06.344-.13.68zm-3.147 9.447c.266.01.47.01.646.038.013.002-.186.267-.235.278-.242.063-.467.08-.702.114.07-.106.143-.21.293-.43zm-20.073 4.19c.72-.447 1.27-.59 1.426-.41.028.033-.023.154-.086.197-.455.32-1.343.642-1.42.508-.042-.072.06-.226.08-.294zm24.31-7.74c.785-.39 1.496-.838 2.203-.84.128 0 .21.053.316.082-.18.11-.363.255-.54.32-.196.077-.38.063-.582.123-.187.055-.437.13-.572.24-.75.587-1.474 1.188-2.202 1.787-.1.082-.165.227-.246.26-.275.113-.572.224-.818.26-.058.01-.032-.304.096-.41.76-.616 1.56-1.216 2.346-1.82zM52.712 36.203l.01-.018.005.04c.145-.083.29-.164.435-.245l-.11.225c-.104-.002-.208-.005-.31-.01l-.03.007zm22.8-17.423c.236-.084.468-.164.702-.243-.28.17-.424.276-.57.34-.085.036-.17 0-.258 0zm4.943.823c.03 0 .08-.013.086 0 .005.013-.03.05-.05.074-.03 0-.08.013-.086 0-.007-.01.032-.047.05-.074zM74.54 33.778l.07-.065.02.04zm2.012 1.187l-.062-.017.087-.048zm-8.276-8.404l.057-.045.01.03-.066.016zm-3.004 3.963c.035-.002.094-.018.102-.002.006.017-.038.058-.06.09-.035 0-.093.015-.1 0-.006-.013.037-.056.058-.087zm14.136-1.886l-.057.048-.01-.03.068-.018zm-4.19-7.308c-.07.027-.143.058-.216.087.023-.037.048-.072.07-.108.045.013.09.027.132.042.11-.084.21-.188.326-.242.162-.08.38-.172.484-.16.092.01.058.155.08.24-.178.067-.372.166-.527.194-.14.022-.234-.034-.348-.055zm-1.162-1.893l-.058.05-.013-.032zM72.058 37.81c.057-.052.11-.105.173-.155.016-.01.066-.002.097-.002-.053.05-.103.103-.166.148-.017.016-.066.008-.102.012zm8.314-15.923l.083.007-.1.104c-.02-.01-.055-.016-.053-.038 0-.015.044-.048.07-.073zm-5.356-2.732l-.108.134c-.046-.015-.114-.018-.13-.05-.008-.02.062-.085.097-.128.045.014.093.03.14.043zm-5.535 3.462h.152c-.05.052-.1.112-.16.152-.03.017-.093-.002-.14-.005l.15-.148zm4.893 11.706c.038-.007.106-.03.106-.023-.006.044-.022.093-.036.14-.035.004-.1.023-.1.014 0-.04.018-.086.03-.13zm-2.495-9.99c.035-.014.072-.026.11-.04l-.083.122-.1.002.073-.084zm5.31 7.945l.092-.006c-.046.047-.09.094-.14.14-.004.004-.05-.005-.08-.007a7.55 7.55 0 0 0 .127-.127zm-16.875 6.127l.216-.06c-.02.03-.04.078-.052.083-.077.028-.15.046-.227.067l.063-.09zm2.203-.244c.064-.014.128-.03.192-.046-.03.01-.063.028-.085.03-.033 0-.06-.007-.088-.01l-.01.014.01-.014-.682.475a5.793 5.793 0 0 1-.1-.123c.255-.11.51-.217.764-.326zm1.898 2.912l-.106.145c-.07-.006-.14-.016-.208-.023.055-.047.11-.116.165-.137.05-.02.1.01.15.015zm-2.89-7.732c.01.016.018.032.028.046a8.07 8.07 0 0 1-.154.074c.006-.024.002-.05.023-.07.023-.02.07-.033.104-.05zm18.636-4.413c.11-.027.224-.072.24-.053.03.036.01.106.01.163-.07.017-.18.067-.2.05-.04-.033-.035-.1-.05-.16zm-12.18-4.73l.168.02c-.072.058-.142.133-.213.164-.054.026-.11-.013-.163-.023.068-.054.138-.107.207-.16zM73.296 36.1c.037.02.11.028.105.063-.002.033-.083.096-.13.147-.038-.022-.104-.03-.104-.067 0-.03.082-.093.13-.143zm2.205-.426l.208-.09c-.023.05-.03.105-.077.146-.044.04-.133.06-.202.09l.072-.146zm-2.242 1.59c.035-.084.056-.17.077-.18.103-.044.206-.065.31-.093-.018.052-.026.132-.057.146-.103.055-.212.084-.33.13zm-8.326-8.22l.12-.245c.06-.002.158-.027.17-.003.02.053-.002.13-.01.197l-.28.05zm-.565-.143c.063.02.162.024.147.053-.03.072-.114.153-.177.234-.046-.012-.14-.01-.132-.035.03-.076.1-.16.16-.25zm-3.967 8.803c.108-.007.218-.022.213-.015-.036.08-.093.162-.144.242-.053-.005-.15.01-.153-.016 0-.053.05-.13.083-.21zm20.16-11.366c-.062.045-.127.108-.188.132-.072.027-.144.022-.217.033.08-.063.153-.14.234-.18.05-.023.114.008.172.013zm-2.962 5.433c.05-.078.078-.12.106-.166.076.01.155.02.227.037a.25.25 0 0 1-.054.076c-.095.022-.185.036-.28.054zm-4.4-9.48c0-.043.004-.085.006-.128.068-.022.164-.066.196-.056.034.012 0 .08-.006.12-.066.022-.133.045-.197.064zm-1.673 2.755c.136.08.22.125.3.172-.127.096-.257.192-.387.287-.028-.07-.078-.13-.077-.215 0-.047.083-.128.164-.245zm-1.144 12.47c.063.055.165.084.137.132-.04.068-.18.147-.276.223-.048-.027-.154-.044-.13-.083.038-.072.152-.158.27-.27zm-8.27 5.1c.184-.17.284-.292.34-.305.167-.043.317-.042.475-.057-.104.08-.203.182-.312.23-.128.06-.263.07-.503.132zm11.72-22.373c.145.036.296.052.282.072-.1.128-.23.258-.368.38-.022.02-.247.007-.236-.012.076-.13.19-.263.324-.44zm6.583.43c.213-.01.37-.014.526-.02-.053.067-.126.185-.154.192-.178.046-.348.068-.51.084-.01 0 .07-.13.138-.257zM62.643 30.2c.218-.054.39-.098.567-.14-.057.074-.11.186-.168.21-.174.076-.35.117-.526.17.037-.066.072-.135.127-.24zm4.996 12.205c.178-.01.353-.036.346-.016a2.21 2.21 0 0 1-.23.412c-.016.025-.14.06-.216.09.028-.144.058-.288.1-.485zm-2.824-11.32c.146.052.298.108.45.164-.053.046-.143.132-.158.13-.206-.013-.403-.036-.6-.056.067-.05.134-.103.308-.237zm12.242-10.042l.223.05c-.153.123-.295.26-.464.37-.055.037-.173.016-.263.02.156-.134.31-.268.505-.44zM63.334 29.96c.208-.213.323-.373.393-.394.184-.05.368-.065.502-.042.034.005-.123.267-.16.278-.203.066-.394.09-.736.157zm2.457 14.323c.167-.236.23-.408.36-.488.128-.08.343-.082.482-.077.03.002-.072.223-.168.284-.154.1-.353.152-.673.28zM78.316 33.27c-.216.245-.308.406-.457.498-.146.09-.348.11-.526.163.055-.123.072-.3.17-.356.198-.118.438-.172.813-.304zm1.82-10.67c.31.064.515.085.665.15.032.014-.193.283-.233.293-.2.045-.442.09-.542.036-.076-.04.044-.23.11-.48zm2.24 7.31c-.204-.186-.326-.276-.408-.387-.044-.06-.053-.155-.01-.25.013-.035.258-.162.327-.162.11 0 .22.048.22.12.005.158-.06.345-.13.68zm-18.412.454c.23-.21.37-.39.535-.472.122-.06.34-.036.403.025.063.06-.017.215-.035.328l-.902.12zm15.75-8.58c-.152.204-.245.37-.403.518-.043.04-.412.09-.408.05.02-.184.115-.398.186-.6l.624.032zm-10.57 4.44c.48-.168.77-.294 1.025-.347.13-.03.196.072.292.115-.17.12-.41.34-.495.344-.263.014-.466-.055-.822-.113zm9.364-5.646c-.32.132-.516.21-.712.29.084-.22.166-.44.248-.663.313-.035.627-.072.937-.108l-.473.48zm-15.6 10.657c.41-.284 1.1-.343 1.14-.087.015.097-.316.454-.488.523-.59.24-1.18.412-1.766.59-.088.027-.202-.012-.21-.064-.005-.06.076-.195.16-.252.38-.247.775-.475 1.164-.71zm-2.937 3.81c.13.176.305.26.277.416-.042.232-.124.41.36.297.218-.052.39.075.508.172.07.06-.002.22-.012.333-.148.033-.315.092-.438.095-.617.01-1.226.01-1.834.01-.064 0-.178-.008-.167-.023.148-.23.274-.466.488-.688.176-.18.462-.35.82-.613zm11.165 17.36l.01-.018.005.04.435-.245-.11.227a15.547 15.547 0 0 1-.31-.01l-.03.006zm22.798-17.423c.235-.083.47-.163.703-.242-.283.172-.425.277-.57.34-.086.036-.173 0-.26 0zm-8.31 28.773l-.34.083.004-.02c.145-.028.266-.068.336-.063zM107.81 45.07a1.41 1.41 0 0 0-.047.08c-.034.003-.088.02-.094.006-.01-.01.03-.05.044-.077.035-.005.07-.006.096-.01zm-8.938-9.262c.03 0 .08-.013.085 0 .006.013-.03.05-.05.075-.03 0-.078.013-.084 0-.007-.01.033-.047.05-.075zm-5.915 14.174l.07-.063.02.037zm2.014 1.188l-.06-.017.086-.047zm-8.276-8.405l.057-.046.01.03-.067.014zm-2.854 5.99l-.068.057-.014-.034zm-3.365-1.56c-.02.015-.043.03-.064.043a.198.198 0 0 1 .028-.036l-.365.056c-.005.025-.007.05-.014.078.126-.046.254-.094.384-.14h.031zm.248-.805l-.08.07-.02-.042zm2.968.338c.037-.002.095-.017.103-.002.006.015-.038.057-.06.087-.034 0-.093.016-.1 0-.008-.012.037-.054.058-.085zm14.138-1.885l-.057.047-.01-.028.068-.02zm-19.174 4.06c-.018.023-.03.055-.053.07-.022.012-.055.004-.083.006.017-.025.03-.057.054-.07.023-.013.055-.006.084-.006zm-4.066 1.09l.034.104c0-.037.004-.073.004-.11h-.002c0-.046-.002-.093-.004-.14.044-.002.086-.006.13-.01-.055.05-.11.104-.163.156zm15.886 4.018c.057-.05.11-.105.174-.155.014-.01.064-.002.096-.002-.053.05-.103.104-.166.15-.02.013-.067.007-.104.008zm-1.617-1.732c-.016.027-.03.05-.042.075-.028 0-.07 0-.076-.015-.005-.015.028-.048.043-.076l.074.016zm9.932-14.2l.082.008c-.035.035-.067.07-.102.103-.02-.01-.053-.017-.05-.04 0-.015.044-.047.07-.072zm-5.357-2.733l-.108.135c-.047-.014-.114-.02-.128-.05-.01-.02.06-.085.094-.128l.143.043zm15.374 9.432c.053-.044.104-.09.16-.127.02-.014.08-.014.085 0 .005.013-.037.065-.055.073-.062.023-.126.038-.19.054zm-20.91-5.97h.15c-.053.052-.1.11-.16.152-.03.015-.093-.003-.14-.005l.15-.148zm4.89 11.707c.04-.01.108-.03.107-.025-.004.043-.02.092-.034.14-.035.005-.1.024-.1.014-.003-.04.017-.087.028-.13zm-2.495-9.992l.11-.04-.082.122-.1.002.072-.085zm5.31 7.945c.03 0 .06-.004.093-.006-.046.048-.09.094-.14.14-.006.005-.052-.004-.08-.007l.127-.127zm-8.862 6.07l.046-.15c.038-.007.11-.026.107-.016 0 .042-.02.09-.035.135l-.118.03zm-6.804-5.008c.01.014.018.03.027.043-.05.028-.102.05-.152.075.006-.024.002-.05.023-.07.02-.02.068-.033.103-.05zm18.637-4.416c.11-.026.222-.07.237-.052.033.037.01.107.01.163-.07.017-.18.067-.198.05-.04-.032-.034-.098-.05-.16zm-12.183-4.73l.17.022c-.07.056-.142.133-.214.163-.053.023-.11-.016-.162-.025.067-.055.138-.108.206-.16zm5.32 11.905c.037.02.108.026.104.06-.002.035-.083.098-.13.148-.036-.02-.103-.03-.103-.067 0-.03.084-.092.13-.14zm2.205-.427l.208-.09c-.023.05-.03.105-.077.145-.044.038-.132.06-.202.09.023-.05.047-.097.072-.145zm-2.242 1.59c.035-.084.055-.17.078-.182.104-.042.207-.064.31-.09-.018.05-.026.13-.057.144-.102.054-.213.084-.33.128zM83.35 45.23l.117-.242c.06-.002.16-.027.17-.002.02.054-.002.13-.01.198l-.28.048zm-.568-.14c.065.02.164.023.15.052-.033.07-.116.153-.18.234-.045-.01-.14-.01-.13-.035.03-.075.1-.158.16-.25zm18.874-6.96c0 .022 0 .04-.004.062l-.174.056c.034-.042.067-.08.1-.123l.077.005zm-2.683 4.396c-.064.047-.128.11-.19.133-.07.026-.143.023-.216.033.08-.062.154-.14.234-.178.05-.025.115.006.173.01zM96.01 47.96l.105-.165c.077.01.156.02.23.037a.27.27 0 0 1-.056.075c-.096.02-.186.035-.28.054zm-4.4-9.48c0-.042.003-.085.005-.128.07-.02.165-.066.197-.055.033.01 0 .078-.006.12-.065.022-.13.044-.197.064zm-7.99 22.887c.082-.11.162-.216.256-.32a.53.53 0 0 1 .166-.01c-.046.102-.114.21-.176.317l-.247.014zm6.316-20.123c.137.08.22.125.3.172-.128.095-.257.192-.388.287-.027-.07-.076-.13-.075-.215 0-.046.083-.127.163-.244zm-1.143 12.47c.062.055.165.084.136.132-.04.067-.18.146-.277.222-.048-.027-.153-.043-.13-.083.038-.072.152-.156.27-.27zm2.957-3.592c.138.02.238.017.296.046.032.017-.004.087-.01.133-.09.017-.22.065-.258.042-.047-.03-.02-.116-.028-.22zm-15.85-.44l-.06.33c-.14.01-.34.065-.396.017-.052-.042.056-.194.094-.298l.363-.05zm4.62 9.13c.186-.17.285-.29.343-.304.167-.04.316-.04.474-.058-.104.08-.203.183-.312.232-.128.06-.263.07-.504.13zM92.244 36.44c.143.036.294.05.28.072-.1.128-.23.26-.368.38-.022.02-.247.008-.235-.012.075-.13.187-.263.323-.44zm6.582.43c.212-.01.37-.015.526-.02-.053.067-.126.185-.155.19a3.346 3.346 0 0 1-.51.087c-.008 0 .07-.13.14-.258zM81.05 46.4c.22-.053.393-.097.57-.14-.058.074-.112.186-.17.212-.174.074-.35.115-.525.168.037-.067.073-.135.126-.24zm4.997 12.205c.18-.01.354-.036.348-.016-.053.13-.134.27-.23.41-.017.025-.14.06-.214.09l.097-.485zm-7.553-9.255c.206-.018.386-.052.513-.033.05.01-.01.13-.017.198-.212.046-.422.096-.625.13-.01 0 .063-.146.13-.295zm4.73-2.066l.45.165c-.053.045-.144.13-.158.13-.205-.014-.403-.037-.6-.057.066-.053.133-.104.307-.24zm12.24-10.042c.09.02.157.034.224.05-.152.124-.296.26-.465.37-.055.038-.172.017-.262.02.157-.135.31-.267.505-.44zm5.864 7.03c.224.058.378.075.474.13.038.024-.05.14-.082.213-.186.035-.38.077-.56.1-.018 0 .047-.124.17-.442zm-19.586 1.885c.206-.213.322-.373.392-.394.184-.05.37-.064.502-.042.036.007-.122.27-.16.28-.2.066-.392.09-.734.157zm2.456 14.324c.166-.236.228-.407.36-.486.126-.08.342-.083.48-.077.03 0-.07.222-.168.284-.153.1-.352.15-.672.28zM96.723 49.47c-.218.245-.31.407-.46.5-.144.09-.346.108-.523.16.053-.123.07-.3.17-.357.197-.115.437-.17.813-.302zm1.82-10.67c.31.063.515.085.665.15.03.014-.193.284-.233.294-.2.043-.442.09-.542.036-.076-.04.043-.23.11-.48zm-24.41 13.087c.077-.22.14-.45.263-.687.024-.044.28-.135.432-.204-.022.077-.006.183-.07.226-.36.252-.365.38-.166.477.032.015-.075.14-.12.215a25.108 25.108 0 0 1-.34-.027zm8.24-5.318c.23-.21.37-.39.535-.473.122-.06.34-.035.404.026.06.062-.02.214-.038.327l-.902.12zm15.748-8.58c-.15.204-.243.37-.4.518-.043.04-.413.088-.408.05.018-.184.115-.398.186-.6.17.01.34.017.623.03zm-10.566 4.44c.48-.168.77-.294 1.025-.348.128-.03.194.072.29.116-.17.12-.412.34-.495.343-.262.012-.465-.056-.82-.114zm9.364-5.646c-.322.133-.516.213-.712.29.084-.218.165-.44.25-.662l.935-.108c-.163.168-.328.334-.472.48zm10.15 11.645c.512-.263.77-.43 1.004-.508.215-.068.408-.042.612-.058-.123.133-.22.28-.374.396a27.66 27.66 0 0 1-1.352.952c-.117.076-.354.134-.44.112-.08-.02-.095-.158-.024-.244.208-.268.473-.537.574-.65zm-25.748-.988c.408-.284 1.1-.342 1.14-.087.013.097-.318.453-.49.523-.588.24-1.178.41-1.765.59-.086.027-.2-.013-.207-.065-.006-.06.073-.195.158-.25.38-.247.775-.476 1.164-.71zm-2.94 3.81c.13.176.306.26.278.416-.04.23-.123.412.36.296.22-.052.39.075.508.172.07.06-.004.22-.013.334-.147.033-.313.093-.437.095-.617.01-1.225.01-1.835.01-.063 0-.177-.007-.165-.02.147-.23.274-.466.488-.69.174-.18.46-.348.818-.613zM90.623 67.42l.01-.018.005.04.435-.245c-.037.075-.073.152-.108.227-.107-.004-.21-.005-.312-.01l-.03.006zm23.798 6.863l.11-.01c-.023.03-.04.07-.067.086-.03.015-.07.01-.108.012.022-.032.042-.06.065-.09zm-11.088-10.517l-.068.056-.014-.035zm-.297 1.73l.06-.047.008.03-.068.016zm.147-3.758c.036-.002.094-.018.102-.002.006.015-.038.057-.06.087-.034 0-.093.016-.1 0-.008-.012.037-.054.058-.084zm18 .87l-.113.065.047-.084.048.043c.062-.02.123-.042.182-.065-.055.015-.11.027-.166.04zm-23.05 1.306c-.017.023-.03.055-.052.068-.024.013-.057.004-.085.007.017-.026.03-.057.054-.07.02-.013.054-.006.083-.006zm15.262 10.356l.195-.067c-.02.025-.036.063-.06.074-.063.03-.127.048-.19.07a2.51 2.51 0 0 0 .054-.077zm-.357-1.59l-.022-.032.106-.043zm5.232-19.587l.083.007-.103.104c-.018-.01-.053-.016-.05-.04 0-.013.044-.047.07-.07zm-10.893.73c.052 0 .1 0 .152.002-.053.05-.1.11-.16.15-.03.018-.093 0-.14-.002l.147-.148zM95.53 68.95v.002c.005.018 0 .036-.008.045-.3.25-.612.544-.952.427l-.014.022c.034-.028.063-.06.1-.086.26-.186.436-.527.824-.467.026.005.044.032.05.06zm3.89-4.406c.01.015.017.03.025.044-.05.027-.1.05-.152.075.005-.024.002-.05.023-.07.02-.018.068-.033.103-.048zm6.446-9.143c.058.005.113.01.17.02-.07.056-.142.132-.214.163-.052.023-.11-.015-.163-.025l.206-.16zm2.916 4.208c-.034.045-.07.088-.105.135-.066-.017-.133-.03-.2-.048.057-.045.132-.122.165-.126.06-.01.095.023.14.038zm6.933 11.977c.078-.03.156-.064.233-.095-.007.046.01.107-.026.132-.06.042-.153.062-.23.093l.023-.13zm-7.783-11.305c-.002-.045-.006-.09-.01-.134.074-.014.17-.05.207-.038.033.013.003.08.004.122l-.202.05zm4.496 15.274c-.064.05-.123.12-.186.15-.044.02-.094-.017-.14-.03.055-.05.12-.127.165-.142.06-.018.11.012.16.022zm-9.604-15.312l.12-.243c.058-.003.157-.028.168-.005.022.054 0 .13-.007.197l-.28.05zm-.567-.14c.065.02.165.022.15.05-.033.072-.115.154-.178.235-.047-.01-.142-.01-.134-.035.032-.076.102-.16.16-.25zm10.877-2.31c.163.008.308-.017.306.018-.005.078-.086.184-.134.276-.094.015-.26.064-.265.035-.013-.07.046-.177.094-.33zm-8.003-3.196c.088-.12.123-.214.2-.266.085-.054.208-.066.314-.097-.04.07-.056.156-.125.208-.082.06-.21.09-.39.156zm8.704.784c.15-.024.343-.072.34-.048-.012.077-.092.18-.145.274-.097.004-.237.04-.28.006-.033-.03.044-.134.084-.233zm-15.86 8.978c.205-.018.385-.052.512-.034.05.01-.01.13-.017.198-.212.046-.423.096-.626.13-.01 0 .063-.146.13-.294zm8.156-2.79c.26-.013.456-.036.623-.024.032.002-.05.135-.08.205-.21.033-.427.078-.626.093-.026.004.036-.126.083-.275zm-3.426.723l.45.166c-.053.046-.143.13-.157.13-.206-.013-.404-.036-.602-.056l.31-.24zm12.24-10.04c.09.02.157.033.224.05-.152.124-.295.26-.465.37-.054.038-.172.016-.262.02.157-.134.31-.268.505-.44zm-13.723 8.914c.207-.212.323-.373.393-.393.184-.05.37-.063.502-.04.036.004-.122.266-.158.277-.203.066-.395.09-.736.157zm-6.853 8.314c.22.11.36.138.398.216.025.053-.104.187-.16.283-.12 0-.318.045-.34-.006-.037-.085.04-.232.102-.49zm23.648-15.674c.31.063.516.085.666.15.032.014-.193.283-.233.294-.2.043-.44.088-.542.036-.075-.04.044-.23.11-.48zm-3.532 19.15c-.21.212-.31.365-.457.452-.147.088-.34.114-.513.167.098-.158.154-.328.312-.467.08-.07.34-.084.658-.153zm-10.227-16.225l-1.864 1.125c-.117.07-.24.126-.36.19.12-.084.245-.18.365-.25.604-.36 1.21-.71 1.812-1.062.014 0 .03-.004.046-.004zm-2.41 4.83c.232-.21.37-.39.536-.473.122-.06.34-.035.404.026.06.06-.02.214-.037.327-.2.028-.397.053-.904.12zm5.417-1.14c-.045.014-.09.025-.132.036-.175.246-.526.457-.844.54a4.8 4.8 0 0 1-.108.19c.13-.03.306-.044.384-.104.213-.167.384-.356.7-.662zm10.332-7.44c-.15.203-.244.37-.402.517-.043.042-.412.09-.407.05.018-.184.115-.397.185-.598.17.007.343.016.625.03zm-.487 17.574c.266.01.47.01.646.038.012.004-.187.268-.236.28-.242.06-.468.078-.702.112l.292-.43zm.682-1.922c-.325.342-.5.584-.756.773-.103.076-.506.115-.558.04-.15-.216.3-.435.6-.61.156-.086.352-.103.714-.203zm-1.597-1.106c-.433.39-.72.664-1.04.92-.054.044-.32.066-.372.018-.13-.12.312-.587.77-.804.134-.066.286-.063.643-.134zm.198-15.75c-.32.132-.515.212-.71.29.084-.22.164-.44.248-.662l.936-.108-.473.48zm1.405 14.987c.26-.413.445-.71.63-1.002.207.005.502-.055.6.023.2.16.17.425-.394.727-.188.1-.407.127-.835.253zm-24.76 1.084c-.53.34-1.053.687-1.59 1.016-.11.07-.366.132-.396.098-.048-.054 0-.192.083-.297.48-.613 1.33-.966 1.89-.793l.01-.023zm31.284-7.33c.394-.19.79-.375 1.183-.565-.275.31-.546.62-.828.93-.108.118-.26.234-.363.352-.21.244-.398.488-.597.733.015-.22.14-.508.023-.642-.24-.275.04-.51.58-.807zM112.896 56c.084.042.167.084.25.13l.076-.06c.052-.04.104-.123.09-.146-.02-.033-.097-.05-.163-.03-.16.046-.326.116-.193.068l-.06.037zm-12.12 6.437c.41-.283 1.1-.342 1.14-.087.015.098-.316.455-.487.523-.59.24-1.18.41-1.766.59-.086.028-.2-.013-.207-.065-.006-.06.073-.195.16-.25.377-.247.772-.475 1.162-.71zm-2.937 3.81c.13.175.305.26.277.415-.04.232-.123.412.36.297.22-.053.39.075.508.17.07.06-.004.22-.013.336-.147.033-.314.092-.437.094-.617.012-1.226.01-1.835.01-.063 0-.178-.01-.166-.022.146-.23.273-.465.487-.688.175-.18.462-.35.82-.613zm33.585 1.54a42.3 42.3 0 0 1 .7-.24c-.28.17-.423.276-.567.338-.087.037-.173.002-.26 0zm-8.31 28.774l-.342.083.006-.018c.145-.03.265-.07.336-.064zm22.187-18.685a5.757 5.757 0 0 0-.047.082c-.034.002-.088.018-.094.004-.008-.01.03-.05.047-.076.035-.004.067-.006.095-.01zm-8.94-9.26c.032 0 .083-.013.087 0 .005.013-.03.05-.05.074-.03 0-.08.012-.085 0-.006-.01.032-.047.048-.075zm-3.94 23.46l.108-.01c-.022.03-.04.07-.066.086-.03.02-.07.01-.108.014.02-.03.042-.058.065-.087zm-8.235-16.51l.056-.046.01.03-.066.015zm-2.854 5.99l-.068.057-.014-.035zm-3.366-1.56l-.062.042a.15.15 0 0 1 .025-.036c-.12.02-.242.038-.365.057-.004.025-.007.05-.014.077.128-.045.257-.093.386-.14h.03zm.248-.806l-.08.07-.02-.043zm2.82 4.095l.06-.047.01.03-.07.017zm.148-3.758c.035-.002.094-.017.102-.002.006.015-.038.057-.06.087-.035 0-.093.017-.1 0-.006-.012.037-.054.058-.085zm9.947-9.193c-.07.027-.143.058-.216.088l.07-.11c.044.015.09.03.13.045.11-.084.212-.19.327-.243.163-.08.383-.17.485-.158.092.01.06.153.08.24-.177.065-.37.165-.526.192-.14.022-.236-.033-.35-.054zm8.057 10.064l-.112.065c.015-.027.032-.054.048-.085.016.017.032.03.047.045l.183-.064-.166.038zm-9.22-11.957l-.057.054-.013-.035.07-.02zm8.745 17.988c.017-.025.036-.05.054-.074.03 0 .075-.013.08 0 .008.01-.028.045-.046.072-.03 0-.058 0-.088.002zm-22.11-.65c.028 0 .075-.01.082 0 .005.012-.03.045-.047.07-.03.003-.076.012-.08 0-.008-.01.028-.044.044-.07zm2.75-.102c.026 0 .07-.01.074.002.005.012-.03.045-.05.068-.026 0-.07.01-.075 0-.004-.014.033-.047.05-.07zm-2.53 3.75l.088-.007c-.02.023-.035.057-.058.07-.024.012-.058.005-.087.008l.056-.074zm14.586 2.636l.196-.066c-.02.025-.037.062-.058.074-.064.03-.13.048-.193.07.018-.025.038-.05.055-.078zm-.356-1.59l-.024-.032.107-.043zm9.084-6.98l.012-.06.064.018-.076.043zm-9.21-15.336l-.108.135c-.046-.013-.114-.018-.13-.048-.007-.022.062-.086.097-.13l.14.044zm15.374 9.432c.05-.044.103-.09.16-.127.017-.013.077-.013.085 0 .005.014-.037.066-.056.074-.063.023-.127.037-.19.054zm-14.937-5.617c.016.01.053.017.046.026-.02.027-.058.053-.09.08a1.974 1.974 0 0 0-.073-.045c.038-.018.08-.04.116-.06zm-3.575 1.363l.11-.04-.082.122-.102.002c.026-.028.05-.057.074-.084zm-13.15 15.112c.026-.007.05-.017.075-.025a1.98 1.98 0 0 1-.075.076v-.05zm-1.095-1.694c.005.02.002.038-.01.047-.3.248-.61.542-.952.427l-.01.02c.033-.027.06-.057.097-.085.26-.186.437-.527.825-.468.025.004.044.032.05.058zm2.677.66c.074-.022.145-.04.216-.06-.017.028-.037.078-.05.08-.077.03-.15.047-.227.068l.06-.088zm2.204-.246l.19-.046c-.028.01-.062.028-.085.03-.033 0-.06-.007-.09-.01l-.01.015.01-.014-.68.474-.1-.122c.255-.11.512-.218.764-.327zm6.997 8.09l-.034.13c-.035.005-.094.02-.095.014 0-.037.016-.083.028-.126.034-.005.068-.013.103-.02zm-7.99-12.913l.03.045c-.053.027-.103.05-.154.075.006-.024.002-.05.022-.07.022-.02.07-.033.103-.05zm9.366-4.934l-.106.136c-.065-.018-.132-.032-.198-.047.056-.045.13-.123.163-.127.06-.01.096.024.14.038zm-.85.673l-.008-.135c.07-.015.17-.05.206-.037.032.013.004.08.004.12l-.2.05zm-5.108-.038c.048-.096.083-.17.12-.242.06-.003.158-.027.17-.003.02.053-.003.13-.01.197l-.28.048zm-.565-.14c.063.02.163.023.148.05-.03.073-.113.155-.176.236-.046-.01-.14-.01-.132-.036.03-.075.1-.16.16-.25zm-3.966 8.802c.108-.01.218-.023.213-.015-.037.076-.094.16-.144.24-.053-.005-.15.01-.152-.015 0-.055.05-.132.083-.21zm12.8-15.41c0-.044.003-.087.005-.13.068-.02.164-.067.196-.055.034.01 0 .077-.006.12l-.197.063zm1.584 1.496c.106-.02.255-.064.373-.067.03 0-.032.12-.053.187l-.557.107c.06-.057.117-.113.238-.227zm-9.574 21.386c.083-.11.163-.215.256-.322a.54.54 0 0 1 .167-.01c-.048.103-.115.212-.177.32l-.247.013zm6.318-20.123c.135.08.217.126.3.173-.128.095-.258.192-.39.286-.026-.07-.076-.132-.075-.215 0-.046.082-.126.163-.244zm2.306-4.797c.143.035.295.05.28.07-.1.13-.23.26-.368.38-.022.02-.247.01-.236-.01.075-.13.188-.263.324-.44zm-11.197 9.96l.567-.14c-.057.074-.112.187-.168.212-.174.074-.35.116-.526.168.038-.066.072-.135.127-.24zm-2.555-1.45c.25-.085.43-.147.607-.21-.07.104-.127.26-.21.302-.18.09-.374.117-.562.17l.165-.262zm8.155 1.61c.258-.012.455-.034.622-.024.033.002-.05.136-.08.206-.21.035-.427.08-.626.095-.027.002.035-.126.083-.276zm-3.428.725l.45.165c-.053.047-.143.13-.158.13-.205-.012-.403-.035-.6-.055.066-.053.133-.105.308-.24zm12.242-10.04c.088.02.155.033.223.05-.154.123-.296.26-.466.37-.054.037-.173.016-.262.02l.505-.44zm-13.724 8.913c.207-.212.323-.372.393-.394a1.27 1.27 0 0 1 .5-.042c.037.005-.12.268-.157.278-.203.066-.395.09-.737.157zm-6.855 8.315c.22.11.362.136.4.216.025.052-.104.187-.163.282-.12 0-.317.044-.338-.006-.037-.086.04-.234.1-.49zm9.31 6.006c.167-.237.23-.408.36-.488.127-.08.343-.082.482-.076.03 0-.07.222-.17.283-.153.1-.35.15-.67.28zm-4.523-14.25c.252-.123.464-.243.666-.318.102-.037.192.005.286.012-.097.103-.178.227-.3.304-.15.095-.338.17-.5.22-.176.055-.34.07-.51.102l.36-.32zm15.337 11.72c-.208.213-.31.368-.456.454-.15.088-.34.114-.514.166.098-.157.154-.327.313-.465.08-.072.34-.085.657-.155zm-12.637-11.387c.232-.21.37-.388.536-.472.123-.06.34-.034.404.026.062.062-.018.216-.036.33-.198.025-.395.05-.903.117zm5.417-1.138c-.046.013-.09.023-.132.034-.175.247-.527.456-.845.54-.035.066-.07.13-.11.192.132-.034.308-.046.386-.106.213-.167.384-.356.702-.66zm-.236-3.003c.48-.167.77-.293 1.025-.347.13-.028.197.073.293.116-.17.12-.412.34-.495.343-.263.012-.466-.055-.822-.113zm1.885 18.273c.245-.007.43-.052.48-.01.228.212-.21.516-.527.783-.072.062-.26.08-.394.12l.44-.893zm8.88-7.057c-.325.342-.5.584-.756.773-.104.075-.507.115-.558.04-.15-.216.3-.435.6-.61.155-.086.352-.103.714-.203zm-1.597-1.108c-.433.393-.72.666-1.04.922-.053.043-.32.066-.372.018-.13-.12.312-.587.77-.804.134-.065.286-.062.643-.135zm.197-15.75c-.32.133-.515.213-.71.292l.248-.664.936-.108c-.164.168-.33.335-.474.48zm-5.157 3.3c.276-.166.546-.355.828-.49.124-.062.27-.024.405-.03-.09.106-.16.248-.277.315-.587.347-1.185.68-1.785 1.005-.082.043-.192.027-.29.038.06-.083.096-.187.18-.244.308-.203.633-.39.95-.582-.005-.005-.007-.01-.01-.012zM127.8 90.184c-.398.217-.8.47-1.196.633-.194.08-.382-.02-.575-.037.19-.156.395-.385.572-.448.397-.142.78-.2 1.168-.294l.03.145zm8.015-5.6c.26-.414.445-.71.63-1.002.206.005.502-.056.6.023.198.16.172.423-.395.726-.19.1-.407.126-.835.253zm6.532-6.245c.395-.19.79-.376 1.184-.565-.274.31-.544.62-.827.93-.108.116-.26.232-.362.35-.208.245-.398.49-.596.734.014-.22.14-.508.023-.642-.24-.275.04-.51.58-.807zm2.213 2.908c.513-.264.77-.43 1.004-.51.216-.068.408-.04.613-.057-.124.133-.222.28-.375.396a26.62 26.62 0 0 1-1.352.952c-.117.076-.354.134-.44.112-.08-.02-.094-.157-.025-.244.21-.268.474-.538.574-.65zm-25.75-.99c.41-.282 1.102-.34 1.14-.085.016.097-.316.454-.487.523-.59.24-1.18.41-1.765.59-.087.028-.202-.012-.21-.064-.005-.06.076-.197.16-.252.38-.247.776-.476 1.164-.71zm-2.936 3.81c.13.178.305.262.276.417-.04.232-.122.412.36.297.22-.05.39.075.51.172.068.06-.004.22-.013.333-.148.034-.315.094-.437.097-.618.01-1.227.008-1.835.008-.066 0-.18-.008-.168-.02.148-.23.274-.467.49-.69.173-.18.46-.35.816-.613zm9.707-7.185c-.067.034-.133.036-.198-.008-.04-.002-.084-.01-.125-.015.162.06 2.502-.342.324.024zm4.717 25.575l.01-.02.006.04c.145-.08.29-.163.434-.245l-.108.227c-.106-.002-.21-.006-.312-.01l-.03.007zm3.895-5.28c.253-.27.513-.542.782-.814.073.016.122.044.12.088 0 .115-.222.343-.406.503-.11.096-.326.154-.495.226zm10.596 16.625l-.343.083.006-.018c.147-.03.266-.07.338-.065zm13.25-27.948c.03 0 .08-.013.085 0 .006.012-.03.05-.05.074-.03 0-.08.013-.084 0-.008-.01.03-.048.048-.074zm-5.915 14.174l.07-.063.02.038zm-18.374.01l.034.105c0-.036.003-.073.003-.11-.003-.045-.003-.092-.005-.14.043-.003.086-.005.13-.01-.054.05-.11.104-.163.156zm4.746 6.63c.03 0 .058-.005.09-.006-.02.023-.036.058-.058.07-.026.013-.06.006-.088.006.02-.024.037-.047.056-.072zm8.627-3.736c.016-.04.027-.102.048-.11.06-.03.126-.038.187-.054-.01.025-.015.062-.03.073-.063.034-.13.058-.204.09zm10.832-14.8l.084.008-.103.103c-.02-.01-.054-.015-.05-.036 0-.015.043-.048.068-.074zm-5.998 12.436c.038-.007.106-.028.106-.024-.005.045-.02.093-.034.14-.037.007-.103.024-.1.014-.003-.04.016-.086.027-.13zm-6.52 4.158c.03-.01.078-.034.083-.028.015.013.004.037.005.058-.028.01-.075.032-.08.027-.014-.01-.007-.037-.007-.056zm1.197-2.05c.033 0 .07-.005.104-.01-.06.055-.11.113-.176.164-.013.01-.065 0-.098.004l.17-.158zm-.725 1.915c.014-.053.03-.1.045-.15.038-.006.108-.025.108-.016 0 .04-.022.088-.036.135a4.6 4.6 0 0 0-.118.03zm1.184 7.9l-.034.132c-.035.005-.095.022-.095.013-.002-.037.015-.082.026-.124.036-.005.07-.013.104-.02zm-5.1-5.177a5.224 5.224 0 0 0-.106.146c-.072-.008-.14-.018-.208-.025.055-.048.11-.117.164-.137.05-.02.1.007.15.015zm8.878-4.972c.037.02.11.03.105.064-.004.033-.083.097-.13.146-.038-.02-.103-.03-.103-.067 0-.03.082-.093.128-.142zm2.205-.425l.208-.09c-.023.048-.03.105-.076.145-.046.04-.135.06-.203.09.023-.05.046-.096.07-.145zm-2.24 1.59c.034-.084.055-.17.077-.18.102-.044.205-.065.308-.093-.017.05-.025.13-.056.145-.103.055-.212.084-.33.128zm9.985-15.324c0 .022 0 .042-.004.062a15.92 15.92 0 0 0-.173.056l.1-.123.076.006zm-18.037 23.224a5.53 5.53 0 0 1 .256-.32.57.57 0 0 1 .168-.012c-.047.103-.115.213-.177.318-.058.005-.12.007-.245.014zm3.762-9.22c.143-.136.227-.25.298-.274.09-.032.172.004.235.028.012.005-.095.134-.148.158-.1.042-.202.05-.385.09zm-1.38.567c.036-.08.048-.156.11-.232.02-.03.16-.057.247-.086-.047.082-.082.165-.148.245-.018.022-.12.045-.208.074zm7.654-9.925c.162.01.307-.015.307.02-.006.076-.086.183-.136.275-.092.016-.26.064-.263.035-.014-.072.045-.178.094-.33zm-1.904 7.332c.137.02.238.016.295.046.034.017-.003.088-.008.134-.09.016-.222.063-.258.04-.047-.03-.02-.115-.03-.22zm2.606-9.744c.15-.023.343-.07.338-.048-.01.078-.09.182-.145.276-.096.006-.236.04-.277.007-.035-.03.043-.134.084-.234zm-18.45 9.305l-.06.33c-.14.008-.342.064-.396.017-.053-.04.055-.194.094-.297l.363-.05zm4.62 9.132c.185-.17.285-.293.342-.307.167-.04.316-.04.474-.057-.104.08-.203.182-.31.23-.13.06-.264.072-.505.134zm18.3-21.936c.212-.01.37-.013.526-.02-.054.067-.127.186-.155.193-.178.045-.348.068-.51.084-.01 0 .07-.13.14-.256zm-8.52 10.134c.272 0 .415-.02.505.007.032.01-.064.13-.104.202-.155.024-.33.07-.46.064-.044 0 .025-.135.06-.272zm-13.26 11.246c.15-.014.222-.022.292-.026-.167.148-.33.297-.504.44-.017.014-.12-.01-.183-.016.137-.14.275-.277.394-.398zm7.144 2.228c.167-.236.23-.408.36-.488.127-.078.342-.083.48-.077.03.002-.07.223-.167.284-.155.1-.353.152-.674.282zm-2.832-4.988c-.105.03-.22.068-.334.104.036-.08.036-.18.11-.24.315-.237.653-.462.984-.687.01-.006.124.05.116.06-.28.25-.565.496-.876.764zm17.174-16.7c.31.064.515.084.665.15.03.014-.192.284-.233.294-.2.044-.442.09-.542.035-.076-.04.044-.23.11-.478zm-21.836 8.038c.248-.115.457-.217.666-.302.06-.027.154-.022.176.002.018.024-.033.115-.08.146-.196.124-.402.26-.603.346-.178.073-.356.084-.535.12l.377-.313zm-2.577 5.044c.08-.22.142-.45.265-.686.024-.045.282-.136.432-.204-.022.076-.005.182-.07.226-.36.25-.364.38-.167.475.033.016-.075.142-.12.216l-.34-.026zm23.985-13.9c-.15.205-.243.37-.4.52-.044.04-.413.09-.408.048.018-.182.114-.396.185-.598.17.01.34.017.623.03zm-1.203-1.204c-.322.133-.516.21-.712.292.084-.22.166-.444.248-.664.313-.036.627-.072.938-.11-.164.17-.33.336-.473.482zm-23.35 16.06c-.527.34-1.05.686-1.586 1.017-.112.068-.367.132-.397.097-.047-.055 0-.193.083-.298.48-.615 1.33-.967 1.89-.794zm6.98 8.407c.27-.277.454-.552.712-.702.332-.194.738-.324 1.09-.42.396-.106.466.09.145.32-.433.31-.956.562-1.447.814-.105.053-.246 0-.502-.013zm24.31-15.738c.395-.19.79-.377 1.185-.566-.276.31-.545.62-.828.93-.108.117-.26.233-.362.352-.21.243-.4.488-.597.733.013-.218.14-.507.022-.64-.24-.276.04-.512.58-.808zm-11.42-4.518c.084.043.166.084.25.13l.075-.06c.054-.04.104-.123.09-.147-.02-.03-.096-.05-.16-.03-.16.046-.33.117-.195.068l-.06.04zm-2.278 7.35c.07-.074.104-.153.157-.23-.116.015-.188.007-.265.036-1.46.42-1.095 1.05.107.194zm12.23 16.536l.06-.047.01.03-.068.017zm14.288-5.642l-.057.047-.01-.028.068-.02zm-4.19-7.31c-.072.028-.143.06-.216.09l.07-.11c.045.014.09.028.132.043.107-.082.21-.188.326-.24.162-.08.38-.173.483-.16.092.01.06.154.08.24-.178.067-.37.165-.526.192-.14.023-.234-.034-.35-.054zm-1.162-1.892l-.06.05-.012-.032zm8.744 17.986a1.27 1.27 0 0 1 .054-.075c.03 0 .075-.013.08 0 .007.01-.028.046-.046.07l-.088.005zm-19.36-.752c.026 0 .07-.01.075.002.006.013-.032.046-.05.07-.026 0-.07.008-.076-.003-.006-.014.032-.047.05-.07zm-2.53 3.75c.03-.002.055-.006.087-.007-.02.023-.034.058-.058.07-.025.013-.06.007-.087.008.02-.023.037-.047.056-.07zm19.46-18.538c.028.002.055.006.084.01-.036.036-.068.07-.102.102-.02-.01-.054-.015-.052-.037.003-.015.045-.047.07-.074zm-5.357-2.73a5.038 5.038 0 0 0-.107.133c-.047-.014-.115-.018-.13-.05-.007-.02.06-.084.096-.127.046.013.093.028.14.043zm.438 3.814c.017.01.054.016.046.025-.02.028-.057.054-.088.08a3.524 3.524 0 0 1-.075-.044c.04-.018.08-.04.118-.06zm-15.898 23.26c-.01.024-.02.048-.032.07-.023-.005-.06 0-.066-.014-.006-.013.017-.045.03-.066l.068.01zm2.962-8.073c.065-.016.13-.03.193-.047-.03.01-.063.028-.086.03-.032 0-.058-.006-.087-.01l-.01.014.01-.014c-.23.158-.456.316-.682.476a6.027 6.027 0 0 1-.1-.123l.764-.328zm1.897 2.91c-.034.05-.07.098-.104.146l-.207-.024c.053-.048.108-.116.162-.137.052-.02.1.008.15.014zm15.738-12.144c.11-.028.222-.07.238-.054.032.036.01.108.01.163-.07.017-.18.067-.198.05-.04-.033-.036-.1-.05-.16zm-9.267-.52l-.104.134c-.066-.018-.133-.03-.2-.047.057-.045.132-.122.165-.126.06-.01.096.025.14.04zm-.848.67c-.002-.044-.006-.088-.01-.132.073-.015.17-.05.206-.038.034.014.004.08.005.122l-.2.048zm10.52-2.74c-.064.046-.128.108-.19.132-.07.028-.144.025-.215.034.077-.062.153-.138.233-.178.05-.025.114.005.172.012zm-5.78-2.55c.106-.02.255-.063.373-.065.033 0-.03.12-.052.185l-.557.108.237-.227zm-7.19 12.725c.036-.08.048-.158.11-.234.02-.026.162-.055.247-.085-.048.083-.085.165-.148.245-.02.022-.12.045-.21.075zm7.653-9.927c.163.007.308-.015.306.02-.004.077-.084.183-.134.276-.093.015-.26.063-.264.035-.013-.074.045-.18.093-.332zm.7-2.41c.15-.024.344-.07.34-.048-.012.077-.09.18-.145.275-.096.005-.236.04-.278.006-.034-.028.043-.133.084-.232zm-15.386 21.974c-.124-.07-.23-.123-.32-.19-.01-.008.085-.09.132-.138.12.04.245.08.355.13.01.004-.074.087-.168.198zm1.553-3.536c.185-.17.283-.293.34-.307.168-.043.317-.04.475-.058-.105.08-.203.182-.312.23-.128.06-.262.073-.503.134zm11.722-22.374c.143.036.294.052.28.072-.1.13-.228.258-.368.38-.023.02-.247.008-.235-.012.074-.13.188-.262.323-.44zm-1.938 10.563c.273 0 .415-.02.506.008.032.01-.065.132-.104.202-.157.024-.33.07-.46.064-.046-.003.025-.136.057-.274zm-13.26 11.246l.292-.026c-.168.15-.33.298-.506.442-.017.013-.12-.01-.183-.017l.396-.4zm18.41-21.01l.223.05c-.152.123-.295.26-.465.37-.055.036-.172.015-.262.02l.504-.44zm5.863 7.03c.224.056.377.072.474.13.037.02-.05.138-.082.212-.187.036-.38.077-.56.1-.017 0 .046-.125.168-.443zm-19.96 11.215c-.107.03-.22.068-.335.104.037-.082.037-.182.11-.24.316-.238.652-.463.984-.688.01-.007.123.05.116.058-.28.25-.566.497-.877.765zm17.173-16.7c.31.064.516.084.666.15.03.014-.194.284-.234.294-.2.042-.442.088-.543.034-.075-.04.044-.23.11-.478zm-14.762 13.3c-.242.063-.425.11-.606.16.126-.158.218-.356.388-.462.166-.103.41-.117.62-.17l-.4.472zm17-5.995c-.203-.187-.325-.275-.406-.387-.045-.06-.054-.156-.012-.25.015-.036.26-.163.328-.163.11 0 .22.048.22.122.006.156-.06.343-.13.678zm-2.66-8.127c-.15.204-.244.37-.4.518-.044.043-.414.09-.41.05.02-.182.116-.396.186-.598.17.01.342.017.624.03zm-20.56 21.76c.72-.447 1.27-.59 1.425-.408.03.03-.022.152-.085.195-.455.32-1.343.643-1.42.508-.04-.07.06-.225.08-.294zm15.873-18.747l.25.128c.024-.02.05-.038.076-.06.05-.04.102-.12.09-.144-.02-.033-.098-.05-.164-.032-.16.047-.326.118-.194.07l-.06.038zm13.637 7.427c.512-.264.77-.43 1.003-.51.216-.068.408-.042.613-.057-.123.133-.22.28-.374.396-.437.326-.888.647-1.353.952-.118.076-.355.135-.44.113-.08-.02-.095-.157-.025-.245.208-.268.473-.537.574-.65zm-19.336 22.31l.01-.018.005.04c.143-.082.288-.163.434-.244-.038.075-.073.153-.108.227l-.313-.01-.03.006zm3.896-5.276c.253-.273.513-.545.78-.816.075.016.123.044.123.087 0 .116-.224.343-.408.503-.107.095-.325.153-.494.227zm18.91-12.145c.236-.082.47-.162.704-.24-.283.17-.425.276-.57.338-.086.037-.173 0-.26 0zm4.944.825c.03 0 .08-.013.086 0 .006.013-.03.05-.05.075-.03 0-.08.013-.084 0-.006-.01.033-.048.048-.075zm-15.186 10.914c.035 0 .094-.015.1 0 .007.016-.037.057-.058.087-.035 0-.093.017-.1 0-.007-.012.036-.054.058-.085zm-9.106 3.266l.035.104c0-.036.004-.073.004-.11a3.138 3.138 0 0 1-.004-.14c.044-.003.086-.005.13-.01l-.163.157zm4.75 6.63c.027 0 .055-.005.087-.006-.02.024-.037.06-.06.07-.024.014-.057.007-.087.01.02-.026.037-.05.058-.074zm19.46-18.536c.028.002.054.006.083.007-.036.036-.067.07-.102.103-.02-.01-.054-.016-.052-.038.002-.015.046-.048.072-.073zm-5.357-2.733c-.036.045-.07.09-.108.134-.046-.013-.114-.017-.13-.048-.006-.02.062-.085.097-.128.046.014.093.03.14.043zm-17.387 18.586l.002-.002-.002.003c.005.02.002.037-.008.047-.302.25-.613.542-.952.426l-.014.02c.034-.027.06-.056.1-.083.258-.187.436-.528.824-.468.024.004.043.03.05.058zm2.68.658l.215-.06c-.018.03-.038.08-.052.084-.075.028-.148.046-.225.066l.062-.09zm4.1 2.668l-.108.145c-.07-.006-.14-.015-.207-.023.055-.048.11-.116.164-.137.052-.02.1.01.15.015zm5.624-11.994l-.01-.133c.074-.013.17-.05.208-.036.034.013.004.08.004.12l-.2.05zm-5.108-.036c.05-.097.084-.17.12-.243.06 0 .158-.027.17-.004.02.056-.003.132-.008.2l-.28.048zm-.566-.14c.064.02.165.022.15.05-.032.073-.115.155-.178.235-.046-.01-.14-.01-.132-.035.03-.075.1-.16.16-.25zm-3.965 8.802c.108-.01.218-.023.214-.014-.037.076-.093.16-.145.24-.053-.004-.15.01-.153-.016 0-.054.05-.132.083-.21zm6.84-14.31c.087-.122.12-.217.2-.268.083-.054.207-.066.313-.096-.04.07-.057.156-.125.208-.08.06-.21.087-.388.155zm-6.863 8.127l-.23.28c-.118-.006-.258.006-.337-.03-.026-.012.103-.15.163-.23.12-.005.24-.01.404-.02zm-2.888 1.96l-.063.327c-.14.01-.342.066-.396.02-.052-.043.056-.195.095-.3.114-.014.23-.03.362-.048zm4.62 9.13c.185-.17.284-.293.34-.306.17-.04.318-.04.476-.056-.104.08-.204.182-.312.23-.13.06-.262.073-.504.132zm18.3-21.937c.21-.01.368-.014.524-.018-.052.066-.125.184-.154.19a3.324 3.324 0 0 1-.51.086c-.01 0 .07-.13.14-.258zm-18.7 5.91c-.085.06-.166.132-.257.18-.14.077-.284.14-.427.21.064-.084.107-.185.197-.244.132-.088.294-.147.445-.216.015.02.03.045.042.07zm-2.19 5.37c-.24.215-.372.348-.53.458-.052.037-.27.033-.263.014.057-.123.13-.263.257-.382.048-.044.26-.046.534-.09zm.55-3.2c.248-.084.427-.147.605-.21-.07.105-.125.26-.21.303-.18.088-.373.116-.56.17l.164-.262zm8.153 1.613c.26-.014.456-.036.623-.025.032.002-.05.135-.08.207-.21.033-.428.077-.626.094-.026 0 .035-.127.083-.277zm8.814-9.318c.088.02.156.034.222.05-.152.124-.295.26-.465.37-.054.037-.17.015-.262.02.156-.135.31-.268.504-.44zm-12.44 3.758c.023.043.043.088.068.133.364-.22.73-.44 1.094-.664.01-.006-.013-.06-.015-.06-.314.145-.625.293-.94.44-.07.05-.138.102-.207.15zm-8.14 13.474c.22.11.362.138.4.217.024.05-.104.186-.163.282-.118 0-.316.044-.34-.006-.034-.087.04-.234.104-.493zm4.788-8.244c.25-.123.462-.243.665-.32.1-.036.192.005.285.013-.097.102-.178.228-.3.304-.15.096-.34.17-.5.22-.177.054-.34.07-.51.102.13-.113.253-.225.36-.318zm1.69 9.26l-.335.106c.036-.082.038-.183.11-.24.315-.24.653-.463.984-.69.012-.008.125.052.116.06-.28.25-.566.496-.875.764zm-4.66-8.655c.248-.114.457-.216.665-.302.062-.026.156-.022.176.002.017.024-.034.116-.08.146-.197.125-.403.262-.604.347-.177.074-.357.084-.534.122l.375-.314zm-2.577 5.045c.08-.222.144-.45.265-.687.025-.045.282-.135.433-.205-.022.08-.006.184-.07.228-.36.25-.365.38-.168.475.033.017-.074.143-.118.217l-.34-.027zm23.987-13.9c-.15.205-.244.37-.402.52-.043.04-.412.088-.408.048.02-.18.116-.395.186-.597.17.01.34.017.624.03zm-1.203-1.204l-.713.29c.086-.22.166-.443.25-.663l.937-.11zM157.17 84.263c-.38-.414-.7-.606-.96-.58-.258.027-.58.26-.97.704-.097.11-.254.256-.472.436-.218.182-.423.383-.618.603-.193.22-.33.434-.412.637-.08.203-.043.393.116.57.178.197.368.383.566.558l.13.116.056-.05.222.05-.147.124c.106.103.208.208.308.317-.563.64-1.136 1.282-1.72 1.924a148.27 148.27 0 0 0-1.75 1.957 357.204 357.204 0 0 0-5.162 6.01c-1.15 1.37-2.32 2.738-3.505 4.107.147-.046.318-.064.47-.102l-.4.47-.504.134-1.25 1.43c-.273.31-.563.65-.873 1.026-.31.374-.628.77-.955 1.186a.39.39 0 0 1-.162-.083.386.386 0 0 0-.162-.084 7.31 7.31 0 0 1-.75-.515 7.356 7.356 0 0 0-.754-.513c-.313.312-.614.655-.903 1.028l-.435.762c-.14.25-.296.514-.465.796a9.85 9.85 0 0 1-.424.45c-.166.167-.254.344-.262.533.01.165.09.333.236.5.147.168.313.324.5.47.186.142.382.276.587.398.124.074.23.142.32.207l.034-.082c.722-.448 1.27-.592 1.426-.41.03.032-.023.152-.085.196-.302.212-.793.426-1.113.506.426.34.853.686 1.278 1.043.463.386.936.773 1.42 1.16.72.605 1.442 1.216 2.163 1.833l.018.002-.007.007.87.743c1.014.872 2.08 1.72 3.196 2.545l.663.582c.22.194.44.368.658.52.175.114.426.05.755-.188.327-.24.67-.575 1.03-1.005.356-.43.717-.906 1.078-1.43.363-.523.68-1.028.95-1.515.27-.486.472-.927.602-1.32.13-.395.142-.64.03-.737a2.793 2.793 0 0 0-1.207-.798 4.275 4.275 0 0 1-.748-.332l-.064.067c-.046.046-.27.062-.41.095l.25-.298a4.42 4.42 0 0 1-.322-.23l-.02-.018c.068.202-.304.466-.582.7-.072.062-.26.08-.394.118.136-.272.27-.545.442-.892.176-.005.322-.03.407-.027-.18-.132-.334-.194-.466-.185a.68.68 0 0 0-.44.2 1.775 1.775 0 0 0-.343.49c-.1.207-.218.407-.352.603a.776.776 0 0 0-.1.147.754.754 0 0 1-.1.147c-.685-.6-1.343-1.2-1.975-1.796a20.985 20.985 0 0 1-1.83-1.96 7.215 7.215 0 0 1 .983-1.455 36.274 36.274 0 0 0 2.197-2.77c.355-.49.725-.957 1.113-1.4l.292-.33c-.028-.002-.07 0-.074-.014-.005-.016.028-.048.043-.076.027.005.054.01.073.016-.016.027-.03.05-.042.075.22.193.58.5 1.075.915l.728.612.032-.025c.014-.01.065-.002.096-.002l-.074.07.773.652c.54.455 1.056.86 1.547 1.213.492.353.843.544 1.054.574.27.002.513-.12.726-.36a5.2 5.2 0 0 0 .43-.622c.188-.304.377-.62.564-.943.188-.327.36-.645.516-.956a6.81 6.81 0 0 0 .315-.693l-.08-.085c-.33.3-.575.527-.844.743-.054.044-.32.066-.373.018-.13-.12.31-.587.768-.805.09-.04.183-.056.335-.08l-.378-.41a7.504 7.504 0 0 0-.6-.586c-.164-.144-.33-.284-.498-.423l-.02-.005.008-.005c-.42-.343-.852-.67-1.3-.98l-1.9-1.316c.076-.13.147-.235.215-.31l.22-.25c1.028-1.17 2.098-2.267 3.21-3.287.228-.207.452-.42.675-.632.024-.134.097-.283.235-.452a3.86 3.86 0 0 1 .282-.053c.684-.68 1.348-1.385 1.99-2.116a117.52 117.52 0 0 1 3.655 2.86l-.378.43c-.12.092-.29.196-.512.315-.22.117-.326.28-.31.488.01.166.088.343.236.532.147.188.31.37.49.547.176.176.354.34.53.497l.43.378-.098-.088.1.088c.372.29.68.44.92.458.24.015.504-.184.79-.6.246-.37.55-.69.906-.964.358-.274.72-.542 1.09-.805.368-.263.715-.535 1.04-.817.327-.28.582-.595.77-.94.09-.194.105-.377.04-.55a1.618 1.618 0 0 0-.297-.497 4.71 4.71 0 0 0-.45-.456 2.906 2.906 0 0 1-.386-.397 9.85 9.85 0 0 0-.354-.43 2.38 2.38 0 0 0-.48-.423 28.258 28.258 0 0 0-3.35-2.737 25.382 25.382 0 0 1-2.082-1.62l-.15.034-.007-.17a24.58 24.58 0 0 1-1.084-1.016l-.788-.808-.785-.808zm.073 43.76c.263.19.49.31.68.362.19.05.433.087.726.11a.702.702 0 0 0 .38-.166c.128-.103.245-.224.35-.367a3.5 3.5 0 0 0 .285-.455c.083-.162.154-.276.212-.342.078-.09.2-.195.37-.32.17-.127.338-.262.505-.41a1.02 1.02 0 0 0 .328-.473c.052-.17 0-.324-.154-.46a1.99 1.99 0 0 0-.2-.206c-.236.126-.474.246-.707.365-.106.054-.246 0-.503-.014.265-.267.444-.534.69-.687l-.23-.115a767.308 767.308 0 0 1 6.817-8.418.173.173 0 0 1-.045.03c-.1.044-.203.052-.385.09.142-.135.226-.25.298-.274.087-.033.173.004.235.028.48-.634.966-1.265 1.458-1.89.276-.354.556-.7.843-1.044l-.335-.385.978-.364.035-.04c.35-.398.71-.776 1.084-1.133.372-.357.723-.723 1.052-1.098-.05-.053-.102-.107-.165-.15-.26-.185.1-.328.357-.473l.386-.222-.01.182c.368-.44.73-.89 1.085-1.353a39.88 39.88 0 0 1 1.68-2.048l.263-.298.365.32.697.612c.22.194.462.387.725.578l-.03.034c-.116.132-.258.27-.425.418a3.168 3.168 0 0 0-.44.465.835.835 0 0 0-.185.514c0 .177.1.353.3.527.31.315.647.668 1.006 1.063.358.393.724.713 1.094.96.15.096.304.11.456.05.152-.063.308-.16.466-.297.157-.135.298-.285.423-.45a6.36 6.36 0 0 1 .304-.38 4.26 4.26 0 0 0 .842-.99 7.74 7.74 0 0 1 .776-1.05c.077-.09.2-.207.368-.354a4.93 4.93 0 0 0 .47-.468c.145-.165.244-.333.295-.503.05-.17 0-.322-.155-.458-.113-.14-.423-.42-.93-.846a82.787 82.787 0 0 0-1.816-1.478 328.55 328.55 0 0 0-4.156-3.246l-.172.174c-.32.133-.515.212-.712.29.085-.22.166-.44.25-.662l.324-.037a219.8 219.8 0 0 0-1.67-1.265l-.474-.353c-.282.17-.424.275-.57.337-.085.037-.17 0-.258 0l.126-.097.7-.24-.2-.15a2.123 2.123 0 0 0-.7-.675l-.364-.32-.546-.48a3.314 3.314 0 0 0-.558-.403c-.184-.103-.326-.12-.425-.052-.727.382-1.394.93-2.005 1.647a13.756 13.756 0 0 1-1.896 1.857c-.257.205-.337.428-.238.673.1.244.27.482.515.717.246.233.52.456.825.665.306.208.515.382.628.522.09.12.125.158.102.118a.447.447 0 0 0-.102-.118c.182.237.357.45.526.638.167.186.387.126.66-.184a8.89 8.89 0 0 1 .748-.987 1.12 1.12 0 0 1 .232-.296c.08-.068.167-.157.264-.268.155.136.294.268.416.396.123.127.25.25.383.366.11.097.227.19.346.274.12.087.235.178.346.275a6.79 6.79 0 0 0-.362.445 7.21 7.21 0 0 1-.362.446c-.62.707-1.27 1.39-1.948 2.048a36.25 36.25 0 0 0-1.867 1.96l.035-.014-.055.036-.06.067c-.434.495-.868.995-1.3 1.5l.117-.03c-.223.213-.373.37-.516.5l-.533.636c.217-.012.388-.03.535-.02.033.002-.05.136-.08.207-.21.034-.425.078-.625.094-.015.003 0-.04.022-.1l-2.093 2.506a845.82 845.82 0 0 1-3.562 4.153 226.542 226.542 0 0 0-3.5 4.148 1.442 1.442 0 0 1-.15-.162 1.72 1.72 0 0 0-.185-.192c-.224-.235-.41-.37-.557-.4a.55.55 0 0 0-.418.072c-.13.082-.257.205-.383.37a2.89 2.89 0 0 1-.426.45c-.257.203-.546.42-.864.648-.32.23-.563.485-.732.767-.08.09-.04.25.122.48.116-.183.36-.4.75-.64.115-.024.457-.152.6-.108.244.076-.138.684-.557.85-.132.052-.312.193-.476.277.4.428.877.894 1.425 1.397.554.506 1.094.972 1.622 1.396.528.425.88.715 1.058.87zm28.924-18.287c-.382-.413-.702-.606-.96-.58-.2.022-.437.166-.712.432l.514-.247c-.276.31-.547.62-.83.93-.106.117-.26.233-.36.352-.21.244-.4.487-.598.733.013-.197.116-.45.052-.597l-.128.14c-.194.223-.33.435-.412.638-.08.203-.043.393.116.57.18.197.368.384.566.56.2.173.39.36.568.556a157.78 157.78 0 0 1-1.72 1.925l-.876.97c.573-.297 1.113-.558 1.652-.56.128 0 .21.054.316.083-.18.11-.362.255-.54.32-.197.078-.38.063-.583.123-.186.056-.436.13-.57.24-.538.42-1.06.847-1.582 1.274a354.41 354.41 0 0 0-4.728 5.514 357.234 357.234 0 0 1-5.19 6.04 57.395 57.395 0 0 0-1.827 2.212.373.373 0 0 1-.162-.08.396.396 0 0 0-.162-.085 7.13 7.13 0 0 1-.75-.513 7.236 7.236 0 0 0-.753-.514c-.314.312-.615.654-.903 1.027l-.435.762c-.14.25-.297.514-.466.797-.117.13-.26.28-.425.448-.167.167-.255.345-.263.533.01.167.09.334.235.5.146.17.313.325.5.47.186.143.382.277.588.398.207.123.365.233.475.33.443.352.888.715 1.334 1.086a.544.544 0 0 1 .082-.15c.48-.612 1.33-.964 1.89-.792l.012-.022c-.528.34-1.05.685-1.587 1.015a.88.88 0 0 1-.23.09c.425.354.86.708 1.304 1.062a355.32 355.32 0 0 1 3.043 2.586c.29.25.583.496.88.74l.08-.082.294-.027-.24.217c.383.314.773.625 1.17.932.356-.14.61-.153.71-.04.03.034-.024.153-.086.197a2.68 2.68 0 0 1-.23.143l.62.465.663.583c.208.183.415.347.62.493.256-.265.433-.525.682-.668.326-.192.723-.32 1.07-.415l.07-.083c.358-.43.72-.906 1.08-1.43.363-.523.68-1.028.95-1.515.27-.486.473-.927.603-1.32.13-.395.14-.64.03-.737a2.78 2.78 0 0 0-1.207-.798c-.47-.157-.9-.39-1.296-.698-.242-.215-.447-.316-.613-.305a.675.675 0 0 0-.44.2 1.768 1.768 0 0 0-.343.49 4.95 4.95 0 0 1-.23.41l.027-.017-.01.014c.007-.007.01-.014.012-.014.028.004.055.01.087.01.024-.002.058-.02.086-.03a8.673 8.673 0 0 1-.192.047l-.02.007-.113.175a.803.803 0 0 0-.1.148.742.742 0 0 1-.1.148l-.165-.146-.166.116a6.272 6.272 0 0 1-.1-.122l.175-.073a76.436 76.436 0 0 1-1.72-1.57c-.164-.155-.326-.312-.486-.474h-.907c-.064 0-.18-.007-.166-.023.137-.212.255-.43.443-.64-.242-.266-.48-.54-.714-.824.276-.54.605-1.025.984-1.456a35.025 35.025 0 0 0 2.197-2.768c.355-.492.726-.96 1.114-1.4l.292-.333c.17.15.42.365.75.644a1.26 1.26 0 0 1 .503-.042c.035.006-.123.267-.16.278l-.044.014.024.02.242.204a.903.903 0 0 1 .206-.15c.122-.062.34-.037.404.024.06.06-.02.214-.038.328l-.288.037 1.03.865c.538.455 1.054.86 1.545 1.214.493.354.844.544 1.055.573.272.003.513-.118.727-.362.097-.11.24-.316.43-.62.188-.304.376-.62.564-.944.186-.324.358-.643.516-.955.156-.314.26-.545.315-.694a55.527 55.527 0 0 1-.572-.62 7.417 7.417 0 0 0-.552-.544c-.102.036-.208.07-.316.098-.003-.116 0-.235.016-.358-.5-.424-1.018-.823-1.56-1.198l-1.58-1.096c-.316-.218-.55-.023-.316-.218.075-.13.146-.234.214-.31l.22-.25a42.73 42.73 0 0 1 3.21-3.287 42.307 42.307 0 0 0 3.183-3.254c1.226.92 2.445 1.873 3.654 2.858l-.38.432c-.118.09-.288.196-.51.314-.22.118-.325.28-.312.488.01.168.09.343.238.533l.032.04.04-.02c.018.01.056.015.048.024a.28.28 0 0 1-.048.045c.127.156.268.308.417.457.178.175.355.34.53.496l.433.38-.1-.09.1.09c.373.287.68.44.92.456.24.015.504-.184.79-.6.247-.37.55-.69.907-.964l.6-.448c.024-.065.05-.138.07-.217l.18.034.24-.174c.368-.265.714-.537 1.04-.82a3.4 3.4 0 0 0 .693-.81c-.006-.26-.02-.487 0-.726.002-.01.03-.036.072-.064a1.674 1.674 0 0 0-.252-.386 4.553 4.553 0 0 0-.452-.455 2.784 2.784 0 0 1-.384-.398c-.093-.12-.212-.262-.357-.43a2.292 2.292 0 0 0-.482-.422 27.888 27.888 0 0 0-3.348-2.738 25.182 25.182 0 0 1-3.32-2.772l-.79-.81-.785-.808zm-9.967 34.235c.08.046.177.056.29.03-.075 0-.167-.02-.29-.03zM60.432 32.842c-.083.094-.164.19-.244.29.144-.016.27-.032.365-.02.05.008-.01.132-.018.2-.196.04-.39.087-.578.12a9.364 9.364 0 0 0-1.016 1.742 7.866 7.866 0 0 0-.686 2.687c-.066.92.044 1.81.328 2.668.285.857.814 1.625 1.587 2.305.095.086.195.168.292.247a.19.19 0 0 1 .068.05l.005.008c.707.56 1.448.966 2.224 1.225l.037-.023c.333-.195.74-.323 1.09-.42.396-.105.466.09.146.32a5.98 5.98 0 0 1-.515.326c.404.082.818.123 1.24.128 1.67.018 3.252-.49 4.75-1.525.62-.394 1.158-.852 1.614-1.372.143-.163.29-.325.44-.485-.304.172-.608.35-.91.47-.193.08-.38-.018-.575-.035.192-.155.396-.384.573-.448.397-.142.78-.2 1.17-.293l.004.026c.243-.254.49-.504.748-.75.47-.448.944-.865 1.42-1.25.475-.384.937-.81 1.386-1.275.843-.826 1.675-1.652 2.497-2.475a55.472 55.472 0 0 0 2.4-2.563c.465-.53.933-1.108 1.402-1.732.47-.625.882-1.27 1.236-1.94.11-.205.21-.414.302-.626-.172.034-.347.07-.51.09-.02 0 .044-.124.167-.44.2.05.345.07.443.114.162-.4.297-.806.402-1.22a6.48 6.48 0 0 0 .19-1.94l-1.882 1.015c.383-.375.63-.664.95-.92.158-.13.322-.256.485-.382.16.056.308.12.44.188l-.015-.192a8.82 8.82 0 0 0-.757-2.718l-.1.033.073-.092-.094-.2a8.805 8.805 0 0 0-.548-.97c-.082.037-.177.047-.22.06l-.012-.394a7.226 7.226 0 0 0-1.068-1.172c-.972-.854-1.958-1.36-2.958-1.514-1-.154-1.985-.07-2.954.254-.97.323-1.9.816-2.797 1.478-.896.66-1.715 1.37-2.46 2.127-1.636 1.772-3.297 3.62-4.987 5.543a86.502 86.502 0 0 0-3.197 3.853l.178-.028a.243.243 0 0 0-.026.037c.02-.015.042-.028.063-.043h-.002l-.028-.003-.22.08c-.46.596-.91 1.187-1.34 1.776zm6.45-1.323l1.377-1.558.096-.17.075-.022.93-1.036.652-.727c-.228.112-.473.21-.74.28-.005-.148 0-.3.03-.46l.125.015c.065.04.132.04.2.007.182 0 .38-.022.59-.075.544-.61 1.084-1.218 1.62-1.828.33-.376.717-.828 1.162-1.358a7.57 7.57 0 0 1 .38-.423c-.3.17-.604.335-.906.5-.083.044-.192.027-.29.038.06-.084.095-.188.18-.244.307-.202.632-.388.95-.58-.005-.005-.007-.01-.01-.012.275-.166.546-.355.828-.492.094-.047.203-.035.308-.03l1.058-.7c.48-.323.95-.498 1.407-.527l.033.028c.62-.04 1.187.163 1.696.61.464.406.788.917.974 1.53a3.56 3.56 0 0 1 .086 1.808l-.005-.062a3.62 3.62 0 0 1-.604 1.32c-.287.394-.595.778-.925 1.154-.35.4-.704.79-1.065 1.18-.36.386-.715.78-1.064 1.178-.387.44-.75.897-1.084 1.367-.334.47-.696.926-1.084 1.37l-.307.34.04.015c.034.018-.003.087-.008.134-.065.01-.153.04-.21.045-.295.32-.665.712-1.11 1.176a53.982 53.982 0 0 1-2.365 2.326 20.99 20.99 0 0 1-2.498 2.006c-.818.552-1.468.813-1.95.78a4.097 4.097 0 0 1-.955-.248 2.83 2.83 0 0 1-1.355-1.097l-.235.204-.334.105c.036-.082.036-.182.11-.24l.348-.254a2.94 2.94 0 0 1-.193-.44 2.5 2.5 0 0 1-.048-1.482 2.14 2.14 0 0 1 .34-.788 7.37 7.37 0 0 0 .44-.7c.226-.348.445-.696.65-1.043.208-.346.457-.685.748-1.018.31-.354.634-.676.97-.968.336-.294.648-.605.94-.937zm20.76 30.985c.074-.13.01-.323-.195-.58a6.775 6.775 0 0 0-.836-.854 48.65 48.65 0 0 0 1.614-1.635c.566-.6.966-1.032 1.2-1.297.187-.214.37-.427.55-.64-.303.173-.607.35-.908.472-.194.08-.384-.02-.577-.036.19-.155.395-.385.574-.447.395-.142.778-.202 1.166-.295l.455-.558c.396-.494.807-.985 1.234-1.47a109.47 109.47 0 0 1 3.007-3.288 108.954 108.954 0 0 0 3.008-3.29 33.64 33.64 0 0 1 1.874-1.966c.242-.235.483-.47.723-.712a1.346 1.346 0 0 1-.204-.207c-.046-.06-.055-.154-.012-.25.015-.033.258-.16.328-.16.11 0 .22.046.22.12a.87.87 0 0 1-.016.178c.29-.297.58-.6.867-.904.31-.353.64-.682.984-.986.345-.304.664-.62.955-.953.155-.176.293-.39.413-.636a2.19 2.19 0 0 0 .216-.75l.034.03c.058-.223.073-.435.044-.64a1.195 1.195 0 0 0-.157-.204l.074-.11c-.1-.26-.28-.502-.54-.73-.463-.408-.92-.8-1.373-1.176-.45-.378-.89-.792-1.313-1.244l-.277-.28-.126.03-.004-.162-1.35-1.367a36.038 36.038 0 0 0-1.78-1.683l-.58-.51c-.255-.222-.53-.454-.827-.696a18.164 18.164 0 0 0-.824-.635c-.25-.182-.43-.3-.54-.356a1.41 1.41 0 0 0-.96-.376 1.72 1.72 0 0 0-1.01.348l.063-.004c-.4.275-.767.58-1.1.914-.332.334-.663.69-.994 1.064-.815.93-1.583 1.88-2.3 2.853a42.65 42.65 0 0 1-2.302 2.852l-2.65 3.017-.218.247c1.76-1.007 1.322-.787-.107.118-.228.25-.46.493-.7.734a24.96 24.96 0 0 0-1.023 1.098c-.388.44-.75.887-1.086 1.336l-.042.057c.093-.025.178.01.266.018-.098.104-.178.23-.3.305a1.916 1.916 0 0 1-.347.168c-.21.264-.432.527-.663.79-.167.19-.363.396-.587.62l-.164.197h-.038l-.43.403c-.5.46-.987.755-1.458.89-.285.102-.508.122-.668.06a.843.843 0 0 1-.396-.32 3.066 3.066 0 0 1-.285-.513 3.387 3.387 0 0 0-.37-.616 2.894 2.894 0 0 0-3.603-.846 3.485 3.485 0 0 0-1.086.836c-.406.464-.603.966-.59 1.506.015.542.147 1.07.4 1.585.252.515.59.99 1.014 1.42.33.335.66.627.984.875.474-.37 1.08-.55 1.51-.417l.014-.023c-.373.24-.743.482-1.118.72.585.35 1.162.576 1.73.675.354.06.705.086 1.057.075.233-.19.412-.483.774-.427.025.004.044.032.05.058.005.02 0 .038-.008.047-.12.1-.24.204-.364.29a6.36 6.36 0 0 0 .32-.05 7.532 7.532 0 0 0 1.808-.587 18.854 18.854 0 0 0 1.768-.942l-.03.033c.464-.258 1.112-.785 1.946-1.578a66.693 66.693 0 0 0 2.568-2.59c.878-.932 1.705-1.84 2.483-2.722l1.187-1.35h-.01c-.003-.147.003-.3.034-.46.04.006.083.012.125.015.066.043.13.04.2.008h.034l.12-.136c.814-.928 1.635-1.85 2.462-2.77l.257-.29-.027.016c-.082.043-.192.027-.29.038.06-.082.095-.187.18-.243.207-.136.422-.265.636-.394.537-.65 1.04-1.318 1.512-2.008a8.917 8.917 0 0 1 1.034-1.442l.356.335c.032-.006.058-.01.08-.006.066.008.068.08.072.152.61.592 1.195 1.2 1.75 1.827.71.8 1.47 1.558 2.29 2.275-.74.84-1.482 1.675-2.232 2.503.12-.025.242-.045.362-.058.203-.02.393-.025.59-.036-.186.122-.368.245-.55.368-.228.14-.447.29-.666.44-.046-.15-.023-.328.104-.537a230.532 230.532 0 0 1-4.457 4.78 232.784 232.784 0 0 0-3.645 3.89c.046-.016.096-.024.143-.037-.01.025-.014.062-.03.074-.063.035-.13.058-.203.09l.014-.046a265.233 265.233 0 0 0-3.13 3.49.624.624 0 0 0-.207.17c-.234.265-.484.527-.748.783-.265.255-.545.53-.84.82a50.93 50.93 0 0 0-.66-.818c-.238-.287-.486-.328-.743-.123-.345.167-.64.446-.885.837a5.67 5.67 0 0 1-.81 1.02c-.156.178-.222.365-.2.562.025.194.094.394.212.594.117.2.265.39.442.566l.315.302c.18-.202.33-.386.527-.5.333-.195.74-.323 1.092-.42.396-.106.465.09.145.32-.433.31-.957.563-1.45.814a.247.247 0 0 1-.085.023c.115.137.33.373.646.71.415.444.876.898 1.386 1.366.51.467 1.004.862 1.485 1.185.48.324.808.408.985.25.198-.18.393-.38.586-.6l.556-.63c.155-.177.336-.35.544-.52.208-.17.39-.342.546-.52zm22.16-.675l7.228-4.386c.135-.082.284-.154.42-.246.14-.092.438-.264.58-.336.152.132.44.378.717.623.376.332.63.612.827.43.268-.245.353-.318.566-.58l.307-.386-.523.28c.384-.377.63-.665.95-.922l.123-.098c.13-.173.254-.322.482-.553.104-.106.21-.19.278-.285a.34.34 0 0 0 .04-.315c-.037-.11-.144-.247-.32-.4a80.26 80.26 0 0 0-.894-.756c-.506-.426-1.053-.895-1.638-1.41l-.483-.42c-.113.02-.222.033-.33.043-.008 0 .058-.108.122-.224l-.982-.84c-.528-.444-.86-.725-.993-.842a3.81 3.81 0 0 0-.935 1c-.05.075-.132.215-.287.392-.156.177-.288.383-.448.576-.626.754-.673.796-.164 1.324.06.064.13.163.22.283-.62.454-1 .753-1.675 1.23l-.028.075-.108.022c-3.057 2.13-4.39 2.662-7.063 4.143.056-.108.855-1.867 1.105-2.414l.89-1.95 1.108-2.463 1.075-2.492c.262.192.543.35.843.476.3.13.568.06.8-.205.08-.09.215-.233.41-.434.196-.2.385-.415.57-.645.18-.23.334-.45.456-.654.123-.206.158-.37.11-.492-.098-.203-.41-.593-.936-1.175a22.034 22.034 0 0 0-1.752-1.716c-.64-.563-1.262-1.003-1.867-1.318-.604-.316-1.03-.31-1.28.02-.227.347-.528.7-.9 1.058-.373.358-.66.74-.864 1.15-.166.323-.098.59.208.8.306.21.6.4.88.568a75.56 75.56 0 0 0-1.594 3.385l-1.504 3.35.03-.034c-.175.367-.414.93-.72 1.687l.76-.355c.002 0 .024.053.016.057l-.873.532-1.025 2.482c-.28.68-.67 1.956-.996 2.857l.322-.08c-.057.074-.11.187-.168.212a2.26 2.26 0 0 1-.234.083c-.077.2-.148.374-.213.51-1.973 1.076-4.354 2.75-6.243 3.95l.065-.03c-.024.076-.007.183-.07.227-.362.25-.367.38-.168.475.032.016-.075.142-.12.216a35.45 35.45 0 0 1-.34-.026c.07-.196.13-.397.225-.607l-.204.126c-.182-.24-1.074-.948-1.28-1.05a.537.537 0 0 0-.663.123c-.747.816-.73.72-1.455 1.556-.21.243-.7.99-.72 1.147a.63.63 0 0 0 .09.43c.08.13.205.248.366.352.163.104 1.044.914 1.206 1.038 2.124 1.618 3.528-.16 5.35-.94 2.53-1.475 3.76-2.014 6.918-3.67.896-.47 2.555-1.346 3.7-1.973l1.552-.898c.5-.29.884-.507 1.145-.668zm1.867-11.693l-.03.034zm25.36 18.4c.152-.218.192-.41.12-.57a1.13 1.13 0 0 0-.357-.432 3.47 3.47 0 0 0-.554-.34 9.597 9.597 0 0 1-.502-.264 37.19 37.19 0 0 1-1.213-.858 17.17 17.17 0 0 1-1.153-.926 10.14 10.14 0 0 1-.466-.44 6.267 6.267 0 0 0-.547-.48 2.217 2.217 0 0 0-.617-.335.8.8 0 0 0-.64.027c-.243.1-.445.285-.605.556-.16.27-.326.505-.5.704-.095.15-.286.347-.573.583-.286.238-.415.45-.38.635.032.186.187.342.467.47.28.128.483.23.614.305.088.077.153.114.194.112a9.484 9.484 0 0 1-.897 1.12c-.31.333-.603.655-.875.963a51.555 51.555 0 0 1-2.75 2.897c-.943.916-1.906 1.824-2.89 2.72-.333.334-.708.67-1.123 1.01a5.586 5.586 0 0 1-1.293.802 3.026 3.026 0 0 1-1.375.26c-.47-.02-.926-.226-1.368-.614a3.373 3.373 0 0 1-.54-.625l.625-1c.063-.083.106-.185.195-.243l.004-.002a5.96 5.96 0 0 1-.31-.545c-.287-.565-.383-1.08-.287-1.544.112-.527.413-1.193.903-1.995a33.046 33.046 0 0 1 1.656-2.446c-.077.02-.15.036-.222.047-.06.01-.032-.304.096-.41.326-.266.66-.528.998-.788.354-.456.707-.898 1.063-1.327.64-.77 1.15-1.377 1.54-1.818l.904-1.027c.29-.332.614-.655.968-.97.114.138.24.298.375.477.137.178.31.26.516.247.144-.03.31-.12.5-.266.187-.148.364-.316.53-.504a5.93 5.93 0 0 0 .447-.576c.133-.195.25-.35.346-.46l-.088.1.088-.1c.266-.392.397-.708.39-.947-.004-.24-.224-.492-.657-.756a8.834 8.834 0 0 1-1.857-1.63c-.27-.317-.56-.68-.868-1.086-.307-.407-.664-.692-1.07-.853-.385-.142-.72-.027-1.01.346a8.05 8.05 0 0 1-.786.896 8.36 8.36 0 0 1-.382.4 2.776 2.776 0 0 0-.39.478.93.93 0 0 0-.156.51c0 .166.095.303.284.41l.124-.307c.224.056.377.072.473.13.038.022-.05.138-.08.212l-.38.07.037.034-.567.605c.056.02.096.056.097.1.006.157-.06.343-.13.68-.177-.165-.292-.253-.373-.347l-.973 1.04a93.2 93.2 0 0 0-1.94 2.142c-.796.906-1.55 1.84-2.257 2.802a17.74 17.74 0 0 0-1.832 3.12c-.472 1.072-.8 2.038-.985 2.893-.184.856-.205 1.67-.062 2.442.145.773.464 1.524.96 2.25.435.643 1.03 1.312 1.786 2.006l.3-.132c.06-.026.155-.02.176.004.017.024-.033.115-.08.146l-.222.14.14.125c.133.117.304.246.51.39a5.2 5.2 0 0 0 .682.394l.006.002.212-.01-.066.08c.197.09.393.178.588.256.248.1.465.152.653.16-.335.356-.654.723-.96 1.103.045.013-.013.13-.02.198l-.164.036c-.166.21-.325.424-.48.643l-1.52 2.13a.63.63 0 0 0-.17-.208c-.27-.315-.566-.358-.884-.13a3.35 3.35 0 0 0-.765.737c-.057.066-.163.198-.318.396l-.477.61c-.163.208-.3.42-.41.635-.112.215-.145.363-.098.443.072.14.308.418.71.83.4.412.87.87 1.402 1.378l.264.233.067.06c.385.337.754.643 1.108.92l.09-.008-.047.04c.22.17.438.33.646.477.558.392.914.5 1.07.322.02-.023.16-.172.424-.45a18.02 18.02 0 0 0 1.608-1.964c.23-.327.33-.542.302-.645-.03-.142-.125-.256-.288-.34a6.82 6.82 0 0 1-.47-.266l2.744-3.18-.16.043c.127-.158.218-.355.388-.462a.767.767 0 0 1 .21-.085l2.535-2.922c1.892-2.175 3.808-4.367 5.75-6.577.466-.53.92-1.07 1.364-1.62.444-.548.91-1.1 1.394-1.65.136-.156.337-.36.6-.618.266-.257.535-.54.806-.85l.034.03c.066.058.156.167.27.327.115.157.24.306.374.443.13.134.27.22.412.252.024-.18.115-.385.184-.58l.516.025.65-.936.89-1.278zm-17.374 24.998c.48.344.947.704 1.397 1.082.453.377.88.782 1.283 1.214.42.37.848.718 1.286 1.044.438.326.868.694 1.29 1.105.134.115.3.125.503.028.203-.096.4-.234.598-.413.198-.18.377-.375.54-.582a14.6 14.6 0 0 1 .363-.445c-.057.065-.053.05.013-.048.066-.1.062-.082-.014.048l.423-.482c.145-.165.254-.334.326-.505a.74.74 0 0 0 .047-.486c-.042-.154-.202-.295-.48-.422-.194-.092-.32-.193-.38-.304a12.01 12.01 0 0 0-.23-.408l1.076-.788c.334-.25.657-.487.966-.706l.177-.192c.027-.03.102-.05.217-.084.27-.186.526-.352.762-.5.3-.186.51-.305.634-.354.26.15.494.318.704.503l.646.567c.265.232.52.465.765.7.245.234.49.48.736.734-.324.46-.707 1.052-1.15 1.78-.444.727-.87 1.478-1.278 2.254a2.775 2.775 0 0 0-.434-.41 1.433 1.433 0 0 0-.577-.244c-.147-.01-.32.053-.52.19a4.05 4.05 0 0 0-.593.507c-.194.2-.374.405-.54.613a3.41 3.41 0 0 0-.327.476l-.38.43c-.154.176-.205.367-.15.572.074.184.23.35.47.502.24.15.415.297.53.435.335.374.717.73 1.146 1.067.428.337.82.682 1.176 1.034.11.097.265.244.465.44l.634.614c.22.216.43.41.63.585.2.174.342.28.427.316.17.03.353-.022.553-.16.2-.137.398-.307.592-.507.196-.2.376-.404.54-.613l.258-.322.04-.147.06.03.033-.038.03-.033c.363-.504.458-.88.286-1.13-.173-.25-.467-.517-.882-.803.303-.478.628-1.004.977-1.578.348-.576.68-1.155.998-1.74.317-.58.608-1.138.877-1.666.268-.527.496-.964.682-1.31l-.03.032.662-1.09-.25.064.164-.26.26-.09 1.184-1.937-.06.036c-.138.076-.283.138-.427.208.065-.083.107-.185.196-.245.125-.08.274-.136.414-.2a349.874 349.874 0 0 1 2.938-4.708l3.39-5.36c.87-1.39 1.505-2.458 1.904-3.203.4-.746.64-1.32.717-1.72a1.886 1.886 0 0 1-.294-.2l-.265-.233c-.09-.078-.312-.304-.67-.677a45.804 45.804 0 0 0-1.22-1.218c-.455-.44-.9-.85-1.33-1.227-.43-.378-.743-.614-.936-.707-.385-.14-.728-.03-1.027.335a9.96 9.96 0 0 1-.803.88 8.69 8.69 0 0 1-.38.4 3.09 3.09 0 0 0-.407.495.926.926 0 0 0-.17.496c0 .155.097.3.294.434.237.13.477.292.72.485.24.192.473.406.697.642-1.14.76-2.3 1.592-3.48 2.493l-.932.705c.386-.037.566.137.547.5-.01.146.07.26.13.378.185.385.053.578-.647.99-.135.074-.234.13-.322.18a2.06 2.06 0 0 0-.305-.37c.497-.42.364-.873-.302-.688-.21.06-.415.112-.618.16l-.727.553-8.697 6.69c-.315.27-.663.532-1.042.786-.38.254-.76.487-1.143.7l.03-.033c-.41.218-.805.45-1.188.698.117-.01.208-.02.203-.006a2.194 2.194 0 0 1-.23.41c-.016.026-.14.06-.215.09l.078-.387c-.392.26-.772.535-1.138.825a3.63 3.63 0 0 0-.33-.26 5.425 5.425 0 0 0-.36-.227c-.13-.074-.253-.212-.37-.414-.117-.202-.275-.233-.475-.096-.2.14-.37.312-.513.518l-.414.605-.452.514-.078.09c.152-.05.304-.095.447-.134.395-.107.464.09.144.32-.363.26-.79.48-1.208.692-.05.108-.09.214-.113.32-.05.212.024.384.22.518zm14.224-4.764l.687-.532-.09.03c.01-.043.017-.086.026-.13.078-.03.155-.063.233-.094-.004.02-.002.042-.002.064l1.028-.8.132-.195.115.004 1.704-1.325-.028.005c-.06.01-.03-.305.096-.41.76-.617 1.558-1.217 2.346-1.82.785-.392 1.495-.84 2.202-.844.128 0 .213.054.316.083-.18.11-.362.255-.537.322-.2.076-.385.062-.586.12-.187.056-.436.133-.572.24-.463.363-.916.732-1.366 1.1a3.116 3.116 0 0 1-.337.618c-.154.218-.297.425-.43.62-.472.76-.983 1.498-1.53 2.21l-1.63 2.12a9.45 9.45 0 0 0-.89-.692c-.304-.21-.6-.44-.888-.693"/><path d="M86.386 158.562h-.063c-.126-.034-.27-.108-.428-.175.023-.154.018-.317.05-.303.152.065.314.177.474.275-.015.06-.015.17-.034.202zm-43.722-78.87c-1.908 1.298-2.713 1.813-6.692 4.718-3.225 2.355-4.264 3.862-8.064 6.766-2.777 2.122-4.733 3.252-6.218 4.106-5.987 3.456-3.283 1.085.472-2.375 6.8-6.263 20.75-16.21 23.474-17.56 1.44-.714.417 2.035-2.97 4.34zm22.56 91.894c-.696.102-.987.156-2.458.296-1.19.11-1.63-.14-3.043-.057a10.18 10.18 0 0 0-1.54.206c-3.306.707-1.683.91.372.99 2.74.106 7.066-.395 7.935-.706.506-.18-.026-.91-1.265-.728zm-14.723-6.362c2.303.14 3.254.224 8.18.362 3.99.113 5.737-.445 10.518-.415 3.496.023 5.735.326 7.43.558 6.852.93 3.262 1.153-1.826 1.59-9.21.793-26.336.126-29.31-.478-1.577-.32.916-1.864 5.01-1.616zm-13.748-15.987a1.98 1.98 0 0 1-.306.06c.034-.07-.107 0 0 0a.482.482 0 0 1-.1.117l.41-.03c-.11-.072-.052-.123-.004-.147.073-.02.04-.02 0 0zm8.17 3.784c-.105.717.053.858-.36 1.29-.734-.297-.454-.36-1.24-1.042-.267.476.228.662-.464.843-.164-.298-.774-1.644-.785-1.76.585-.35 1.283.177 2.145.187l.206-.967c.895.63.428.322 1.478 2.552-.742-.184-.292-.308-.98-1.102zm-1.95 2.488c-.02.03 0 .088-.045.102-.22.066-.036.076-.088.2-.134.306.018.086-.16.365-.953-.112-1.128-.41-1.823-.926-.917-.683-.915-.524-1.91-.587-.55-.94-.634-1.193-1.09-1.95-.343.215-.32.25-.716.38-.16-.187-.005-.002-.146-.287l-.227-.46-.1.024c.054.05.1.155.186.375l-1.107.01a1.253 1.253 0 0 0-.27-.338c-.647-.028-1.295-.123-1.48-.227-.095-.054-.23-.168-.32-.243-.41-.336-.207-.058-.56-.515 1.002.243 1.743.405 2.38-.243l.222-.266c1.04.218 1.737.318 2.575.026.75.816-.32-.006.705 1.09 1.138 1.213.126.604 1.695 1.43.57.297-.18-.014.486.26.342-.6-.128-.443.512-.655.896.594.416.466.533 1.383 1.88.994.467.292 1.526.963.363-.35.645-.853 1.297-.557-.354.736-1.142.733-2.076.645zm.29-4.63c-.562-.718-.156-.26-.12-.423.033.038.14.09.102.106-.03.01.06.093.06.108zm6.76.598c-.274.054-.107-.234-.012-.22.16.025.554.11.013.22zm14.625-1.733c-.173-.224-.305.305-.13-.454.037.035.15.087.112.103l.064.226c0 .023-.04.077-.047.123zm-3.694 1.035c-.067-.806.01-.306.174-.52.064.828.002.273-.174.52zm-29.123.02c-.536.047-.232-.29-.08-.258.3.06.388.23.08.257zm18.35.105c-.29-.403-.208-.248-.042-.61.222.622.36.19.04.61zm-13.163-1.77l.013-.01c.01-.06.04-.133.087-.232.277.06.4.078.42.206l.115.033c-.214.214.342.245-.137.194l-.024.103c-.34-.093-.485-.123-.463-.287l-.01-.01zm-2.772.4l.8-.015c-.206.266.2.234-.295.236-.55 0-.088.05-.505-.222zm15.7 2.96c-.283.365-.392.35-.822-.17-.233-.817-.058-.083.055-.37.86.125.68-.1 1.255.397-.023.02-.013.064-.064.067zm10.437-.287c.77.11.357-.162.655.6-.516-.27-.224.04-.655-.6zm5.824-1.956c-.016-.026-.033-.066-.052-.07l.695-.125.277 1.05.202.695c-.57-.15-.16-.01-.53-.187a6.31 6.31 0 0 1-.233-.123c-.346-.2-.176-.108-.338-.225zm-24.124 1.063l.533.01c.132.83-.21.823-.533-.01zm22.374.155c.103-.557.103-.6.735-.253-.186.303.18.12-.242.235-.16.044-.313.024-.492.018zm-16.074-1.305c-.35-.48-.335-.315-.26-.862.005.004.288.05.43.427.125.325.063.39-.17.436zm4.144.217c.674.014.666.12.937.82-.68-.24-.525-.245-.937-.82zm-11.978-1.467c0-.032 0-.066.01-.1l.02-.08.036-.536c-.27-.212-.243-.228-.588-.4-.397-.037-.22.014-.438-.167.528-.166.197-.153.438.166l.443-.055c.525.67.95.35 1.338.976-.496.464-.3-.038-.527.597l-.307.06c-.076.1-.153.082-.214.03-.208.013-.35-.045-.612-.238.13-.366-.053-.084.4-.252zm-8.175-.08l.78-.267.255.87c-.77-.17-.618-.105-1.035-.603zm18.386 2.826c.305-.268.205-.166.774-.16.206.796.393.673-.146.68-.378.004-.457-.246-.63-.52zm9.51-1.405l-.254-.847 1.06.172c-.25.488-.226.51-.805.675zm3.636 1.176l-.803-.145s-.156-.322.054-.59c.192-.246.09-.128.55-.122zm-16.15 3.808c-.063-.28-.263-.884.21-.95.697-.1-.012-.05.37.104l.228.766zm4.232-.242l-.777-1.416.65-.118c.185.607.433 1.186.128 1.534zm8.012-.534c.105-.392.005-.5 1.425-.44l.402.072c.034.008.096.037.145.06l-1.455.45c-.598.012-.375-.072-.518-.142zm-10.87.408c-.49-.902-.583-1.427.275-1.215.6.784.367 1.13-.276 1.215zm3.176-2.36l-.416-1.315c.584-.21.59-.256 1.11.152-.135.308-.164.278-.308.645-.194.5.1.264-.386.52zm-4.232.965l-.324-.96 1.267.03c.137.756-.205.91-.942.93zm2.98 1.512l-.692.313c-.084-.425-.125-.672-.093-1.082.045-.59-.007-.554.557-.613zm8.18-1.73c-1.005-.26-.316-.315-.805-.467-.005 0-.957.115-1.147.113-.335-1.194-.504-.563 1.812-.527zm-.823 1c.516 1.198.39.658.27 1.09l-.566.114c-.137-.732.19-.358-.006-1.343-.54.095-.26.113-.635.433-.05-.516.08-.382.203-1.044l1.002-.032c-.075.647-.12.285-.267.782zm5.35.264c-.68-.773.296.62-.262-.526l-1.318-.26c-.23-.47-.42-.474-.083-1.164l.368.167c.07.018 1.73-.08 1.785 1.55zm-27.5.5l-.198-.47c-.834 1.073-2.08-.224-1.384-.953l.78.118c.112.023.2.04.27.05l-.23-.543c1.078.095.514.172 1.393.73l.24-.654.727.254.342 1.452c-.13-.044-1.376-.282-1.847-.032-.02.007-.062.04-.093.048zm.152-32.948l.15.55s.26.03.464-.19c.185-.203.096-.1.073-.43zm1.042 1.73c-.656.16-.217.066-.404.258.64-.157.24-.085.404-.26zm.54-.137c-.376.305-.395.292-.503.757l.684-.03zm-3.943 14.687c-.023.022-.068.02-.078.06-.045.175-.06.043-.154.113-.237.175-.07.007-.283.21.128.665.372.715.808 1.09.576.498.452.536.544 1.245.764.162.967.158 1.585.3-.155.303-.184.295-.27.618.155.067 0 .004.233.034l.372.048c-.115.527.078 1.79.24 1.98l.13.114.076.057.078.057c.34.24-.193.015.35.22-.232-.667-.39-1.167.096-1.794l.2-.23c-.215-.702-.323-1.185-.127-1.87-.677-.34.017.23-.89-.237-1.008-.52-.485.062-1.203-.872-.26-.338.018.13-.227-.287.463-.404.356-.02.5-.54-.508-.504-.388-.185-1.12-.038-.86-1.118-.248-.267-.824-.867.262-.355.65-.688.39-1.086-.57.444-.534 1.017-.425 1.675zm.002-15.362c-.16.027.358.178 0 0 .046-.008.15-.005.35.02l.26.895c.38.05.39.185.923-.234l-.147-.227c-.016-.047-.007-1.28-1.3-.906l-.165.416.078.037zm.288 1.172l-.297 1.174c.015.438.072.254.133.34.306-.174.395-.128.29-1.148l-.073-.275zm.672 2.23c-.508.218-.22.158-.608.392-.97-.07-.536-.116-.873.08l-.066.44c.587-.085.277-.23 1.063-.335-.052.416-.078.22-.317.572.41-.094.3-.155.817-.41zm1.135 6.117c-.276.298-.26.373.168.557.657-.038.068.018.292-.137-.137-.593.05-.52-.366-.813-.014.022-.05.026-.05.063zm.957 3.782c-.534-.49-.273-.23-2.08-.428.177.493.256.136.913.433-.563.26-.68.18-1.005.59.265.46.303.238.875.64-.365.315-.535.002-.646.55.24.045 1.332.147 1.423.126.25-.515-.192-.89-.236-1.515zm.272 1.26c-.665.115-.644.362.03.387zm.88 3.952c-.242.232-.084.244.06.067.173-.215.088-.207-.06-.066zm-2.953-10.15c-.49.02-.957-.015-1.217.296l1.15.205zm-.07.79l-1.102.184-.22.582c.34-.047.537-.078.86-.206.466-.184.438-.136.464-.56zm.018 1.046c-.645-.237-.907.02-.948.51.735.126 1.152.062.95-.51zm-.538.965l-.614.03-.03.607c.223-.023.71-.03.743-.393.052-.535.043-.006-.098-.245zm1.1 7.422l-1.164.12c.04.083.278.932.1 1.337l-.034.082 1.455.094c-.12-.76-.158-.33-.636-.827l.507-.34zm.283 3.78l-.9.214c.512.427.405.658 1.03.764.3-.632-.585-.858.6-.94l.243.868c.635-.04 1.33-.05 1.116-.5-.022-.01-.065-.038-.07-.017l-.152-.005-.083.017c-.38.073.132.03-.365.096-.607-.568-.216-1.02-.74-1.53-.372.16-.55.66-.68 1.032zm.73 1.782c-.403-.67-.622-.54-1.54-.718.26.38.662.774.968 1.15.306.374-.247.81.71.943.504-.658.48-.343-.138-1.375zm-.395-16.762c-.385.267-.212-.007-.392.412l1.058-.03c.142-.48.177-.494-.166-.77-.24.174-.213.19-.5.388zm.597-.76c.214.435.212.32.684.475-.038-.486-.12-.455-.683-.474zm-.157 1.48c-.64.054-.55-.115-.533.28.01.276.21.27.437.326.198-.29.12-.19.096-.606zm1.08 5.8c-.008.027-.072-.02-.085-.016l-.164.085c.592.227.212.047.34-.02-.032-.016-.08-.08-.09-.048zm-.83-4.754c-.025-.108-.108-.375-.173.048-.032.214.19.017.174-.048zm.257-12.56l-.84.06-.558.03c.14.377.013.114.168.34l.106.137c.17.204.09.103.192.19l.804-.24c.02.005.054.007.06.02zm-1.232 13.623c-.604.09-.71.38-.695.92l.77-.006-.075-.913zm3.056 14.05c-.52-.29-1.418-.218-1.364.288.273.07 1.123-.207 1.365-.29zm.178 2.132c-.29-.083-.344-.018-.596.02l.032.408.823-.076c.027.54-.165.356.293.478.094-.13.21-.01.088-.3zm.472 2.34c-.633-.178-.253-.01-.39.07.13.058.013.048.236.023zm-1.406-6.45c-.06-.202-.2-.222-.21.008-.014.404.24.097.21-.007zm-.564-13.46c-.502-.003-.166-.212-.486.124.333.108.204.088.486-.125zm2.066 11.936l-.7.035c.166.52.11.423.523.6zm-.606-2.677c.133-.26.12-.08-.026-.464-.174.23-.216-.26-.13.256.044.27-.02.08.156.207zm-.226 1.534c-.202.218-.192-.084-.174.275.022.4-.036.076.195.31zm-3.674-18.1c.616.023.384-.208.503.326-.525-.152-.267-.016-.503-.325zm1.087-3.43c-.23.212-.1-.1-.175.234-.028.13-.004.235.005.364.437-.214.47-.227.17-.598zm1.864 11.743c-.26-.007-.31.055-.335.235.394.133.26.166.69-.03-.002 0-.05-.195-.354-.205zm.803 5.282c-.525.31-.092.357-.09.36.074 0 .21.022.342-.05.287-.157.126-.005.222-.27-.007-.004-.053-.292-.474-.04zm-3.55 11.096c.79.163 1.1-1.233-.275-1.168l.13.924c.083.254.03.105.145.244zm-6.5-6.406c-.12-3.802-.01-8.113-.123-11.743-.077-2.39-.417-4.177-.404-6.413.007-1.317.004-2.554-.01-3.716-8.152 7.33-5.694 7.954-12.638.56-5.504-5.856-2.856-4.73 4.396-11.083 4.15-3.635 6.993-7.42 10.96-11.132 3.818-3.573 8.97-7.517 13.124-11.054 3.697-3.157 6.387-5.92 9.97-9.023 8.372-7.71 8.99-7.822 16.788.114C75.1 83.218 77.938 86.8 82 90.41c3.51 3.118 8.233 6.28 11.797 9.43 1.547 1.368 2.667 2.864 4.23 4.28 2.035 1.84 4.973 3.88 6.964 5.788 6.716 6.444 7.087 4.73.857 10.727-5.783 5.56-3.93 5.93-9.26.672-1.082-1.07-2.18-2.13-3.286-3.185.007.122.012.243.017.363.13 2.608.258 5.49.356 8.573.14 4.422.225 9.256.177 14.26-.044 4.675.107 8.107.072 10.643l-.04-.066c-.37-.594-.473-.382-.468-.058.004.287.13.9.22.978.09.08.174.165.256.254-.282 6.255-2.442 6.066-14.536 6.56-13.887.57-22.886.178-30.798-.004-22.324-.51-18.687 5.63-19.4-16.836zm56.497-36.948c-.073.28-.808.636-1.02.735-.01-.68.538-1.284 1.02-.735zM84.775 104c-.38.436-.756.95-1.098.335.004-.026-.002-.086.022-.07l.075-.118.06-.046c.273-.21-.04.13.29-.176-.247-1.028-.907-1.19-1.14-2.095.357-.12.955.25 1.396.527l.696-.463c.157.814.446.968.22 1.544-.797-.413-.55-1.306-1.265-.497zm-2.212-2.247l.046.214.015.114.015.117c.06.494.118-.13.034.486-.546-.848-.962-1.47-1.85-1.735l-.338-.082c-.59-.867-1.018-1.436-1.81-1.977.02-.85.223.245.235-.91.015-1.28.32-.3-.235-1.78-.2-.534.12.143-.168-.46-.65-.058-.21.248-.805-.168-.235-.887.02-.476.555-.877-.662-1.774-.134-.455-.43-1.493-.494-.16-1.036-.203-1.297-.802.75.02 1.306.626 1.91 1.37.033 0 .057-.032.1-.002.2.145.075 0 .197 0 .3-.005.044-.045.36-.003.6.767.52 1 .666 1.706.19.933.297.88.96 1.66-.245.738-.358.888-.544 1.495.387.188.394.158.763.418-.015.185.004.004-.09.208l-.15.33c.59.445 1.754 1.858 1.86 2.17zm2.176 6.004c-.192-.502-.383-.266.064-.496.067.346.11.16-.065.497-.013.434.017.43.088.846l.74.676c.433-.174.037-.327.48-.055.088.64-.015.67-.456 1.002-.757-.47-.15-.11-.88-.205-.42-.926.126-.917-.266-1.986zm3.188-1.005c-.06.035-.04.01 0 0 .026-.016.07-.045.133-.09a.498.498 0 0 0 .09-.08c-.088-.045.06-.078 0 0a.64.64 0 0 0 .17.042l-.246.278c-.016-.154-.097-.162-.146-.15zm-9.575-6.27c-.335-.16-.147.01-.453-.487.324.102-.147-.422.327.16.247.307.09.065.126.326zm-2.904-3.097c.59-.083.407.29.41.296-.042.054-.09.182-.23.21-.313.057-.075.087-.392-.107 0-.01-.264-.332.21-.398zm7.71 6.5c.415.395-.028.276-.116.15-.172-.252-.118-.374.117-.15zm-2.037-.743c.43.645.364.507.324.995l-.733-.507zm-.535-.677l-.577-.608c.33.07.02-.23.37.147.39.42.098.05.208.46zM73.02 91.13l-.875-.976c.412-.36.76-.15 1.295.405zM71.46 89.47c.445.092.513.18.468.687-.388.456-.017.07-.292.08-.522-.698-.548-.484-.62-1.092.03.01.053-.013.09.026zm4.78 6.41l-.37-.412c.468-.383.703-.118.37.41zm-5.25-4.43c-.076.434.026.366-.398.493 0-.004-.17-.234-.018-.472.132-.206.22-.18.416-.02zm16.736 16.05c-.516-.373-.475-.407-.34-.82.503.26.462.34.34.82zm-17.41-18.373c-.4-.146-.258-.103-.66-.54.392-.426.177-.527.564-.117.27.287.16.432.095.657zm7.26 5.203c-.086.225-.564 1.148-.634 1.195-.65-.33-.79-1.04-1.394-1.702l-.8.172c-.21-.897-.085-.435.676-1.995.4.63 0 .327-.05 1.12.56-.16.542-.328 1.128-.16.32.662.077.467.175 1.3.512.045.285-.4.9.07zM74.856 90.2c-.142.144-.41.5-.79.163-.563-.5-.028.027-.192-.318l.356-.433zm-1.22-.922c-.266.68-.553.93-1.018.2.106-.723.504-.662 1.018-.2zm-1.252-.65c-.43.165-.368.192-.81-.217l.774-.644.703.423c-.227.208-.364.324-.666.437zm-.693-1.577l-.405 1.073-.538-.453c.278-.35.493-.735.944-.62zm15.712 21.825l-.512.544c.525.56.443.23.323.7-.18-.06-.125.146-.35-.24l-.19-1.012c.07-.3.164-.278.337-.428zM69.792 87.65l-.597.763c-.556-.375-.588-.362-.683-.9.303 0 .303.03.654.018.476-.02.107-.166.625.12zM92 109.538l-.6.822c-.495-.805-.232-.464-.057-1.08.13-.446-.044-.447.168-1.007.393.7.184.635.49 1.264zm-3.516-3.652c-.256.757-1.822-.412-1.025-1.38l.86 1.026c.21.318.088.13.166.355zm-1.387.305c-.93-.284-.602.016-1.31-1.49-.458-.976-.21-1.01.1-1.878.244.576.428 1.275.64 1.885.214.606.946.63.568 1.482zm-4.223-7.124l-.68 1.19c-.7-.856-.247-.452-.494-1.312l-.61.04-.344-.643.737-.752c.062.113.787 1.146 1.29 1.422zm10.535 10.512c1.19.228 1.84 2.828-.19 1.835-.388-.99-.367-.35-.105-1.13zM81.93 157.712l-.52-.196c-.026-.102-.038-.22-.014-.225.076-.014.195.016.288.105.084.082.17.196.246.317zm-3.787-1.797l-.027-.016.057-.006c-.11-.213-.22-.425-.332-.637l.323.166c-.01.152-.02.3-.028.448l.01.045zm-7.416-5.854c-.38-.377-.76-.763-1.138-1.162.024-.105.067-.174.13-.172.166.01.482.34.703.612.134.158.206.474.303.72v.003zM51.69 106.578l.022-.396c.035.038.07.08.1.122.052.072.034.258.046.393zm.277-2.77l.093-.55c.05.078.102.16.152.244.09.154.096.38.138.57zm13.924-9.1c.43.15.86.322 1.296.514.285.632.068.893-.153 1.03-.126.08-.517-.326-.572-.36-.33-.536-.512-.912-.57-1.184zM53.068 111.28l.04-.047-.056-.007c-.122-.02-.248-.04-.375-.063-.03-.102-.062-.206-.095-.307.16.142.326.284.487.425zm2.983-14.91l-.082-.273c.016.083.032.167.05.25.087.212.175.426.27.643.072.066.135.13.2.197l-.233-.21c.203.125.404.252.607.375-.074.172-.095.503-.232.48-.307-.046-.666-.213-1.016-.452-.157-.105-.34-.496-.51-.755.165.09.337.12.492.275.775.767.257-.43.454-.53zm33.073 25.597l-.01-.16c.042.034.1.06.122.1.023.044.01.103.013.157a5.376 5.376 0 0 1-.124-.097zm-21.96-21.35l-.05.03c-.03-.08-.062-.158-.093-.236.037.03.075.05.11.088.017.023.022.08.032.12zm5.47 11.06l.09.165a3.86 3.86 0 0 0-.12-.073l.066-.067c-.03-.09-.055-.18-.084-.267.017.08.032.163.048.242zm8.654.966l-.105-.08c0-.043-.013-.11.004-.117.017-.01.065.044.1.07v.127zm-7.124 32.748c.033.026.08.046.096.078.016.035.004.082.007.123-.034-.025-.08-.045-.097-.078s-.006-.08-.006-.12zm5.883-.473c0-.043-.012-.11.002-.12.017-.005.064.047.097.07.002.044.016.11 0 .118-.015.01-.063-.044-.1-.068zm-.018-3.964c0-.04-.01-.103.006-.11.017-.006.064.05.097.075 0 .04.01.103-.005.11-.018.006-.064-.05-.097-.075zm2.192 5.317l.087.108-.056.022zm3.085-1.5c0-.042-.002-.082-.004-.128.034.03.083.053.1.087.017.035.006.083.008.125-.036-.03-.07-.055-.104-.084zm-3.236-16.16c-.075-.085-.15-.163-.218-.257-.014-.022 0-.094 0-.14.07.08.144.154.207.247.018.028.006.097.008.15zm7.712-4.706l-.087-.285c.037.03.09.054.104.086.04.094.063.188.092.28-.036-.027-.07-.056-.11-.082zm-9.452 8.277c-.056-.022-.144-.042-.157-.072-.037-.086-.047-.18-.066-.27.034.015.09.023.103.048.047.09.078.188.12.295zm-20.798-16.285l.014-.12c.05.052.097.1.144.152-.015.027-.026.076-.057.072-.02-.002-.067-.068-.102-.105zm.543 15.71l.008-.215c.07.075.155.145.21.235.023.042-.007.134-.013.2l-.206-.22zm.787-8.577c.014-.024.025-.077.038-.065.036.03.073.084.108.132a3.803 3.803 0 0 0-.066.104c-.025-.06-.054-.116-.08-.172zm1.793 5.207c-.018-.05-.034-.104-.052-.158.058.04.115.083.17.123 0 .05.002.096 0 .146-.04-.04-.078-.072-.118-.11zm18.65 21.137l-.003-.004.002.002c.028-.006.054 0 .066.013.343.446.753.907.57 1.392l.03.02c-.038-.05-.08-.092-.117-.147-.257-.38-.74-.653-.635-1.208.006-.036.048-.06.086-.07zm1.07-3.824l-.075-.314c.04.027.11.058.115.078.038.11.06.217.086.328l-.124-.092zm11.235 1.46c.033.015.067.03.096.048-.005.033 0 .087-.02.097-.02.006-.064-.03-.095-.046l.02-.1zM79.95 132.87a3.917 3.917 0 0 0-.01-.15c.075.085.154.164.226.26.013.02 0 .094 0 .142l-.218-.252zm2.18 9.49a7.09 7.09 0 0 0-.058-.277c.014.04.037.09.038.124.002.046-.01.085-.017.126l.02.015-.02-.014c.22.334.434.668.653 1.002l-.18.138c-.146-.37-.29-.744-.436-1.115zm11.97-9.695c.062.02.125.037.187.057.005.05.026.135.013.136-.05 0-.116-.025-.178-.044l-.023-.15zM60.125 99.792c-.024.007-.047.036-.074.018-.028-.027-.06-.09-.09-.137.04-.013.076-.024.114-.033.015.05.032.103.05.152zm25.91 54.51c.007-.073.003-.154.022-.205.01-.022.092.012.096.026.038.09.063.18.094.268-.068-.026-.134-.057-.21-.09zm.377-14.537l.203.158c-.012.102-.03.2-.043.298-.066-.08-.162-.163-.19-.24-.026-.077.018-.144.03-.215zm-16.75-23.224c-.033-.16-.09-.324-.064-.344.053-.046.153-.01.233-.008.023.1.09.263.065.288-.05.056-.145.046-.234.065zm-7.375 17.313c.01-.082.024-.162.038-.244.077.104.184.21.226.315.032.078-.028.156-.044.232-.074-.1-.147-.204-.22-.304zm6.196-4l.19.156c-.03.093-.05.19-.08.283-.06-.082-.167-.193-.172-.24-.012-.088.038-.138.062-.2zm11.186-3.102c.03-.052.045-.154.095-.147.048.006.135.124.205.193-.032.053-.047.148-.1.148-.045-.002-.13-.124-.2-.193zm6.378-6.32c-.042-.114-.085-.226-.126-.34.065.013.153-.007.19.044.056.09.08.224.122.337l-.186-.04zm-4.703 6.427c-.12-.055-.242-.09-.258-.12-.056-.15-.082-.3-.118-.45.07.028.185.043.206.088.074.15.11.31.17.482zm-11.933 4.248c-.064 0-.126.004-.19.006-.02-.103-.066-.244-.046-.296.02-.048.115-.003.174 0 .022.097.043.195.062.29zm22.2-5.76c.068.095.167.184.204.275.026.065-.027.135-.05.2-.07-.08-.176-.176-.195-.245-.023-.088.023-.154.04-.23zM62.5 103.236c-.068-.06-.188-.15-.195-.18-.02-.12-.005-.217 0-.32.072.086.172.168.213.26.03.072-.007.16-.018.24zm18.874 42.147c-.008-.155-.024-.314-.012-.307.11.056.226.14.34.22-.01.075.008.217-.03.217-.077 0-.186-.077-.298-.13zM65.95 115.834c.064.093.15.19.18.277.04.107.03.21.04.315-.085-.115-.19-.226-.245-.344-.034-.072.015-.164.025-.246zM60.348 95.61c.04-.1.06-.218.12-.275.02-.017.136.124.205.193-.014.12-.027.24-.044.36-.08-.076-.157-.154-.282-.278zm-.565 30.636a6.328 6.328 0 0 1-.186-.015c-.028-.1-.088-.24-.07-.286.017-.047.113.006.173.015.027.095.057.19.083.286zm2.23-2.21c-.026-.152-.083-.37-.08-.54 0-.045.172.05.265.084.045.27.088.538.13.808l-.316-.352zm7.81-4.957a2.765 2.765 0 0 0-.432-.17c-.01-.002.03.16.055.32.11.03.213.057.31.076a.237.237 0 0 1 .127-.013 2.01 2.01 0 0 0-.058-.214zm22.525 19.735c-.154-.124-.303-.244-.452-.384-.01-.008-.022-.248-.007-.24.145.072.3.175.45.27l.01.355zm-25.273-37.898c.038-.086.056-.21.092-.188.117.07.24.2.362.307-.03.08-.044.25-.083.228-.117-.07-.242-.22-.372-.348zM56.36 108.46l-.358-.165a98.037 98.037 0 0 1-.102-.55c.11.064.247.088.324.204.07.1.084.3.137.51zm23.637 26.524c-.114-.054-.223-.075-.332-.168-.037-.03-.073-.234-.11-.36.115.072.232.128.345.224.03.027.058.177.097.304zm-16.336-6.197c.12-.192.192-.31.263-.425.132.19.264.38.395.573-.102.036-.194.104-.313.098-.067-.002-.18-.125-.344-.246zm17.9 2.228c.08-.088.13-.234.196-.192.095.063.202.268.307.41-.04.068-.07.218-.125.184-.102-.06-.22-.227-.378-.402zm-15.5-7.51c.02-.232-.006-.443.043-.438.11.01.26.132.39.207.02.135.08.378.038.382-.102.016-.253-.074-.47-.15zm-4.97 11.37c-.17-.13-.303-.184-.374-.298-.074-.124-.085-.302-.124-.456.098.06.222.09.293.19.083.12.116.307.206.566zm1.535-12.49c-.028-.216-.087-.497-.055-.49.11.02.258.14.39.222 0 .137.045.34-.003.4-.043.047-.19-.07-.33-.13zm12.537 27c.202.044.335.074.47.105.007.2.078.494.006.57-.06.074-.275-.09-.423-.15l-.054-.526zm18.373-3.823c-.107.174-.187.325-.288.45-.013.015-.126-.126-.193-.196.066-.172.125-.35.204-.505.006-.014.123.112.277.252zm-5.018-2.4c-.238-.276-.408-.423-.424-.506-.052-.244-.044-.458-.06-.686.11.153.253.3.318.46.08.187.09.38.167.73zM57.67 110.21c.205.19.362.288.468.448.068.104.057.297.08.45-.142-.095-.29-.157-.422-.302-.054-.06-.066-.293-.127-.595zm.114 5.578c-.002-.306-.002-.532-.002-.758.094.08.26.19.27.23.057.26.08.506.097.74-.002.014-.185-.106-.366-.212zm7.634 27.186c.084.125.183.245.25.378.105.203.187.415.28.624-.116-.096-.26-.162-.34-.293-.12-.196-.2-.433-.293-.653.034-.02.068-.04.103-.056zm6.556-14.45c.01-.39-.01-.596.032-.726.015-.046.188.1.287.16.028.224.088.478.07.665-.005.063-.193-.044-.39-.098zm16.5 6.68c-.006-.26-.037-.51-.007-.5.187.08.383.205.58.348.036.026.08.204.118.314-.204-.046-.41-.095-.69-.162zm-15.425 11.172c.297.356.484.55.634.78.05.08.035.395.007.38a1.69 1.69 0 0 1-.536-.387c-.06-.07-.055-.376-.106-.772zm14.498 1.757l-.025-.422c.206.246.414.485.613.746.02.024-.02.17-.032.262l-.556-.587zm-32.573-35.022c.174.18.346.306.367.384.052.206.037.39.05.58l-.42-.337c-.002-.183 0-.365.003-.627zm13.587-.578c.09-.317.123-.538.208-.674.034-.053.197.08.303.13.043.27.093.55.115.808 0 .027-.176-.07-.626-.263zm-5.625 26.623l.196-.09c-.3-.535-.602-1.072-.906-1.606-.006-.012-.084.015-.083.017.192.458.39.913.585 1.37.07.106.14.206.207.308zm28.536-10.556c.373.312.644.508.903.782.064.07.077.39.116.595-.277-.25-.556-.488-.83-.77-.06-.06-.09-.276-.19-.608zM81.947 151.5c.17-.313.213-.514.33-.564.075-.034.263.156.4.246-.005.17.048.457-.026.486-.126.05-.335-.067-.703-.168zm9.08-13.124c-.332-.25-.577-.346-.685-.54-.108-.186-.104-.496-.09-.697.006-.042.32.113.402.255.137.227.2.515.372.98zm-7.313 3.845c.042.155.09.32.135.487-.116-.058-.26-.063-.34-.17-.328-.464-.637-.96-.945-1.45-.01-.015.078-.176.09-.163.345.413.688.837 1.06 1.296zM60.49 116.723c.106-.444.146-.737.25-.95.018-.044.396.29.41.35.052.29.106.64.025.78-.06.108-.328-.074-.684-.18zm27.4 5.98c.296.308.512.46.63.676.12.217.148.496.217.748-.223-.148-.465-.237-.657-.472-.1-.12-.105-.496-.19-.953zm-16.85 25.822c-.153-.363-.29-.67-.404-.972-.035-.09-.023-.225.013-.255.034-.024.163.053.205.124.17.287.358.59.47.884.098.26.103.517.15.775l-.435-.556zm.077-34.685c-.28.282-.412.454-.577.566-.09.06-.226.07-.36.005-.05-.023-.223-.378-.22-.48.006-.156.08-.312.185-.31.226 0 .492.102.972.22zm7.065 38.634c-.314-.124-.64-.227-.977-.413-.062-.036-.18-.41-.273-.63.11.035.263.016.322.112.345.528.53.54.678.26.024-.045.2.115.305.182l-.055.49zm-14.112-15.8c.514.913 1.025 1.823 1.535 2.736.095.172.17.35.254.526-.114-.178-.247-.36-.344-.536-.486-.887-.96-1.775-1.442-2.66a.785.785 0 0 1-.004-.066zm-4.773-19.373c.286.23.52.37.726.602.058.065.11.6.052.59-.262-.035-.565-.184-.852-.295l.074-.896zm5.897 15.413c-.217-.7-.386-1.12-.45-1.49-.036-.19.113-.28.18-.416.165.25.47.608.47.73.007.378-.1.666-.2 1.176zm19.374-13.9c.028-.382.037-.677.085-.927.006-.018.376.28.39.35.077.353.093.68.13 1.018l-.605-.44zm7.01 12.038c0-.35-.056-.62.01-.688.314-.32.73.326 1.1.794.086.108.104.376.153.572l-1.262-.677zm-9.745-13.11c.477.482.817.746 1.076 1.123.104.153.14.735.03.805-.317.207-.61-.45-.848-.894-.118-.225-.133-.51-.26-1.034zm-1.67 2.246c.546.642.925 1.067 1.28 1.54.06.08.08.464.007.536-.18.184-.83-.474-1.122-1.142-.09-.198-.077-.416-.165-.934zm-22.66-1.02c.175.47.28.752.385 1.038-.314-.13-.628-.26-.943-.388l-.113-1.354.67.705zm.577-5.425c-.39-.003-.728.008-1.082-.034-.04-.005-.23-.323-.275-.477-.212-.73.696-.323.22-1.336.112.088.247.147.33.273.246.383.482.787.705 1.197.07.132.082.302.102.377zm3.932 13c-.226-.403-.486-.8-.67-1.214-.082-.178-.02-.388-.024-.582.15.135.35.24.444.413.47.86.92 1.74 1.36 2.616.06.12.03.277.042.417-.117-.088-.265-.143-.342-.27-.278-.45-.532-.927-.793-1.392l-.018.012zm24.81 2.898c.295.585.643 1.172.857 1.752.103.282-.048.55-.08.827-.215-.284-.535-.588-.618-.847-.185-.577-.253-1.13-.37-1.694l.21-.038zm2.843 18.462c-.61-1.06-.792-1.855-.522-2.073.047-.04.217.04.278.133.44.67.862 1.962.666 2.067-.104.056-.323-.095-.42-.128zm-10.528-30.26c-.583-.395-1-.675-1.413-.954.015-.298-.057-.726.06-.863.238-.28.617-.226 1.027.602.14.277.165.592.328 1.214zm9.23 34.484c-.03-.17-.197-.665-.126-.872.123-.346.98.232 1.198.844.128.36.71.984.33 1.21-.325.19-.817-.167-1.4-1.182zm-8.825 1.2c.466.776.938 1.545 1.388 2.333.095.165.174.534.12.576-.08.066-.276-.01-.423-.133-.86-.72-1.328-1.962-1.053-2.757zm-21.498-54.12c.326.49.722 1.008 1.03 1.577.18.333.225.744.33 1.12-.366-.127-.724-.142-1.1-.41a1.046 1.046 0 0 1-.378-1.062c.084-.327.077-.76.118-1.225zm5.07 8.597c-.108.088-.207.196-.3.32.013.043.022.088.03.13.053.04.107.08.16.117.14-.124.292-.22.454-.29-.08-.127-.164-.26-.25-.392a.378.378 0 0 1-.094.116zm28.55 35.66c-.384-.405-.772-.68-.975-1.058-.266-.488-.432-1.08-.554-1.59-.135-.576.15-.666.467-.194.425.637.764 1.4 1.104 2.122.072.153-.014.353-.044.722zM70.15 107.727c-.256-.577-.506-1.154-.76-1.73.433.41.867.813 1.3 1.235.164.162.323.388.49.54.342.312.684.596 1.027.894-.315-.032-.726-.228-.924-.063-.407.33-.734-.08-1.134-.874zm-7.038 16.224l.197-.354a4.403 4.403 0 0 0-.08-.11c-.056-.08-.17-.156-.205-.137-.048.025-.077.136-.053.23.06.233.153.476.09.283.017.03.035.056.052.087zm2.132-10.088c-.53-1.064-.993-2-1.437-2.89-.14.22-.263.48-.373.76.173.24.348.485.526.72.354.472.758.84 1.283 1.41zm9.194-9.19c-.355-.75-.583-1.128-.684-1.47-.09-.313-.042-.588-.056-.884.188.183.395.332.554.557.45.644.89 1.308 1.307 1.99.105.172.178.516.142.64-.03.112-.23.128-.353.023-.376-.313-.752-.706-.91-.857zm4.918 7.654c-.525-1.148-1.136-2.193-1.11-3.21.007-.184.088-.302.135-.45.15.262.35.533.437.788.1.29.072.555.148.847.07.272.167.635.318.835.81 1.108 1.642 2.178 2.47 3.253.114.145.32.247.363.366.15.4.295.834.337 1.19.01.084-.44.03-.586-.16-.852-1.12-1.678-2.3-2.51-3.458zm-5.77 15.25c-.104-.105-.213-.16-.322-.24.015.168 0 .273.038.383.18.56.382 1.127.567 1.688.194-.157.384-.317.576-.468-.265-.567-.59-1.093-.858-1.365zm1.596-11.19c.006.005.01.005.015.007-.064-.3-.133-.605-.21-.914-.233-.968.422-1.14 1.006-.403.172-.16.348-.313.546-.422-.067-.13-.142-.276-.24-.473-.563-1.027-.834-1.225-1.398-.976-.175.08-.34.187-.55.17-.63-.053-.876.322-.685 1.152.176.755.804 1.56 1.514 1.857zm-15.637-7.25c.237.1.404-.115.6-.19.165-.065.247-.292.333-.513-.01-.055-.026-.113-.04-.173-.456-.618-.943-1.153-1.42-1.736.082.523.1 1-.11 1.33-.18.28.238 1.11.637 1.28zm.555-6.122a.45.45 0 0 0-.082-.06c-.412-.234-.96-.63-1.177-.47a.437.437 0 0 0-.127.183c.47.137.928.247 1.386.347zm-24.348.184c2.217-1.778 20.024-17.162 20.81-17.924 2.982-2.877 5.73-5.31 7.09-3.884.527.553 1.874 2.053 2.284 2.49 1.63 1.748.727 1.79.277 1.518-.91-.55-2.292-1.218-3.092-1.494-2.294-.79-3.965 1.785-8.263 4.67-1.033.69-17.624 14.51-18.612 15.16a15.3 15.3 0 0 0-1.246.885c-.604.487-.59-.345.75-1.422zM46.14 141.62c-.037-1.526-.106-3.03-.1-4.393.026-5.416-.7-5.215 2.993-5.206.675.003 1.497.007 2.492-.015 6.16-.14 6.466-1.12 6.573 1.62.02.514.2 1.31.228 2.11.027.722-.15 1.664-.134 2.535.02.976.176 3.095.13 4.18-.157 3.674.607 3.074-2.65 3.243-2.637.136-4.345.046-5.847 0-4.24-.123-3.548 1.36-3.684-4.073zm20.623-.302c-.037-1.526.266-3.47.27-4.832.007-1.49-.41-2.124-.41-2.883 0-1.114.11-1.574.673-1.762l-.018-.05c.016-.424-.055-.907-.25-1.456.274.444.52.904.7 1.42.446-.05 1.068-.037 1.93-.036.673 0 1.495.004 2.49-.018 5.754-.132 6.543-.866 6.712 1.27v.01l.033.187-.02-.022c.034.565.038 1.31.075 2.286.06 1.538.116 3.47.1 5.53-.013 1.915.08 2.97-.076 3.565h.005c.04.214.12.458.116.635-.013.888-.044 1.764-.072 2.64 0 .092-.02.256-.04.238-.32-.222-.656-.414-.967-.734-.252-.26-.48-.678-.844-1.205.26-.18.39-.428.612-.38.33.07.585.196.444-.5-.413.103-1.025.123-1.932.17-.543.028-1.048.047-1.52.06.037.197.074.394.098.586.002.016-.206-.097-.416-.198l-.028-.383a53.16 53.16 0 0 1-2.175-.01l.26.227c-.015.17-.005.37-.06.483-.02.037-.212-.154-.322-.244l-.01-.467c-.602-.015-1.15-.037-1.672-.053-.88-.026-1.547.018-2.054.054.034.145.058.29.094.434-.115-.08-.232-.157-.367-.25l-.05-.16c-1.565.107-1.208-.1-1.31-4.15zm.013-16.636c-.038-.694-.282-1.513-.275-2.133.003-.5.155-.758.142-1.066-.04-.933.028-1.12 1.374-1.156a1.65 1.65 0 0 1-.55-.333 5.527 5.527 0 0 1-.077-.583c-.022-.293-.02-.567-.026-.85.168.27.336.54.505.808.184.325.382.64.582.952h1.216c.676 0 1.496.002 2.49-.007l.902-.013c.013-.08.027-.158.046-.232a.34.34 0 0 1 .106.083l.025.147c.963-.017 1.76-.04 2.42-.06-.052-.178-.11-.383-.187-.63.306.29.523.434.654.62 3.068-.08 2.686.034 2.835 1.78.044.53-.002 1.02-.035 1.635.03.067.05.15.078.22l-.086-.043-.014.443c-.007.44.17 1.034.17 1.297.005.92-.21.91-2.596.964.02.1.04.196.018.23-.046.067-.167.026-.32.03.02-.097.027-.183.038-.254-2.584.062-4.27.018-5.755 0-4.24-.057-3.547.617-3.682-1.85zm-20.81-.046c-.04-.692-.108-1.375-.1-1.995.025-2.46-.702-2.365 2.992-2.362.674 0 1.495.002 2.49-.006 5.408-.057 6.43-.355 6.673.414.135.17.272.34.39.53.05.08.013.248.016.377l-.33-.405c.015.214.026.47.052.777.023.273.045.573.064.894l.026.127a.59.59 0 0 1-.01.203l.02.577.013.035-.012-.007c.004.22.005.448 0 .68-.032 2.01.506 1.934-2.752 2.012-2.637.062-4.346.02-5.848 0-4.24-.057-3.55.617-3.684-1.85" fill-rule="evenodd"/></g></svg>