<svg xmlns="http://www.w3.org/2000/svg" width="62mm" height="60mm" viewBox="0 0 219.68504 212.59842"><g fill="#f02618"><path d="M46.464 64.506c-1.31 12.082-16.596-6.17-5.667-6.19 1.964 1.97 2.976 4.802 5.667 6.19zM5.02 180.523c-7.885-2.36 2.74-7.81 4.678-4.003-1.56 1.334-3.12 2.67-4.68 4.003zm8.054 5.094c-6.336-4.197 5.603-6.33 1.797-1.57zM47.32 205.6c1.628 7.425-8.43.65-2.386-.12l2.385.12zm120.225-54.746c1.185 3.85 9.094 12.834.328 12.387.338-2.504-6.554-16.503-.328-12.386zM154.32 163.8c-1.075-7.522 8.454-.023 2.37.3l-2.37-.3zM34.273 47.308c7.41 1.688-3 7.904-1.126 2.108l1.126-2.108zm-8.045 17.48c-3.343.64-3.97-2.31-1.23-4.762 1.076-6.57 7.378-.104 3.315 2.743l-2.086 2.018zm4.134 5.035c7.41 1.688-3 7.905-1.126 2.107l1.126-2.106z" fill-rule="evenodd"/><path d="M61.95 42.165c.213-.242.403-.483.57-.722.168-.24.333-.503.498-.787.19-.265.19-.424.004-.48a2.31 2.31 0 0 1-.566-.272l-.036-.032c.234-.267.456-.534.668-.8.212-.264.434-.53.67-.797.17-.194.358-.383.563-.568.197-.178.39-.37.574-.578l-.114.1c-.12.106-.357.17-.543.25.278-.3.562-.597.858-.895.08.017.06.18.252.02.19-.162.7-.806 1.15-1.336.54-.643 1.04-1.298 1.5-1.97a39.89 39.89 0 0 1 2.906-3.633 447.17 447.17 0 0 0 3.117-3.51 30.81 30.81 0 0 1 2.122-2.194 32.137 32.137 0 0 0 2.09-2.158l.928-1.055a50.858 50.858 0 0 0 2.004-2.428c.315-.41.59-.792.816-1.15.208-.334.324-.662.348-.983.026-.323-.11-.658-.407-1.004l-.45-.472-.472.318c-.13.082-.388.148-.483.124-.087-.022-.105-.173-.027-.27.186-.238.412-.477.55-.624l-.258-.27.037.03a45.512 45.512 0 0 0-2.153-2.23c-.222.26-.425.52-.635.782.015-.24.154-.558.022-.704-.164-.19-.103-.364.114-.548l-.283-.266c-1.02-.94-2.053-1.867-3.095-2.783-.39-.34-.784-.698-1.185-1.073a10.418 10.418 0 0 0-1.248-1 86.79 86.79 0 0 1-1.293-.91c-.408-.294-.806-.61-1.194-.952-.34-.3-.675-.53-1.005-.69-.33-.162-.716-.114-1.157.144-.176.102-.393.276-.652.522-.26.244-.522.507-.788.788l-.805.84c-.265.28-.486.495-.66.643a89.252 89.252 0 0 0-3.094 3.08c-.118.12-.235.242-.196.254.038.01.078.05.127.065l-.116.148-.208-.05c-.13.148-.258.303-.57.724a19.55 19.55 0 0 1-1.008 1.25l-.495.563c-.162.182-.338.36-.533.53l.032-.035c-.26.245-.517.514-.772.805l-.735.836a88.943 88.943 0 0 1-2.806 3.046c-.953.986-1.878 1.99-2.772 3.008-.874.994-1.733 1.998-2.584 3.014-.355.426-.707.863-.71.992 0 .13.077.12.153.115-.183.164-.36.328-.553.486-.014.012-.084 0-.147-.01-.4.527-.793 1.072-1.175 1.628l-.6-.527-.197-.164a1.102 1.102 0 0 1-.298.185c-.235.093-.61.448-.825.36-.172.214-.35.446-.53.698a10.68 10.68 0 0 0-.732 1.162c-.203.38-.29.625-.26.737.015.228.158.43.433.607.265.17.46.31.58.416.078-.077.154-.155.222-.236.057-.07.52-.18.74-.19.246-.013.41.06-.034.356l-.57.38a47.02 47.02 0 0 0 2.008 1.638c.312.188.58.37.81.55.23.18.486.352.77.516.122.108.28.258.475.45.195.194.376.32.54.378.14.036.328-.032.57-.208.24-.176.482-.39.728-.648.247-.256.47-.52.67-.797.2-.276.342-.463.427-.56.185-.31.133-.592-.157-.847a7.96 7.96 0 0 0-.974-.726c.59-.77 1.193-1.53 1.808-2.277l.013-.016c-.068-.01-.145-.018-.236-.023.3-.303.5-.605.783-.77l.2-.105c.363-.43.725-.85 1.09-1.264.66-.752 1.28-1.518 1.858-2.298a35.226 35.226 0 0 1 1.86-2.298l.91-1.037c.31-.35.635-.698.978-1.04l-.032.036c.475-.442.926-.904 1.352-1.39l1.277-1.454c.192-.218.377-.454.556-.705.176-.25.35-.473.52-.667a132.74 132.74 0 0 1 2.458-2.578c.826-.84 1.633-1.71 2.422-2.61.063-.07.116-.143.157-.215a.34.34 0 0 1 .212-.16c.106-.03.142-.01.19.03l.202.177c-.016-.185.058-.4.267-.66.145-.033.293-.057.44-.073.223-.024.432-.028.647-.04l-.602.405c-.23.14-.45.29-.67.44l.64.548.012-.06c.12-.024.246-.056.244-.048-.02.08-.047.167-.082.255l.3.252c.472.393.938.792 1.398 1.196a17.23 17.23 0 0 1 1.577 1.58l.193.214a1.64 1.64 0 0 1 .22-.076c.628-.166.92.013.895.493-.007.16.08.284.144.415.08.164.106.296.064.423l.13.108c.188.08.355.194.503.344.148.15.283.302.407.454-.04.094-.133.227-.283.396a34.96 34.96 0 0 1-1.525 1.625 34.68 34.68 0 0 0-1.557 1.66c-.767.873-1.528 1.763-2.28 2.67a126.45 126.45 0 0 0-2.207 2.73 26.814 26.814 0 0 0-1.656 2.25 20.004 20.004 0 0 1-1.692 2.22c-.278.316-.567.61-.87.88-.303.27-.592.565-.87.88a65.3 65.3 0 0 0-1.942 2.32 62.744 62.744 0 0 1-1.94 2.32l-.29.327a5.032 5.032 0 0 1-.62-.32c-.226-.133-.397-.208-.512-.224-.318.02-.663.243-1.037.668-.372.424-.63.765-.775 1.026-.08.143-.203.305-.363.487-.16.183-.308.364-.446.544a1.32 1.32 0 0 0-.256.548c-.034.185.047.364.24.534.43.292.817.61 1.16.953.342.344.728.66 1.16.954.478.335.937.717 1.377 1.146.438.428.896.788 1.372 1.078.144.082.314.07.513-.034.2-.104.396-.254.588-.45.193-.195.37-.395.527-.6.16-.204.292-.367.398-.487zm5.855-16.084l.12-.01c-.023.033-.043.077-.072.094-.032.02-.078.01-.12.014l.072-.097zm7.422-12.806l-.123.072.054-.093c.018.018.034.032.052.048.068-.022.134-.045.2-.07-.062.017-.122.03-.183.045zm-.52 6.613c.018-.028.038-.056.06-.082.03 0 .08-.014.087 0 .007.012-.032.05-.05.077-.033 0-.067.002-.097.004zm1.563-3.22l.014-.068.07.02-.084.047zm-16.647 2.125c.037-.002.076-.007.114-.01-.064.06-.122.122-.193.18-.014.01-.072 0-.11.003.062-.056.12-.112.19-.173zm-7.172 1.895c.07-.016.14-.033.21-.052-.03.013-.068.032-.093.034-.036 0-.066-.008-.097-.012l-.01.016.01-.016c-.25.174-.5.347-.748.522l-.108-.134.837-.36zm2.08 3.194l-.114.16c-.08-.007-.154-.016-.228-.024.06-.053.12-.13.18-.15.055-.024.108.01.163.015zM72.25 7.715c-.07.05-.14.12-.208.146-.08.03-.157.026-.237.037.086-.068.168-.152.256-.195.053-.028.125.007.188.013zM59.532 18.262c.156-.15.248-.275.327-.303.095-.036.187.003.257.03.012.006-.104.148-.163.174-.11.046-.222.055-.422.098zm-1.513.62c.037-.088.05-.172.12-.255.02-.03.176-.062.27-.094-.053.09-.09.18-.162.267-.02.025-.134.05-.23.083zm8.393-10.89c.18.01.337-.016.336.022-.006.085-.095.2-.15.303-.1.017-.285.07-.29.038-.014-.08.05-.196.103-.362zm.768-2.644c.165-.026.378-.078.374-.052-.013.084-.1.198-.16.3-.104.006-.258.044-.304.008-.037-.032.048-.147.09-.257zM50.3 29.454c-.134-.076-.25-.134-.348-.207-.01-.01.093-.1.145-.152.133.045.27.086.39.143.01.004-.082.095-.186.216zm1.707-3.88c.202-.186.31-.32.373-.335.184-.047.348-.046.52-.064-.112.088-.222.2-.34.254-.14.064-.29.078-.553.145zm10.734-12.95c.3-.002.455-.023.555.007.035.01-.07.145-.113.222-.17.026-.363.08-.505.07-.05-.002.027-.15.064-.3zm12.09-2.997c.243.063.41.08.517.143.042.025-.055.153-.09.234-.205.04-.417.085-.613.108-.02 0 .05-.136.185-.485zm-21.9 12.305c-.117.035-.24.075-.366.114.04-.09.04-.2.12-.26.345-.264.716-.51 1.08-.757.01-.01.136.055.127.063-.304.274-.62.545-.96.84zm2.65-3.718l-.665.175c.137-.173.238-.39.425-.507.182-.113.45-.13.68-.187-.136.162-.275.324-.44.518zm18.65-6.576c-.223-.206-.357-.302-.447-.425-.048-.067-.058-.17-.012-.275.017-.038.285-.178.36-.178.12 0 .242.053.243.133.005.172-.067.376-.144.745zm-3.452 10.364c.292.01.516.01.708.04.015.003-.204.294-.257.307-.268.067-.515.086-.773.122l.32-.47zM48.756 26.6c.79-.492 1.393-.65 1.564-.45.032.035-.025.167-.094.214-.5.353-1.473.705-1.558.558-.046-.08.065-.248.087-.323zm26.67-8.49c.86-.43 1.64-.922 2.417-.925.14 0 .23.06.346.09-.198.12-.4.28-.592.352-.216.084-.42.07-.64.134-.205.062-.48.144-.628.264-.822.645-1.616 1.304-2.414 1.96-.11.092-.182.25-.27.287-.303.125-.628.246-.898.287-.064.01-.035-.335.106-.45.832-.677 1.71-1.335 2.573-2zM59.974 43.27l.01-.02.005.044.476-.268-.12.248c-.114-.002-.228-.005-.34-.01l-.033.007zm25.01-19.114c.26-.09.516-.18.772-.265-.31.188-.466.303-.625.373-.094.04-.188 0-.284 0zm5.425.905c.033 0 .09-.014.094 0 .007.014-.034.054-.055.082-.033 0-.087.014-.093 0-.008-.012.035-.052.054-.08zm-6.49 15.55l.08-.07.02.044zm2.21 1.304l-.068-.02.095-.05zm-9.08-9.22l.063-.05.01.033-.07.016zm-3.296 4.346c.04-.002.104-.02.113-.002.007.017-.042.063-.066.096-.04 0-.103.02-.11 0-.008-.013.04-.06.062-.093zm15.51-2.07l-.063.054-.015-.032.076-.02zm-4.597-8.017c-.078.03-.158.065-.237.097.025-.04.05-.08.078-.118.047.015.096.03.143.048.118-.093.23-.208.356-.267.178-.087.42-.188.53-.175.102.012.065.17.09.263-.196.075-.408.183-.58.214-.15.024-.256-.038-.38-.06zM83.39 24.88l-.065.054-.013-.036zm-2.192 20.156c.062-.058.12-.117.19-.172.015-.01.07-.002.105-.002-.06.055-.114.114-.183.163-.02.016-.073.008-.112.012zm9.12-17.47l.092.008a9.24 9.24 0 0 1-.112.114c-.02-.01-.058-.018-.056-.042 0-.016.05-.052.076-.08zm-5.876-2.997c-.04.048-.08.096-.118.146-.05-.016-.125-.02-.14-.054-.01-.023.066-.093.104-.14l.154.047zm-6.072 3.797h.166c-.057.057-.108.123-.175.166-.03.02-.1 0-.152-.004l.162-.162zm5.367 12.842c.042-.01.117-.032.117-.026-.005.048-.024.102-.038.153-.04.005-.112.026-.11.016 0-.044.02-.095.03-.144zM81 30.25c.038-.016.08-.03.12-.043l-.09.132h-.11l.08-.09zm5.824 8.716l.102-.007c-.05.05-.097.102-.153.15-.004.006-.056-.003-.088-.006l.14-.14zm-18.512 6.72c.08-.02.16-.043.237-.064-.02.032-.042.085-.056.09-.085.03-.164.05-.25.074.023-.034.047-.066.068-.1zm2.418-.266l.21-.052c-.032.012-.07.03-.094.032-.036.002-.066-.007-.096-.01l-.01.016.01-.016-.748.52a6.545 6.545 0 0 1-.11-.132c.28-.12.56-.238.838-.358zm2.08 3.194a6.44 6.44 0 0 0-.115.16c-.078-.008-.152-.02-.228-.027.06-.052.12-.127.18-.15.056-.022.11.01.164.017zm-3.17-8.483c.012.018.02.035.03.05a9.287 9.287 0 0 1-.167.082c.007-.026.002-.054.025-.076.024-.022.075-.037.113-.055zm20.446-4.84c.12-.03.246-.08.262-.06.035.04.01.118.01.18-.075.02-.196.074-.217.055-.043-.036-.037-.11-.054-.176zM76.722 30.1l.186.023c-.08.062-.156.145-.234.18-.06.026-.12-.017-.18-.027.076-.06.153-.117.228-.176zm5.835 13.06c.04.02.12.03.114.068 0 .036-.09.105-.14.16-.042-.023-.114-.032-.114-.072 0-.034.09-.103.14-.157zm2.42-.47c.073-.032.15-.063.226-.098-.024.055-.03.116-.083.16-.05.043-.146.068-.222.1a6.31 6.31 0 0 1 .078-.16zm-2.46 1.746c.038-.092.06-.186.084-.2.114-.046.227-.07.34-.1-.02.056-.027.143-.062.16-.113.06-.232.092-.362.14zm-9.135-9.02l.132-.267c.065-.002.173-.03.186-.003.023.058-.002.143-.01.216l-.31.054zm-.62-.155c.07.023.18.026.163.058-.034.078-.126.168-.195.256-.05-.012-.154-.01-.145-.038.033-.083.11-.175.177-.275zm-4.35 9.658c.118-.008.24-.024.233-.017-.04.087-.103.178-.16.266-.056-.005-.164.01-.166-.017-.002-.06.054-.145.09-.232zm22.118-12.47c-.07.05-.14.12-.208.144-.08.032-.158.027-.238.038.086-.07.168-.153.256-.197.055-.026.125.008.19.014zm-3.252 5.96l.116-.18c.083.01.17.02.25.04a.283.283 0 0 1-.06.082c-.104.023-.203.038-.306.058zm-4.828-10.4c0-.047.004-.093.007-.14.075-.024.18-.073.215-.062.037.013 0 .087-.007.134-.072.022-.145.047-.216.07zm-1.835 3.023l.33.19c-.14.105-.283.21-.426.314-.03-.076-.086-.144-.084-.235 0-.052.09-.14.18-.27zM79.36 44.713c.07.06.18.092.15.144-.045.075-.197.16-.302.244-.054-.03-.17-.048-.145-.09.044-.08.168-.174.297-.298zm-9.073 5.595c.202-.188.31-.32.373-.335.183-.047.347-.046.52-.063-.113.086-.222.198-.34.252-.142.065-.29.077-.553.145zm12.86-24.546c.157.04.323.058.307.08-.11.14-.25.283-.404.417-.024.02-.27.008-.26-.013.084-.142.208-.29.356-.483zm7.22.472c.233-.01.405-.015.577-.02-.058.072-.138.202-.17.21-.194.05-.38.074-.56.092-.01 0 .078-.143.153-.282zm-19.5 10.456c.24-.06.43-.108.624-.155-.062.083-.122.206-.184.233-.19.082-.383.127-.577.186.04-.073.078-.148.138-.264zm5.482 13.39c.196-.01.387-.04.38-.018a2.427 2.427 0 0 1-.252.45c-.018.03-.153.066-.237.1.032-.158.064-.315.11-.532zm-3.097-12.42l.493.18c-.058.05-.157.145-.173.142-.226-.013-.442-.04-.66-.06l.34-.26zm13.43-11.016c.097.023.17.037.244.054-.168.136-.325.286-.51.408-.06.04-.19.016-.288.022.17-.148.34-.296.553-.484zm-15.057 9.78c.23-.233.355-.41.432-.43.202-.057.404-.073.55-.048.04.005-.133.293-.174.306-.223.07-.432.098-.808.172zm2.696 15.714c.183-.26.25-.448.394-.535.14-.086.376-.09.528-.084.032.002-.078.245-.184.31-.17.11-.386.168-.738.31zm13.74-12.082c-.237.268-.338.445-.502.546-.16.1-.382.122-.576.18.06-.137.08-.33.185-.393.217-.13.48-.188.892-.333zM90.06 28.35c.34.068.564.09.728.164.035.014-.21.31-.255.32-.22.05-.486.098-.595.04-.084-.044.05-.252.12-.525zm2.455 8.018c-.223-.205-.357-.303-.446-.425-.05-.067-.06-.17-.014-.274.016-.04.284-.18.36-.18.12 0 .24.053.242.133.005.172-.066.378-.143.745zm-20.2.497c.255-.23.406-.426.59-.517.133-.067.37-.04.44.028.07.067-.02.235-.04.36-.218.03-.432.056-.99.13zm17.28-9.412c-.167.224-.268.405-.44.568-.05.046-.453.1-.45.055.022-.2.127-.436.204-.656.186.007.375.017.684.033zM78 32.323c.527-.183.843-.32 1.124-.38.142-.03.215.08.32.127-.186.132-.45.372-.543.377-.287.015-.51-.06-.9-.124zm10.272-6.193l-.78.32c.092-.243.18-.486.272-.73.343-.037.687-.078 1.028-.118-.18.183-.36.368-.52.528zM71.16 37.82c.447-.31 1.207-.375 1.248-.094.017.107-.346.498-.534.574-.646.262-1.295.45-1.937.646-.096.03-.222-.014-.23-.07-.006-.065.083-.214.176-.277.415-.272.85-.522 1.276-.78zM67.935 42c.14.194.334.287.304.458-.046.253-.136.45.394.325.24-.058.428.08.56.188.074.067-.003.242-.015.367-.163.037-.347.1-.48.105-.678.012-1.346.01-2.014.01-.07 0-.196-.008-.183-.025.162-.25.3-.51.535-.754.19-.2.505-.384.898-.672zM80.184 61.05l.01-.02.006.042.478-.268-.12.25-.34-.01-.034.006zm25.012-19.116c.257-.09.514-.18.77-.265-.31.188-.465.303-.625.37-.093.042-.187.003-.282 0zM96.08 73.5l-.375.09.005-.022c.16-.032.292-.075.37-.07zm24.34-20.502c-.02.032-.036.06-.05.09-.04.002-.098.02-.104.005-.01-.012.032-.055.05-.085.037-.004.074-.005.104-.01zm-9.806-10.16c.033 0 .09-.013.094 0 .007.014-.033.055-.054.083-.033.002-.086.015-.093.002-.007-.013.036-.053.054-.083zm-6.49 15.55l.08-.07.02.043zm2.21 1.304l-.068-.02.096-.05zm-9.08-9.222l.063-.05.01.034-.073.016zm-3.13 6.573l-.075.062-.017-.038zM90.43 55.33c-.023.018-.047.032-.07.048.008-.012.016-.026.03-.04l-.4.06c-.006.03-.01.058-.017.087.14-.05.28-.103.423-.155h.032zm.27-.882l-.087.077-.02-.046zm3.258.37c.04-.002.103-.018.11-.002.008.017-.04.063-.064.096-.038 0-.102.017-.11 0-.01-.013.04-.06.064-.093zm15.51-2.068l-.064.052-.012-.03.075-.022zm-21.036 4.456c-.02.024-.033.06-.058.075-.026.014-.062.006-.093.01.02-.028.033-.063.06-.078.023-.014.06-.007.09-.007zm-4.46 1.194l.036.114c0-.04.004-.08.004-.12h-.002c0-.05-.002-.102-.004-.154.048-.002.095-.007.144-.012l-.18.172zm17.428 4.41c.062-.058.12-.118.19-.172.015-.01.07-.002.106-.002-.06.054-.114.113-.183.163-.02.014-.073.008-.113.01zm-1.775-1.903l-.046.082c-.03-.002-.077 0-.082-.016-.004-.017.032-.054.048-.084.03.005.06.012.08.017zm10.896-15.578c.03 0 .06.003.092.007-.04.04-.074.077-.112.113-.02-.01-.06-.017-.057-.042.002-.016.05-.052.077-.078zm-5.876-3c-.04.05-.08.098-.118.148-.052-.015-.127-.02-.142-.054-.01-.023.066-.094.104-.14l.155.046zm16.867 10.348c.057-.048.114-.098.176-.14.02-.014.086-.014.092 0 .005.015-.04.072-.06.08-.068.026-.137.042-.208.06zm-22.94-6.55c.054 0 .107 0 .164.002-.057.055-.108.12-.175.165-.032.018-.102-.002-.154-.004.053-.052.108-.108.163-.16zm5.366 12.844c.042-.01.117-.033.116-.027-.004.048-.022.102-.037.154-.04.006-.112.025-.11.014-.004-.043.018-.095.03-.142zm-2.738-10.962l.12-.043-.09.133-.11.002a6.04 6.04 0 0 0 .08-.093zm5.825 8.716c.033 0 .067-.004.102-.007-.05.05-.1.102-.155.153-.005.004-.057-.005-.088-.01.046-.044.093-.09.14-.138zm-9.723 6.66c.02-.058.036-.112.05-.166.043-.007.12-.027.12-.016 0 .044-.023.097-.04.146-.043.013-.084.022-.13.035zM89.84 57.89c.012.018.02.034.03.05-.056.03-.112.055-.167.082.005-.027 0-.054.024-.076s.075-.037.114-.055zm20.446-4.842c.12-.028.244-.077.26-.057.037.04.012.118.012.18-.076.018-.198.073-.217.054-.043-.035-.037-.108-.054-.176zm-13.366-5.19l.187.025c-.078.06-.155.145-.235.18-.057.025-.12-.018-.177-.028.074-.06.15-.118.225-.176zm5.837 13.06c.04.023.12.03.114.07 0 .036-.09.106-.14.16-.04-.023-.115-.032-.115-.073 0-.033.092-.102.142-.156zm2.42-.467l.228-.098c-.025.055-.032.117-.085.16-.048.042-.145.067-.22.1.024-.056.05-.107.077-.16zm-2.46 1.746c.038-.092.06-.187.085-.2.113-.046.227-.07.34-.1-.02.055-.03.143-.063.16-.114.058-.235.09-.363.14zm-9.133-9.02l.13-.266c.065-.002.175-.03.186-.002.024.06 0 .142-.01.216l-.306.053zm-.622-.155c.07.023.18.027.164.058-.035.078-.126.17-.195.257-.05-.012-.153-.01-.145-.04.035-.08.112-.173.177-.274zm20.706-7.634c0 .023 0 .045-.004.068-.064.02-.128.04-.19.062l.11-.136.084.005zm-2.942 4.822c-.07.052-.14.12-.208.146-.08.03-.158.027-.238.038.087-.068.168-.153.257-.196.054-.027.124.007.19.012zm-3.25 5.963c.054-.085.083-.134.114-.18.085.01.17.02.25.04a.29.29 0 0 1-.06.082c-.103.023-.202.038-.304.06zm-4.83-10.4l.007-.14c.076-.024.182-.074.217-.06.036.01 0 .084-.007.13-.072.024-.144.05-.217.07zM93.88 70.88c.092-.12.18-.238.283-.354.007-.008.188-.024.182-.01-.05.112-.125.232-.193.348l-.27.015zm6.93-22.078l.33.19c-.14.103-.282.21-.425.313-.03-.077-.084-.143-.083-.236 0-.05.09-.14.18-.268zm-1.253 13.68c.068.06.18.093.15.146-.045.073-.198.16-.303.243-.053-.028-.17-.046-.145-.09.042-.08.167-.172.297-.297zm3.244-3.94c.152.02.263.018.326.05.035.02-.004.096-.01.147-.1.016-.244.068-.284.043-.052-.033-.022-.127-.03-.24zm-17.386-.482c-.028.155-.048.257-.068.36-.152.01-.374.072-.433.02-.058-.045.06-.212.102-.326l.4-.054zm5.068 10.017c.203-.187.312-.32.375-.335.183-.046.347-.045.52-.064-.114.09-.222.202-.343.255-.14.064-.287.078-.552.144zm12.86-24.545c.157.04.322.056.307.08-.112.14-.252.282-.404.415-.024.02-.27.01-.26-.012.084-.143.207-.29.356-.484zm7.22.47c.234-.01.406-.015.578-.02-.06.074-.14.202-.17.21-.195.05-.38.075-.56.093-.01 0 .076-.144.153-.283zM91.065 54.46l.622-.155c-.062.08-.12.204-.184.233-.19.08-.384.126-.576.184.04-.074.08-.15.138-.263zm5.48 13.388c.2-.01.39-.04.382-.017a2.464 2.464 0 0 1-.25.452c-.02.027-.154.064-.237.097.03-.156.06-.314.104-.532zm-8.286-10.153c.226-.02.423-.057.563-.037.056.01-.01.143-.018.218-.232.05-.463.105-.686.14-.01.002.07-.158.142-.32zm5.19-2.266c.16.056.327.118.493.18-.057.05-.157.142-.172.142-.226-.014-.442-.04-.66-.06.074-.06.148-.116.34-.264zm13.43-11.018c.096.022.17.037.243.055-.166.136-.323.284-.51.407-.06.04-.188.017-.286.02.17-.147.34-.293.553-.482zm6.43 7.713c.247.062.415.08.52.142.042.025-.054.152-.09.233-.204.04-.417.085-.612.11-.02 0 .05-.136.183-.485zm-21.486 2.067c.226-.233.353-.41.43-.432a1.4 1.4 0 0 1 .55-.047c.04.007-.133.294-.174.306-.222.072-.43.097-.806.172zm2.694 15.714c.182-.26.25-.447.394-.534.14-.087.376-.09.528-.085.032 0-.078.245-.185.312-.168.108-.386.164-.737.306zm13.74-12.082c-.238.27-.34.446-.503.548-.16.1-.38.12-.575.177.06-.136.08-.33.186-.393.217-.128.48-.187.892-.333zm1.997-11.705c.34.068.565.092.73.164.033.015-.212.31-.256.32-.22.05-.485.1-.595.04-.083-.044.05-.252.12-.525zm-26.78 14.356c.085-.242.156-.493.29-.753.026-.05.308-.15.474-.224-.025.083-.007.2-.077.246-.395.277-.4.418-.183.523.036.016-.082.155-.13.236l-.375-.03zm9.04-5.835c.254-.23.407-.426.588-.517.135-.067.374-.038.444.03.067.066-.022.234-.04.358-.218.03-.434.06-.99.132zm17.278-9.412c-.165.224-.267.406-.44.57-.047.044-.452.096-.447.052.02-.2.126-.435.204-.656l.684.034zM98.2 50.098c.526-.182.843-.32 1.124-.38.142-.03.215.08.32.128-.186.132-.452.373-.544.377-.287.014-.51-.06-.9-.124zm10.272-6.192a82.9 82.9 0 0 1-.78.318c.092-.24.18-.484.272-.727.343-.04.686-.08 1.028-.118l-.52.526zm11.136 12.775c.562-.29.844-.47 1.1-.557.238-.075.45-.046.673-.064-.136.146-.243.307-.41.434-.48.358-.975.71-1.485 1.045-.128.082-.388.146-.483.122-.086-.02-.104-.173-.026-.268.23-.294.52-.59.63-.714zm-28.248-1.084c.45-.31 1.207-.375 1.25-.095.016.108-.348.498-.535.574-.647.264-1.294.45-1.937.648-.095.03-.22-.015-.227-.07-.008-.066.08-.216.172-.276.416-.27.85-.522 1.277-.78zm-3.223 4.18c.14.194.334.286.303.456-.045.254-.134.452.395.326.24-.056.428.083.558.19.076.064-.003.24-.013.366-.16.036-.345.1-.48.104-.677.01-1.344.01-2.013.01-.07 0-.196-.008-.183-.023.163-.252.302-.51.537-.755.19-.2.505-.384.897-.674zm13.428 17.744l.01-.02.006.043c.158-.09.318-.18.477-.268l-.12.248c-.116-.004-.228-.005-.34-.01l-.034.006zm26.11 7.528a4.31 4.31 0 0 1 .12-.01c-.026.032-.044.076-.074.094-.034.018-.08.01-.12.014a1.79 1.79 0 0 1 .072-.098zM115.507 73.51l-.075.062-.016-.038zm-.327 1.898l.066-.052.01.034-.074.018zm.163-4.122c.04-.002.103-.02.112-.002.007.016-.042.06-.066.095-.038 0-.103.017-.11 0-.01-.014.04-.06.063-.093zm19.746.954l-.123.07.052-.09c.016.017.034.03.05.048l.2-.07-.18.042zm-25.287 1.433c-.02.025-.033.06-.058.075-.025.014-.062.004-.092.008.018-.028.033-.062.06-.077.023-.014.058-.008.09-.008zm16.743 11.36c.07-.024.144-.047.214-.073-.02.028-.038.07-.063.08-.07.034-.14.054-.21.08l.06-.086zm-.392-1.744l-.024-.035.116-.048zm5.74-21.488l.093.008-.113.113c-.02-.01-.06-.018-.057-.042 0-.015.05-.052.078-.08zm-11.95.8c.06 0 .11 0 .167.002-.055.056-.106.12-.173.164-.032.02-.102 0-.154-.002.054-.053.11-.107.162-.162zm-12.997 16.593v.002c.007.02.002.04-.008.05-.332.273-.673.596-1.046.468l-.014.024c.037-.032.068-.065.108-.095.285-.204.48-.578.905-.512.028.004.05.034.054.063zm4.268-4.834l.03.05c-.057.03-.112.055-.168.082.005-.027.002-.054.024-.076.025-.022.076-.037.115-.054zm7.072-10.03c.064.008.124.014.187.023-.078.062-.156.146-.235.18-.058.025-.12-.017-.18-.027.076-.06.152-.118.227-.175zm3.2 4.62l-.116.147c-.07-.02-.144-.034-.217-.052.062-.05.144-.135.18-.14.066-.01.104.027.154.044zm7.606 13.138c.086-.033.17-.07.255-.104-.008.05.01.117-.028.145-.067.046-.168.067-.254.1l.027-.14zm-8.54-12.403c0-.05-.006-.096-.01-.146.08-.016.187-.055.227-.042.037.014.004.088.005.133-.074.02-.148.038-.222.056zm4.934 16.757c-.07.056-.135.133-.204.164-.05.022-.104-.017-.154-.032.06-.055.13-.14.18-.155.066-.022.12.01.177.022zM114.95 69.644l.13-.266c.066-.002.174-.03.186-.004.024.058 0 .143-.008.216l-.308.054zm-.622-.154c.07.022.18.025.164.056-.035.08-.126.17-.194.257-.05-.012-.155-.01-.146-.038.034-.083.11-.175.176-.275zm11.933-2.534c.18.01.338-.018.336.02-.005.086-.094.202-.147.303-.103.016-.286.07-.292.037-.014-.078.05-.194.103-.36zm-8.78-3.505c.096-.13.135-.235.22-.292.092-.06.227-.072.344-.106-.043.077-.062.17-.137.228-.09.066-.23.097-.426.17zm9.55.86c.163-.026.375-.08.37-.053-.012.085-.1.2-.158.3-.105.005-.258.045-.305.008-.037-.03.047-.146.092-.256zm-17.402 9.85c.226-.02.424-.057.563-.038.055.01-.01.143-.018.218-.232.05-.463.105-.685.14-.01.002.068-.158.14-.32zm8.95-3.06c.283-.016.5-.04.682-.028.036.002-.055.15-.087.225-.232.038-.468.088-.687.104-.03.005.04-.137.09-.3zm-3.76.793c.16.057.328.12.494.18-.058.05-.157.143-.173.143-.227-.014-.443-.04-.66-.06.073-.06.147-.116.338-.264zm13.43-11.017c.097.022.17.037.244.055-.166.137-.323.286-.51.408-.06.04-.19.016-.288.02.172-.146.34-.293.554-.482zm-15.056 9.78c.226-.233.353-.41.43-.43a1.37 1.37 0 0 1 .55-.048c.04.005-.133.294-.173.306-.224.072-.434.1-.808.172zm-7.52 9.12c.242.123.395.152.437.238.026.057-.115.205-.178.31-.13 0-.348.05-.373-.006-.04-.095.043-.257.112-.54zm25.944-17.194c.34.07.565.092.73.165.034.014-.212.31-.256.32-.22.048-.484.098-.595.04-.082-.043.05-.25.12-.525zM127.74 83.59c-.228.233-.34.4-.5.496-.162.097-.374.125-.564.184.108-.173.17-.36.343-.512.088-.078.374-.093.72-.17zm-11.22-17.8c-.68.413-1.36.825-2.044 1.236-.128.077-.263.138-.394.207.132-.09.268-.196.4-.274.663-.394 1.327-.778 1.987-1.166.016 0 .035-.004.05-.004zm-2.643 5.3c.254-.232.406-.427.588-.52.134-.066.373-.037.443.03.067.067-.022.235-.04.36-.22.03-.434.056-.99.13zm5.943-1.25c-.05.015-.098.027-.145.04-.193.27-.578.5-.927.592-.038.07-.077.14-.118.21.143-.037.336-.05.42-.116.234-.184.422-.39.77-.726zm11.335-8.163c-.166.223-.268.405-.44.568-.048.046-.453.098-.447.054.02-.202.126-.436.203-.657.187.01.375.02.685.034zm-.534 19.28c.293.012.517.012.71.042.013.003-.206.293-.26.306-.265.067-.513.085-.77.123.08-.117.157-.23.32-.473zm.75-2.108c-.357.374-.55.64-.83.847-.113.083-.556.125-.612.044-.166-.236.328-.476.66-.667.168-.096.384-.115.78-.224zm-1.754-1.215c-.475.43-.79.728-1.14 1.01-.06.048-.352.072-.408.02-.144-.133.34-.645.843-.883.15-.072.315-.07.706-.147zm.218-17.278c-.352.144-.566.232-.782.318.094-.24.182-.484.274-.727.342-.04.685-.08 1.027-.118l-.52.527zm1.54 16.44l.69-1.098c.228.003.553-.063.66.024.218.175.188.465-.433.796-.206.112-.446.14-.916.278zm-27.165 1.19c-.58.375-1.154.754-1.742 1.115-.122.077-.403.145-.436.107-.05-.06 0-.213.092-.328.527-.672 1.46-1.06 2.073-.87l.013-.025zm34.322-8.04c.433-.208.867-.413 1.3-.62-.303.34-.6.68-.91 1.02-.118.13-.286.256-.397.386-.23.268-.438.535-.656.804.016-.24.154-.558.024-.704-.262-.303.043-.56.638-.886zm-12.53-4.958c.09.046.182.093.272.142l.084-.065c.058-.045.115-.135.1-.16-.02-.036-.107-.054-.18-.034-.175.052-.357.128-.212.075-.023.014-.042.028-.064.04zm-13.296 7.062c.448-.31 1.207-.375 1.25-.095.016.107-.348.5-.535.574-.646.265-1.293.452-1.937.648-.094.03-.22-.014-.227-.07-.007-.066.08-.215.174-.276.416-.27.85-.52 1.276-.78zm-3.224 4.18c.14.193.335.287.304.456-.045.254-.135.45.395.325.24-.056.43.083.56.19.074.065-.005.24-.016.366-.16.036-.344.1-.48.103-.677.013-1.344.01-2.012.01-.07 0-.196-.01-.183-.024.16-.252.3-.51.534-.755.19-.2.505-.384.897-.673zm36.846 1.69c.257-.09.513-.178.77-.264-.31.188-.467.303-.625.37-.095.042-.19.003-.285 0zm-9.117 31.567l-.374.09.007-.02c.16-.033.292-.076.37-.07zm24.34-20.5l-.05.09c-.037 0-.096.02-.104.003-.01-.01.033-.055.05-.085l.105-.01zm-9.805-10.16c.033 0 .09-.014.094 0 .006.014-.033.054-.054.082-.034.002-.088.014-.094 0-.007-.012.035-.052.053-.082zm-4.325 25.74l.12-.014c-.024.033-.043.078-.072.095-.033.02-.08.012-.12.016.024-.034.047-.065.072-.097zm-9.033-18.115l.062-.05.01.034-.073.015zm-3.13 6.57l-.076.064-.014-.04zm-3.694-1.71l-.068.045a.177.177 0 0 1 .027-.038l-.4.06c-.004.028-.008.057-.015.085.14-.05.28-.102.422-.154h.032zm.272-.884l-.087.078-.02-.046zm3.095 4.495l.064-.052.01.034-.074.018zm.162-4.124c.038 0 .102-.017.112 0 .007.016-.042.06-.066.095-.04 0-.103.018-.11 0-.008-.013.04-.06.064-.093zm10.912-10.084c-.078.03-.157.063-.237.097.025-.04.05-.08.077-.12.048.015.097.032.143.048.12-.09.232-.207.358-.266.178-.086.42-.187.53-.173.102.012.067.17.09.263-.196.073-.408.182-.58.212-.15.024-.256-.037-.38-.06zm8.84 11.04c-.042.025-.085.048-.124.072.017-.03.036-.06.053-.093.017.018.035.034.052.05.067-.025.134-.047.2-.07l-.182.042zM144.728 78.64l-.065.057-.014-.038.08-.02zm9.592 19.732l.06-.08c.03-.002.082-.015.088 0 .008.01-.032.05-.052.078-.032 0-.064 0-.096.002zm-24.257-.712c.03 0 .083-.012.09 0 .005.013-.034.05-.05.075-.033.004-.085.014-.09 0-.008-.01.032-.048.05-.075zm3.016-.112c.03 0 .08-.01.084.002.005.012-.035.048-.054.074-.03 0-.078.01-.084 0-.005-.015.036-.052.055-.077zm-2.774 4.112c.032 0 .063-.004.098-.007-.023.026-.04.064-.064.077-.027.014-.064.007-.096.01.022-.028.04-.054.062-.08zm16.002 2.893c.073-.024.144-.047.216-.073-.02.03-.04.07-.064.082-.07.033-.14.052-.21.077.018-.03.04-.057.06-.087zm-.39-1.745l-.026-.034.118-.048zm9.967-7.656l.012-.068.07.02-.083.048zM145.78 78.327c-.04.048-.08.097-.118.147-.05-.015-.126-.02-.142-.053-.01-.023.067-.093.105-.14.05.014.103.03.155.047zm16.866 10.347c.057-.048.113-.098.176-.14.02-.014.085-.014.093 0 .005.015-.04.072-.06.08-.07.026-.14.042-.21.06zm-16.386-6.162c.017.01.058.017.05.028-.022.03-.063.057-.098.087a2.06 2.06 0 0 0-.08-.05c.042-.02.087-.043.128-.065zm-3.922 1.494c.038-.014.08-.03.12-.043l-.09.133-.11.002c.027-.03.052-.062.08-.093zm-14.426 16.58c.027-.01.054-.02.08-.028a2.3 2.3 0 0 1-.08.083v-.055zm-1.203-1.86c.004.02 0 .04-.01.05-.33.274-.67.596-1.046.47l-.013.023c.038-.032.068-.065.11-.095.283-.204.478-.578.903-.513.028.004.05.035.056.064zm2.937.723c.08-.025.16-.045.237-.067-.02.032-.04.086-.056.09-.084.032-.164.05-.25.073l.07-.097zm2.417-.27l.21-.05c-.032.01-.07.03-.094.032-.036 0-.066-.007-.097-.01l-.01.015.01-.015-.746.52c-.038-.042-.073-.088-.11-.132l.838-.36zm7.676 8.874l-.038.144c-.038.005-.102.023-.104.015 0-.04.017-.09.03-.138.037-.005.074-.014.112-.02zm-8.765-14.165l.03.047c-.056.03-.11.055-.167.082.007-.028.002-.055.025-.077.023-.02.075-.037.112-.054zm10.274-5.415c-.04.05-.078.097-.117.148-.07-.02-.145-.034-.218-.05.062-.05.143-.135.18-.14.065-.01.105.026.154.042zm-.933.738l-.01-.147c.08-.016.186-.055.226-.04.036.013.004.087.004.132-.074.02-.147.037-.22.055zm-5.604-.04c.053-.106.09-.186.13-.266.067-.003.175-.03.187-.003.024.058-.002.142-.01.216l-.308.053zm-.62-.155c.07.02.18.026.162.057-.034.078-.125.17-.194.257-.05-.012-.153-.01-.143-.04.032-.08.11-.173.176-.274zm-4.35 9.658c.117-.01.238-.027.233-.017-.04.084-.103.174-.158.263-.058-.005-.167.012-.168-.017 0-.06.055-.144.092-.23zm14.04-16.908c0-.048.004-.094.007-.142.075-.023.18-.073.216-.06.037.01 0 .085-.007.132l-.217.07zm1.74 1.643c.114-.022.278-.07.407-.073.035 0-.034.132-.058.205-.205.04-.406.08-.61.117.064-.063.128-.124.26-.25zm-10.505 23.463c.09-.12.178-.237.28-.353.006-.008.19-.023.184-.01-.05.112-.126.23-.194.348l-.27.015zm6.93-22.077l.33.19c-.14.104-.283.21-.426.314-.03-.077-.085-.145-.084-.236 0-.05.09-.14.18-.268zm2.53-5.263c.158.04.324.056.31.08-.113.14-.253.283-.405.415-.025.02-.272.01-.26-.012.083-.142.207-.29.356-.483zM132.196 90.46c.24-.058.43-.106.622-.153-.062.08-.122.204-.184.232-.19.08-.384.126-.577.184.04-.073.08-.15.14-.264zm-2.803-1.59l.666-.23c-.077.113-.14.283-.232.33-.197.098-.41.13-.615.185l.182-.285zm8.946 1.767c.284-.014.5-.04.683-.027.037.002-.055.148-.087.226-.23.037-.468.086-.687.104-.028.002.04-.14.092-.303zm-3.76.794c.16.06.327.12.494.18-.06.052-.157.145-.173.144-.227-.014-.444-.04-.66-.06.073-.06.146-.115.338-.263zm13.43-11.016c.097.023.17.038.244.055-.168.136-.324.284-.51.406-.06.04-.19.017-.287.022.17-.148.34-.295.553-.484zm-15.056 9.78c.228-.233.354-.41.43-.432.203-.055.405-.07.55-.046.04.005-.132.294-.173.305-.223.074-.433.1-.808.174zm-7.52 9.122c.242.12.397.15.438.236.028.057-.114.205-.18.31-.13 0-.346.048-.37-.007-.04-.095.043-.256.112-.54zm10.214 6.59c.183-.26.25-.45.394-.537.14-.088.376-.09.53-.084.03 0-.08.244-.186.31-.17.11-.386.166-.738.308zm-4.962-15.634c.276-.135.508-.267.73-.35.11-.04.21.006.313.013-.107.114-.195.25-.328.334a2.395 2.395 0 0 1-.55.24c-.194.06-.375.078-.56.113l.394-.35zm16.825 12.858c-.23.233-.34.402-.5.497-.165.097-.375.125-.565.183.107-.173.17-.36.343-.51.088-.08.374-.093.72-.17zm-13.864-12.493c.253-.23.405-.426.588-.518.133-.068.372-.04.442.028.068.067-.02.235-.04.36-.217.027-.433.057-.99.13zm5.943-1.25c-.052.016-.102.028-.147.04-.192.27-.578.5-.926.593-.04.07-.078.14-.12.21.143-.037.336-.05.422-.116.232-.184.42-.39.77-.726zm-.26-3.293c.527-.182.843-.32 1.124-.38.142-.03.215.08.32.128-.186.13-.45.372-.543.376-.288.014-.51-.06-.9-.124zm2.068 20.048c.267-.008.47-.057.524-.01.25.23-.23.565-.577.858-.08.067-.285.088-.432.13.15-.3.296-.6.485-.978zm9.74-7.742c-.356.375-.548.64-.83.848-.113.082-.556.125-.61.044-.166-.237.328-.477.658-.668.17-.096.385-.115.782-.224zm-1.75-1.215c-.477.43-.79.73-1.143 1.01-.058.048-.35.073-.407.02-.145-.132.34-.644.84-.882.15-.072.316-.07.71-.148zm.215-17.278l-.78.318.273-.728c.342-.04.685-.08 1.026-.118l-.52.527zm-5.658 3.62c.302-.184.6-.39.908-.54.135-.067.295-.025.443-.033-.098.117-.174.273-.304.347-.644.382-1.3.745-1.958 1.103-.09.048-.21.03-.317.042.066-.09.104-.206.197-.268.337-.222.694-.427 1.04-.638-.003-.006-.006-.01-.01-.013zm-1.594 18.964c-.436.24-.875.52-1.312.696-.212.087-.42-.02-.63-.04.21-.17.434-.42.628-.49.435-.156.855-.22 1.282-.323.01.053.022.105.034.158zm8.794-6.142l.69-1.1c.226.005.55-.062.658.025.22.174.19.464-.432.797-.208.11-.447.14-.916.278zm7.166-6.85c.433-.21.867-.414 1.3-.62-.303.34-.6.678-.91 1.018-.118.13-.286.256-.396.387-.23.268-.44.535-.656.804.016-.24.155-.558.025-.704-.262-.302.043-.56.637-.886zm2.427 3.19c.564-.29.845-.473 1.102-.56.236-.075.447-.045.67-.062-.134.146-.242.308-.41.434-.478.36-.973.71-1.483 1.045-.13.084-.388.148-.483.124-.087-.023-.103-.174-.027-.27.23-.294.52-.59.63-.713zm-28.248-1.085c.45-.31 1.207-.375 1.248-.095.018.106-.346.497-.534.573-.646.264-1.294.452-1.936.648-.096.03-.222-.014-.23-.07-.006-.065.083-.215.176-.276.415-.27.85-.522 1.276-.78zm-3.223 4.18c.14.193.334.286.303.456-.045.253-.135.45.395.324.24-.056.428.083.56.19.074.064-.005.24-.016.365-.163.036-.346.1-.48.105-.677.01-1.345.01-2.013.01-.072 0-.196-.01-.184-.025.163-.25.3-.51.537-.754.19-.2.504-.384.896-.674zm10.65-7.884c-.075.035-.148.036-.22-.01-.044-.003-.092-.01-.136-.018.178.065 2.745-.375.356.026zm5.173 28.055l.012-.02.005.042.477-.27c-.04.084-.08.17-.12.25-.115-.002-.228-.007-.34-.01l-.033.007zm4.273-5.79c.278-.3.562-.597.858-.895.08.016.135.047.134.095-.002.126-.245.376-.447.55-.12.106-.357.17-.542.25zm11.625 18.236l-.376.092.007-.02c.158-.03.29-.075.368-.07zm14.535-30.66c.033 0 .09-.014.095 0 .007.013-.034.054-.055.082-.033 0-.087.014-.093 0-.008-.013.035-.053.054-.082zm-6.488 15.55l.078-.07.02.043zm-20.158.01l.038.117c0-.042.003-.082.003-.122-.003-.05-.003-.1-.005-.153l.144-.012-.18.17zm5.208 7.274c.032 0 .063-.005.1-.007-.024.026-.04.064-.065.077-.028.015-.064.008-.096.008.022-.026.04-.052.06-.08zm9.465-4.098c.016-.044.03-.112.052-.122.065-.03.137-.04.204-.058-.01.028-.016.07-.034.08-.068.04-.142.065-.222.1zm11.883-16.236c.03 0 .06.005.092.008-.04.04-.075.078-.112.114-.022-.013-.06-.018-.056-.04 0-.018.048-.054.076-.082zm-6.58 13.643c.04-.008.116-.032.116-.026-.006.048-.024.102-.04.154-.038.008-.11.027-.108.016-.002-.043.018-.095.03-.143zm-7.152 4.562c.033-.01.085-.037.09-.03.017.012.005.04.006.062-.03.01-.082.036-.09.03-.013-.012-.007-.042-.007-.062zm1.313-2.25c.037 0 .076-.006.114-.01-.064.06-.12.123-.193.18-.014.01-.072 0-.108.003l.187-.173zm-.795 2.102c.016-.057.034-.11.05-.164.04-.007.118-.028.118-.017 0 .044-.024.096-.04.147-.043.01-.085.022-.128.034zm1.3 8.667l-.038.145c-.04.004-.103.023-.104.013-.002-.04.016-.09.03-.136l.11-.023zm-5.596-5.68l-.116.16c-.08-.008-.153-.017-.228-.026.06-.052.12-.127.18-.15.056-.023.11.008.164.017zm9.74-5.454c.04.02.12.03.116.07-.004.035-.09.105-.142.16-.042-.024-.114-.033-.114-.074 0-.033.09-.102.14-.156zm2.42-.467c.074-.034.15-.065.228-.1-.025.054-.033.116-.084.16-.05.043-.147.067-.222.1.026-.055.05-.107.077-.16zm-2.46 1.744c.04-.092.062-.187.086-.198.112-.048.226-.072.338-.103-.02.056-.027.143-.06.16-.114.06-.234.09-.363.14zm10.956-16.812c0 .024 0 .045-.004.068l-.19.06.11-.134c.027 0 .057.003.084.006zm-19.788 25.478c.09-.12.18-.235.28-.352a.617.617 0 0 1 .185-.01c-.052.112-.126.232-.194.348-.065.005-.13.008-.27.015zm4.128-10.114c.157-.15.248-.275.327-.303.097-.035.188.004.258.03.012.005-.105.148-.164.174-.11.047-.222.056-.422.1zm-1.514.62c.04-.088.053-.173.12-.256.022-.03.177-.062.27-.094-.05.09-.09.18-.16.268-.02.024-.132.05-.23.082zm8.396-10.89c.177.01.336-.016.336.02-.007.086-.094.203-.15.304-.1.017-.285.07-.288.04-.016-.08.05-.197.102-.364zm-2.09 8.044c.15.02.26.018.324.05.036.02-.004.097-.01.147-.098.02-.243.07-.282.046-.052-.033-.024-.127-.032-.242zm2.86-10.69c.163-.025.375-.077.37-.052-.01.085-.1.2-.158.302-.106.005-.26.042-.305.007-.038-.03.048-.146.093-.255zm-20.24 10.208l-.07.36c-.15.01-.372.073-.432.02-.058-.044.06-.212.103-.325l.4-.055zm5.068 10.02c.202-.19.312-.323.374-.338.183-.045.347-.043.52-.062-.113.087-.222.2-.34.253-.142.065-.29.078-.554.146zm20.075-24.067c.233-.01.405-.014.577-.02-.06.073-.138.203-.17.21a3.66 3.66 0 0 1-.56.093c-.01 0 .077-.144.153-.283zm-9.346 11.118c.298 0 .454-.02.553.008.036.01-.07.145-.113.223-.17.027-.363.078-.505.07-.05-.002.027-.15.065-.3zm-14.55 12.337c.167-.015.245-.023.322-.028-.183.163-.36.326-.554.484-.018.015-.13-.01-.2-.018l.432-.438zm7.84 2.445c.182-.26.25-.447.394-.535.14-.086.377-.09.53-.084.03.002-.08.244-.185.31-.17.11-.387.167-.738.31zm-3.107-5.472c-.116.034-.24.075-.367.114.04-.088.04-.2.122-.262.344-.262.716-.508 1.078-.755.012-.008.137.055.128.063-.305.275-.62.546-.96.84zm18.84-18.32c.34.07.566.09.73.165.034.014-.21.31-.255.32-.22.05-.485.098-.595.04-.083-.044.05-.252.12-.525zm-23.955 8.817c.272-.126.5-.238.73-.332.068-.03.17-.024.194.002.018.027-.037.127-.09.16-.214.137-.44.288-.66.38-.196.08-.392.092-.588.134.146-.12.29-.243.413-.345zm-2.827 5.534c.087-.243.156-.492.29-.753.027-.05.31-.148.474-.223-.024.084-.005.2-.077.248-.394.275-.4.417-.182.52.036.02-.083.158-.13.24l-.375-.03zm26.314-15.248c-.166.224-.267.405-.44.568-.048.046-.453.098-.447.053.02-.2.125-.433.202-.655.187.01.375.02.685.034zm-1.32-1.323c-.353.146-.567.232-.78.32l.27-.727 1.03-.12c-.18.184-.362.368-.52.527zm-25.616 17.62c-.58.374-1.152.753-1.74 1.115-.125.076-.404.146-.437.107-.053-.06 0-.21.09-.327.527-.673 1.46-1.058 2.074-.87zm7.656 9.223c.298-.303.498-.605.782-.77.365-.212.81-.355 1.197-.46.435-.117.51.1.16.35-.475.34-1.05.617-1.588.894-.115.06-.27 0-.55-.014zm26.67-17.265c.434-.207.868-.412 1.3-.62-.302.34-.598.68-.908 1.02-.118.13-.287.256-.397.387-.23.267-.438.535-.655.804.015-.24.154-.557.024-.703-.262-.302.044-.562.637-.886zm-12.527-4.956l.273.14c.027-.02.054-.04.082-.064.06-.044.115-.133.1-.16-.022-.034-.106-.054-.178-.033-.175.05-.36.128-.213.075a2.4 2.4 0 0 1-.065.042zm-2.5 8.063c.076-.08.115-.166.173-.25-.127.015-.207.007-.29.038-1.6.46-1.202 1.152.117.212zm13.42 18.142l.064-.052.01.034-.075.017zm15.673-6.19l-.062.05-.013-.03.075-.02zm-4.597-8.02c-.077.03-.155.065-.236.098l.078-.12c.048.015.098.03.144.047.118-.09.23-.207.358-.266.177-.087.417-.19.53-.176.1.013.064.17.088.263-.196.075-.408.183-.577.212-.154.024-.258-.038-.384-.06zm-1.274-2.076l-.065.055-.012-.036zm9.594 19.732c.018-.027.038-.056.06-.082.03 0 .08-.014.087 0 .007.012-.032.05-.052.078a2.9 2.9 0 0 0-.096.004zm-21.24-.825c.03 0 .077-.01.083.003.007.014-.036.05-.055.076-.03 0-.077.01-.084-.003-.005-.014.037-.05.055-.075zm-2.777 4.114c.033 0 .062-.005.097-.007-.022.026-.038.064-.064.076-.027.016-.064.01-.095.01l.063-.08zm21.35-20.336c.032.002.06.007.093.01-.04.04-.075.077-.113.113-.02-.01-.06-.016-.057-.04.003-.017.05-.052.078-.08zm-5.876-2.996a5.38 5.38 0 0 0-.118.147c-.053-.016-.127-.02-.143-.055-.01-.023.067-.093.105-.14.05.014.102.03.155.047zm.48 4.185c.018.01.058.017.05.028-.022.03-.063.058-.098.085a3.845 3.845 0 0 1-.082-.047c.043-.02.086-.043.128-.066zm-17.443 25.52c-.01.024-.02.05-.035.073-.026-.004-.068 0-.073-.013-.007-.015.02-.05.03-.073.026.002.052.008.077.012zm3.25-8.86l.21-.05c-.03.01-.068.03-.093.033-.035 0-.064-.007-.095-.01l-.01.014.01-.015c-.25.172-.5.346-.75.52a6.562 6.562 0 0 1-.108-.134c.278-.12.56-.238.837-.36zm2.082 3.194l-.116.16c-.078-.007-.153-.016-.228-.024.06-.053.12-.128.18-.15.056-.023.11.01.164.016zm17.264-13.322c.12-.03.244-.078.26-.058.036.04.012.118.012.18-.076.018-.198.073-.218.054-.044-.036-.038-.11-.054-.176zm-10.167-.57a8.84 8.84 0 0 1-.115.147c-.072-.02-.146-.034-.218-.05.06-.05.144-.135.18-.14.066-.012.104.026.153.042zm-.932.736c0-.05-.006-.097-.01-.145.08-.018.187-.057.227-.043.037.015.004.088.005.134-.074.02-.15.036-.22.054zm11.543-3.007c-.07.05-.14.12-.207.145-.08.03-.16.027-.238.038.085-.07.168-.152.257-.195.053-.028.124.005.188.012zm-6.34-2.796c.115-.02.28-.07.408-.072.037 0-.033.132-.056.203-.205.042-.407.08-.61.12l.26-.25zm-7.888 13.96c.04-.09.05-.173.118-.257.023-.03.18-.06.273-.094-.052.09-.092.18-.162.268-.02.024-.133.05-.23.082zm8.395-10.89c.18.007.337-.017.336.02-.005.086-.094.202-.148.304-.102.016-.285.07-.29.038-.015-.08.05-.196.102-.363zm.77-2.644c.163-.027.375-.078.37-.054-.012.086-.1.2-.158.302-.105.005-.26.043-.305.007-.038-.03.047-.146.092-.254zm-16.882 24.106c-.135-.076-.252-.134-.35-.207-.01-.01.093-.1.146-.153.13.045.268.087.39.144.01.004-.083.095-.186.216zm1.705-3.88c.203-.187.31-.32.373-.335.185-.047.348-.044.52-.063-.114.088-.222.2-.34.254-.14.065-.29.078-.553.145zm12.86-24.544c.157.04.322.057.307.078a3.13 3.13 0 0 1-.403.418c-.026.02-.27.008-.26-.014.083-.14.207-.287.356-.483zm-2.126 11.588c.3 0 .455-.02.555.01.035.01-.07.143-.114.22-.17.027-.362.08-.505.07-.05 0 .028-.148.064-.3zm-14.55 12.337c.168-.015.246-.024.323-.03-.184.164-.36.328-.554.486-.018.013-.13-.01-.2-.02l.432-.437zm20.2-23.05c.097.02.17.037.244.054-.166.136-.323.284-.51.407-.06.04-.188.016-.286.022.17-.15.34-.296.553-.484zm6.432 7.71c.244.063.413.082.52.144.04.025-.056.152-.09.234-.206.04-.42.085-.614.11-.02 0 .05-.137.183-.486zm-21.9 12.306c-.116.033-.24.074-.367.113.042-.09.042-.2.122-.262.346-.26.715-.507 1.08-.754.01-.008.135.055.127.063-.307.273-.62.545-.962.84zm18.84-18.32c.342.068.567.09.732.164.033.013-.212.31-.256.32-.22.048-.485.098-.595.04-.082-.044.05-.252.12-.525zm-16.193 14.59c-.267.068-.468.12-.666.174.138-.172.24-.39.426-.506.182-.114.45-.13.682-.187-.14.163-.276.325-.44.52zm18.65-6.578c-.225-.205-.358-.302-.447-.425-.05-.067-.06-.17-.013-.274.017-.04.284-.178.36-.178.12 0 .24.052.242.133.004.17-.068.376-.144.744zm-2.92-8.916c-.165.224-.267.405-.44.568-.047.047-.453.098-.447.054.02-.2.126-.434.203-.655l.685.033zm-22.556 23.874c.793-.492 1.394-.65 1.565-.45.032.035-.025.168-.094.215-.497.352-1.47.705-1.556.557-.046-.078.064-.247.086-.322zm17.416-20.57l.273.142.083-.065c.057-.044.113-.134.1-.16-.022-.035-.108-.054-.18-.033-.176.05-.358.13-.212.075l-.064.04zm14.96 8.15c.56-.29.844-.473 1.1-.56.238-.075.448-.046.673-.062-.136.146-.243.308-.412.434-.478.358-.974.71-1.483 1.045-.13.083-.39.147-.484.123-.085-.02-.1-.172-.025-.27.23-.293.52-.588.63-.71zm-21.213 24.476l.01-.02.006.043.476-.27-.118.25-.343-.01-.033.006zm4.274-5.79c.277-.3.563-.596.857-.894.08.016.134.047.134.094 0 .127-.246.377-.448.552-.117.105-.356.168-.542.25zm20.747-13.322c.258-.09.514-.178.77-.265-.31.186-.465.303-.625.37-.095.04-.19.002-.285 0zm5.423.904c.033 0 .09-.013.094 0 .008.014-.032.054-.052.082-.035 0-.088.015-.094 0-.007-.012.036-.052.053-.082zm-16.66 11.974c.038-.002.103-.018.11-.002.008.018-.04.063-.064.096-.038 0-.102.018-.11 0-.008-.013.04-.06.064-.093zm-9.99 3.582l.038.114c0-.04.004-.08.004-.12h-.002c-.002-.05-.004-.102-.004-.153l.144-.012-.18.17zm5.21 7.273c.03 0 .06-.005.096-.007-.022.027-.04.065-.064.077-.028.016-.064.008-.097.01.022-.027.04-.053.063-.08zm21.35-20.336c.03.003.06.008.092.01l-.114.112c-.022-.01-.06-.017-.057-.04 0-.018.048-.054.077-.08zm-5.877-2.996l-.118.147c-.05-.015-.126-.02-.142-.053-.008-.023.067-.093.105-.14l.155.047zm-19.075 20.39l.002-.002-.002.002c.005.022.002.04-.01.052-.33.272-.67.594-1.044.466l-.014.024c.037-.03.068-.063.11-.092.284-.206.478-.58.904-.514.027.004.047.034.054.064zm2.94.72c.08-.02.158-.043.236-.064-.02.032-.04.085-.056.09-.083.03-.163.05-.248.073.023-.032.046-.063.068-.098zm4.497 2.928l-.117.158c-.077-.007-.153-.016-.228-.024.06-.053.122-.128.18-.15.057-.024.11.01.165.016zm6.172-13.16a7.068 7.068 0 0 1-.01-.144c.08-.016.186-.056.226-.042.037.015.004.088.004.133l-.22.053zm-5.605-.038c.053-.106.09-.185.13-.266.067 0 .175-.03.186-.004.024.06-.002.143-.008.216l-.308.054zm-.62-.155c.07.02.18.024.162.056-.035.08-.125.17-.194.257-.05-.012-.155-.01-.145-.038.032-.083.11-.175.176-.276zm-4.35 9.657c.118-.01.238-.026.233-.016-.04.085-.102.176-.158.264-.06-.004-.167.013-.168-.017 0-.06.055-.144.092-.23zm7.5-15.7c.098-.133.135-.237.22-.294.093-.058.23-.072.345-.105-.043.076-.062.17-.137.228-.09.065-.23.096-.427.17zm-7.527 8.917c-.12.145-.186.225-.252.307-.128-.006-.282.008-.368-.033-.03-.012.112-.164.178-.25l.443-.023zm-3.168 2.148c-.03.155-.048.257-.07.36-.15.012-.373.073-.433.02-.057-.045.062-.212.105-.325.126-.017.253-.036.398-.055zm5.07 10.017c.202-.188.31-.32.372-.336.184-.046.348-.045.52-.063-.113.09-.222.202-.34.255-.142.065-.288.08-.553.144zm20.074-24.066c.23-.01.404-.015.575-.02-.057.072-.138.202-.17.21-.194.05-.38.074-.56.092-.01 0 .078-.143.154-.282zm-20.515 6.482c-.094.067-.182.146-.283.2-.15.084-.31.153-.468.228.07-.09.118-.202.216-.267.145-.096.323-.16.49-.237a.79.79 0 0 1 .045.076zm-2.404 5.892c-.262.236-.406.383-.578.503-.058.04-.298.037-.29.016.064-.135.143-.288.283-.42.053-.047.286-.05.586-.098zm.604-3.51c.273-.093.47-.162.666-.23-.077.115-.138.285-.232.332-.197.096-.41.127-.613.185l.18-.286zm8.946 1.77c.284-.016.5-.04.683-.028.035.002-.055.148-.088.227-.23.037-.468.085-.686.103-.03.002.038-.138.09-.302zm9.67-10.223c.097.022.17.037.244.056-.166.136-.323.285-.51.407-.06.04-.188.016-.288.022l.554-.485zm-13.647 4.122l.074.147c.4-.242.802-.484 1.2-.73.01-.006-.014-.064-.015-.063l-1.03.48c-.08.058-.153.114-.23.167zm-8.93 14.782c.243.12.397.15.437.238.028.056-.113.204-.177.31-.13 0-.347.047-.372-.008-.038-.095.044-.257.114-.54zm5.253-9.044c.274-.135.506-.268.73-.35.11-.04.21.003.312.013-.107.11-.196.25-.33.332a2.324 2.324 0 0 1-.55.242c-.192.06-.37.076-.557.11.142-.123.278-.245.396-.348zm1.853 10.16c-.118.035-.24.075-.368.114.04-.088.04-.2.122-.26.344-.264.715-.51 1.08-.757.01-.01.136.056.126.063-.306.275-.62.546-.96.84zm-5.114-9.496c.273-.126.503-.238.73-.332.07-.03.172-.024.194.002.02.027-.036.127-.088.16-.214.137-.44.287-.66.38-.196.08-.393.092-.588.133l.412-.345zm-2.826 5.534c.087-.243.157-.493.29-.754.027-.05.31-.148.474-.224-.024.084-.007.2-.077.248-.394.276-.4.417-.183.52.036.02-.08.16-.13.24-.093-.008-.185-.016-.374-.03zm26.314-15.248c-.165.223-.268.405-.44.568-.048.046-.453.098-.448.053.02-.2.127-.434.204-.655l.684.034zm-1.32-1.323c-.353.146-.566.232-.782.32.094-.242.182-.486.274-.728l1.027-.12zm-38.75-38.655c-.42-.454-.77-.665-1.055-.637-.284.03-.64.29-1.066.774-.106.12-.278.28-.518.48-.24.198-.464.42-.677.66a2.477 2.477 0 0 0-.453.7c-.09.22-.048.43.127.624.195.217.404.42.62.613l.142.128.062-.054c.097.022.17.037.245.055l-.162.133c.116.114.23.23.338.35-.618.702-1.246 1.406-1.887 2.11-.64.704-1.28 1.42-1.92 2.148a391.873 391.873 0 0 0-5.662 6.592 398.423 398.423 0 0 1-3.845 4.506c.16-.05.347-.07.515-.112a97.6 97.6 0 0 1-.44.517l-.553.146-1.372 1.57c-.298.338-.617.713-.957 1.125-.34.41-.69.844-1.047 1.3a.427.427 0 0 1-.18-.09.423.423 0 0 0-.177-.09 8.018 8.018 0 0 1-.824-.566 8.072 8.072 0 0 0-.827-.565c-.343.342-.674.72-.99 1.128l-.478.836a34.15 34.15 0 0 1-.51.872c-.128.147-.282.31-.465.494-.182.183-.28.377-.288.584.01.18.097.365.26.55.16.183.342.354.547.513.203.158.418.304.643.438.136.082.253.157.35.228l.038-.09c.793-.492 1.395-.65 1.566-.45.032.035-.026.166-.094.214-.33.233-.87.467-1.22.555.467.372.935.753 1.4 1.145.51.424 1.03.847 1.56 1.27.79.666 1.58 1.336 2.373 2.013l.02.002-.01.008.955.815a61.15 61.15 0 0 0 3.507 2.792l.727.638c.242.214.484.405.722.57.192.126.467.057.828-.205.36-.264.737-.63 1.13-1.103.392-.47.788-.993 1.184-1.567a19.81 19.81 0 0 0 1.042-1.663 8.566 8.566 0 0 0 .66-1.448c.145-.434.156-.703.035-.81a3.064 3.064 0 0 0-1.326-.874 4.694 4.694 0 0 1-.822-.365l-.07.074c-.05.05-.295.067-.45.103l.274-.327a4.845 4.845 0 0 1-.354-.253l-.022-.02c.075.223-.332.512-.638.77-.078.067-.284.087-.432.13.15-.3.297-.6.485-.98.194-.005.354-.033.447-.03-.197-.145-.367-.213-.512-.203a.747.747 0 0 0-.483.22c-.14.135-.265.315-.376.54-.112.224-.24.443-.388.66a.852.852 0 0 0-.108.16.827.827 0 0 1-.11.16 84.147 84.147 0 0 1-2.167-1.97 23.022 23.022 0 0 1-2.01-2.15 7.915 7.915 0 0 1 1.08-1.597 39.79 39.79 0 0 0 2.41-3.037c.39-.54.797-1.052 1.222-1.536l.32-.364c-.03-.002-.076 0-.08-.015-.006-.017.03-.053.046-.083.03.005.06.01.08.017-.016.03-.03.057-.045.082.242.213.635.55 1.18 1.004l.798.672.034-.027c.016-.01.07-.002.105-.002l-.08.077.847.715c.592.498 1.158.942 1.697 1.33.54.388.924.597 1.156.63.297.002.563-.13.796-.396.106-.122.264-.35.47-.682.207-.334.414-.68.62-1.035.206-.357.394-.706.566-1.048.173-.344.288-.598.345-.76l-.086-.094c-.36.33-.63.58-.925.816-.06.048-.353.073-.41.02-.144-.132.34-.645.842-.883.096-.047.2-.063.367-.088l-.416-.45a8.232 8.232 0 0 0-.66-.644c-.178-.157-.36-.31-.545-.463l-.022-.007.01-.005c-.46-.377-.935-.735-1.428-1.077l-2.083-1.442c.083-.143.16-.257.236-.34l.24-.274a46.813 46.813 0 0 1 3.523-3.607c.25-.227.496-.46.74-.693.027-.147.107-.31.258-.496a4.23 4.23 0 0 1 .31-.058c.75-.745 1.478-1.52 2.183-2.322a128.92 128.92 0 0 1 4.01 3.138l-.416.473c-.13.1-.316.214-.56.345-.243.13-.357.308-.342.536.01.183.098.377.26.584.162.206.34.407.537.6.195.192.39.374.584.545l.47.415-.108-.096.11.096c.408.317.745.484 1.008.502.264.017.553-.2.867-.657.27-.405.603-.76.995-1.06.392-.3.79-.593 1.194-.88.405-.29.786-.59 1.143-.9.357-.307.637-.652.842-1.03.1-.214.116-.414.046-.604s-.178-.37-.326-.545a5.166 5.166 0 0 0-.495-.5 3.187 3.187 0 0 1-.423-.436c-.1-.13-.23-.288-.39-.47a2.612 2.612 0 0 0-.528-.465 31.002 31.002 0 0 0-3.675-3.003 27.848 27.848 0 0 1-2.282-1.78l-.165.04-.007-.188a26.96 26.96 0 0 1-1.19-1.113l-.864-.888-.86-.887zm.078 48.007c.288.21.537.342.746.4.21.053.474.094.796.12a.77.77 0 0 0 .418-.183c.14-.113.27-.246.385-.402a3.84 3.84 0 0 0 .312-.5 1.92 1.92 0 0 1 .232-.375 2.62 2.62 0 0 1 .406-.352c.185-.138.37-.287.554-.448a1.12 1.12 0 0 0 .36-.52c.057-.187 0-.355-.17-.505a2.184 2.184 0 0 0-.22-.225c-.258.138-.52.27-.775.4-.115.06-.27 0-.55-.015.29-.294.487-.587.757-.754l-.252-.127a841.558 841.558 0 0 1 7.478-9.237.193.193 0 0 1-.05.035c-.11.046-.22.055-.42.098.155-.15.248-.274.327-.302.095-.035.19.004.257.03.527-.695 1.06-1.388 1.6-2.075.302-.387.61-.768.925-1.144l-.368-.423 1.073-.4.038-.044c.384-.438.78-.853 1.19-1.245.407-.39.792-.793 1.154-1.204-.056-.057-.112-.117-.18-.165-.285-.202.11-.358.39-.518.143-.08.283-.162.425-.243l-.01.2c.402-.482.8-.976 1.19-1.484.59-.77 1.205-1.52 1.843-2.247l.288-.326.4.35.763.672c.243.21.508.424.796.633l-.032.037a5.146 5.146 0 0 1-.467.46c-.185.16-.345.33-.482.51a.916.916 0 0 0-.203.562c0 .195.11.388.33.578.34.344.71.732 1.103 1.165.393.43.794.783 1.2 1.054a.524.524 0 0 0 .5.052 1.9 1.9 0 0 0 .512-.324 3.24 3.24 0 0 0 .465-.493c.137-.18.248-.32.334-.416.368-.322.677-.685.924-1.09.25-.404.533-.79.852-1.153a4.52 4.52 0 0 1 .404-.386 5.41 5.41 0 0 0 .516-.513c.16-.18.267-.365.324-.552.057-.187 0-.353-.17-.503-.124-.152-.464-.462-1.02-.93a90.815 90.815 0 0 0-1.992-1.62 360.305 360.305 0 0 0-4.558-3.56l-.19.19c-.35.146-.564.233-.78.32.093-.242.182-.485.274-.728l.356-.04c-.73-.558-1.343-1.022-1.834-1.388l-.52-.388c-.307.187-.463.303-.624.37-.093.04-.188.002-.283 0l.137-.106.77-.264-.22-.165a2.33 2.33 0 0 0-.768-.74l-.4-.35-.6-.528a3.636 3.636 0 0 0-.612-.44c-.202-.114-.358-.132-.467-.057-.796.418-1.528 1.02-2.198 1.806a15.092 15.092 0 0 1-2.08 2.038c-.283.225-.37.47-.26.738.107.267.296.53.563.787.27.255.57.5.905.73.335.23.565.42.688.572.1.13.137.173.112.13a.49.49 0 0 0-.112-.13c.2.26.392.494.578.7.184.204.426.137.724-.203a9.75 9.75 0 0 1 .822-1.08 1.23 1.23 0 0 1 .254-.326c.086-.073.183-.17.29-.292.17.15.322.293.456.434.135.14.275.274.42.402.12.105.25.206.38.3.132.095.26.196.38.302-.15.17-.28.332-.397.488a7.91 7.91 0 0 1-.397.49 38.68 38.68 0 0 1-2.137 2.246 39.766 39.766 0 0 0-2.048 2.15l.04-.016-.06.04-.066.074a155.3 155.3 0 0 0-1.426 1.646l.127-.034c-.245.235-.41.406-.567.55l-.584.697c.238-.014.426-.034.588-.023.036.002-.056.15-.088.227-.23.038-.467.087-.687.104-.017.002-.002-.044.023-.112l-2.295 2.75a928.104 928.104 0 0 1-3.908 4.556 248.552 248.552 0 0 0-3.84 4.553 1.584 1.584 0 0 1-.166-.177 1.883 1.883 0 0 0-.202-.21c-.245-.26-.45-.406-.61-.44a.603.603 0 0 0-.46.08 1.65 1.65 0 0 0-.42.405c-.136.18-.29.344-.465.493-.283.224-.6.462-.95.713-.35.25-.616.532-.802.84-.086.1-.042.276.135.526.126-.2.394-.44.82-.703.13-.026.503-.166.662-.118.266.083-.152.75-.613.93-.145.058-.342.214-.523.305.44.47.962.983 1.563 1.535.61.554 1.2 1.065 1.78 1.53.58.466.966.785 1.16.955zm31.73-20.06c-.417-.454-.77-.666-1.052-.636-.218.022-.48.18-.78.472l.564-.27c-.302.34-.6.68-.91 1.02-.117.13-.285.255-.396.386-.23.267-.438.535-.656.804.015-.216.128-.494.057-.654l-.14.153a2.48 2.48 0 0 0-.453.7c-.088.223-.046.43.127.626.197.215.404.42.622.612.218.19.426.395.623.61-.618.703-1.248 1.408-1.888 2.113l-.96 1.066c.628-.325 1.22-.61 1.81-.613.142 0 .233.06.348.09-.197.122-.398.28-.59.352-.22.085-.42.07-.642.134-.205.06-.478.142-.627.262-.588.462-1.162.93-1.733 1.4a388.783 388.783 0 0 0-5.188 6.047 391.844 391.844 0 0 1-5.696 6.627 62.955 62.955 0 0 0-2.004 2.427.41.41 0 0 1-.178-.09.435.435 0 0 0-.177-.093 7.82 7.82 0 0 1-.825-.563 7.938 7.938 0 0 0-.825-.564c-.344.343-.674.718-.99 1.127l-.477.837c-.154.273-.326.564-.51.874-.13.146-.285.31-.467.493-.182.184-.278.38-.286.586.012.18.097.363.257.547.162.185.344.355.55.513.204.158.42.306.645.438.227.135.4.255.52.362.487.386.975.784 1.464 1.19a.596.596 0 0 1 .09-.162c.528-.673 1.46-1.06 2.075-.87l.012-.025c-.58.373-1.152.753-1.74 1.115a.966.966 0 0 1-.254.097c.467.39.944.778 1.43 1.166a389.88 389.88 0 0 1 3.34 2.838c.316.273.638.544.964.812l.09-.09c.167-.016.244-.024.32-.03l-.265.238c.422.344.85.685 1.286 1.022.39-.152.67-.168.778-.042.032.035-.026.166-.094.214a2.925 2.925 0 0 1-.254.158l.682.51.726.64c.23.2.455.38.68.54.28-.29.476-.576.75-.733.356-.21.792-.35 1.172-.455l.078-.09c.392-.473.79-.995 1.185-1.57a20.21 20.21 0 0 0 1.042-1.662 8.56 8.56 0 0 0 .66-1.45c.146-.432.157-.7.035-.807a3.05 3.05 0 0 0-1.325-.876 4.764 4.764 0 0 1-1.422-.765c-.266-.235-.49-.346-.673-.333a.74.74 0 0 0-.482.218 1.94 1.94 0 0 0-.378.538 5.44 5.44 0 0 1-.25.45l.027-.02-.01.015c.007-.007.01-.014.013-.014.03.004.06.012.095.01.026 0 .063-.02.094-.03l-.21.05-.02.008-.125.193a.882.882 0 0 0-.11.16.813.813 0 0 1-.11.163l-.18-.16-.182.128a6.738 6.738 0 0 1-.11-.134l.193-.08a83.87 83.87 0 0 1-1.886-1.725 20.98 20.98 0 0 1-.533-.52h-.993c-.07 0-.196-.008-.183-.025.15-.233.28-.473.485-.702a25.082 25.082 0 0 1-.784-.904 7.88 7.88 0 0 1 1.08-1.6 38.432 38.432 0 0 0 2.41-3.035c.39-.54.796-1.052 1.222-1.537l.32-.364c.185.165.46.4.824.708.202-.055.404-.07.55-.047.04.007-.133.293-.174.306l-.048.016.027.022.265.223a.99.99 0 0 1 .226-.164c.133-.068.372-.04.443.027.068.067-.02.235-.04.36l-.316.04 1.128.95c.592.498 1.158.943 1.696 1.332.54.387.926.596 1.157.628.298.004.563-.128.798-.396.106-.12.263-.347.47-.68.208-.333.413-.68.62-1.036.205-.355.393-.704.566-1.046.17-.344.286-.597.345-.76a60.88 60.88 0 0 1-.628-.68c-.183-.2-.385-.4-.606-.598-.11.04-.226.076-.346.108a2.44 2.44 0 0 1 .018-.393 21.73 21.73 0 0 0-1.71-1.313l-1.736-1.203c-.345-.24-.6-.025-.345-.24a2.13 2.13 0 0 1 .236-.34l.24-.274a46.876 46.876 0 0 1 3.523-3.605 46.416 46.416 0 0 0 3.49-3.57 130.684 130.684 0 0 1 4.008 3.137l-.415.473c-.13.1-.317.215-.56.344-.244.13-.358.308-.343.535.01.184.098.377.26.585l.036.044.045-.023c.02.012.06.018.052.028a.308.308 0 0 1-.053.05c.14.172.293.34.457.502.196.192.39.374.583.544l.474.416-.11-.096.11.096c.41.316.745.483 1.008.5.265.018.554-.2.868-.657.27-.404.602-.757.994-1.058l.658-.49c.027-.073.055-.153.078-.24l.196.038.263-.19c.405-.29.784-.59 1.142-.898a3.73 3.73 0 0 0 .76-.888c-.007-.287-.02-.536 0-.8.002-.01.033-.038.078-.07a1.835 1.835 0 0 0-.276-.422 4.996 4.996 0 0 0-.496-.5 3.055 3.055 0 0 1-.42-.436c-.102-.13-.232-.288-.392-.472a2.515 2.515 0 0 0-.528-.463 30.596 30.596 0 0 0-3.675-3.004 27.627 27.627 0 0 1-3.643-3.04l-.864-.89-.863-.886zm-10.933 37.558a.43.43 0 0 0 .316.033c-.08-.002-.182-.022-.317-.033zM68.442 39.583c-.09.105-.18.21-.268.32.158-.018.295-.036.4-.02.055.007-.01.142-.02.216-.214.045-.426.095-.633.13-.432.584-.804 1.222-1.115 1.913a8.63 8.63 0 0 0-.753 2.948 7.498 7.498 0 0 0 .36 2.927c.312.94.893 1.783 1.74 2.53.106.093.215.182.322.27a.21.21 0 0 1 .074.053l.005.01a8.027 8.027 0 0 0 2.44 1.344l.042-.025c.365-.215.81-.356 1.197-.46.434-.117.51.098.16.35a6.56 6.56 0 0 1-.566.356c.443.09.898.136 1.362.14 1.83.02 3.567-.537 5.208-1.672a8.157 8.157 0 0 0 1.772-1.504c.157-.18.318-.357.482-.533-.332.19-.666.384-.997.518-.212.087-.42-.022-.63-.04.21-.17.433-.422.628-.49.435-.157.855-.22 1.282-.322l.005.027c.266-.278.54-.552.82-.822.517-.492 1.036-.95 1.558-1.37a16.78 16.78 0 0 0 1.52-1.4c.925-.907 1.838-1.812 2.74-2.716.903-.904 1.78-1.84 2.632-2.81a31.88 31.88 0 0 0 1.54-1.9c.517-.687.967-1.396 1.355-2.13.12-.225.23-.454.33-.686-.187.037-.38.077-.56.098-.02 0 .05-.135.186-.484.22.056.38.077.487.126.177-.437.325-.883.44-1.34a7.11 7.11 0 0 0 .207-2.125l-2.063 1.114c.42-.413.69-.73 1.042-1.012.175-.142.355-.28.534-.418.173.06.337.13.483.206l-.018-.21a9.676 9.676 0 0 0-.83-2.982l-.112.036.08-.1-.103-.22a9.66 9.66 0 0 0-.6-1.063c-.09.04-.194.052-.243.068l-.012-.434c-.35-.478-.74-.907-1.172-1.286-1.066-.937-2.148-1.49-3.245-1.66a6.814 6.814 0 0 0-3.24.278c-1.064.354-2.086.895-3.07 1.62a22.675 22.675 0 0 0-2.696 2.335 331.66 331.66 0 0 0-5.473 6.082 94.9 94.9 0 0 0-3.508 4.227l.194-.032a.266.266 0 0 0-.028.04l.07-.046h-.004l-.03-.002-.24.09c-.508.652-1 1.3-1.472 1.946zm7.074-1.45l1.513-1.708.107-.187.08-.024 1.02-1.137.715-.797a4.34 4.34 0 0 1-.81.307c-.006-.162 0-.33.034-.504l.135.016a.212.212 0 0 0 .22.007c.2 0 .416-.023.65-.08.595-.67 1.187-1.337 1.775-2.007.362-.412.787-.908 1.275-1.49.14-.166.28-.322.418-.463-.33.186-.663.368-.994.55-.092.047-.21.03-.318.04.066-.09.104-.206.197-.267.337-.223.694-.427 1.04-.637-.003-.005-.006-.01-.01-.013.303-.183.6-.39.91-.54.103-.05.222-.038.338-.034l1.162-.767c.527-.355 1.04-.547 1.542-.58l.037.033c.683-.045 1.303.178 1.86.67.51.445.867 1.004 1.07 1.677.203.673.236 1.334.094 1.984l-.005-.068a3.97 3.97 0 0 1-.662 1.448c-.315.432-.653.854-1.015 1.266a63.39 63.39 0 0 1-1.17 1.294c-.395.424-.783.857-1.167 1.293a18.86 18.86 0 0 0-1.19 1.5 18.84 18.84 0 0 1-1.19 1.5l-.336.376.045.016c.036.018-.004.094-.01.146-.07.013-.168.043-.23.05-.324.35-.73.78-1.217 1.29a59.234 59.234 0 0 1-2.596 2.552 23.026 23.026 0 0 1-2.74 2.2c-.898.607-1.61.894-2.14.858a4.496 4.496 0 0 1-1.047-.273 3.105 3.105 0 0 1-1.485-1.203l-.258.223c-.116.035-.24.075-.366.114.04-.088.04-.2.12-.262l.382-.278a3.228 3.228 0 0 1-.212-.483 2.742 2.742 0 0 1-.054-1.626c.072-.324.195-.613.374-.865.178-.25.338-.507.482-.768.248-.382.488-.763.714-1.144.227-.38.5-.75.82-1.116.34-.388.695-.74 1.064-1.062.368-.323.71-.664 1.03-1.028zm22.777 33.994c.08-.142.01-.355-.213-.638a7.432 7.432 0 0 0-.917-.936c.56-.54 1.15-1.138 1.77-1.795a63.08 63.08 0 0 0 1.315-1.423c.207-.236.408-.47.605-.702-.333.19-.666.382-.997.517-.213.086-.42-.022-.632-.04.21-.17.434-.422.63-.49.434-.156.854-.222 1.28-.324l.5-.612c.433-.542.885-1.08 1.352-1.612a120.11 120.11 0 0 1 3.3-3.608 119.527 119.527 0 0 0 3.3-3.61 36.91 36.91 0 0 1 2.057-2.156c.266-.258.53-.517.794-.782a1.473 1.473 0 0 1-.224-.226c-.05-.067-.06-.17-.012-.275.017-.037.284-.178.36-.177.12 0 .24.05.242.132a.934.934 0 0 1-.017.196c.32-.326.636-.658.95-.993.342-.387.702-.747 1.08-1.08.378-.334.728-.682 1.047-1.046.17-.195.32-.428.452-.7.132-.27.21-.544.238-.82l.037.03a1.77 1.77 0 0 0 .047-.7 1.31 1.31 0 0 0-.17-.223l.08-.12c-.11-.285-.308-.553-.59-.8-.51-.45-1.012-.88-1.508-1.292a16.56 16.56 0 0 1-1.442-1.365l-.303-.307-.14.03-.004-.175-1.48-1.5a39.54 39.54 0 0 0-1.954-1.846l-.636-.56c-.278-.244-.58-.498-.906-.763a19.933 19.933 0 0 0-.903-.698c-.274-.2-.473-.33-.59-.39a1.546 1.546 0 0 0-1.055-.413c-.39 0-.758.128-1.108.38l.07-.005c-.44.302-.84.638-1.206 1.004-.363.365-.727.755-1.09 1.166a47.06 47.06 0 0 0-2.524 3.13 46.793 46.793 0 0 1-2.524 3.13l-2.907 3.31-.24.27c1.932-1.107 1.45-.865-.117.128-.25.273-.505.54-.766.805-.387.39-.762.79-1.124 1.203-.426.484-.822.973-1.19 1.466l-.05.062c.103-.028.197.012.294.02-.108.113-.195.25-.33.333-.112.073-.248.134-.38.184-.23.288-.475.577-.727.865-.183.21-.4.436-.645.68l-.18.218h-.04l-.472.44c-.55.505-1.083.83-1.6.978-.313.113-.558.134-.733.066a.924.924 0 0 1-.434-.35 3.365 3.365 0 0 1-.31-.563 3.718 3.718 0 0 0-.405-.676 3.174 3.174 0 0 0-2.534-1.26 3.126 3.126 0 0 0-1.418.332c-.454.222-.852.528-1.194.916-.447.51-.663 1.06-.647 1.653.014.592.16 1.172.437 1.737a5.923 5.923 0 0 0 1.112 1.557c.364.37.725.69 1.08.96.52-.406 1.185-.602 1.658-.457l.014-.025c-.41.264-.815.53-1.226.79.642.385 1.274.632 1.898.74.388.068.773.095 1.16.083.254-.21.45-.53.847-.47.028.005.048.036.054.065h.002-.003c.007.02.002.04-.008.05-.13.11-.264.225-.4.318.117-.016.234-.033.352-.054a8.263 8.263 0 0 0 1.983-.644c.654-.305 1.3-.65 1.94-1.034l-.033.036c.507-.284 1.22-.86 2.134-1.73a73.18 73.18 0 0 0 2.817-2.843c.963-1.023 1.87-2.02 2.724-2.987l1.303-1.483h-.01a2.3 2.3 0 0 1 .036-.503c.044.007.09.013.136.017.07.046.143.044.218.01h.04l.13-.15c.893-1.02 1.793-2.03 2.7-3.04l.282-.317-.03.017c-.09.047-.21.03-.315.04.064-.09.102-.204.196-.266.227-.15.462-.29.697-.432a29.78 29.78 0 0 0 1.66-2.204 9.78 9.78 0 0 1 1.135-1.582l.39.367c.034-.007.063-.01.088-.007.07.01.074.09.078.168.67.65 1.31 1.317 1.92 2.004a28.18 28.18 0 0 0 2.513 2.495 241.23 241.23 0 0 1-2.45 2.746c.133-.028.266-.05.398-.064.224-.023.433-.03.647-.04-.203.134-.402.27-.602.404-.25.154-.49.316-.73.48-.05-.164-.026-.357.114-.587a252.897 252.897 0 0 1-4.89 5.245 255.358 255.358 0 0 0-4 4.266c.05-.016.106-.026.158-.04-.01.027-.016.07-.035.08-.068.04-.142.065-.222.1l.017-.05a273.358 273.358 0 0 0-3.434 3.83.684.684 0 0 0-.227.185c-.256.29-.53.577-.82.86-.29.28-.597.58-.92.898-.223-.28-.465-.58-.726-.895-.26-.315-.532-.36-.815-.135-.377.184-.7.49-.97.92a6.22 6.22 0 0 1-.89 1.12c-.168.193-.242.4-.216.615.025.215.1.433.23.653.13.22.29.426.486.62l.346.332c.198-.222.364-.424.578-.548.365-.214.812-.355 1.198-.46.434-.117.51.098.16.35-.475.34-1.05.617-1.59.893a.27.27 0 0 1-.094.025c.126.15.362.41.71.78.453.487.96.985 1.518 1.5.56.51 1.102.944 1.63 1.3.525.353.885.445 1.08.273.216-.197.43-.417.642-.66l.608-.69c.17-.194.37-.384.598-.57a4.88 4.88 0 0 0 .6-.57zm24.312-.74l7.93-4.812c.147-.09.31-.17.46-.27.153-.1.48-.29.635-.37.17.146.485.416.79.684.41.364.69.67.907.473.293-.27.387-.35.62-.637l.337-.424-.574.31c.422-.415.692-.732 1.043-1.014l.134-.108c.142-.19.28-.352.53-.606.114-.116.232-.207.306-.312a.372.372 0 0 0 .044-.346c-.042-.122-.16-.27-.353-.44a88.712 88.712 0 0 0-.98-.828c-.555-.468-1.155-.984-1.797-1.548l-.53-.463a4.02 4.02 0 0 1-.36.05c-.01 0 .062-.12.132-.246l-1.08-.92c-.578-.488-.942-.796-1.087-.924a4.18 4.18 0 0 0-1.027 1.096c-.054.084-.144.237-.314.43-.17.196-.316.42-.492.633-.686.828-.738.874-.18 1.452.067.07.143.18.243.31-.68.5-1.097.828-1.84 1.35l-.03.082-.12.024c-3.353 2.336-4.816 2.92-7.748 4.545.06-.12.937-2.05 1.212-2.65l.977-2.136 1.214-2.703 1.18-2.733c.287.21.595.384.924.522.33.14.622.063.877-.227.085-.097.235-.256.45-.476a9.34 9.34 0 0 0 .623-.71c.2-.252.368-.492.5-.717.136-.226.175-.407.12-.54-.105-.223-.447-.65-1.024-1.29a24.174 24.174 0 0 0-1.924-1.882c-.703-.617-1.385-1.1-2.05-1.446-.662-.345-1.13-.338-1.403.022-.25.382-.58.77-.988 1.162a4.593 4.593 0 0 0-.948 1.26c-.182.356-.107.648.228.878.336.23.658.44.967.624a82.902 82.902 0 0 0-1.75 3.713l-1.65 3.676.033-.037c-.192.4-.454 1.02-.79 1.85l.836-.39c.002 0 .026.058.016.062l-.957.584-1.125 2.723c-.308.747-.733 2.146-1.092 3.134l.354-.087c-.062.08-.122.205-.184.232a2.484 2.484 0 0 1-.257.092c-.084.22-.162.41-.233.557-2.165 1.18-4.778 3.02-6.85 4.334l.07-.032c-.024.083-.006.2-.076.248-.395.276-.4.417-.182.522.035.018-.083.156-.13.237l-.376-.03c.077-.216.14-.437.247-.667l-.224.138c-.2-.26-1.178-1.04-1.403-1.15a.59.59 0 0 0-.728.134c-.82.895-.8.79-1.597 1.707-.232.268-.767 1.087-.79 1.26a.693.693 0 0 0 .1.473c.088.14.224.27.4.386.178.113 1.145 1.002 1.323 1.138 2.33 1.774 3.87-.175 5.867-1.03 2.78-1.62 4.128-2.21 7.592-4.027a324.45 324.45 0 0 0 4.06-2.164l1.702-.985c.546-.317.97-.555 1.255-.73zm2.048-12.828l-.032.036zm27.822 20.184c.167-.238.21-.45.13-.626a1.24 1.24 0 0 0-.39-.473 3.808 3.808 0 0 0-.607-.372 10.535 10.535 0 0 1-.55-.29c-.432-.292-.876-.606-1.33-.943a18.84 18.84 0 0 1-1.267-1.016 11.127 11.127 0 0 1-.51-.48 6.876 6.876 0 0 0-.6-.528 2.432 2.432 0 0 0-.676-.368.877.877 0 0 0-.7.028c-.27.11-.49.312-.666.61a5.176 5.176 0 0 1-.55.772c-.102.166-.312.38-.627.64-.314.26-.455.493-.418.696.036.204.207.375.513.517.308.14.53.252.675.335.096.084.167.125.212.123-.312.454-.64.864-.984 1.23-.34.364-.66.717-.96 1.055a56.56 56.56 0 0 1-3.017 3.178c-1.033 1.006-2.09 2.002-3.17 2.985a16.28 16.28 0 0 1-1.232 1.11 6.13 6.13 0 0 1-1.416.878 3.32 3.32 0 0 1-1.51.287c-.514-.023-1.015-.25-1.5-.675a3.7 3.7 0 0 1-.59-.686l.684-1.098c.07-.09.116-.203.214-.267l.004-.002a6.54 6.54 0 0 1-.34-.598c-.315-.62-.42-1.183-.315-1.693.125-.58.454-1.31.99-2.19a36.253 36.253 0 0 1 1.818-2.684c-.084.023-.165.04-.243.053-.066.01-.035-.333.105-.45.358-.29.726-.578 1.095-.864.39-.498.776-.984 1.166-1.455.7-.844 1.263-1.508 1.69-1.992l.992-1.128c.32-.363.673-.718 1.062-1.063.124.15.26.326.41.523.15.195.34.286.567.27.16-.033.342-.13.55-.29.205-.163.4-.348.58-.554.18-.206.345-.416.49-.632.147-.214.274-.383.38-.504l-.095.11.096-.11c.292-.43.437-.777.43-1.04-.005-.262-.246-.538-.722-.828a9.692 9.692 0 0 1-2.037-1.788 25.953 25.953 0 0 1-.95-1.192c-.338-.446-.73-.76-1.175-.935-.42-.155-.79-.03-1.107.38a8.83 8.83 0 0 1-.863.982 9.17 9.17 0 0 1-.418.437c-.172.17-.315.346-.428.525a1.02 1.02 0 0 0-.17.56c0 .182.103.332.31.45l.136-.338c.246.062.414.08.52.142.04.025-.055.153-.09.233l-.417.078.04.037-.62.663c.06.023.105.062.105.11.007.173-.066.378-.143.746-.194-.18-.32-.276-.408-.38l-1.068 1.14a102.25 102.25 0 0 0-2.128 2.35c-.874.995-1.7 2.02-2.477 3.076a19.463 19.463 0 0 0-2.008 3.422c-.518 1.177-.878 2.236-1.08 3.174-.203.94-.226 1.832-.068 2.68.158.847.508 1.67 1.05 2.47.48.703 1.133 1.437 1.962 2.198l.328-.144c.068-.03.17-.024.194.004.02.026-.037.126-.09.16l-.24.153.153.137c.146.128.334.27.56.428.227.157.477.3.748.43l.007.003.233-.01-.073.087c.216.1.432.195.646.28.272.11.51.168.716.177-.367.39-.716.792-1.052 1.21.05.013-.015.14-.023.216l-.178.04c-.18.23-.356.466-.527.706l-1.666 2.337a.69.69 0 0 0-.188-.23c-.297-.345-.62-.393-.97-.143-.35.252-.63.522-.84.81-.063.072-.18.217-.35.434l-.522.67a4.3 4.3 0 0 0-.452.696c-.12.236-.158.4-.106.487.08.155.34.46.778.91.442.452.955.956 1.54 1.512l.29.256.073.066c.422.37.826.706 1.215 1.01l.1-.01-.053.046c.242.188.48.362.708.523.612.43 1.003.548 1.173.353a78.6 78.6 0 0 1 .466-.493 19.77 19.77 0 0 0 1.764-2.154c.252-.358.362-.594.332-.706-.033-.158-.138-.283-.316-.373a7.478 7.478 0 0 1-.516-.293l3.01-3.488-.175.046c.14-.173.24-.39.426-.507a.843.843 0 0 1 .23-.094l2.782-3.206a1910.54 1910.54 0 0 1 6.31-7.215 55.71 55.71 0 0 0 1.495-1.777c.487-.603.998-1.208 1.53-1.813.15-.17.37-.395.66-.677.29-.28.584-.592.883-.932l.036.032c.073.064.17.184.297.36.125.173.26.336.41.486.142.147.294.24.45.277.027-.195.127-.42.203-.635l.566.027.713-1.027.974-1.402zm-19.06 27.425c.527.376 1.04.772 1.533 1.186.495.413.964.858 1.406 1.332.46.405.93.786 1.41 1.145.48.357.953.76 1.416 1.21.147.13.33.14.552.033.222-.105.44-.256.657-.453.218-.197.414-.41.593-.638.182-.23.314-.392.398-.49-.062.073-.057.057.015-.05.074-.11.07-.09-.014.05l.465-.527c.16-.18.28-.367.36-.554a.814.814 0 0 0 .05-.535c-.046-.17-.22-.324-.527-.464-.213-.1-.35-.21-.417-.333-.064-.123-.147-.27-.25-.447l1.18-.865c.368-.275.722-.533 1.06-.774l.194-.21c.03-.032.113-.055.24-.093.296-.203.576-.386.834-.547.33-.205.562-.335.696-.39.285.166.542.35.773.552l.71.624c.29.254.57.51.838.768.268.256.537.525.806.804a35.912 35.912 0 0 0-1.262 1.952 45.358 45.358 0 0 0-1.4 2.473 3.044 3.044 0 0 0-.476-.45 1.573 1.573 0 0 0-.634-.268c-.16-.01-.35.058-.57.21-.22.15-.436.336-.65.555-.214.22-.41.444-.592.672-.18.228-.3.402-.36.52l-.416.473c-.17.193-.226.403-.165.628.08.202.253.385.515.55.263.166.455.327.58.478.37.41.79.8 1.26 1.17.468.37.9.75 1.29 1.136.12.106.29.267.51.48l.696.676c.244.236.474.45.693.64.217.193.374.308.467.348.186.034.387-.025.606-.177.22-.15.437-.335.65-.555.215-.22.412-.443.59-.672l.285-.353.044-.162.065.032.037-.042.033-.036c.398-.552.503-.964.314-1.238-.188-.274-.51-.567-.965-.88.332-.525.69-1.103 1.07-1.733.383-.63.748-1.265 1.096-1.905.35-.64.668-1.25.963-1.83.295-.578.544-1.057.748-1.436l-.03.034.725-1.195-.275.068c.057-.09.115-.18.18-.286l.286-.098 1.3-2.125-.067.04c-.152.084-.312.152-.47.228.07-.09.118-.203.216-.268.135-.09.298-.15.452-.22a383.886 383.886 0 0 1 3.224-5.165l3.72-5.88c.952-1.526 1.65-2.697 2.087-3.515.437-.817.7-1.448.786-1.886a2.07 2.07 0 0 1-.322-.22l-.29-.255a17.42 17.42 0 0 1-.736-.743c-.392-.41-.838-.854-1.337-1.336-.5-.482-.986-.93-1.458-1.345-.473-.415-.815-.674-1.027-.776-.422-.156-.798-.035-1.126.365-.33.398-.623.72-.882.966a9.54 9.54 0 0 1-.417.44 3.39 3.39 0 0 0-.445.543c-.124.19-.186.372-.187.543 0 .17.107.33.323.477.26.143.524.32.79.532.264.21.52.446.765.705a75.072 75.072 0 0 0-3.82 2.734l-1.02.774c.424-.04.62.15.6.548-.01.16.078.284.143.415.203.424.06.635-.71 1.088-.147.08-.256.142-.353.195a2.262 2.262 0 0 0-.335-.405c.545-.46.4-.957-.332-.754-.23.064-.455.122-.677.177l-.797.606-9.54 7.34c-.348.296-.73.584-1.146.862-.417.28-.834.534-1.254.767l.032-.036c-.447.238-.88.493-1.302.764.13-.01.228-.022.223-.007a2.407 2.407 0 0 1-.252.45c-.018.028-.154.066-.237.098l.086-.424c-.43.286-.847.588-1.25.907a3.982 3.982 0 0 0-.36-.286 5.962 5.962 0 0 0-.394-.248c-.145-.082-.28-.233-.408-.454-.13-.22-.302-.255-.52-.104-.22.152-.408.342-.564.568l-.455.664-.496.563-.086.1c.168-.058.335-.107.492-.15.434-.117.51.1.16.35-.4.285-.868.527-1.327.76a1.746 1.746 0 0 0-.124.352c-.052.232.028.42.244.567zm15.605-5.227l.754-.586-.097.034c.01-.046.018-.094.027-.142.086-.034.17-.07.256-.103-.004.022-.002.046-.002.07l1.128-.876.145-.216.127.004 1.87-1.454-.03.005c-.065.01-.034-.335.104-.45.835-.677 1.71-1.335 2.575-2 .86-.427 1.64-.918 2.416-.923.142 0 .235.06.348.09-.197.123-.397.28-.59.354-.217.084-.42.07-.64.134-.206.06-.48.144-.63.263-.506.398-1.004.802-1.498 1.207-.094.233-.216.46-.37.677-.167.24-.323.467-.47.683a29.38 29.38 0 0 1-1.68 2.423l-1.785 2.327c-.316-.278-.642-.53-.977-.76-.334-.23-.66-.484-.975-.76"/><path d="M96.916 177.508h-.07c-.137-.037-.293-.118-.468-.19.025-.17.02-.35.055-.333.167.07.344.193.52.3-.016.068-.015.188-.037.224zM48.95 90.982c-2.093 1.425-2.976 1.99-7.342 5.177-3.538 2.582-4.677 4.236-8.846 7.42-3.047 2.33-5.193 3.57-6.822 4.506-6.568 3.79-3.602 1.19.518-2.606 7.46-6.87 22.763-17.785 25.752-19.266 1.58-.782.458 2.234-3.26 4.764zM73.7 191.797c-.764.112-1.082.17-2.696.325-1.306.122-1.788-.153-3.34-.063-.68.04-1.23.13-1.687.226-3.63.774-1.847.996.407 1.084 3.004.117 7.752-.433 8.705-.774.554-.2-.03-1-1.39-.8zm-16.152-6.98c2.525.155 3.57.246 8.973.398 4.38.123 6.295-.488 11.54-.456 3.836.023 6.292.356 8.152.61 7.516 1.022 3.578 1.266-2.004 1.746-10.105.87-28.893.137-32.156-.525-1.73-.35 1.006-2.045 5.496-1.772zM42.464 167.28a2.162 2.162 0 0 1-.336.063c.038-.076-.117.002 0 0a.53.53 0 0 1-.11.13l.45-.032c-.12-.08-.057-.135-.004-.16.08-.023.044-.022 0 0zm8.962 4.15c-.114.786.06.94-.394 1.415-.804-.327-.497-.396-1.36-1.145-.293.523.25.727-.51.926-.18-.328-.848-1.805-.86-1.932.64-.383 1.407.194 2.353.205l.225-1.062c.982.69.47.353 1.623 2.8-.815-.202-.32-.338-1.076-1.21zm-2.14 2.728c-.02.034.003.096-.047.112-.24.073-.04.083-.098.22-.146.335.02.094-.175.4-1.045-.123-1.237-.45-2-1.016-1.006-.748-1.004-.573-2.096-.643-.6-1.03-.693-1.308-1.195-2.138-.375.235-.35.274-.784.416-.175-.205-.006 0-.16-.314l-.25-.504-.108.025c.058.055.11.17.202.412l-1.213.013a1.374 1.374 0 0 0-.295-.372c-.71-.032-1.422-.136-1.625-.25-.104-.06-.25-.184-.35-.267-.45-.367-.228-.062-.615-.564 1.1.267 1.912.445 2.61-.266l.245-.29c1.14.24 1.905.348 2.825.028.824.895-.352-.007.773 1.195 1.25 1.33.138.663 1.86 1.57.623.325-.2-.016.532.284.377-.66-.138-.485.564-.718.983.65.456.51.584 1.516 2.063 1.09.513.32 1.675 1.056.397-.384.707-.937 1.422-.61-.39.806-1.253.802-2.278.706zm.32-5.08c-.617-.787-.17-.286-.133-.463.038.04.156.1.113.116-.034.012.065.102.067.118zm7.417.657c-.3.06-.118-.257-.014-.24.173.026.607.12.013.24zm16.044-1.9c-.19-.247-.335.333-.14-.5.038.04.163.097.12.114l.07.248c0 .026-.04.085-.05.136zm-4.052 1.134c-.074-.886.01-.337.19-.572.07.908.002.3-.19.57zm-31.95.02c-.59.052-.256-.316-.088-.283.33.067.425.255.088.283zm20.13.116c-.317-.442-.227-.272-.045-.67.243.684.393.208.045.67zm-14.44-1.943l.014-.01c.01-.065.044-.146.095-.254.303.063.437.083.46.224l.127.035c-.235.236.375.27-.15.213l-.027.114c-.375-.102-.533-.135-.51-.316l-.01-.01zm-3.04.44l.877-.017c-.227.292.217.257-.325.26-.603 0-.096.055-.553-.244zm17.222 3.248c-.31.4-.43.385-.9-.186-.257-.897-.065-.09.06-.405.942.136.746-.112 1.376.433-.024.023-.014.07-.07.075zm11.45-.314c.846.12.393-.178.72.658-.566-.295-.246.044-.72-.658zm6.39-2.146c-.017-.028-.036-.072-.057-.077l.762-.138.306 1.153.222.763c-.625-.165-.175-.01-.58-.205a6.936 6.936 0 0 1-.256-.135c-.38-.22-.193-.118-.37-.247zm-26.465 1.166l.584.01c.146.912-.23.904-.584-.01zm24.545.17c.113-.61.113-.658.807-.277-.205.33.198.13-.267.256-.174.048-.343.026-.54.02zm-17.634-1.432c-.385-.527-.368-.345-.284-.945.003.002.314.053.47.466.137.357.07.43-.187.478zm4.547.24c.738.014.73.13 1.028.896-.746-.26-.576-.267-1.028-.897zm-13.14-1.61c-.002-.037 0-.073.01-.11l.02-.087.04-.59c-.294-.232-.265-.25-.644-.44-.436-.04-.242.017-.48-.182.58-.18.216-.167.48.182l.486-.06c.577.735 1.043.382 1.47 1.07-.545.51-.33-.042-.58.655l-.337.066c-.084.11-.168.09-.235.032-.227.015-.383-.05-.67-.26.142-.402-.06-.092.44-.277zm-8.97-.09l.856-.29.28.954c-.847-.187-.678-.117-1.136-.663zm20.17 3.102c.337-.293.227-.18.85-.176.227.874.432.74-.16.747-.414.004-.5-.27-.69-.57zm10.436-1.54l-.28-.93 1.162.19c-.273.534-.246.558-.882.74zm3.988 1.29l-.88-.16s-.172-.354.06-.647c.21-.272.097-.142.6-.136zm-17.717 4.176c-.07-.306-.29-.97.23-1.043.765-.11-.014-.057.406.114l.25.84zm4.642-.266l-.853-1.554.71-.128c.205.666.476 1.3.142 1.682zm8.79-.585c.114-.43.004-.55 1.562-.482l.44.08c.038.008.107.04.16.064l-1.596.494c-.656.014-.41-.078-.568-.155zm-11.927.448c-.537-.99-.64-1.566.302-1.332.658.86.403 1.24-.302 1.332zm3.486-2.59l-.458-1.44c.64-.233.646-.282 1.218.165-.15.34-.18.305-.338.707-.213.548.11.29-.423.57zm-4.645 1.06l-.356-1.053 1.39.034c.15.827-.225.995-1.034 1.018zm3.27 1.66l-.76.342c-.09-.466-.136-.737-.1-1.187.05-.646-.008-.607.61-.673zm8.974-1.9c-1.104-.286-.348-.344-.884-.51-.004-.002-1.05.124-1.257.123-.37-1.31-.554-.618 1.986-.578zm-.905 1.096c.565 1.316.427.723.296 1.198l-.62.124c-.15-.803.21-.393-.007-1.474-.59.104-.286.124-.696.475-.056-.566.086-.42.222-1.145l1.098-.036c-.082.71-.13.313-.292.858zm5.868.29c-.744-.848.326.68-.286-.577l-1.447-.284c-.253-.517-.46-.52-.09-1.278l.403.183c.078.02 1.897-.088 1.958 1.7zm-30.168.55l-.218-.516c-.915 1.176-2.282-.246-1.518-1.047l.853.13c.125.027.22.045.298.055l-.25-.595c1.18.105.562.188 1.527.8l.26-.716.8.278.375 1.594c-.14-.05-1.51-.31-2.026-.036-.022.008-.067.044-.102.053zm.166-36.148l.165.603s.288.033.51-.21c.203-.22.105-.107.08-.47zm1.145 1.897c-.72.178-.24.074-.444.284.704-.172.265-.093.445-.284zm.59-.15c-.41.336-.432.322-.55.83l.75-.03zm-4.324 16.113c-.025.025-.075.023-.086.066-.05.193-.064.047-.17.125-.26.19-.076.008-.31.23.14.73.41.785.888 1.197.63.545.495.587.596 1.364.838.178 1.06.174 1.74.33-.172.332-.203.323-.297.677.17.075.002.004.257.038l.408.053c-.127.578.086 1.962.262 2.17l.144.127.084.062.085.062c.37.262-.213.016.383.243-.255-.733-.428-1.282.105-1.97l.22-.253c-.237-.77-.355-1.3-.14-2.05-.742-.373.02.253-.977-.26-1.103-.572-.53.067-1.318-.958-.285-.37.02.14-.248-.315.507-.443.39-.023.548-.592-.557-.553-.425-.204-1.227-.042-.947-1.225-.273-.29-.905-.95.287-.388.714-.754.426-1.19-.623.486-.584 1.115-.465 1.837zm.002-16.852c-.174.03.393.195 0 0 .05-.01.163-.005.383.022l.286.982c.418.053.43.203 1.014-.257l-.16-.25c-.02-.052-.01-1.405-1.427-.993l-.182.456c.033.015.06.03.086.04zm.316 1.286l-.326 1.287c.016.48.08.28.146.374.336-.19.434-.14.317-1.26l-.08-.3zm.737 2.445c-.557.24-.24.174-.667.43-1.063-.076-.588-.126-.957.09l-.073.483c.643-.095.303-.252 1.166-.37-.057.46-.085.242-.347.63.45-.104.33-.17.895-.452zm1.245 6.712c-.303.328-.284.41.185.61.72-.04.074.02.32-.15-.15-.65.054-.568-.4-.89-.017.024-.058.028-.06.07zm1.05 4.15c-.586-.54-.3-.25-2.282-.47.194.54.28.15 1.002.475-.618.286-.746.197-1.103.65.29.5.332.26.96.7-.4.345-.586.002-.71.604.265.05 1.462.16 1.562.137.274-.564-.212-.977-.26-1.662zm.298 1.383c-.73.125-.706.396.033.423zm.967 4.334c-.267.255-.093.27.065.074.19-.237.097-.228-.065-.074zm-3.24-11.136c-.537.022-1.05-.015-1.336.326l1.26.225zm-.076.867l-1.212.203-.24.64c.37-.053.587-.087.942-.227.51-.2.48-.148.51-.615zm.018 1.15c-.71-.26-.997.02-1.04.56.804.137 1.262.066 1.04-.56zm-.592 1.058l-.674.033-.033.665c.245-.024.777-.033.814-.43.057-.586.047-.005-.108-.267zm1.205 8.142l-1.275.13c.043.092.306 1.024.11 1.468l-.037.09 1.597.104c-.13-.834-.173-.36-.697-.908l.557-.375zm.314 4.145l-.99.237c.564.467.446.72 1.133.836.33-.693-.643-.94.657-1.032l.267.955c.698-.045 1.46-.054 1.225-.55-.024-.01-.07-.04-.078-.018l-.165-.005-.092.018c-.414.08.147.033-.4.106-.664-.623-.236-1.12-.81-1.68-.41.176-.604.727-.746 1.134zm.8 1.957c-.442-.735-.683-.593-1.69-.787.286.417.727.85 1.062 1.262.336.41-.27.89.78 1.034.553-.722.528-.376-.152-1.508zm-.433-18.388c-.42.292-.23-.01-.43.45l1.16-.034c.157-.525.196-.54-.18-.845-.264.194-.234.21-.55.43zm.655-.833c.236.476.234.35.75.52-.042-.534-.13-.5-.75-.52zm-.172 1.622c-.702.057-.603-.128-.584.306.01.303.23.297.478.357.218-.32.133-.21.105-.664zm1.187 6.363c-.01.028-.08-.023-.095-.02l-.18.094c.65.25.232.052.37-.022-.033-.017-.086-.088-.095-.052zm-.91-5.217c-.03-.118-.12-.412-.192.053-.035.233.21.018.19-.054zm.28-13.78l-.922.067-.612.033c.156.413.016.125.185.37l.118.153c.187.222.1.11.21.206l.882-.262c.023.004.06.007.065.02zm-1.352 14.946c-.663.1-.778.417-.763 1.01l.846-.007-.082-1.002zm3.353 15.413c-.572-.317-1.556-.238-1.497.317.3.078 1.232-.227 1.498-.317zm.195 2.34c-.318-.09-.377-.02-.654.024l.036.446.903-.083c.03.59-.182.39.32.524.104-.143.232-.013.097-.33zm.518 2.568c-.695-.195-.278-.01-.427.076.14.064.013.053.258.026zm-1.543-7.075c-.067-.223-.22-.244-.23.008-.016.443.264.107.23-.008zm-.62-14.768c-.55-.002-.18-.232-.532.137.365.12.224.096.533-.137zm2.268 13.095l-.767.04c.183.568.122.462.574.657zm-.665-2.937c.147-.284.133-.088-.028-.507-.19.254-.237-.285-.142.28.047.3-.022.09.17.228zm-.248 1.684c-.22.24-.21-.092-.19.302.023.44-.04.085.213.342zm-4.03-19.856c.676.025.42-.23.552.357-.576-.167-.294-.018-.552-.357zm1.193-3.764c-.254.233-.112-.11-.193.257-.03.14-.004.257.005.4.48-.237.517-.25.187-.658zm2.044 12.883c-.287-.008-.34.06-.37.258.434.146.287.183.76-.032-.003 0-.056-.214-.39-.225zm.88 5.795c-.576.34-.1.393-.098.397.08-.002.23.023.374-.055.315-.173.14-.007.244-.297-.008-.004-.058-.32-.52-.045zm-3.895 12.174c.866.18 1.208-1.352-.302-1.28l.144 1.013c.09.278.032.115.157.267zm-7.13-7.028c-.133-4.17-.01-8.9-.136-12.883-.082-2.62-.455-4.582-.44-7.035.007-1.444.003-2.802-.014-4.077-8.942 8.043-6.246 8.727-13.863.617-6.04-6.426-3.134-5.192 4.822-12.16 4.554-3.988 7.673-8.142 12.024-12.213 4.188-3.92 9.84-8.247 14.397-12.127 4.056-3.463 7.007-6.494 10.94-9.898 9.183-8.46 9.86-8.582 18.416.124 4.27 4.286 7.385 8.216 11.84 12.174 3.854 3.422 9.034 6.89 12.944 10.346 1.697 1.5 2.926 3.142 4.64 4.694 2.232 2.02 5.456 4.257 7.64 6.352 7.367 7.07 7.774 5.19.94 11.768-6.345 6.1-4.313 6.504-10.16.736a287.96 287.96 0 0 0-3.605-3.493l.018.4c.143 2.86.283 6.023.39 9.404.155 4.852.247 10.154.195 15.646-.048 5.127.117 8.893.08 11.675l-.045-.07c-.406-.654-.52-.42-.513-.065.004.314.14.987.24 1.073.098.088.192.18.282.28-.31 6.86-2.68 6.653-15.95 7.195-15.233.625-25.106.196-33.786-.004-24.49-.56-20.5 6.176-21.282-18.47zm61.98-40.534c-.08.306-.885.698-1.117.806-.012-.747.59-1.408 1.118-.806zm-.948-2.032c-.417.478-.83 1.042-1.205.368.004-.03-.002-.095.024-.078l.082-.13.066-.05c.3-.232-.046.144.318-.193-.27-1.128-.995-1.306-1.252-2.3.393-.13 1.05.275 1.533.58l.763-.507c.17.892.488 1.062.24 1.693-.874-.452-.603-1.433-1.388-.545zm-2.428-2.466l.05.236.02.125.015.127c.065.542.13-.142.037.533-.6-.93-1.056-1.61-2.03-1.903l-.37-.09c-.648-.95-1.118-1.575-1.987-2.17.02-.932.245.27.26-.996.014-1.403.35-.33-.26-1.953-.22-.586.132.157-.185-.504-.713-.066-.23.27-.883-.186-.258-.974.02-.522.608-.962-.726-1.946-.146-.5-.472-1.638-.542-.175-1.136-.222-1.422-.88.822.023 1.433.687 2.094 1.502.037.002.063-.034.11 0 .22.157.083 0 .217-.002.33-.004.048-.05.395-.002.658.84.572 1.098.73 1.872.21 1.022.326.963 1.054 1.82-.27.81-.393.974-.597 1.64.426.206.433.173.838.458-.017.203.004.004-.1.23l-.163.36c.648.487 1.924 2.038 2.04 2.38zm2.387 6.588c-.21-.55-.42-.292.07-.544.075.378.12.174-.07.544-.013.476.02.47.097.928l.813.742c.474-.19.04-.358.525-.06.097.704-.016.735-.5 1.1-.83-.515-.164-.123-.964-.226-.462-1.015.14-1.006-.292-2.18zm3.5-1.103c-.068.037-.047.01 0 0 .027-.018.075-.05.144-.1a.546.546 0 0 0 .098-.087c-.097-.05.066-.086 0 0 .03.015.088.03.187.046l-.272.304c-.018-.17-.106-.178-.16-.165zm-10.507-6.88c-.367-.177-.16.01-.497-.533.356.11-.16-.464.36.176.27.335.098.07.137.357zm-3.185-3.397c.648-.09.447.32.45.325-.045.058-.1.198-.253.227-.342.064-.08.097-.428-.115 0-.01-.29-.365.23-.437zm8.46 7.13c.454.434-.03.304-.128.164-.19-.275-.13-.41.13-.164zm-2.236-.814c.473.706.4.555.355 1.09l-.803-.556zm-.586-.744l-.633-.667c.36.075.02-.252.405.16.428.46.107.055.228.506zm-8.302-12.435l-.96-1.07c.45-.396.83-.165 1.42.444zm-1.715-1.822c.487.1.562.197.513.753-.426.5-.02.076-.32.09-.574-.766-.6-.533-.682-1.2.035.013.06-.013.102.03zm5.242 7.03l-.406-.45c.515-.42.772-.13.406.45zm-5.76-4.857c-.082.475.03.4-.435.54 0-.005-.186-.257-.02-.518.145-.226.242-.197.456-.02zm18.362 17.608c-.566-.41-.52-.447-.373-.9.553.284.508.373.374.9zm-19.1-20.157c-.44-.16-.283-.112-.724-.59.43-.47.195-.58.62-.13.296.315.173.475.103.72zm7.964 5.71c-.094.246-.618 1.258-.695 1.31-.714-.36-.867-1.142-1.53-1.867l-.877.188c-.23-.984-.093-.477.742-2.188.44.69 0 .36-.055 1.23.615-.178.595-.36 1.237-.177.35.726.085.512.192 1.428.562.048.314-.44.987.076zm-2.98-4.53c-.156.16-.452.55-.87.18-.616-.55-.028.03-.208-.35l.39-.474zm-1.34-1.01c-.29.745-.606 1.018-1.116.218.116-.793.553-.726 1.116-.22zm-1.373-.715c-.473.182-.403.212-.888-.238l.85-.707.77.464c-.25.23-.4.357-.732.48zm-.76-1.73l-.445 1.177-.59-.497c.304-.383.54-.807 1.035-.68zM98.03 123l-.56.597c.575.615.485.255.354.768-.2-.066-.138.16-.385-.26l-.21-1.112c.08-.33.18-.304.37-.47zM78.71 99.714l-.653.836c-.61-.41-.646-.397-.75-.987.333-.002.333.034.718.02.522-.024.118-.184.686.13zm24.368 24.01l-.66.902c-.54-.88-.253-.507-.06-1.183.14-.49-.05-.49.183-1.105.432.768.203.696.538 1.387zm-3.858-4.006c-.28.83-2-.452-1.124-1.515l.94 1.127c.232.347.1.14.184.388zm-1.522.335c-1.018-.312-.66.018-1.435-1.634-.503-1.072-.23-1.112.11-2.062.267.632.468 1.398.702 2.067.234.665 1.037.692.623 1.627zm-4.632-7.816l-.744 1.304c-.768-.936-.272-.493-.543-1.437l-.672.044-.376-.706.81-.824c.068.123.863 1.257 1.413 1.56zm11.558 11.532c1.307.25 2.02 3.102-.21 2.012-.424-1.084-.4-.383-.113-1.24zm-12.596 52.806l-.57-.215c-.03-.11-.043-.24-.016-.246.083-.016.214.017.316.114.092.09.185.216.27.348zm-4.155-1.972l-.03-.017.063-.005c-.12-.233-.243-.466-.364-.7.117.063.237.124.353.183l-.03.492.01.048zm-8.135-6.42a60.2 60.2 0 0 1-1.25-1.278c.03-.114.075-.19.143-.19.184.012.532.374.773.673.147.173.227.52.333.79v.002zm-20.885-47.707l.024-.434c.038.04.077.086.11.133.056.08.037.282.05.43zm.303-3.04l.102-.602c.056.085.112.175.166.267.1.17.106.416.152.626zm15.276-9.983c.47.166.942.354 1.42.564.313.693.076.98-.167 1.13-.14.09-.568-.358-.627-.396-.365-.587-.563-1-.626-1.298zm-14.07 18.183l.044-.052-.06-.008c-.135-.023-.274-.044-.413-.07a11.533 11.533 0 0 0-.104-.336c.175.157.356.312.532.468zm3.274-16.36c-.032-.1-.06-.196-.09-.297.017.09.035.183.054.274.096.233.192.467.297.705.08.072.148.14.22.215l-.257-.23c.223.137.443.277.666.412-.08.19-.104.55-.255.527-.335-.05-.73-.235-1.113-.496-.172-.116-.37-.544-.56-.83.182.1.37.134.54.303.85.843.282-.47.5-.582zm36.283 28.084c-.005-.055-.008-.116-.012-.173.046.036.11.064.134.11.025.047.01.112.014.17a6 6 0 0 1-.136-.106zm-24.094-23.42l-.054.03a12.062 12.062 0 0 0-.102-.257c.04.032.083.052.12.095.02.025.025.087.036.132zm6.003 12.133c.032.06.063.122.097.18a4.256 4.256 0 0 0-.13-.08l.07-.072-.09-.292c.02.09.034.18.052.265zm9.493 1.06c-.038-.028-.077-.06-.115-.09 0-.046-.015-.12.004-.127.018-.01.07.048.11.077v.14zm-7.817 35.926c.037.027.088.05.107.084.018.038.005.09.01.134-.04-.028-.09-.05-.11-.087-.017-.035-.006-.085-.006-.13zm6.455-.52c0-.048-.013-.122.003-.13.018-.008.07.05.106.075 0 .048.017.12-.002.13-.015.01-.068-.05-.108-.076zm-.02-4.35c.002-.043-.01-.113.008-.12.018-.008.07.053.106.082 0 .043.01.113-.007.12-.02.008-.07-.053-.106-.082zm2.406 5.834l.095.118-.06.024zm3.384-1.646c0-.046-.002-.09-.004-.14.036.032.09.058.107.095.02.04.008.092.01.138-.038-.03-.076-.06-.113-.092zm-3.55-17.73c-.08-.092-.163-.178-.238-.28-.015-.025 0-.104 0-.153.077.086.16.168.227.27.02.03.007.106.01.163zm8.462-5.16c-.03-.106-.062-.21-.096-.315.042.033.1.06.114.096.045.102.07.205.103.306l-.12-.09zm-10.37 9.08c-.06-.026-.158-.05-.172-.08-.04-.096-.05-.2-.073-.3.038.02.098.027.114.055.052.1.086.207.133.324zM67.456 130.7c.004-.045.01-.087.016-.13.056.056.107.11.158.165-.016.03-.028.083-.062.08-.023-.002-.073-.075-.11-.115zm.596 17.236l.01-.238c.078.084.17.16.23.26.025.045-.007.146-.014.22l-.225-.242zm.864-9.41c.016-.027.028-.085.042-.072.04.033.08.092.12.144a4.417 4.417 0 0 0-.074.115c-.028-.063-.06-.127-.088-.187zm1.968 5.712c-.02-.055-.038-.115-.057-.173l.187.135v.16c-.045-.043-.087-.08-.13-.122zm20.46 23.188l-.003-.004v.002c.03-.007.06 0 .074.015.376.488.826.994.625 1.525l.03.022c-.04-.055-.086-.1-.127-.16-.282-.418-.81-.717-.697-1.326.007-.04.053-.066.095-.075zm1.175-4.195l-.084-.343c.045.03.12.064.127.086.042.12.065.238.094.36-.046-.034-.09-.07-.137-.102zm12.325 1.602c.035.018.073.033.105.053-.005.037 0 .097-.022.107-.022.007-.07-.032-.105-.05l.022-.11zm-14.988-15.51a3.13 3.13 0 0 0-.01-.165c.082.095.17.18.25.285.013.023 0 .105 0 .157a35.24 35.24 0 0 1-.24-.277zm2.393 10.41a7.867 7.867 0 0 0-.064-.302c.016.045.04.1.042.136.002.05-.01.093-.018.138l.022.017-.023-.015c.24.367.476.734.716 1.1-.065.05-.13.1-.198.15-.16-.406-.317-.815-.478-1.222zm13.13-10.634c.07.02.14.04.207.062.005.054.03.15.015.15-.058 0-.13-.028-.196-.05l-.026-.162zm-37.27-36.064c-.027.008-.05.04-.08.02-.032-.03-.066-.1-.1-.152.044-.013.083-.025.125-.035.017.056.035.112.055.167zm28.426 59.8c.007-.08.002-.167.024-.224.01-.024.1.014.105.03.042.096.07.196.103.293-.075-.03-.147-.064-.23-.1zm.413-15.947l.223.174c-.015.113-.033.22-.048.328-.072-.09-.178-.18-.208-.266-.03-.083.018-.158.032-.235zM78.57 131.41c-.036-.177-.1-.358-.07-.38.06-.05.17-.01.256-.01.026.112.098.29.072.317-.055.062-.16.05-.257.07zm-8.09 18.99a8.71 8.71 0 0 1 .04-.266c.086.115.203.23.248.346.035.085-.03.17-.047.254l-.24-.333zm6.796-4.39c.07.057.138.116.21.174-.033.103-.057.208-.087.31-.07-.088-.186-.21-.19-.262-.015-.096.04-.15.066-.22zm12.273-3.4c.032-.06.048-.17.102-.163.053.007.15.136.225.212-.035.057-.05.162-.11.16-.048 0-.142-.134-.218-.21zm6.995-6.935c-.045-.126-.093-.248-.138-.373.07.014.168-.008.207.05.063.097.09.244.135.368l-.205-.045zm-5.16 7.05c-.13-.06-.265-.096-.282-.132-.062-.164-.09-.328-.13-.49.08.028.205.045.228.094.082.166.123.34.186.53zm-13.09 4.662c-.07 0-.14.004-.21.007-.02-.115-.07-.27-.05-.327.023-.052.127-.003.192 0 .024.107.047.214.068.32zm24.354-6.32c.075.104.183.202.224.302.028.07-.03.147-.054.22-.077-.09-.194-.194-.215-.27-.026-.097.024-.17.043-.252zM70.71 116.81c-.075-.067-.207-.164-.215-.197-.022-.13-.005-.238 0-.35.08.094.19.184.235.283.034.08-.008.176-.02.264zm20.706 46.24c-.01-.17-.026-.345-.014-.338.12.062.25.155.373.24-.01.084.01.24-.032.24-.085 0-.205-.084-.327-.143zm-16.92-32.417c.07.1.164.207.198.303.04.117.03.23.043.345-.095-.125-.212-.247-.27-.377-.038-.08.016-.18.027-.27zm-6.147-22.187c.046-.11.067-.24.133-.302.02-.02.148.136.224.21-.015.134-.03.266-.048.398l-.31-.306zm-.62 33.61a6.275 6.275 0 0 1-.204-.017c-.03-.11-.096-.265-.077-.316.018-.05.124.007.19.017.03.106.062.21.09.315zm2.447-2.425c-.028-.166-.09-.405-.087-.59 0-.05.188.055.29.09.05.298.097.59.142.887l-.345-.386zm8.57-5.438a3.04 3.04 0 0 0-.475-.185c-.012-.002.03.177.06.352.12.033.233.06.337.082a.26.26 0 0 1 .14-.015 2.202 2.202 0 0 0-.063-.235zm24.71 21.652c-.168-.136-.332-.267-.496-.42-.01-.01-.023-.274-.007-.264.16.078.33.19.495.294l.01.39zM75.73 114.268c.043-.094.062-.232.1-.207.13.08.265.22.4.34-.032.088-.048.275-.09.25-.13-.078-.266-.243-.41-.382zm-11.753 8.276l-.394-.182-.112-.603c.123.07.27.096.356.223.078.112.093.328.15.56zm25.93 29.098c-.125-.06-.245-.083-.364-.184-.04-.034-.08-.258-.12-.394.126.077.254.14.378.245.035.028.065.192.108.332zm-17.922-6.8c.132-.21.21-.337.288-.465.145.208.29.418.433.628-.112.04-.212.115-.344.11-.072-.003-.196-.138-.377-.272zm19.637 2.446c.09-.097.142-.257.215-.21.105.068.222.292.337.448-.045.075-.077.24-.138.203-.11-.067-.24-.25-.414-.442zm-17.004-8.24c.022-.254-.008-.485.046-.48.122.01.286.145.43.227.02.148.085.414.04.42-.113.017-.28-.082-.516-.166zm-5.452 12.476c-.186-.145-.334-.204-.412-.33-.08-.135-.093-.33-.135-.5.106.067.242.098.32.21.09.13.127.335.226.62zm1.683-13.703c-.032-.237-.097-.546-.062-.538.122.022.283.154.427.243.002.15.05.375-.002.44-.047.052-.21-.077-.363-.144zM84.6 167.44l.516.116c.008.22.086.542.007.625-.066.082-.302-.096-.464-.163-.017-.184-.037-.367-.058-.577zm20.158-4.194c-.118.19-.206.358-.317.495-.014.017-.137-.138-.212-.215.074-.19.14-.384.225-.554.007-.016.136.123.305.276zm-5.506-2.634c-.26-.3-.447-.463-.465-.553-.058-.27-.05-.504-.068-.754.122.168.278.33.35.504.086.206.1.418.182.802zm-33.842-36.146c.225.21.398.315.514.49.074.114.063.326.088.495-.156-.104-.32-.172-.463-.33-.06-.067-.072-.323-.138-.654zm.125 6.12c-.002-.337-.002-.586-.002-.833.103.088.287.21.295.254.065.283.09.553.108.81 0 .015-.202-.117-.4-.232zm8.376 29.823c.092.137.2.268.275.415.114.222.204.455.306.684-.126-.107-.286-.18-.374-.322-.132-.216-.217-.475-.32-.716a1.68 1.68 0 0 1 .113-.063zm7.192-15.852c.013-.43-.01-.655.036-.797.017-.05.207.11.316.175.03.246.096.526.078.73-.007.07-.213-.047-.43-.107zm18.1 7.328c-.004-.285-.04-.56-.006-.55.204.09.42.226.635.382.04.03.087.224.13.346-.224-.05-.45-.105-.76-.178zm-16.92 12.256c.327.39.53.604.696.856.057.086.04.433.01.417-.19-.097-.408-.217-.59-.425-.066-.08-.06-.414-.116-.848zm15.906 1.928l-.026-.464c.226.27.453.533.672.82.02.026-.02.186-.035.287-.212-.225-.423-.45-.61-.643zm-35.734-38.423c.19.197.38.337.403.422.056.225.04.427.055.636a59.92 59.92 0 0 1-.463-.37c0-.202 0-.4.004-.69zm14.906-.633c.1-.348.135-.59.228-.74.037-.06.217.086.333.14.047.297.102.605.126.888 0 .03-.194-.078-.688-.288zm-6.17 29.208c.07-.034.142-.066.214-.1-.33-.587-.66-1.176-.993-1.76-.007-.015-.093.015-.092.017.212.502.428 1.002.643 1.505.08.114.155.224.228.336zm31.305-11.582c.41.343.707.558.99.858.07.078.086.43.128.653-.304-.273-.61-.534-.91-.842-.065-.066-.1-.304-.208-.668zm-10.45 25.12c.186-.342.234-.563.363-.618.08-.037.287.172.436.27-.004.187.054.502-.027.534-.14.054-.37-.074-.773-.185zm9.96-14.397c-.363-.273-.632-.38-.75-.59-.12-.207-.114-.547-.098-.766.004-.046.347.124.44.28.15.25.22.565.407 1.076zm-8.02 4.218c.044.17.095.35.146.534-.126-.063-.285-.068-.37-.187-.362-.508-.7-1.053-1.038-1.588-.012-.02.085-.195.098-.182.38.454.755.92 1.162 1.422zm-25.48-27.972c.116-.488.16-.81.273-1.045.02-.046.436.32.45.385.058.317.117.7.028.857-.067.118-.36-.08-.75-.197zm30.06 6.558c.324.34.56.507.69.743.132.238.163.544.238.82-.244-.163-.51-.26-.72-.518-.108-.13-.115-.544-.21-1.046zm-18.486 28.33c-.167-.398-.32-.734-.443-1.067-.038-.1-.025-.247.015-.28.038-.026.18.06.226.136.186.314.393.646.515.97.107.284.114.566.165.85l-.477-.61zm.085-38.052c-.307.31-.452.5-.633.622-.098.068-.248.077-.396.005-.054-.025-.243-.415-.24-.525.006-.173.087-.344.203-.342.247 0 .54.113 1.065.24zm7.75 42.385c-.344-.136-.7-.25-1.07-.453-.07-.04-.2-.452-.3-.694.12.04.288.02.353.124.378.58.582.593.743.287.028-.05.222.125.336.198l-.06.537zm-15.48-17.333l1.683 3c.104.19.186.385.28.578-.126-.195-.27-.396-.377-.588-.533-.973-1.054-1.948-1.58-2.917a.943.943 0 0 1-.005-.074zm-5.238-21.255c.315.25.572.405.797.66.064.07.12.657.057.646-.287-.038-.62-.2-.934-.323.022-.267.045-.538.08-.983zm6.47 16.908c-.238-.766-.424-1.23-.495-1.635-.038-.207.126-.306.198-.455.182.274.515.667.517.8.008.415-.11.73-.22 1.29zm21.254-15.248c.032-.42.043-.744.095-1.018.007-.02.413.308.428.386.085.385.102.743.142 1.114l-.663-.482zm7.69 13.206c.002-.385-.06-.682.014-.756.344-.35.8.357 1.207.87.095.12.115.414.168.628l-1.386-.742zm-10.69-14.384c.524.53.898.818 1.182 1.23.115.17.155.808.035.885-.35.226-.672-.496-.93-.98-.13-.25-.147-.56-.286-1.136zm-1.83 2.464c.6.705 1.014 1.17 1.403 1.69.067.087.087.51.008.588-.196.2-.91-.52-1.23-1.254-.097-.217-.084-.455-.18-1.024zm-24.86-1.118c.19.513.307.824.422 1.138-.344-.143-.69-.284-1.035-.426-.04-.494-.082-.992-.124-1.485l.737.773zm.632-5.953c-.428-.004-.798.008-1.186-.038-.045-.006-.252-.356-.303-.525-.23-.8.765-.352.242-1.464.123.098.27.162.36.3.272.42.53.864.776 1.314.078.144.09.33.112.414zm4.314 14.26c-.248-.44-.533-.878-.735-1.33-.09-.196-.02-.426-.025-.64.164.15.385.265.486.454a93.7 93.7 0 0 1 1.495 2.87c.065.133.032.305.045.46-.128-.1-.29-.16-.375-.297-.305-.495-.584-1.018-.87-1.528a.227.227 0 0 1-.02.013zm27.22 3.18c.322.642.705 1.286.94 1.922.113.308-.053.603-.09.906-.234-.31-.585-.644-.676-.93-.203-.632-.278-1.24-.405-1.857.08-.015.153-.03.23-.042zm3.118 20.254c-.67-1.16-.87-2.034-.573-2.272.052-.044.24.044.305.145.484.735.946 2.153.73 2.268-.114.063-.353-.103-.46-.14zm-11.55-33.197c-.64-.432-1.1-.74-1.55-1.045.016-.327-.063-.797.065-.947.26-.306.676-.248 1.126.662.15.303.18.65.358 1.33zm10.125 37.833c-.032-.186-.216-.73-.14-.957.135-.38 1.074.253 1.315.925.14.396.78 1.08.36 1.328-.355.21-.895-.184-1.536-1.297zm-9.682 1.316c.51.852 1.03 1.695 1.522 2.56.105.18.19.586.134.63-.088.074-.304-.01-.466-.144-.943-.79-1.456-2.153-1.154-3.025zm-23.585-59.375c.358.54.792 1.107 1.132 1.732.197.362.245.814.36 1.225-.4-.138-.794-.155-1.207-.45a1.147 1.147 0 0 1-.414-1.164c.092-.357.084-.832.13-1.343zm5.563 9.433a1.89 1.89 0 0 0-.328.35c.012.047.022.096.03.144.06.043.118.086.177.127.152-.135.32-.242.498-.318-.087-.14-.18-.285-.273-.43a.415.415 0 0 1-.104.128zm31.32 39.122c-.42-.445-.846-.746-1.068-1.162-.29-.536-.474-1.184-.608-1.745-.147-.63.166-.73.513-.212.466.698.838 1.537 1.21 2.328.08.17-.014.388-.048.792zm-23.6-39.204c-.28-.633-.555-1.267-.833-1.898.475.45.95.892 1.426 1.355.18.176.353.424.536.59.375.343.75.655 1.127.98-.344-.033-.795-.248-1.013-.067-.446.362-.804-.09-1.243-.96zm-7.72 17.8c.072-.133.143-.26.216-.39a4.64 4.64 0 0 0-.09-.12c-.06-.087-.187-.17-.224-.15-.053.028-.085.15-.06.253.068.256.17.523.1.31.02.034.04.062.058.097zm2.338-11.07l-1.576-3.168c-.152.24-.288.526-.408.833.19.264.38.532.576.788.39.52.832.924 1.41 1.55zm10.087-10.082c-.39-.823-.638-1.237-.75-1.61-.098-.345-.046-.647-.06-.97.205.2.432.363.606.61a43.17 43.17 0 0 1 1.435 2.183c.115.188.195.565.156.7-.034.124-.254.142-.388.026-.41-.343-.824-.774-.997-.94zm5.397 8.398c-.577-1.26-1.247-2.405-1.217-3.522.007-.2.095-.33.146-.494.166.288.384.585.48.866.11.316.08.608.162.93.078.296.184.694.35.914.89 1.215 1.8 2.39 2.71 3.568.124.16.35.27.398.4.166.442.324.917.37 1.306.01.094-.483.035-.643-.173-.935-1.23-1.84-2.525-2.756-3.796zm-6.33 16.73c-.115-.114-.234-.174-.354-.262.017.183 0 .3.04.42.2.616.42 1.237.623 1.853.212-.172.42-.348.63-.514-.29-.62-.645-1.198-.94-1.496zm1.75-12.275l.016.006a29.78 29.78 0 0 0-.227-1.002c-.258-1.062.462-1.248 1.102-.44a3.12 3.12 0 0 1 .598-.465c-.072-.144-.155-.303-.264-.52-.616-1.126-.913-1.344-1.533-1.07-.193.087-.374.206-.605.186-.69-.058-.96.354-.75 1.264.194.83.883 1.713 1.662 2.038zm-17.155-7.957c.26.11.443-.125.658-.208.18-.07.27-.32.366-.562-.012-.06-.028-.124-.044-.19-.5-.677-1.035-1.265-1.558-1.904.09.572.11 1.096-.12 1.457-.197.31.26 1.218.698 1.405zm.61-6.715a.49.49 0 0 0-.09-.067c-.453-.254-1.055-.688-1.292-.515a.48.48 0 0 0-.14.202c.515.15 1.018.272 1.52.38zm-26.713.202c2.432-1.95 21.967-18.827 22.83-19.664 3.27-3.157 6.286-5.825 7.777-4.26.58.606 2.057 2.25 2.507 2.732 1.788 1.916.797 1.96.303 1.664-1-.604-2.514-1.336-3.392-1.64-2.516-.866-4.35 1.96-9.065 5.124-1.133.76-19.335 15.92-20.418 16.633-.49.316-.952.637-1.368.97-.662.534-.648-.378.823-1.56zm11.393 42.152c-.04-1.674-.116-3.325-.11-4.82.03-5.94-.768-5.72 3.284-5.71.74 0 1.643.006 2.734-.018 6.76-.154 7.095-1.23 7.213 1.776.023.565.217 1.437.25 2.316.03.792-.166 1.825-.147 2.78.023 1.07.193 3.396.14 4.586-.17 4.032.668 3.373-2.906 3.56-2.892.148-4.766.048-6.413 0-4.653-.136-3.893 1.492-4.043-4.47zm22.626-.33c-.042-1.676.29-3.808.296-5.303.007-1.637-.452-2.33-.452-3.163 0-1.223.122-1.728.74-1.933l-.02-.055c.017-.467-.06-.998-.274-1.6.3.488.57.992.766 1.56.49-.056 1.173-.042 2.118-.04.74 0 1.64.003 2.734-.02 6.31-.146 7.177-.95 7.362 1.39v.012l.036.207-.022-.026c.037.62.042 1.436.083 2.508.066 1.687.127 3.807.11 6.065-.015 2.102.086 3.258-.085 3.912h.005c.045.234.13.5.128.695-.014.975-.048 1.936-.08 2.896 0 .103-.02.283-.044.263-.352-.243-.72-.454-1.06-.805-.277-.284-.528-.744-.926-1.322.286-.195.428-.47.672-.417.362.076.643.214.488-.547-.453.11-1.124.134-2.12.185-.596.03-1.15.052-1.666.064.04.218.08.434.106.644.002.018-.225-.106-.456-.217l-.03-.42c-.893.015-1.676.005-2.387-.01l.285.247c-.015.185-.004.406-.066.53-.02.04-.232-.17-.353-.268l-.01-.514c-.663-.017-1.263-.04-1.837-.058a20.97 20.97 0 0 0-2.253.06c.037.158.064.317.103.475-.125-.087-.254-.172-.403-.273l-.054-.176c-1.718.117-1.327-.11-1.437-4.553zm.013-18.253c-.042-.762-.31-1.66-.302-2.34.003-.547.17-.83.156-1.17-.044-1.022.03-1.228 1.507-1.267a1.81 1.81 0 0 1-.603-.365 6.052 6.052 0 0 1-.085-.64c-.023-.322-.02-.622-.027-.93l.553.884c.205.356.422.7.64 1.044h1.336c.74 0 1.64.002 2.732-.008l.988-.013c.015-.087.03-.174.052-.255.002-.01.113.077.115.09l.028.162a219.3 219.3 0 0 0 2.656-.064c-.058-.197-.12-.42-.205-.692.337.32.574.475.718.68 3.365-.088 2.947.036 3.11 1.95.05.584 0 1.12-.037 1.796.033.073.057.165.087.242l-.095-.048-.015.486c-.008.483.186 1.135.187 1.423.004 1.01-.232.997-2.85 1.058.024.108.047.214.02.252-.05.073-.183.028-.35.034.02-.11.03-.203.04-.28-2.833.067-4.684.018-6.312-.002-4.65-.06-3.892.678-4.04-2.027zm-22.832-.05c-.04-.76-.116-1.51-.108-2.19.028-2.698-.77-2.595 3.283-2.592.74 0 1.64.002 2.733-.007 5.932-.062 7.052-.39 7.32.456.147.186.297.37.427.58.054.087.014.273.017.414l-.362-.444c.017.234.028.516.057.853.026.3.05.627.07.98l.03.14a.654.654 0 0 1-.01.223l.02.632.014.038-.014-.008c.004.243.005.493 0 .746-.034 2.206.556 2.124-3.018 2.21-2.894.067-4.768.02-6.416-.002-4.65-.06-3.893.678-4.042-2.03" fill-rule="evenodd"/></g></svg>