<svg xmlns="http://www.w3.org/2000/svg" width="109.591" height="32.984" viewBox="0 0 109.5905 32.983529"><path d="M21.657 10.596c-.116.803-1.708.996-1.517 2.725.065.595-1.337 3.032-1.344 4.398-.91-.565-1.33-1.43-1.53-2.162-.473-1.73.057-1.448-1.453-3.065-1.397-1.492-3.37-2.81-4.533-3.157C8.225 8.42 7.02 5.55 1.395 4.218.248 3.946-.27 3.533.137 2.038.525.61 1.56-.827 1.86.572c.25 1.152 2.235 1.633 3.987 2.748 2.505 1.6 1.825 1.968 5.336 3.353 2.24.89 5.07 1.82 6.835 2.1 2.776.443.767-1.122 4.672-1.56.036-.005-.962 2.877-1.033 3.386zm48.84.098c1.52-.042 2.265-.517 4.09-.814.797-.128 1.623-.497 2.17-.702 2.237-.836 5.15-2.324 4.796-2.563-.333-.224-3.857.776-5.123.81-1.132.03-2.92.898-4.756 1.063-3.814.34-6.39.834-6.948 1.136-.33.177-.344.908.01 1.19 1.157.927 3.97-.073 5.762-.12zM27.315 30.53c1.606.956 2.55.884 4.56 1.73.878.374 1.877.482 2.522.6 2.63.482 6.038-.573 5.75-1.094-.27-.484-4.15-.415-5.482-1.21-1.197-.71-3.37-.857-5.35-1.87-4.11-2.114-6.816-4.298-6.533-3.367.15.503.352 1.094.624 1.67.876 1.87 2.018 2.417 3.91 3.54zm16.763-3.672l-.05-.003c-.096-.01-.198-.03-.317-.046.037-.026.054-.053.078-.052.114.02.227.045.34.068-.02.008-.027.03-.05.032zm-3.423-.332l-.388-.053c-.002-.017 0-.037.02-.04.062 0 .153.01.217.03.054.018.106.042.15.063zm-2.768-.46l-.022-.005.046.002-.182-.12.234.04c-.026.026-.053.05-.077.075l-.003.007zm-5.13-1.3a27.18 27.18 0 0 1-.756-.24.297.297 0 0 1 .127-.024c.13.01.344.078.48.133.087.033.102.086.148.134v-.002zm-9.624-5.363a2.847 2.847 0 0 1-.122-.185c.136.08.223.12.26.16.025.024-.033.04-.055.062l-.08-.036zm.052-2.742l.066-.063a.517.517 0 0 1 .067.024c.03.018-.008.045-.016.07l-.116-.03zm.568-.45l.14-.09c.033.02.063.034.092.05.052.03.03.067.038.1l-.27-.06zm12.174-.94c.32.042.64.088.96.14.144.118-.06.153-.252.168-.108.007-.37-.078-.408-.087-.192-.102-.287-.175-.3-.22zm17.994 8.1l.02.087-.02-.006c0-.035-.02-.065 0-.08zm-2.65 2.907c-.134.04-.274.08-.417.117-.014-.007-.02-.01-.023-.015-.01-.03-.002-.06.012-.08a4.128 4.128 0 0 0-.302-.1c-.063-.016-.083-.127-.052-.174.04-.053.146-.087.365.03l.418.22zm-26.12-8.002c.003-.006 0-.02.015-.02.016 0 .05.01.073.015-.004.008 0 .02-.016.022-.014.002-.05-.01-.07-.016zm2.775-3.142c-.008-.016-.02-.032-.028-.05 0 .015.003.03.008.045l.13.12.134.04c-.053-.014-.107-.03-.16-.046.146.03.29.063.435.09-.08.027-.14.08-.245.07a5.687 5.687 0 0 1-.746-.118c-.112-.023-.205-.097-.31-.15.12.022.253.036.357.067.516.165.255-.058.425-.068zm11.985 5.53l-.054-.02h.046l.008.02zm1.787-.4l-.03.014-.036-.026.07.014zm-7.677 3.203c.01.005.02.013.037.02-.012-.002-.023-.006-.037-.01-.01.03-.012.062-.016.092a.73.73 0 0 1 .084.01l-.075-.105.008-.006h.002zm.176-.803c.003-.01 0-.023.018-.023.017-.002.057.012.084.02-.006.007.003.024-.02.024-.013 0-.055-.015-.082-.02zm.957-3.52l.037.018-.032.002-.004-.02zm-9.203.504l.055.058-.107-.024c.025-.012.05-.018.08-.028-.076-.033-.17-.065-.208-.096-.054-.043-.108-.1-.072-.125.03-.02.188-.003.288-.003.04.046.107.098.105.14-.006.033-.088.052-.14.08zm10.237-3.33c-.013.003-.027.003-.043.003-.014-.014-.025-.03-.04-.045.024.008.05.012.07.02.013.006.01.01.013.022zm2.932 2.09c.015.01.032.023.052.03a4.24 4.24 0 0 0-.085-.018c.02-.005.04-.007.058-.01-.013-.014-.02-.03-.033-.046.002.013.008.028.007.04zm-15.565 1.39l.043.016-.04.004-.002-.017zm22.29-.864a1.744 1.744 0 0 1-.07-.017c.004-.008.002-.02.017-.02.015 0 .045.01.072.015-.005.01-.013.016-.018.023zm-4.022 5.575l.055.022-.05.003-.006-.026zm2.632-.12c.006-.008.005-.012.013-.022.022.007.056.012.068.02.008.004-.008.013-.013.018l-.07-.017zm-2.84-2.586c.03.008.052.013.074.02-.01.005-.013.014-.032.018-.017-.003-.047-.014-.075-.02.008-.005.024-.01.03-.018zm.488.26c-.037-.006-.104-.015-.11-.02-.022-.016-.017-.03-.02-.048.025.006.07.007.076.014a.26.26 0 0 1 .053.054zm-14.4-3.612a.144.144 0 0 0 .023-.023c.033.012.067.022.097.035-.014.002-.028.01-.055.007-.016 0-.045-.015-.066-.02zm-4.267 1.097l.13.034c-.032.01-.05.026-.085.03-.026 0-.084-.023-.125-.034.025-.012.052-.017.08-.03zm17.048 1.19c0-.003-.01-.022-.004-.025.05.005.1.013.15.02-.004.007.005.027-.005.024-.046 0-.093-.01-.14-.018zm-12.63-1.034c.015-.002.03-.012.04-.01.025.006.048.018.068.026-.023.003-.044.01-.07.015l-.038-.032zm.763.95a.07.07 0 0 1-.02-.028l.12.026c-.01.01-.013.02-.02.026-.026-.008-.054-.015-.08-.024zM40.7 24.99a.3.3 0 0 1 .052.004c.215.09.48.185.274.257l.02.006a.473.473 0 0 1-.074-.03c-.157-.075-.502-.14-.35-.23.01-.006.046-.007.078-.006zm1.33-.598c-.006-.018-.014-.036-.02-.056.03.008.08.015.085.018.012.02.015.04.023.062a.67.67 0 0 0-.09-.024zm8.71.72c.023.004.048.006.068.01-.01.008-.013.018-.027.017-.016 0-.047-.01-.068-.01.01-.007.014-.013.028-.018zm-6.97-2.524c-.007-.01-.02-.02-.013-.022.017-.002.043.002.066.004.007.006.022.018.015.016-.015.003-.042 0-.067-.002zm-2.062-.427a.05.05 0 0 0 .01-.027c.05.02.104.035.15.054.007.006-.013.017-.02.025l-.14-.052zm2.012.306c-.055-.005-.104-.016-.16-.022.005-.008-.005-.027.007-.027.047.005.096.01.144.02.007.007.008.02.01.03zm-1.485 1.38c-.002-.014-.004-.033-.008-.046.006.007.016.015.012.02-.007.01-.018.015-.03.02l.014.002-.014-.002c.13.065.26.132.392.197-.056.005-.108.008-.163.016-.067-.07-.135-.137-.206-.207zm4.17 2.576l-.07-.008.033-.012.036.02zm-9.848-2.67c.017 0 .04 0 .056-.003l.05.043c-.024-.004-.053-.005-.07-.01-.02-.008-.028-.02-.036-.03zm-.927-4.77c-.005-.027-.03-.055-.005-.055.05-.01.12.002.184.006.004.018.037.047.015.05-.045.007-.118.002-.195 0zm-8.024 2.6c.016-.015.04-.03.06-.043.045.024.12.043.135.064.02.015-.035.024-.06.036l-.135-.06zm5.407-.41c.044.01.086.02.13.035-.033.012-.063.027-.094.04-.043-.013-.11-.037-.11-.046 0-.014.05-.022.073-.03zm10.556.04c-.085-.015-.18-.027-.186-.032-.03-.027-.03-.054-.038-.08.052.004.14.015.154.02.038.03.046.06.07.09zm-9.98.207l-.152-.007c-.002-.017-.022-.042.002-.053.02-.005.09.005.14.01a.242.242 0 0 0 .01.05zm-5.2-3.655c.026 0 .047.004.072.004.004.013.014.03.024.046l-.12-.035c.01-.006.016-.012.025-.014zm12.865 6.557c.017-.024.02-.053.03-.05.082.012.16.032.24.05-.013.012-.016.038-.05.033-.063-.002-.136-.02-.22-.034zm-10.35-9.243c.046-.018.08-.035.134-.045.013 0 .09.026.136.042l-.08.06c-.05-.018-.103-.032-.19-.058zm-2.272 4.84c0-.025-.02-.065.006-.093.007-.008.13.017.197.025v.14c-.05-.015-.102-.036-.204-.07zm6.808-.504c-.104-.015-.215-.033-.32-.045-.007.004.003.028.004.058.08.01.16.018.232.028a.685.685 0 0 1 .103 0c-.002-.013-.018-.036-.02-.04zm5.705 2.733c-.122-.046-.233-.073-.246-.09-.018-.026.038-.044.08-.057.004 0 .132.034.147.048.027.027.01.05.018.1zm-5.586-5.897c.04-.016.072-.034.095-.03.086.015.166.045.25.07-.035.01-.067.037-.095.033-.086-.018-.162-.047-.25-.073zm5.924 6.263c-.082-.012-.167-.02-.24-.04-.027-.008-.03-.045-.042-.063.08.013.166.028.244.05.02.006.023.03.038.053zm1.743-.597c.075-.014.13-.038.177-.025.068.013.128.055.192.08-.04.01-.084.034-.12.027-.073-.016-.146-.047-.25-.083zM31.91 20c.045-.037.05-.074.09-.068.086.004.188.032.282.05-.005.024.013.066-.018.065-.085 0-.193-.023-.355-.045zm7.893.963c.05-.032.07-.055.115-.067.027-.01.1.006.15.012 0 .02.023.055-.01.066-.046.006-.137-.006-.255-.01zm-5.555 2.94c.128.037.198.058.27.077-.035.027-.05.063-.11.08-.02.004-.15-.037-.225-.055.022-.03.04-.06.066-.1zM29.33 19.67c.006-.038-.005-.09.022-.085.082.007.183.034.28.053-.02.024-.008.058-.052.07-.044.003-.148-.022-.25-.04zm21.533 5.196c-.106.024-.188.046-.283.062-.013.002-.085-.026-.13-.04.075-.027.146-.052.226-.076.006-.004.085.024.187.054zm-26.452-4.96c.073-.03.123-.067.145-.063.122.035.24.073.348.114.02.007-.045.058-.065.056a5.25 5.25 0 0 1-.427-.108zm2.54-2.492c.14.042.252.065.315.097.04.02.007.053.007.08-.1-.023-.212-.04-.295-.072-.035-.01-.014-.05-.027-.103zm-.61.943c.037-.05.066-.087.09-.126.065.02.184.044.184.05.015.046.003.088-.015.13-.002 0-.134-.026-.26-.053zm2.604 4.888c.05.026.115.05.15.072.058.038.097.08.14.117-.074-.02-.183-.038-.23-.064-.07-.037-.102-.082-.148-.12.03-.004.057-.004.088-.005zm19.23-.332c.03-.042.035-.086.057-.085.136.02.278.05.418.082.023.005.035.037.053.06l-.527-.06zM34.55 24.138c.193.07.315.112.405.16.03.012-.023.066-.04.063-.126-.023-.27-.048-.376-.087-.043-.014.002-.065.012-.134zm11.25.906l.036-.068c.13.05.267.098.392.15.01.004-.035.028-.06.04a11.66 11.66 0 0 1-.365-.12zm-14.754-1.257c-.04-.064-.07-.113-.108-.16.107.023.27.048.3.072.06.05.048.094.068.144-.08-.015-.163-.036-.26-.057zm3.614-1.844c.038-.063.057-.114.102-.154.01-.01.145.02.22.033-.007.052-.006.108-.036.156 0 .003-.133-.017-.288-.038zM24.447 17.79c.116.035.233.065.24.08.013.036-.02.067-.03.098-.1-.02-.198-.05-.293-.075.02-.03.046-.06.083-.104zm10.28 5.022c.092-.03.186-.062.284-.096.043.015.12.045.116.048-.06.05-.13.095-.196.14-.046-.02-.09-.038-.204-.09zm-8.703-3.622l.105-.05c.11.043.23.09.32.136.028.017-.02.043-.034.063-.125-.046-.242-.093-.394-.15zm9.255-.925c.11-.05.162-.084.246-.104.033-.005.147.02.222.035 0 .046.006.1-.01.142 0 .004-.13-.02-.46-.072zm-7.72 4.167a1.53 1.53 0 0 1 .168-.007c-.17-.106-.34-.206-.513-.31a.564.564 0 0 0-.07 0c.093.086.19.17.29.255l.126.063zm23.92-.57c.255.067.446.11.615.17.042.01.01.066.018.104-.186-.055-.38-.107-.56-.165-.04-.01-.034-.05-.073-.11zm-10.432 3.443c.173-.044.232-.076.332-.082.063-.003.188.04.283.06-.025.03-.018.076-.08.08-.107 0-.257-.026-.535-.057zm8.84-1.82c-.23-.058-.41-.08-.473-.12-.06-.035-.018-.088.02-.12.006-.007.237.03.286.06.08.044.092.094.17.18zm-17.136.107c-.085-.07-.175-.128-.217-.18-.022-.027.05-.046.073-.07.093.03.218.06.277.094.077.042.12.094.14.135.024.047.008.087.005.13-.1-.04-.2-.077-.28-.108zm7.398-3.863c.23.065.392.1.465.14.07.043.05.09.07.14-.13-.024-.325-.04-.37-.067-.088-.057-.096-.115-.165-.214zm-11.694-1.17c.14-.07.21-.117.317-.15a1.46 1.46 0 0 1 .28.076c.004.052.006.113-.077.134-.062.014-.254-.026-.52-.06zm20.93 2.16c.196.065.35.1.416.14.065.04.054.09.075.134-.157-.032-.338-.06-.46-.104-.06-.026-.018-.088-.03-.17zm-16.598 3.626c-.077-.067-.147-.122-.197-.18-.014-.015.01-.04.046-.04.027 0 .12.015.146.03.1.052.208.112.26.165.044.05.016.094.02.14l-.273-.113zm7.517-1.335c.018.063.03.11.047.158-.15-.04-.354-.077-.435-.126-.082-.047-.046-.104-.058-.162.14.04.278.083.445.13zm-3.07-4.487c-.26.037-.387.06-.53.072-.08.007-.19.003-.286-.015-.04-.006-.13-.074-.115-.09.023-.024.102-.05.185-.043.18.005.38.037.744.076zm.704 6.788c-.232-.034-.477-.064-.72-.11-.045-.012-.092-.08-.134-.12.082.013.203.016.24.034.206.1.35.112.5.07.03-.006.146.028.22.043-.025.024-.052.043-.106.083zm-4.33-3.72c.005.015.008.026.014.036.24.06.402.158.428.24l.19.04c-.005-.036.017-.08-.035-.1-.14-.062-.317-.116-.595-.216zm-6.17-2.986c.2.05.364.085.498.13.04.013.01.107-.034.102-.2-.016-.424-.055-.636-.085.045-.04.095-.08.173-.146zm23.834 3.64c.046-.06.037-.106.095-.114.287-.04.537.084.77.178.054.023.035.07.046.103-.277-.05-.557-.1-.912-.166zm-7.658-2.304c.347.13.594.215.816.31.035.016.005.08-.06.09-.167.023-.6-.114-.746-.24-.045-.036-.01-.072-.01-.16zM25.81 18.81c.08.085.13.138.173.192-.23-.037-.463-.072-.696-.11.03-.073.055-.154.08-.23.156.05.308.104.442.148zm1.143-.888c-.308-.017-.577-.03-.85-.05a.41.41 0 0 1-.162-.09c-.07-.132.597-.027.346-.217.077.02.177.035.227.06.145.075.282.153.407.23.038.027.027.056.033.067zm20.734 3.884c.16.11.362.224.456.332.047.05-.104.09-.168.137-.134-.06-.35-.125-.38-.17-.077-.108-.058-.203-.078-.3h.17zm-8.782 3.706c.27.15.55.298.805.45.056.03.07.097.025.1-.074.01-.22-.01-.32-.037-.59-.158-.8-.386-.485-.51l-.025-.004zm-9.96-9.948c.195.097.44.197.614.307.102.065.082.137.12.205-.275-.04-.558-.056-.822-.116-.218-.05-.29-.137-.162-.195.107-.05.157-.127.248-.2zm2.925 1.658c-.098.01-.19.023-.278.04.006.007.003.014.006.023.04.01.075.02.114.028.126-.016.257-.026.396-.028-.047-.025-.098-.052-.15-.077a.488.488 0 0 1-.087.015zm18.09 7.192c-.256-.086-.523-.146-.637-.218a.535.535 0 0 1-.24-.29c-.032-.103.206-.106.395-.014.257.127.427.266.605.405.037.028-.05.058-.123.118zm-12.512-6.908c-.128-.107-.253-.216-.382-.322.292.087.58.173.872.262.11.033.21.078.32.11.234.07.465.13.7.195-.242-.018-.544-.065-.72-.048-.368.04-.575-.046-.79-.196zm-7.62 2.43c.07-.017.133-.035.2-.052-.013-.007-.034-.013-.05-.02a.36.36 0 0 0-.144-.03c-.04 0-.078.015-.073.034.02.04.062.086.037.05.01.006.018.01.03.02zm2.96-1.607c-.282-.2-.532-.38-.77-.545a3.6 3.6 0 0 0-.39.11c.105.052.212.097.326.144.22.094.494.173.835.29zm8.442-1.155c-.19-.14-.322-.213-.358-.275-.033-.057.043-.1.068-.15.123.038.272.07.37.117.272.126.537.255.78.387.06.034.077.093.033.115a.697.697 0 0 1-.282-.01c-.258-.07-.505-.153-.61-.186zm-6.756 6.107c-.235-.116-.148-.288.15-.28.112.005.443.108.487.155.142.158.207.31.28.465.012.02-.056.045-.118.044a.853.853 0 0 1-.25-.054c-.195-.11-.37-.218-.548-.33zm3.673.965c.226-.02.363-.056.533-.037.25.024.438.057.414-.066-.01-.058.17-.09.306-.11.082-.013.248.017.38.03.002.035.03.078.007.107-.12.15-.26.293-.39.444-.014.014-.048.042-.06.038-.23-.05-.468-.098-.675-.165-.166-.055-.293-.134-.514-.24zm6.007-5.578c-.27-.217-.624-.416-.473-.587.03-.032.107-.05.164-.07.087.052.21.105.243.15.046.052-.01.097.01.15.024.047.055.112.15.153.5.22 1.024.433 1.54.65.075.03.224.055.242.077.072.073.13.15.12.214a1.82 1.82 0 0 1-.446-.05c-.533-.225-1.04-.458-1.55-.688zm-5.608 3.324a12.928 12.928 0 0 1-.983-.058c.03.027.06.05.09.076.217.176.585.16.885.19.437.05.502.01.183-.126-.065-.03-.124-.056-.175-.082zm-.888-1.007c-.068-.023-.148-.038-.225-.054-.008.027-.033.044-.016.066.07.1.157.205.233.306l.514-.057a1.8 1.8 0 0 0-.506-.263zm-4.45 1.396c.07.078.12.17.35.175.3.005.212-.09.04-.19-.13.005-.257.008-.39.015zm-1.094-1.21c.086.102.08.183.01.254.025.02.01.036-.05.047-.012.01-.03.02-.044.03.175.015.346.03.515.037-.044-.133-.214-.252-.433-.366zm3.03-.776c.237-.044.575-.04.593-.17-.03 0-.067.002-.1 0-.37-.014-.73-.025-1.115-.055.053.04.108.072.166.11.11.068.19.166.456.115zm-.628-.84a6.674 6.674 0 0 1-.352-.19l-.296-.157c-.034.048-.07.09-.09.144a.275.275 0 0 0-.01.1c.274.074.523.103.75.103zm5.82-.383c.003.002.01.003.01.003-.013-.054-.025-.11-.048-.162-.065-.173.476-.177.846-.027a6.43 6.43 0 0 1 .485-.047c-.037-.024-.08-.05-.132-.09-.314-.2-.502-.243-.98-.223-.148.005-.295.017-.457.004-.49-.033-.735.02-.687.168.044.133.44.296.964.375zm-10.243-2.882c-.018-.003-.036-.01-.056-.015-.298-.057-.682-.146-.873-.127a.483.483 0 0 0-.123.024c.353.044.702.08 1.053.118zm-.795 6.16l.024-.03c.007.004.01-.012.016-.02.68-.865-.336.87.233-.67l1.57-.054c.24-.646.465-.603.006-1.72l-.437.156c-.057.004-1.045-.267-1.618.378a14.186 14.186 0 0 0-.695-.46c-.052-.032-.196-.06-.3-.09-.022.033-.095.066-.053.1.093.078.25.155.376.233h.016c.144.09.288.178.447.265.03.015.085.026.14.038-.214.288-.355.73-.335 1.404l.18.14-.1-.06c-.002 0-.005.008-.007.01l.215.133.01.006.31.24zm24.46-.263c.62-.932.167-.347.11-.598-.036.045-.164.1-.118.13.038.028-.064.122-.062.144l.07.323zm-3.186.258c-.56 1.056-.254.388-.62.605.577-1.082.22-.352.62-.605zm1.453 4.08c-.825-.413-.55.08-.3-.998.398.527.295.028.3.998zm2.22-2.738c-.17.176-.266.312-.416.38l.015.01c.026.016-.022.04-.037.06l-.117-.03c-.248.033-.648-.068-1.48-.36l-.414-.234c-.035-.025-.085-.082-.125-.126l2.074-.064c.715.192.386.223.5.366zm-.043 1.805c.984.69.13.512.582.88.002 0 1.22.195 1.444.26-.54 1.643.158.897-2.555.032l.53-1.172zm1.758-.983c.336-1.71.06-.973.543-1.483l.758.055c-.415.98-.51.39-1.05 1.71.71.07.398-.047 1.092-.326-.343.676-.394.46-1.058 1.26l-1.21-.315c.596-.798.363-.322.926-.903zm6.72.98c.17.31.44-.5.065.656-.035-.05-.168-.11-.112-.136l-.034-.328c.004-.033.063-.12.08-.192zm4.743-2.098c-.087 1.186-.076.457-.325.803.093-1.22.055-.412.325-.803zm.992-2.202c-.922-.048-.472.29-.68-.795.58.322.283-.09.68.795zM60.88 25.08c.013.032.025.092.047.094l-.875.29-.126-1.514-.105-.998c.67.134.197-.01.61.19.058.028.212.12.263.15.384.244.193.13.366.285l-.18 1.502zM63.267 23c-.237.844-.247.906-.95.487.293-.478-.197-.15.344-.382.205-.09.39-.082.606-.106zm4.88 1.168l.133 1.22-1.258-.097c.406-.762.38-.79 1.125-1.123zm-4.21-1.192l.956.095c-.003 0 .12.453-.192.883-.29.395-.138.2-.693.262l-.072-1.24zm5.402-5.09c-.207.597-.106.742-1.835.87l-.475-.046c-.045-.008-.113-.042-.167-.065l1.872-.89c.736-.11.444.046.605.13zm.69 1.67c1.178.238.324.42.89.57.003.002 1.198-.31 1.426-.34.167 1.72.503.76-2.326 1.06l.01-1.29zm1.216-1.605c-.382-1.704-.34-.92-.104-1.578l.717-.256c.015 1.067-.31.562-.274 1.992.683-.222.346-.208.872-.74-.048.754-.18.582-.466 1.58l-1.235.2c.228-.97.205-.438.488-1.2zm-6.498.417c.673 1.045-.232-.87.21.743l1.564.185c.183.664.415.64-.137 1.714l-.42-.19c-.083-.013-2.134.384-1.862-2.028l.645-.424zM45.64 21.38c.338.152.11-.326-.004-.328-.187-.004-.66.026.004.327zm-17.804-6.292c.192-.294.397.53.118-.646-.04.047-.173.09-.123.127l-.054.323c0 .032.048.125.06.195zm4.55 2.482c.013-1.19-.038-.46-.255-.824l.004.027-.052-.007.024.016.025-.007c-.006 1.18.025.386.256.795zm13.023 2.915c.2-.34.24-.377.18-.51a.673.673 0 0 0 .263.026c.097-.006.14-.102.076-.136-.115-.054-.27-.097-.468-.158l-.053-.125-.028.1-.163-.05c.032.096.01.143.075.187l.034.023c-.18.468-.287.02.077.646zm.42 2.44c.37.61.503.618.978-.05.213-1.165.06-.11-.1-.568-1.027-.03-.828-.322-1.482.276.03.035.02.1.083.118l.52.224zM33.193 19.85c-.92-.034-.443-.335-.742.733.608-.27.278.117.743-.733zm-7.195-4.397c.017-.035.033-.092.06-.094l-.85-.36-.253 1.497-.185.99c.674-.08.19.024.62-.143a4.44 4.44 0 0 0 .276-.127c.277-.145.268-.145.296-.176l.167.028c-.015-.04 0-.07-.043-.09l-.033-.014-.055-1.51zm2.212 2.264c-.17-.86-.173-.924-.908-.564.25.5-.208.133.308.412.2.103.382.11.6.152zM47.536 19.8c.367-.594.36-.368.225-1.195-.007.006-.34.003-.48.528-.112.403-.064.536.142.65-.06.04-.107.084-.174.142.218.053.32.078.426.102.01-.06.042-.115.025-.175 0-.004-.09-.032-.164-.052zm-5.003-.696c-.813-.147-.798.01-1.065.99.707-.163.643-.218.926-.746l.703.155c-.05-.113-.03-.164-.104-.217a.927.927 0 0 0-.475-.16l.016-.022zm14.264 1.304c.03-.132.122-.358.06-.62-.138-.575.043-.223-.35-.51-.006.008-.497-.038-.263.812.282 1.058.544.323.553.318zM44.77 21.463c-.39-.478-.26-.295-.944-.437-.187 1.144-.423.91.227 1.056.46.102.532-.25.716-.62zm-11.608-4.5l.24-1.208-1.264-.01c.342.793.312.818 1.024 1.217zm-4.293.834l.96-.014c0-.003.162-.442-.115-.898-.255-.414-.12-.214-.672-.322l-.048.348-.2-.074c0 .09-.048.174-.256.217-.18.043.047.197.342.244l.057.006-.07.494zm19.815 9.777c.06-.4.246-1.254-.326-1.474-.854-.33.006-.076-.442.062l-.21 1.09.977.322zm-5.123-1.433l.815-1.92-.728-.31h.014c-.014-.03-.033-.057-.044-.088-.237-.09-.454-.177-.677-.26a.418.418 0 0 0-.088.02c.18.098.36.192.562.285.036.013.1.022.167.03-.174.854-.42 1.65-.022 2.243zm-9.725-2.824c-.04-.158-.065-.286-.106-.39l.052-.18-.186-.024c-.185-.17-.576-.275-1.52-.423l-.476.002c-.038.008-.115.035-.172.05l1.745 1.016v.004l.01.003.04.022c.72.172.445-.01.612-.084zm13.167 3.363c.515-1.232.584-1.99-.436-1.89-.177.277-.285.52-.332.735a.464.464 0 0 0-.18.008c-.084.03-.015.12-.014.15l.167.088c.002.438.306.728.794.91zm-4.035-4.337l.387-1.864c-.72-.462-.73-.53-1.327-.054.138.362.195.44.29.68l-.056.02.077.027.117.318c.277.794-.098.368.512.873zm5.19 2.513l.312-1.352-1.528-.274c-.033.34-.013.607.055.818l-.038-.015c-.015.038-.048.074-.035.117 0 .012.057.03.14.057.112.212.293.36.535.468a.616.616 0 0 0-.145-.016c-.243.023-.2.167.146.37.076.008.23.044.32.037.158-.01.02-.214-.215-.348.133.05.284.096.452.136zm-3.475 1.51l.864.642c.063-.613.095-.973.022-1.595-.103-.892-.043-.827-.73-1.06l-.157 2.014zM34.662 21.71c1.19-.136.356-.39.932-.498.003 0 1.166.413 1.393.46.308-1.7.563-.71-2.23-1.244l-.095 1.282zm1.077 1.702c-.52 1.664-.416.885-.233 1.565l.69.312c.075-.772-.093-.734-.134-1.194l.275.044c.01-.046-.005-.105-.008-.157-.075-.005-.2-.03-.22-.018-.03.02-.04.044-.052.068-.01-.17-.003-.404.034-.752.66.276.326.233.806.81.016-.76-.127-.595-.33-1.612l-1.217-.305c.147.988.17.458.388 1.238zM24.194 7.832c-.353.985-.323 2.6-.734 3.606-.345.853-1.14 1.108-1.37 1.91-.337 1.185-.202 2.184-.642 3.42-.248.686-1.03 1.616-1.277 2.306 4.052 4.232 12.282 7.356 21.864 8.932 5.436.896 11.31 1.293 17.105 1.116 4.812-.147 10.138-.065 14.398-1.687.67-.256 13.883-4.193 21.384-12.55 1.646-1.837 4.344-5.89 14.362-9.605 2.086-.772-6.795-4.703-16.865.883-9.572 5.313-22.78 9.273-33.378 8.924-12.247-.402-23.108-7.39-34.847-7.254zm56.633 12.2c1.295-.55 2.212-.91 3.227-1.642 1.63-1.18 2.39-1.27 4.183-1.925-.837 1.56-2.16 2.074-4.37 3.85-.334.272-.677.313-1.042.55-.63.407-1.06.48-1.73.482-.967.01-1.754.225-2.324-.366.787-.383 1.533-.728 2.056-.948" fill="#e62e1e" fill-rule="evenodd"/></svg>