<svg xmlns="http://www.w3.org/2000/svg" width="128" height="128" viewBox="0 0 128 128"><g transform="matrix(4.82642 0 0 -4.82642 -1.246 116.125)"><path d="M.34 21.122V.478h17.02v20.644H.34zm1.86-1.714h13.3V2.192H2.2v17.216z"/><path d="M4.948 17.344c-.554 0-1-.446-1-1v-4.57c0-.553.446-1 1-1h7.708c.554 0 1 .447 1 1v4.57c0 .554-.446 1-1 1H4.948zm1.42-1.68h5.127c.355 0 .64-.288.64-.642v-1.99a.637.637 0 0 0-.64-.638H6.367a.637.637 0 0 0-.64.64v1.988c0 .354.286.64.64.64z"/><rect ry=".133" rx=".133" transform="scale(1 -1)" y="-15.015" x="6.439" height="1.877" width="4.886"/><rect ry=".106" rx=".106" transform="scale(1 -1)" y="-8.996" x="4.013" height="1.747" width="3.689"/><rect ry=".085" rx=".085" transform="scale(1 -1)" y="-9.061" x="8.51" height="1.877" width="5.08"/><rect ry=".068" rx=".068" transform="scale(1 -1)" y="-5.825" x="4.142" height="1.747" width="9.449"/><path d="M20.358 21.122c-.182 0-.345-.146-.328-.325l.81-8.46c.016-.18.11-.324.247-.325l1.286-.01a.204.204 0 0 1-.063-.143L22.328.756a.26.26 0 0 1 .263-.26h1.74a.26.26 0 0 1 .262.26l-.03 11.102a.205.205 0 0 1-.06.14l1.137.012c.137.002.23.146.248.325l.81 8.46c.016.18-.148.325-.33.325zm2.006-1.99h2.097c.146 0 .272-.115.262-.26l-.33-4.483c-.01-.144-.087-.26-.197-.26h-1.588c-.11 0-.19.116-.2.26l-.305 4.483c-.01.144.117.26.262.26z"/></g></svg>