<svg xmlns="http://www.w3.org/2000/svg" width="90.224" height="79.815" viewBox="0 0 84.584859 74.826545"><path d="M70.985 0c-20.16.615-40.343.67-60.502.1-4.04-.24-10.747.83-9.31 6.43-1.98 4.35-.626 9.418-1.005 14.253C.2 26.42-.314 32.103.314 37.71c.34 1.388 2.092 1.725.086 2.335.547 3.06-1.044 5.916.253 9.4.908 1.818-.13 5 .223 5.82 3.476.455 2.4-3.578 2.087-4.792.806 1.603 2.184 5.625 3.584 1.834.996-1.443 3.17-1.702.95-.103.642 2.066 1.33 4.21-1.667 3.32-1.985 2.48-1.906 6.733-4.822 8.09-.476 2.35-.865 5.612.244 7.956 3.538 2.9 9.284 2.496 14.083 2.146 17.412.153 34.807 1.635 52.224.914 4.6-.115 9.46.14 13.793-1.556 4.13-3.277 2.57-9.05 2.986-13.59a905.27 905.27 0 0 0-.123-46.923c.114-4.628-.27-11.533-6.182-12.157-2.326-.436-4.702-.24-7.05-.403zM5.518 2.252c-.13 3.068-3.044.112 0 0zm.4.928c4.878 1.355-1.865 3.877 0 0zm65.588 2.55c.577.47-.855.76 0 0zm-32.545.114c.04 1.375-1.45-.277 0 0zm-27.274.01c3.09 1.183-4.28 1.138-.332.1l.216-.065.116-.036zM7.74 5.87c1.293 3.303-2.95.074 0 0zm41.403.44c2.91 1.01-.093 3.462 0 0zM50.3 7.665l.026.167-.027-.167zm-14.567-1.03c.12.88-.964-.19 0 0zm36.685.224c1.424 1.94 2.31 4.447 4.873 4.712 1.958 1.056-.556 6.612-.005 3.306-1.524-.237-2.64-.965-2.637-1.89-4.658.007-1.44-3.592-2.23-6.128zm4.338.642c1.458 3.007-3.66 2.35-1.274.215.423-.087.873-.022 1.274-.215zm-7.394.46c2.192.376-1.344 1.6 0 0zm-63.93.11c1.678 1.278-1.946.257 0 0zm5.28.022c3.22-1.2 3.543 3.066.365.896l-.283-.396-.08-.5zm-3.985.303c1.043.916-.48.977 0 0zm1.787.068c2.432 2.96-2.116 3.09 0 0zm23.856.867c.975.813-.404.71 0 0zm22.705.006c.332.03-.23.328 0 0zm15.21.045c.838.318-.506 1.245 0 0zm-19.7.244c1.257 3.537-3.937.893-.476.02l.474-.02zm5.898.623c.977.45-.854.256 0 0zm-44.06.16c3.783 2.527-4.226 1.358 0 0zm26.638.118c1.077 1.254-1.4.624 0 0zm32.68.558c-.44.957-.536.342 0 0zm-67.193.116c1.56 1.975-2.658.017 0 0zm4.73.044c4.482.142-.734 4.99 0 0zm42.628.202c.507.002-.226.452 0 0zm-3.778.213c.924.08 1.627 2.048.43.65l-.43-.65zm-15.353.042c.744 1.78-1.88.152 0 0zm21.63.507c.482-.235-.086.49 0 0zm15.583.308c.894.257-.67 1.026 0 0zm-55.75.435c1.69 3.532-3.767-.395 0 0zm22.865.063c1.24 3.674-3.72-.384 0 0zm1.857.262c1.003 1.367-1.413.746 0 0zm5.867.19c1.87 5.14-5.103-.06 0 0zm-12.74.485c.328.35-.458.065 0 0zm23.054.604c.716.24-.504.356 0 0zm-31.147.068c-.11 1.792-.906.307 0 0zM3.62 14.79c1.198 2.887-5.555 2.62-1.296.892l.6-.522.696-.37zm72.478.136c-1.166.732 1.013 2.683-1.023 2.85 3.434.087-3.584 1.46-.715-.324-1.163-1.364.184-2.852 1.738-2.526zm-24.162.07c.353.856-.902-.01 0 0zm-17.44.272c.632 1.735-1.923-.078 0 0zm-3.808.2c1.734 3.125-3.423.608 0 0zm9.39.49c.436.318-.497.16 0 0zm33.294.083c.45 1.142-1.328-.27 0 0zm-50.022.083c.454.774-.89-.215 0 0zm47.067.018c.108 1.517-1.87.124 0 0zm-5.81.23c3.168 1.987-1.642 2.837 0 0zm-42.12.67c.203.198-.26.04 0 0zm49.474.606c1.244-.573-.363.77 0 0zm-58.876.11c-2.033 1.444-.694 2.012.516 2.765-.994 1.296-.968 2.53-.228 3.154-2.427 2.3-3.3-1.413-2.994-2.74-3-2.58 1.045-2.416 2.706-3.178zm16.942.045c.79 1.476-1.156.412 0 0zm-2.047.442c.96 1.272-1.924.98 0 0zm-4.042.045c1.95 1.448-1.997.638 0 0zm-18.55.418c3.773 4.854-7.25 2.86-.545.25l.546-.25zm54.5.348c1.205.702-1.015.456 0 0zm-16.442.582c.64 1.197 4.038 2.728.773 1.526a3.622 3.622 0 0 1-.774-1.525zm-28.748.004c3.363 3.272 3.26 9.094-.05 12.27-3.696 1.62-.555 6.524-2.372 8.793-1.59-3.12-4.643-9.677.57-11.675.968-1.957-1.13-5.018 2.38-4.835 2.017-1.418-.77-2.918-.528-4.554zm45.88.092c.323.3-.462.19 0 0zm16.368.72c.304 3.36-2.9.33 0 0zm1.678.08c-.25 2.78-3.18-.223 0 0zm-52.364.732c.854.416-.788.473 0 0zm4.483.205c.466.022-.326.367 0 0zm48.45.018c-.888 2.706-3.574.997 0 0zm-71.76.17c1.212.49-1.17.49 0 0zm54.81.012c.51.682-.79.086 0 0zm13.435.68c1.838 1.494-2.144 1.426 0 0zm-45.517.138c1.033 3.012-3.116 3.423 0 0zm1.477.233c.8.91-1.366.37 0 0zm29.565.198c.384.337-.48.127 0 0zm11.443.22c1.957.438-1.886.545 0 0zm-63.797.077c2.45-.662-.302 2.253 0 0zm70.09.158c-1.296 2.077-3.044-.325 0 0zm-20.508.275c1.8 1.842-.54 4.76-.687 1.42.19-.494.5-.926.687-1.42zm16.3.114c.46.738-.782.315 0 0zm-52.956.19c.468.758-.82.078 0 0zm52.066.503c.883.392-1.64.467 0 0zm1.602.033c.926 1.497-1.76.29 0 0zm-47.322.696c.46.32-.45.306 0 0zm-23.54.11c3.957.423-1.362 2.1 0 0zm71.5.194c-.878 2.788-3.166.48 0 0zm-56.27.04c1.034 1.144-1.273.91 0 0zm17.417.663c2.955 3.274-3.822.01 0 0zm-8.445.33c1.62-.442.248 1.888 0 0zm38.597.01c1.84 3.622-3.783 3.513 0 0zm-15.7.37c2.583.552-.882 1.552 0 0zm-29.21.153c.204 1.006-.872-.097 0 0zm51.802.18c1.135 1.455-1.842-.513 0 0zm-55.225 1.05c.447 1.49-1.454 2.055 0 0zm9.38.114c1.603 1.475-2.686.774 0 0zm13.818.88c.73 3.15-2.967 2.805 0 0zm36.507.044c-.26.986 2.042.34-.25 1.48-2.035 1.14-.495-1.315.25-1.48zm-21.67.288c-.317.304-.252.242 0 0zm-34.832.285c-.537 2.64-1.122 3.308 0 0zm54.584.42c1.754 4.085-2.753.846 0 0zm-50 .008c.23.01-.17.202 0 0zm5.348.452c.106 2.918-3.12.604 0 0zm24.166.166c2.556-.618 4.034 4.608.76 2.246-2.09.316-2.528-1.144-.76-2.246zm22.45 1.043c.912 2.64-1.778 2.314 0 0zm-72.212.034c.85 2.21-1.545.95 0 0zm10.327.87c2.337 2.304-3.107 7.01-2 2.49-1.348-2.61-.05-2.334 2-2.49zm46.88.792c.034.313-.296-.204 0 0zm3.133.022c-1.338.994-.36 8.28-2.112 5.104-.012-1.805.03-4.44 2.112-5.104zm-49.654.037c.64.822-.943.838 0 0zm-8.682.027c1.212.192.356 1.17 0 0zm68.15.21c.534 1.258-1.31-.522 0 0zm1.35.765c3.245 2.456-4.027 2.154 0 0zm-25 .306c1.4 1.884-2.13 1.56 0 0zm-22.69.2c1.524.75-1.414.6 0 0zm43.546.037c.024 2.726-2.17.18 0 0zm-14.692.22c3.688 2.565-3.013 1.583 0 0zm-14.613.047c1.032 1.76-1.83 3.264-.195.727l.196-.727zm29.952.05c-.06.802-1.28.232 0 0zm-41.62.18c2.816.715-1.603 1.923 0 0zm-3.423.038c1.177.645-.89.41 0 0zm.712 1.014c.812 1.604-1.825.303 0 0zm1.656.22c1.544 1.595-2.32.566 0 0zm-12.466.163c.82 1.26-1.438.75 0 0zm-11.784.002c1.41.942-.336 1.958 0 0zm67.64.225c.688 1.762-2.017.357 0 0zm-41.612.25c.382.406-.532.084 0 0zm-3.942.447c.927 1.476-1.91.774 0 0zm-6.027.014c.708 2.355-2.638 1.46 0 0zm29.8.17c.358.09-.264.212 0 0zm13.452.298c.326.347-.46.07 0 0zm8.622.08c.69 1.406-1.6.753 0 0zm-46.902.084c.275.265-.348.064 0 0zm5.177.027c1.997-.834.226 1.36 0 0zm4.956.353c3.423 1.42-.527 3.52 0 0zm-6.397.002c2.543 3.17-4.89 3.397 0 0zm26.072.343c1.714 3.25-2.652 1.918 0 0zm-5.04.246c.726.54-.668.555 0 0zm20.103.198c.21.782-1.453.1 0 0zm-43.802.133c-.42.382-.502.457 0 0zm32.994.218c1.807 3.01-2.74 1.65 0 0zm-54.775.057c.574 3.78-3.256-.608 0 0zm12.416.27c.766 2.073-2.12 1.35 0 0zm55.068.033c1.117 2.023-2.985.803 0 0zm-61.833.04c.737 1.645 6.084 3.344 2.308 4.483-1.05-2.775-1.794-.92-2.286.822-2.257.833-2.364-1.586-.332-1.848.49-1.108-.62-2.45.31-3.456zm3.883.504c1.44.903-.448 1.913 0 0zm6.775.514c.875 1.364-1.67.175 0 0zm-.453 1.066c.948 1.978-1.822.653 0 0zm29.164.085c.942.78-1.188.72 0 0zm-50.96.273c1.71 3.47-3.787-.33 0 0zm64.14.04c.435 2.164-2.353-.28 0 0zm-55.498.255c1.33.984-.827 1.363 0 0zm15.5.08c.287.342-.42.078 0 0zm2.973.26c.424.115-.35.336 0 0zm-1.724.168c1.04 1.418-1.92.014 0 0zm24.873.572c.447.673-.635.188 0 0zm-7.354.412c2.75.634 1.245 5.62-.44 1.885-.567-.536-.547-1.868.44-1.885zm20.228.486c.832.457-.79.637 0 0zm-47.223.137c-1.19 1.236-1.61 8.195-3.44 4.186.09-1.914 1.458-3.9 3.44-4.187zm5.67.512c1.853 1.04-1.605.79 0 0zm-1.38.822c.593.597-.216.398 0 0zm12.807.3c2.613 2.422-4.14 1.148 0 0zm30.62 1.122c1.195 2.127-2.057 1.056 0 0zm-2.58.18c.29.253-.343.103 0 0zm-38.7.046c2.284 2.02-.572 1.874 0 0zm-12.65.082c3.73 1.974-4.704.486 0 0zm45.84 1.05c1.305 2.532-3.58 2.085 0 0zm-38.98.13c1.987 2.584-2.878 4.087-1.473.768.352-.452.907-.72 1.472-.767zm49.448.41c.358.44-.527.096 0 0zm-1.455.374c.34.478-.63.288 0 0zM25.872 51.89c.29 4.29-3.347.81 0 0zm-4 .064c.767.653-.955.5 0 0zm-6.622.863c1.826 2.3-3.024 1.28 0 0zm52.098.347c.298.878-.884-.1 0 0zm-50.38.346c.656 1.194-1.772-.29 0 0zm37.503.172c1.697 1.185-1.113.68 0 0zm10.103.518c1.443 1.528-1.214 1.804 0 0zm-53.324.656c1.796 1.074-3.926 3.934-1.025.7l.353-.33.67-.37zm51.97.064c3.198 1.68-2.103 2.473 0 0zM.293 56.026c-.91 2.32 1.08 4.02 1.115.926-.32-.39-.945-.39-1.115-.926zm46.44.11c.703.88-1.213.562 0 0zm-22.314.17c1.743 1.11-.645.687 0 0zm30.454.005c1.25 1.794-1.884.975 0 0zM40.844 57.8c.804 1.395-1.237.76 0 0zm14.592.654c1.33.96-1.24.812 0 0zm8.07.058c.762.2-.48.406 0 0zm-18.547.03c1.557 2.704-3.296 1.284 0 0zm-12.085.275c.455.53-.713-.01 0 0zm5.963.976c3.27 3.094-3.214 2.196 0 0zm-17.72.176c1.4 2.895-5.804 3.083-1.388.94.433-.352.84-.767 1.388-.94zm14.103.806c.313.287-.423.192 0 0zm-23.698.29c.354 1.417-1.66-.377 0 0zm17.885.114c1.487 1.188-1.203.258 0 0zm33.125.447c-.463.374-.492.397 0 0zm-12.89.975c1.713-.647.465 1.557 0 0zm-13.975.275c.067.34-.325-.197 0 0zm-30.942.198c2.336 2.304-3.11 7.012-2 2.488-1.35-2.608-.048-2.33 2-2.488zm54.12.527c.61 1.408-1.183-.03 0 0zm-9.64.016c.332.3-.43.008 0 0zm-26.23.463c4.272 3.524-6.076 4.674-1.854.746.618-.252 1.234-.504 1.855-.745zm33.008.618c.747.293-.53.32 0 0zm17.69 1.148c2.27 1.687-3.126 3.71-.608.715l.276-.338.332-.376zm-28.647.315c1.69 2.88-3.206 1.524 0 0zm-4.56.678c.225.29-.328.023 0 0z" fill="#f02618" fill-rule="evenodd"/></svg>