<svg xmlns="http://www.w3.org/2000/svg" width="90.2239" height="79.815" viewBox="0 0 84.584859 74.826545"><path d="M70.985 0C50.824.6147 30.6422.6706 10.4833.1014 6.444-.1396-.2638.9294 1.1726 6.5304c-1.98 4.3483-.6256 9.4174-1.005 14.252.0326 5.6367-.482 11.322.1463 16.9274.3396 1.3887 2.092 1.7248.0857 2.3353.5475 3.0612-1.044 5.9164.2533 9.3994.908 1.8183-.1303 5.0014.2234 5.822 3.476.4533 2.3986-3.579 2.0862-4.7937.8065 1.6038 2.1848 5.6253 3.584 1.8345.9965-1.4433 3.1695-1.7023.9496-.103.6432 2.0657 1.332 4.2102-1.6665 3.3193-1.985 2.4797-1.9056 6.7338-4.8215 8.0898-.4766 2.352-.8652 5.613.2434 7.957 3.5385 2.8983 9.2845 2.496 14.0838 2.1457 17.4114.1532 34.8065 1.6352 52.224.9136 4.6006-.1145 9.462.1403 13.7934-1.5554 4.1305-3.2768 2.5692-9.0492 2.9862-13.5898.3608-15.64.328-31.2877-.122-46.9234.1136-4.6286-.2688-11.5342-6.182-12.158C75.7094-.033 73.333.164 70.985 0zM5.518 2.252c-.1303 3.0678-3.0443.112 0 0zm.4005.9277c4.877 1.3555-1.8656 3.877 0 0zm65.588 2.5488c.5762.472-.8557.7618-.0002 0zm-32.545.1152c.0396 1.375-1.4506-.277 0 0zm-27.2755.01c3.0913 1.183-4.28 1.1388-.3322.1012l.216-.0658.1162-.0354zm-3.9472.0176c1.2942 3.3022-2.9483.0725 0 0zm41.4043.4375c2.9106 1.0112-.0927 3.4633 0 0zm1.1563 1.3575l.0266.167-.0267-.167zM35.733 6.637c.12.8777-.9643-.1917 0 0zm36.6855.2226c1.4236 1.9394 2.3086 4.4475 4.8726 4.7126 1.9572 1.0555-.5567 6.6122-.006 3.306-1.524-.2375-2.6406-.9656-2.6368-1.889-4.6584.006-1.4394-3.593-2.2298-6.1296zm4.338.6426c1.457 3.007-3.6613 2.3504-1.2743.215.423-.087.873-.0218 1.2742-.215zm-7.3947.459c2.1924.3767-1.3442 1.6017 0 0zM5.432 8.0706c1.678 1.2794-1.9463.2585 0 0zm5.2814.0234c3.2198-1.1988 3.542 3.0657.364.8958l-.284-.3963-.08-.4995zm-3.9863.3027c1.0425.916-.481.9778 0 0zm1.7872.0684c2.432 2.9613-2.116 3.09 0 0zm23.8554.8673c.9758.8128-.404.7087 0 0zm22.705.006c.332.0297-.2285.3275 0 0zm15.211.045c.8374.3173-.5063 1.2443 0 0zm-19.701.244c1.2577 3.537-3.9362.8923-.476.0204.1584-.007.3174-.0138.476-.0204zm5.8983.623c.9768.4512-.8545.256 0 0zm-44.0606.1602c3.7833 2.527-4.2255 1.3576 0 0zm26.6386.1172c1.0763 1.2548-1.4017.6244 0 0zm32.6778.5586c-.4394.9563-.5346.3418 0 0zm-67.1914.1153c1.5584 1.975-2.6582.0173 0 0zm4.7285.045c4.483.1416-.7334 4.99 0 0zm42.6288.201c.5074.002-.2255.4528 0 0zm-3.7773.213c.923.0784 1.6262 2.0477.4282.65l-.4283-.65zm-15.3536.041c.7437 1.782-1.8804.1524 0 0zm21.6288.5077c.4835-.234-.085.4893 0 0zm15.584.3086c.8945.2573-.6692 1.0262 0 0zm-55.75.4355c1.6916 3.5317-3.7666-.396 0 0zm22.8653.0625c1.2414 3.674-3.7187-.3836 0 0zm1.8575.2617c1.0032 1.367-1.413.7465 0 0zm5.8672.1914c1.8688 5.1392-5.1027-.062 0 0zm-12.7403.4845c.3285.3507-.4572.0645 0 0zm23.0547.6035c.7146.2386-.505.356 0 0zm-31.1483.0684c-.1085 1.7912-.906.3067 0 0zm-20.373.166c1.1983 2.886-5.5546 2.6177-1.2953.89l.5985-.5218.6966-.3682zm72.4785.1348c-1.166.7314 1.0126 2.6827-1.0232 2.8485 3.434.0883-3.5836 1.4616-.715-.323-1.163-1.364.1843-2.8516 1.7382-2.5255zm-24.1622.0684c.3535.857-.9017-.009 0 0zm-17.4394.2734c.6318 1.7354-1.9232-.078 0 0zm-3.8086.1992c1.7343 3.1257-3.4226.6084 0 0zm9.3906.4903c.4352.3186-.4974.1614 0 0zm33.293.084c.4496 1.1403-1.3276-.2708 0 0zm-50.0215.082c.454.7734-.8907-.2156 0 0zm47.0665.0176c.108 1.516-1.8697.1225 0 0zm-5.8105.2286c3.1693 1.987-1.641 2.8375 0 0zm-42.1192.6695c.2027.199-.2585.0404 0 0zm49.4746.6075c1.2424-.573-.364.7702 0 0zm-58.877.1094c-2.0334 1.4443-.6947 2.0122.515 2.765-.993 1.2955-.9673 2.5297-.227 3.1525-2.427 2.3005-3.2992-1.4126-2.995-2.74-3.0003-2.58 1.0456-2.415 2.707-3.1776zm16.9415.0448c.7906 1.475-1.156.4116 0 0zm-2.047.4414c.9607 1.2716-1.9226.9808 0 0zm-4.041.045c1.949 1.4475-1.997.6378 0 0zm-18.5488.4178c3.772 4.854-7.25 2.8587-.5458.2493l.5458-.2493zm54.498.3477c1.206.702-1.0138.456 0 0zm-16.4414.582c.6416 1.1978 4.0386 2.728.773 1.5268-.3754-.437-.6415-.9662-.773-1.5268zm-28.748.004c3.363 3.2737 3.261 9.095-.0505 12.2713-3.695 1.6208-.554 6.5235-2.3714 8.793-1.589-3.121-4.6426-9.6767.57-11.6746.9675-1.957-1.1304-5.0186 2.38-4.8354 2.0174-1.4178-.7704-2.9176-.5283-4.5543zm45.8808.0937c.3228.3003-.4623.1882 0 0zm16.3672.7207c.3046 3.359-2.8998.3294 0 0zm1.6777.0782c-.25 2.7823-3.179-.222 0 0zm-52.3632.7324c.854.416-.7884.4738 0 0zm4.4824.205c.466.0233-.3257.3682 0 0zm48.451.0196c-.889 2.7058-3.5743.997 0 0zm-71.7596.17c1.211.49-1.1698.489 0 0zm54.8087.0116c.5093.6818-.7912.086 0 0zm13.4355.6797c1.8383 1.4946-2.1442 1.4263 0 0zm-45.5176.1387c1.0326 3.012-3.117 3.4228 0 0zm1.4766.2324c.8.9104-1.3662.37 0 0zm29.5645.1973c.3846.337-.4806.127 0 0zm11.4433.2206c1.957.4378-1.8855.5444 0 0zm-63.797.0762c2.4495-.662-.3023 2.2528 0 0zm70.09.1582c-1.296 2.077-3.0442-.3255 0 0zm-20.5078.2754c1.8 1.842-.54 4.7585-.6867 1.4182.1898-.492.4998-.9247.6867-1.4182zm16.2988.1133c.461.7388-.781.3157 0 0zm-52.955.1894c.4684.759-.8208.079 0 0zm52.0663.504c.8826.3922-1.6418.467 0 0zm1.6016.0332c.926 1.497-1.7586.2898 0 0zm-47.3224.6953c.4602.3193-.4494.3065 0 0zm-23.539.1094c3.9562.424-1.3622 2.1002 0 0zm71.5.1952c-.8785 2.7873-3.1668.4807 0 0zm-56.2715.039c1.0348 1.1452-1.272.9118 0 0zm17.418.6642c2.9554 3.2728-3.8224.009 0 0zm-8.4453.328c1.6205-.4415.2484 1.889 0 0zm38.5977.01c1.84 3.6226-3.7826 3.5133 0 0zm-15.6992.3693c2.5826.5537-.8826 1.5537 0 0zm-29.211.1542c.205 1.0064-.8707-.0967 0 0zm51.8028.1796c1.1346 1.4558-1.8417-.5128 0 0zm-55.2246 1.0508c.447 1.4908-1.454 2.055 0 0zm9.379.1133c1.6032 1.4754-2.685.774 0 0zm13.8182.879c.731 3.1513-2.9664 2.8066 0 0zm36.5078.0448c-.2594.9855 2.0412.341-.249 1.4787-2.0366 1.1417-.4963-1.3143.249-1.4787zm-21.6718.287c-.316.3048-.251.2423 0 0zm-34.83.2853c-.5373 2.6407-1.1225 3.308 0 0zm54.584.42c1.7536 4.0853-2.754.846 0 0zm-50 .008c.2282.009-.1718.2013 0 0zm5.3475.451c.106 2.9187-3.1214.6043 0 0zm24.166.166c2.5564-.6178 4.034 4.6082.761 2.246-2.091.3163-2.529-1.1437-.761-2.246zm22.4513 1.043c.9105 2.6385-1.7796 2.3127 0 0zm-72.213.0333c.8506 2.2086-1.5454.9502 0 0zm10.3263.871c2.3375 2.3026-3.1068 7.0097-2.0004 2.488-1.3477-2.6076-.049-2.3327 2.0004-2.488zm46.879.7912c.0356.3128-.2945-.2042 0 0zm3.1347.0215c-1.3387.9945-.3608 8.2813-2.112 5.1043-.012-1.8047.0294-4.4386 2.112-5.1043zm-49.6543.037c.6395.8227-.943.8383 0 0zm-8.6817.0275c1.2115.1914.3556 1.1687 0 0zm68.1485.211c.535 1.2567-1.3093-.5228 0 0zm1.3515.7636c3.245 2.4566-4.0277 2.1542 0 0zm-25 .3066c1.3983 1.884-2.1314 1.56 0 0zm-22.6914.1992c1.525.7517-1.4126.599 0 0zm43.5468.037c.024 2.726-2.171.181 0 0zm-14.6914.2208c3.6876 2.5644-3.013 1.5825 0 0zm-14.6133.047c1.031 1.7602-1.8324 3.264-.196.7263l.196-.7264zm29.9513.0487c-.06.8025-1.279.2327 0 0zm-41.621.1818c2.817.7142-1.6024 1.922 0 0zm-3.422.037c1.1782.645-.89.4102 0 0zm.713 1.0137c.8114 1.6058-1.8255.3045 0 0zm1.6562.2227c1.543 1.5933-2.3216.5645 0 0zm-12.4668.162c.8218 1.2605-1.438.7502 0 0zm-11.7832.002c1.4082.9414-.336 1.958 0 0zm67.6386.2247c.6888 1.7622-2.0157.357 0 0zm-41.6112.25c.3823.4065-.5314.084 0 0zm-3.9414.4472c.9262 1.4756-1.9097.7742 0 0zm-6.0273.0137c.7082 2.3543-2.638 1.458 0 0zm29.8008.1698c.3576.0885-.265.2107 0 0zm13.4512.297c.3272.3476-.4578.0694 0 0zm8.623.08c.6905 1.4066-1.5985.753 0 0zm-46.9023.084c.2756.2656-.3474.064 0 0zm5.1777.0273c1.997-.833.2255 1.3596 0 0zm4.955.3536c3.4232 1.421-.5263 3.5202 0 0zm-6.3964.002c2.5432 3.1717-4.8886 3.397 0 0zm26.0723.3438c1.714 3.2483-2.6528 1.9172 0 0zm-5.039.246c.725.539-.6697.5545 0 0zm20.1015.1973c.2093.7818-1.454.0996 0 0zm-43.8027.1328c-.42.3826-.5024.4577 0 0zm32.9942.2188c1.8066 3.0094-2.7404 1.6498 0 0zM7.9868 40.36c.5746 3.7812-3.2558-.6076 0 0zm12.416.2714c.7665 2.0717-2.121 1.3472 0 0zm55.0684.0312c1.1158 2.0237-2.9864.8032 0 0zm-61.834.041c.7367 1.644 6.0834 3.3434 2.308 4.4826-1.0495-2.7754-1.794-.92-2.2863.8217-2.256.8333-2.363-1.5864-.331-1.848.49-1.1085-.6186-2.4494.3092-3.4564zm3.8828.504c1.4412.9026-.448 1.9124 0 0zm6.7754.5135c.8743 1.3632-1.6708.1738 0 0zm-.453 1.0646c.9476 1.9783-1.8222.6532 0 0zm29.164.086c.942.7792-1.1888.7187 0 0zm-50.959.2714c1.707 3.471-3.7886-.3297 0 0zm64.1386.041c.4346 2.163-2.3526-.282 0 0zm-55.498.254c1.3286.9838-.827 1.363 0 0zm15.5.08c.287.3418-.4196.0784 0 0zm2.9726.2598c.4235.1152-.3494.3366 0 0zm-1.7246.168c1.0398 1.4184-1.9196.014 0 0zm24.873.5722c.4483.6728-.6338.1885 0 0zm-7.3534.412c2.7495.6337 1.2458 5.6205-.4388 1.8848-.5675-.536-.548-1.868.4388-1.8847zm20.2285.4864c.8323.457-.7914.637 0 0zm-47.2226.1367c-1.192 1.2356-1.611 8.195-3.4414 4.1858.0886-1.9125 1.4578-3.8982 3.4414-4.1857zm5.668.512c1.8533 1.04-1.6046.7885 0 0zm-1.381.822c.5943.597-.215.3983 0 0zm12.8087.301c2.613 2.421-4.1414 1.147 0 0zm30.6193 1.121c1.1954 2.1277-2.0566 1.057 0 0zm-2.58.1816c.2903.252-.3422.1024 0 0zm-38.6993.045c2.284 2.02-.5722 1.8747 0 0zm-12.6504.082c3.7306 1.9748-4.7036.486 0 0zm45.8398 1.0507c1.3053 2.5317-3.5787 2.0845 0 0zm-38.9804.131c1.9884 2.583-2.8767 4.0857-1.4716.7662.352-.4517.9066-.72 1.4716-.7663zm49.4492.41c.3578.4382-.5275.0942 0 0zm-1.455.373c.3384.4777-.6295.2877 0 0zM25.8715 51.889c.289 4.291-3.3462.8096 0 0zm-4 .0645c.7673.6534-.9543.501 0 0zm-6.621.8633c1.8252 2.2992-3.0248 1.2803 0 0zm52.0975.3477c.2978.8778-.884-.0993 0 0zm-50.3788.3457c.6547 1.1934-1.773-.29 0 0zm37.502.172c1.6953 1.1847-1.1138.6804 0 0zm10.1016.5174c1.443 1.5282-1.2137 1.804 0 0zm-53.3243.6563c1.7972 1.074-3.9243 3.9338-1.0234.6995l.3532-.3295.6703-.37zm51.9727.0643c3.1972 1.6802-2.1043 2.4723 0 0zM.2915 56.0258c-.91 2.3203 1.0815 4.019 1.116.9265-.319-.3898-.9457-.3903-1.116-.9265zm46.4414.1093c.7016.882-1.214.5626 0 0zm-22.3145.172c1.7427 1.1094-.6453.686 0 0zm30.453.004c1.25 1.7932-1.8832.9736 0 0zm-14.0273 1.4902c.8037 1.394-1.2376.7578 0 0zm14.5918.6524c1.3297.959-1.2396.8124 0 0zm8.0703.0586c.762.201-.479.4054 0 0zm-18.5468.0293c1.5578 2.7048-3.296 1.2843 0 0zm-12.084.2754c.4548.53-.7134-.009 0 0zm5.963.9764c3.2706 3.0936-3.2146 2.196 0 0zm-17.7208.1758c1.399 2.8958-5.8034 3.0837-1.3877.9398.4326-.351.841-.7657 1.3877-.9398zm14.1035.8067c.3122.2872-.4244.1922 0 0zm-23.6992.289c.3537 1.4177-1.6605-.376 0 0zm17.8847.1152c1.4873 1.1878-1.2025.2578 0 0zm33.125.4472c-.4625.3734-.4915.3968 0 0zm-12.8906.9746c1.7136-.6468.4656 1.5567 0 0zm-13.9745.2754c.067.3382-.325-.1973 0 0zm-30.9414.1973c2.336 2.304-3.1102 7.012-2.001 2.4882-1.35-2.6082-.047-2.331 2.001-2.4883zm54.1212.5273c.609 1.4084-1.1837-.031 0 0zm-9.6426.0156c.334.3018-.4293.008 0 0zm-26.2285.463c4.2715 3.523-6.0762 4.6734-1.854.745.617-.2512 1.2332-.5038 1.854-.745zm33.008.617c.747.293-.5292.319 0 0zm17.6894 1.1486c2.2706 1.6863-3.1253 3.709-.6073.7147l.276-.3394.3314-.3754zm-28.6465.3144c1.69 2.8785-3.206 1.5238 0 0zm-4.5607.6777c.226.2886-.3274.023 0 0z" fill="#f02618" fill-rule="evenodd"/></svg>